<svg class="main-svg" xmlns="http://www.w3.org/2000/svg" xmlns:xlink="http://www.w3.org/1999/xlink" width="800" height="300" style="" viewBox="0 0 800 300"><rect x="0" y="0" width="800" height="300" style="fill: rgb(255, 255, 255); fill-opacity: 1;"/><defs id="defs-503d69"><g class="clips"><clipPath id="clip503d69xyplot" class="plotclip"><rect width="535" height="177"/></clipPath><clipPath class="axesclip" id="clip503d69x"><rect x="80" y="0" width="535" height="300"/></clipPath><clipPath class="axesclip" id="clip503d69y"><rect x="0" y="60" width="800" height="177"/></clipPath><clipPath class="axesclip" id="clip503d69xy"><rect x="80" y="60" width="535" height="177"/></clipPath></g><g class="gradients"/><g class="patterns"/></defs><g class="bglayer"/><g class="layer-below"><g class="imagelayer"/><g class="shapelayer"/></g><g class="cartesianlayer"><g class="subplot xy"><g class="layer-subplot"><g class="shapelayer"/><g class="imagelayer"/></g><g class="minor-gridlayer"><g class="x"/><g class="y"/></g><g class="gridlayer"><g class="x"><path class="xgrid crisp" transform="translate(110.5,0)" d="M0,60v177" style="stroke: rgb(255, 255, 255); stroke-opacity: 1; stroke-width: 1px;"/><path class="xgrid crisp" transform="translate(236.63,0)" d="M0,60v177" style="stroke: rgb(255, 255, 255); stroke-opacity: 1; stroke-width: 1px;"/><path class="xgrid crisp" transform="translate(488.88,0)" d="M0,60v177" style="stroke: rgb(255, 255, 255); stroke-opacity: 1; stroke-width: 1px;"/></g><g class="y"><path class="ygrid crisp" transform="translate(0,189.87)" d="M80,0h535" style="stroke: rgb(255, 255, 255); stroke-opacity: 1; stroke-width: 1px;"/><path class="ygrid crisp" transform="translate(0,146.47)" d="M80,0h535" style="stroke: rgb(255, 255, 255); stroke-opacity: 1; stroke-width: 1px;"/><path class="ygrid crisp" transform="translate(0,103.06)" d="M80,0h535" style="stroke: rgb(255, 255, 255); stroke-opacity: 1; stroke-width: 1px;"/></g></g><g class="zerolinelayer"><path class="xzl zl crisp" transform="translate(362.75,0)" d="M0,60v177" style="stroke: rgb(255, 255, 255); stroke-opacity: 1; stroke-width: 2px;"/><path class="yzl zl crisp" transform="translate(0,233.28)" d="M80,0h535" style="stroke: rgb(255, 255, 255); stroke-opacity: 1; stroke-width: 2px;"/></g><g class="layer-between"><g class="shapelayer"/><g class="imagelayer"/></g><path class="xlines-below"/><path class="ylines-below"/><g class="overlines-below"/><g class="xaxislayer-below"/><g class="yaxislayer-below"/><g class="overaxes-below"/><g class="overplot"><g class="xy" transform="translate(80,60)" clip-path="url(#clip503d69xyplot)"><g class="scatterlayer mlayer"><g class="trace scatter trace809961" style="stroke-miterlimit: 2; opacity: 1;"><g class="fills"/><g class="errorbars"/><g class="lines"><path class="js-line" d="M471.94,35.08L408.88,20.04L345.81,12.6L282.75,47.54L219.69,108.1L156.63,142.19L93.56,161.75L30.5,164.4" style="vector-effect: none; fill: none; stroke: rgb(0, 0, 0); stroke-opacity: 1; stroke-width: 4px; opacity: 1;"/></g><g class="points"><path class="point" transform="translate(471.94,35.08)" d="M3,0A3,3 0 1,1 0,-3A3,3 0 0,1 3,0Z" style="opacity: 1; stroke-width: 0px; fill: rgb(0, 0, 0); fill-opacity: 1;"/><path class="point" transform="translate(408.88,20.04)" d="M3,0A3,3 0 1,1 0,-3A3,3 0 0,1 3,0Z" style="opacity: 1; stroke-width: 0px; fill: rgb(0, 0, 0); fill-opacity: 1;"/><path class="point" transform="translate(345.81,12.6)" d="M3,0A3,3 0 1,1 0,-3A3,3 0 0,1 3,0Z" style="opacity: 1; stroke-width: 0px; fill: rgb(0, 0, 0); fill-opacity: 1;"/><path class="point" transform="translate(282.75,47.54)" d="M3,0A3,3 0 1,1 0,-3A3,3 0 0,1 3,0Z" style="opacity: 1; stroke-width: 0px; fill: rgb(0, 0, 0); fill-opacity: 1;"/><path class="point" transform="translate(219.69,108.1)" d="M3,0A3,3 0 1,1 0,-3A3,3 0 0,1 3,0Z" style="opacity: 1; stroke-width: 0px; fill: rgb(0, 0, 0); fill-opacity: 1;"/><path class="point" transform="translate(156.63,142.19)" d="M3,0A3,3 0 1,1 0,-3A3,3 0 0,1 3,0Z" style="opacity: 1; stroke-width: 0px; fill: rgb(0, 0, 0); fill-opacity: 1;"/><path class="point" transform="translate(93.56,161.75)" d="M3,0A3,3 0 1,1 0,-3A3,3 0 0,1 3,0Z" style="opacity: 1; stroke-width: 0px; fill: rgb(0, 0, 0); fill-opacity: 1;"/><path class="point" transform="translate(30.5,164.4)" d="M3,0A3,3 0 1,1 0,-3A3,3 0 0,1 3,0Z" style="opacity: 1; stroke-width: 0px; fill: rgb(0, 0, 0); fill-opacity: 1;"/></g><g class="text"/></g><g class="trace scatter tracee2480c" style="stroke-miterlimit: 2; opacity: 1;"><g class="fills"/><g class="errorbars"/><g class="lines"><path class="js-line" d="M30.5,153.75L109.33,153.1L125.09,152.45L156.63,150.71L172.39,147.89L188.16,145.07L203.92,140.73L219.69,136.39L235.45,126.62L251.22,116.85L266.98,97.32L282.75,77.78L298.52,69.1L314.28,60.42L330.05,54.99L345.81,49.57L361.58,47.4L377.34,45.23L393.11,46.31L408.88,47.4L424.64,49.57L471.94,56.08L487.7,59.34L503.47,62.59L519.23,64.76L535,66.93" style="vector-effect: none; fill: none; stroke: rgb(128, 128, 128); stroke-opacity: 1; stroke-dasharray: 9px, 9px; stroke-width: 2px; opacity: 1;"/></g><g class="points"/><g class="text"/></g></g></g></g><g class="zerolinelayer-above"/><path class="xlines-above crisp" d="M79.2,237.4H615" style="fill: none; stroke-width: 0.8px; stroke: rgb(0, 0, 0); stroke-opacity: 1;"/><path class="ylines-above crisp" d="M79.6,60V237" style="fill: none; stroke-width: 0.8px; stroke: rgb(0, 0, 0); stroke-opacity: 1;"/><g class="overlines-above"/><g class="xaxislayer-above"><path class="xtick ticks crisp" d="M0,237.8v4" transform="translate(110.5,0)" style="stroke: rgb(68, 68, 68); stroke-opacity: 1; stroke-width: 0.8px;"/><path class="xtick ticks crisp" d="M0,237.8v4" transform="translate(236.63,0)" style="stroke: rgb(68, 68, 68); stroke-opacity: 1; stroke-width: 0.8px;"/><path class="xtick ticks crisp" d="M0,237.8v4" transform="translate(362.75,0)" style="stroke: rgb(68, 68, 68); stroke-opacity: 1; stroke-width: 0.8px;"/><path class="xtick ticks crisp" d="M0,237.8v4" transform="translate(488.88,0)" style="stroke: rgb(68, 68, 68); stroke-opacity: 1; stroke-width: 0.8px;"/><path class="xtick ticks crisp" d="M0,237.8v4" transform="translate(615,0)" style="stroke: rgb(68, 68, 68); stroke-opacity: 1; stroke-width: 0.8px;"/><g class="xtick"><text text-anchor="middle" x="0" y="259.8" transform="translate(110.5,0)" style="font-family: 'Open Sans', verdana, arial, sans-serif; font-size: 15px; fill: rgb(42, 63, 95); fill-opacity: 1; white-space: pre;">−4</text></g><g class="xtick"><text text-anchor="middle" x="0" y="259.8" style="font-family: 'Open Sans', verdana, arial, sans-serif; font-size: 15px; fill: rgb(42, 63, 95); fill-opacity: 1; white-space: pre;" transform="translate(236.63,0)">−2</text></g><g class="xtick"><text text-anchor="middle" x="0" y="259.8" style="font-family: 'Open Sans', verdana, arial, sans-serif; font-size: 15px; fill: rgb(42, 63, 95); fill-opacity: 1; white-space: pre;" transform="translate(362.75,0)">0</text></g><g class="xtick"><text text-anchor="middle" x="0" y="259.8" style="font-family: 'Open Sans', verdana, arial, sans-serif; font-size: 15px; fill: rgb(42, 63, 95); fill-opacity: 1; white-space: pre;" transform="translate(488.88,0)">2</text></g><g class="xtick"><text text-anchor="middle" x="0" y="259.8" style="font-family: 'Open Sans', verdana, arial, sans-serif; font-size: 15px; fill: rgb(42, 63, 95); fill-opacity: 1; white-space: pre;" transform="translate(615,0)">4</text></g></g><g class="yaxislayer-above"><path class="ytick ticks crisp" d="M79.19999999999999,0h-4" transform="translate(0,233.28)" style="stroke: rgb(68, 68, 68); stroke-opacity: 1; stroke-width: 0.8px;"/><path class="ytick ticks crisp" d="M79.19999999999999,0h-4" transform="translate(0,189.87)" style="stroke: rgb(68, 68, 68); stroke-opacity: 1; stroke-width: 0.8px;"/><path class="ytick ticks crisp" d="M79.19999999999999,0h-4" transform="translate(0,146.47)" style="stroke: rgb(68, 68, 68); stroke-opacity: 1; stroke-width: 0.8px;"/><path class="ytick ticks crisp" d="M79.19999999999999,0h-4" transform="translate(0,103.06)" style="stroke: rgb(68, 68, 68); stroke-opacity: 1; stroke-width: 0.8px;"/><g class="ytick"><text text-anchor="end" x="72.19999999999999" y="5.25" transform="translate(0,233.28)" style="font-family: 'Open Sans', verdana, arial, sans-serif; font-size: 15px; fill: rgb(42, 63, 95); fill-opacity: 1; white-space: pre;">0</text></g><g class="ytick"><text text-anchor="end" x="72.19999999999999" y="5.25" style="font-family: 'Open Sans', verdana, arial, sans-serif; font-size: 15px; fill: rgb(42, 63, 95); fill-opacity: 1; white-space: pre;" transform="translate(0,189.87)">1</text></g><g class="ytick"><text text-anchor="end" x="72.19999999999999" y="5.25" style="font-family: 'Open Sans', verdana, arial, sans-serif; font-size: 15px; fill: rgb(42, 63, 95); fill-opacity: 1; white-space: pre;" transform="translate(0,146.47)">2</text></g><g class="ytick"><text text-anchor="end" x="72.19999999999999" y="5.25" style="font-family: 'Open Sans', verdana, arial, sans-serif; font-size: 15px; fill: rgb(42, 63, 95); fill-opacity: 1; white-space: pre;" transform="translate(0,103.06)">3</text></g></g><g class="overaxes-above"/></g></g><g class="polarlayer"/><g class="smithlayer"/><g class="ternarylayer"/><g class="geolayer"/><g class="funnelarealayer"/><g class="pielayer"/><g class="iciclelayer"/><g class="treemaplayer"/><g class="sunburstlayer"/><g class="glimages"/><defs id="topdefs-503d69"><g class="clips"/><clipPath id="legend503d69"><rect width="162" height="55" x="0" y="0"/></clipPath></defs><g class="layer-above"><g class="imagelayer"/><g class="shapelayer"/></g><g class="infolayer"><g class="legend" pointer-events="all" transform="translate(625.7,60)"><rect class="bg" shape-rendering="crispEdges" style="stroke: rgb(68, 68, 68); stroke-opacity: 1; fill: rgb(255, 255, 255); fill-opacity: 1; stroke-width: 0px;" width="162" height="55" x="0" y="0"/><g class="scrollbox" transform="" clip-path="url(#legend503d69)"><g class="groups"><g class="traces" transform="translate(0,16.25)" style="opacity: 1;"><text class="legendtext" text-anchor="start" x="40" y="5.85" style="font-family: 'Open Sans', verdana, arial, sans-serif; font-size: 15px; fill: rgb(42, 63, 95); fill-opacity: 1; white-space: pre;">Model</text><g class="layers" style="opacity: 1;"><g class="legendfill"/><g class="legendlines"><path class="js-line" d="M5,0h30" style="fill: none; stroke: rgb(0, 0, 0); stroke-opacity: 1; stroke-width: 4px;"/></g><g class="legendsymbols"><g class="legendpoints"><path class="scatterpts" transform="translate(20,0)" d="M3,0A3,3 0 1,1 0,-3A3,3 0 0,1 3,0Z" style="opacity: 1; stroke-width: 0px; fill: rgb(0, 0, 0); fill-opacity: 1;"/></g></g></g><rect class="legendtoggle" x="0" y="-11.25" width="156.765625" height="22.5" style="fill: rgb(0, 0, 0); fill-opacity: 0;"/></g><g class="traces" transform="translate(0,38.75)" style="opacity: 1;"><text class="legendtext" text-anchor="start" x="40" y="5.85" style="font-family: 'Open Sans', verdana, arial, sans-serif; font-size: 15px; fill: rgb(42, 63, 95); fill-opacity: 1; white-space: pre;">Santos et al 2022</text><g class="layers" style="opacity: 1;"><g class="legendfill"/><g class="legendlines"><path class="js-line" d="M5,0h30" style="fill: none; stroke: rgb(128, 128, 128); stroke-opacity: 1; stroke-dasharray: 9px, 9px; stroke-width: 2px;"/></g><g class="legendsymbols"><g class="legendpoints"/></g></g><rect class="legendtoggle" x="0" y="-11.25" width="156.765625" height="22.5" style="fill: rgb(0, 0, 0); fill-opacity: 0;"/></g></g></g><rect class="scrollbar" rx="20" ry="3" width="0" height="0" style="fill: rgb(128, 139, 164); fill-opacity: 1;" x="0" y="0"/></g><g class="g-gtitle"><text class="gtitle" x="400" y="30" text-anchor="middle" dy="0.7em" style="opacity: 1; font-family: 'Open Sans', verdana, arial, sans-serif; font-size: 21px; fill: rgb(42, 63, 95); fill-opacity: 1; white-space: pre;">Area substrate vs Δt</text></g><g class="g-xtitle"><text class="xtitle" x="347.5" y="287.8998046875" text-anchor="middle" style="opacity: 1; font-family: 'Open Sans', verdana, arial, sans-serif; font-size: 15px; fill: rgb(42, 63, 95); fill-opacity: 1; white-space: pre;">Δt (s)</text></g><g class="g-ytitle"><text class="ytitle" transform="rotate(-90,44.006445312500006,148.5)" x="44.006445312500006" y="148.5" text-anchor="middle" style="opacity: 1; font-family: 'Open Sans', verdana, arial, sans-serif; font-size: 15px; fill: rgb(42, 63, 95); fill-opacity: 1; white-space: pre;">Area substrate (µM·s)</text></g></g></svg>