<svg class="main-svg" xmlns="http://www.w3.org/2000/svg" xmlns:xlink="http://www.w3.org/1999/xlink" width="800" height="300" style="" viewBox="0 0 800 300"><rect x="0" y="0" width="800" height="300" style="fill: rgb(255, 255, 255); fill-opacity: 1;"/><defs id="defs-b94af7"><g class="clips"><clipPath id="clipb94af7xyplot" class="plotclip"><rect width="700" height="177"/></clipPath><clipPath class="axesclip" id="clipb94af7x"><rect x="80" y="0" width="700" height="300"/></clipPath><clipPath class="axesclip" id="clipb94af7y"><rect x="0" y="60" width="800" height="177"/></clipPath><clipPath class="axesclip" id="clipb94af7xy"><rect x="80" y="60" width="700" height="177"/></clipPath></g><g class="gradients"/><g class="patterns"/></defs><g class="bglayer"/><g class="layer-below"><g class="imagelayer"/><g class="shapelayer"/></g><g class="cartesianlayer"><g class="subplot xy"><g class="layer-subplot"><g class="shapelayer"/><g class="imagelayer"/></g><g class="minor-gridlayer"><g class="x"/><g class="y"/></g><g class="gridlayer"><g class="x"><path class="xgrid crisp" transform="translate(118.75,0)" d="M0,60v177" style="stroke: rgb(255, 255, 255); stroke-opacity: 1; stroke-width: 1px;"/><path class="xgrid crisp" transform="translate(196.56,0)" d="M0,60v177" style="stroke: rgb(255, 255, 255); stroke-opacity: 1; stroke-width: 1px;"/><path class="xgrid crisp" transform="translate(274.38,0)" d="M0,60v177" style="stroke: rgb(255, 255, 255); stroke-opacity: 1; stroke-width: 1px;"/><path class="xgrid crisp" transform="translate(352.19,0)" d="M0,60v177" style="stroke: rgb(255, 255, 255); stroke-opacity: 1; stroke-width: 1px;"/><path class="xgrid crisp" transform="translate(507.81,0)" d="M0,60v177" style="stroke: rgb(255, 255, 255); stroke-opacity: 1; stroke-width: 1px;"/><path class="xgrid crisp" transform="translate(585.63,0)" d="M0,60v177" style="stroke: rgb(255, 255, 255); stroke-opacity: 1; stroke-width: 1px;"/><path class="xgrid crisp" transform="translate(663.44,0)" d="M0,60v177" style="stroke: rgb(255, 255, 255); stroke-opacity: 1; stroke-width: 1px;"/><path class="xgrid crisp" transform="translate(741.25,0)" d="M0,60v177" style="stroke: rgb(255, 255, 255); stroke-opacity: 1; stroke-width: 1px;"/></g><g class="y"><path class="ygrid crisp" transform="translate(0,203.86)" d="M80,0h700" style="stroke: rgb(255, 255, 255); stroke-opacity: 1; stroke-width: 1px;"/><path class="ygrid crisp" transform="translate(0,166.2)" d="M80,0h700" style="stroke: rgb(255, 255, 255); stroke-opacity: 1; stroke-width: 1px;"/><path class="ygrid crisp" transform="translate(0,128.54000000000002)" d="M80,0h700" style="stroke: rgb(255, 255, 255); stroke-opacity: 1; stroke-width: 1px;"/><path class="ygrid crisp" transform="translate(0,90.88)" d="M80,0h700" style="stroke: rgb(255, 255, 255); stroke-opacity: 1; stroke-width: 1px;"/></g></g><g class="zerolinelayer"><path class="xzl zl crisp" transform="translate(430,0)" d="M0,60v177" style="stroke: rgb(255, 255, 255); stroke-opacity: 1; stroke-width: 2px;"/></g><g class="layer-between"><g class="shapelayer"/><g class="imagelayer"/></g><path class="xlines-below"/><path class="ylines-below"/><g class="overlines-below"/><g class="xaxislayer-below"/><g class="yaxislayer-below"/><g class="overaxes-below"/><g class="overplot"><g class="xy" transform="translate(80,60)" clip-path="url(#clipb94af7xyplot)"><g class="scatterlayer mlayer"><g class="trace scatter trace1d7a29" style="stroke-miterlimit: 2; opacity: 1;"><g class="fills"/><g class="errorbars"/><g class="lines"><path class="js-line" d="M661.25,52.19L583.44,27.13L505.63,12.6L427.81,50.36L350,117.79L272.19,147.92L194.38,159.44L116.56,163.98L38.75,164.4" style="vector-effect: none; fill: none; stroke: rgb(0, 0, 0); stroke-opacity: 1; stroke-width: 4px; opacity: 1;"/></g><g class="points"><path class="point" transform="translate(661.25,52.19)" d="M3,0A3,3 0 1,1 0,-3A3,3 0 0,1 3,0Z" style="opacity: 1; stroke-width: 0px; fill: rgb(0, 0, 0); fill-opacity: 1;"/><path class="point" transform="translate(583.44,27.13)" d="M3,0A3,3 0 1,1 0,-3A3,3 0 0,1 3,0Z" style="opacity: 1; stroke-width: 0px; fill: rgb(0, 0, 0); fill-opacity: 1;"/><path class="point" transform="translate(505.63,12.6)" d="M3,0A3,3 0 1,1 0,-3A3,3 0 0,1 3,0Z" style="opacity: 1; stroke-width: 0px; fill: rgb(0, 0, 0); fill-opacity: 1;"/><path class="point" transform="translate(427.81,50.36)" d="M3,0A3,3 0 1,1 0,-3A3,3 0 0,1 3,0Z" style="opacity: 1; stroke-width: 0px; fill: rgb(0, 0, 0); fill-opacity: 1;"/><path class="point" transform="translate(350,117.79)" d="M3,0A3,3 0 1,1 0,-3A3,3 0 0,1 3,0Z" style="opacity: 1; stroke-width: 0px; fill: rgb(0, 0, 0); fill-opacity: 1;"/><path class="point" transform="translate(272.19,147.92)" d="M3,0A3,3 0 1,1 0,-3A3,3 0 0,1 3,0Z" style="opacity: 1; stroke-width: 0px; fill: rgb(0, 0, 0); fill-opacity: 1;"/><path class="point" transform="translate(194.38,159.44)" d="M3,0A3,3 0 1,1 0,-3A3,3 0 0,1 3,0Z" style="opacity: 1; stroke-width: 0px; fill: rgb(0, 0, 0); fill-opacity: 1;"/><path class="point" transform="translate(116.56,163.98)" d="M3,0A3,3 0 1,1 0,-3A3,3 0 0,1 3,0Z" style="opacity: 1; stroke-width: 0px; fill: rgb(0, 0, 0); fill-opacity: 1;"/><path class="point" transform="translate(38.75,164.4)" d="M3,0A3,3 0 1,1 0,-3A3,3 0 0,1 3,0Z" style="opacity: 1; stroke-width: 0px; fill: rgb(0, 0, 0); fill-opacity: 1;"/></g><g class="text"/></g></g></g></g><g class="zerolinelayer-above"/><path class="xlines-above crisp" d="M79.2,237.4H780" style="fill: none; stroke-width: 0.8px; stroke: rgb(0, 0, 0); stroke-opacity: 1;"/><path class="ylines-above crisp" d="M79.6,60V237" style="fill: none; stroke-width: 0.8px; stroke: rgb(0, 0, 0); stroke-opacity: 1;"/><g class="overlines-above"/><g class="xaxislayer-above"><path class="xtick ticks crisp" d="M0,237.8v4" transform="translate(118.75,0)" style="stroke: rgb(68, 68, 68); stroke-opacity: 1; stroke-width: 0.8px;"/><path class="xtick ticks crisp" d="M0,237.8v4" transform="translate(196.56,0)" style="stroke: rgb(68, 68, 68); stroke-opacity: 1; stroke-width: 0.8px;"/><path class="xtick ticks crisp" d="M0,237.8v4" transform="translate(274.38,0)" style="stroke: rgb(68, 68, 68); stroke-opacity: 1; stroke-width: 0.8px;"/><path class="xtick ticks crisp" d="M0,237.8v4" transform="translate(352.19,0)" style="stroke: rgb(68, 68, 68); stroke-opacity: 1; stroke-width: 0.8px;"/><path class="xtick ticks crisp" d="M0,237.8v4" transform="translate(430,0)" style="stroke: rgb(68, 68, 68); stroke-opacity: 1; stroke-width: 0.8px;"/><path class="xtick ticks crisp" d="M0,237.8v4" transform="translate(507.81,0)" style="stroke: rgb(68, 68, 68); stroke-opacity: 1; stroke-width: 0.8px;"/><path class="xtick ticks crisp" d="M0,237.8v4" transform="translate(585.63,0)" style="stroke: rgb(68, 68, 68); stroke-opacity: 1; stroke-width: 0.8px;"/><path class="xtick ticks crisp" d="M0,237.8v4" transform="translate(663.44,0)" style="stroke: rgb(68, 68, 68); stroke-opacity: 1; stroke-width: 0.8px;"/><path class="xtick ticks crisp" d="M0,237.8v4" transform="translate(741.25,0)" style="stroke: rgb(68, 68, 68); stroke-opacity: 1; stroke-width: 0.8px;"/><g class="xtick"><text text-anchor="middle" x="0" y="259.8" transform="translate(118.75,0)" style="font-family: 'Open Sans', verdana, arial, sans-serif; font-size: 15px; fill: rgb(42, 63, 95); fill-opacity: 1; white-space: pre;">−4</text></g><g class="xtick"><text text-anchor="middle" x="0" y="259.8" style="font-family: 'Open Sans', verdana, arial, sans-serif; font-size: 15px; fill: rgb(42, 63, 95); fill-opacity: 1; white-space: pre;" transform="translate(196.56,0)">−3</text></g><g class="xtick"><text text-anchor="middle" x="0" y="259.8" style="font-family: 'Open Sans', verdana, arial, sans-serif; font-size: 15px; fill: rgb(42, 63, 95); fill-opacity: 1; white-space: pre;" transform="translate(274.38,0)">−2</text></g><g class="xtick"><text text-anchor="middle" x="0" y="259.8" style="font-family: 'Open Sans', verdana, arial, sans-serif; font-size: 15px; fill: rgb(42, 63, 95); fill-opacity: 1; white-space: pre;" transform="translate(352.19,0)">−1</text></g><g class="xtick"><text text-anchor="middle" x="0" y="259.8" style="font-family: 'Open Sans', verdana, arial, sans-serif; font-size: 15px; fill: rgb(42, 63, 95); fill-opacity: 1; white-space: pre;" transform="translate(430,0)">0</text></g><g class="xtick"><text text-anchor="middle" x="0" y="259.8" style="font-family: 'Open Sans', verdana, arial, sans-serif; font-size: 15px; fill: rgb(42, 63, 95); fill-opacity: 1; white-space: pre;" transform="translate(507.81,0)">1</text></g><g class="xtick"><text text-anchor="middle" x="0" y="259.8" style="font-family: 'Open Sans', verdana, arial, sans-serif; font-size: 15px; fill: rgb(42, 63, 95); fill-opacity: 1; white-space: pre;" transform="translate(585.63,0)">2</text></g><g class="xtick"><text text-anchor="middle" x="0" y="259.8" style="font-family: 'Open Sans', verdana, arial, sans-serif; font-size: 15px; fill: rgb(42, 63, 95); fill-opacity: 1; white-space: pre;" transform="translate(663.44,0)">3</text></g><g class="xtick"><text text-anchor="middle" x="0" y="259.8" style="font-family: 'Open Sans', verdana, arial, sans-serif; font-size: 15px; fill: rgb(42, 63, 95); fill-opacity: 1; white-space: pre;" transform="translate(741.25,0)">4</text></g></g><g class="yaxislayer-above"><path class="ytick ticks crisp" d="M79.19999999999999,0h-4" transform="translate(0,203.86)" style="stroke: rgb(68, 68, 68); stroke-opacity: 1; stroke-width: 0.8px;"/><path class="ytick ticks crisp" d="M79.19999999999999,0h-4" transform="translate(0,166.2)" style="stroke: rgb(68, 68, 68); stroke-opacity: 1; stroke-width: 0.8px;"/><path class="ytick ticks crisp" d="M79.19999999999999,0h-4" transform="translate(0,128.54000000000002)" style="stroke: rgb(68, 68, 68); stroke-opacity: 1; stroke-width: 0.8px;"/><path class="ytick ticks crisp" d="M79.19999999999999,0h-4" transform="translate(0,90.88)" style="stroke: rgb(68, 68, 68); stroke-opacity: 1; stroke-width: 0.8px;"/><g class="ytick"><text text-anchor="end" x="72.19999999999999" y="5.25" transform="translate(0,203.86)" style="font-family: 'Open Sans', verdana, arial, sans-serif; font-size: 15px; fill: rgb(42, 63, 95); fill-opacity: 1; white-space: pre;">0.2</text></g><g class="ytick"><text text-anchor="end" x="72.19999999999999" y="5.25" style="font-family: 'Open Sans', verdana, arial, sans-serif; font-size: 15px; fill: rgb(42, 63, 95); fill-opacity: 1; white-space: pre;" transform="translate(0,166.2)">0.3</text></g><g class="ytick"><text text-anchor="end" x="72.19999999999999" y="5.25" style="font-family: 'Open Sans', verdana, arial, sans-serif; font-size: 15px; fill: rgb(42, 63, 95); fill-opacity: 1; white-space: pre;" transform="translate(0,128.54000000000002)">0.4</text></g><g class="ytick"><text text-anchor="end" x="72.19999999999999" y="5.25" style="font-family: 'Open Sans', verdana, arial, sans-serif; font-size: 15px; fill: rgb(42, 63, 95); fill-opacity: 1; white-space: pre;" transform="translate(0,90.88)">0.5</text></g></g><g class="overaxes-above"/></g></g><g class="polarlayer"/><g class="smithlayer"/><g class="ternarylayer"/><g class="geolayer"/><g class="funnelarealayer"/><g class="pielayer"/><g class="iciclelayer"/><g class="treemaplayer"/><g class="sunburstlayer"/><g class="glimages"/><defs id="topdefs-b94af7"><g class="clips"/></defs><g class="layer-above"><g class="imagelayer"/><g class="shapelayer"/></g><g class="infolayer"><g class="g-gtitle"><text class="gtitle" x="400" y="30" text-anchor="middle" dy="0.7em" style="opacity: 1; font-family: 'Open Sans', verdana, arial, sans-serif; font-size: 21px; fill: rgb(42, 63, 95); fill-opacity: 1; white-space: pre;">Peak substrate vs Δt</text></g><g class="g-xtitle"><text class="xtitle" x="430" y="287.8998046875" text-anchor="middle" style="opacity: 1; font-family: 'Open Sans', verdana, arial, sans-serif; font-size: 15px; fill: rgb(42, 63, 95); fill-opacity: 1; white-space: pre;">Δt (s)</text></g><g class="g-ytitle"><text class="ytitle" transform="rotate(-90,31.490820312500006,148.5)" x="31.490820312500006" y="148.5" text-anchor="middle" style="opacity: 1; font-family: 'Open Sans', verdana, arial, sans-serif; font-size: 15px; fill: rgb(42, 63, 95); fill-opacity: 1; white-space: pre;">Peak substrate (µM)</text></g></g></svg>