<svg class="main-svg" xmlns="http://www.w3.org/2000/svg" xmlns:xlink="http://www.w3.org/1999/xlink" width="1200" height="800" style="" viewBox="0 0 1200 800"><rect x="0" y="0" width="1200" height="800" style="fill: rgb(255, 255, 255); fill-opacity: 1;"/><defs id="defs-b8cfa5"><g class="clips"><clipPath id="clipb8cfa5xyplot" class="plotclip"><rect width="767" height="589"/></clipPath><clipPath class="axesclip" id="clipb8cfa5x"><rect x="163" y="0" width="767" height="800"/></clipPath><clipPath class="axesclip" id="clipb8cfa5y"><rect x="0" y="100" width="1200" height="589"/></clipPath><clipPath class="axesclip" id="clipb8cfa5xy"><rect x="163" y="100" width="767" height="589"/></clipPath></g><g class="gradients"/><g class="patterns"/></defs><g class="bglayer"/><g class="layer-below"><g class="imagelayer"/><g class="shapelayer"/></g><g class="cartesianlayer"><g class="subplot xy"><g class="layer-subplot"><g class="shapelayer"/><g class="imagelayer"/></g><g class="minor-gridlayer"><g class="x"/><g class="y"/></g><g class="gridlayer"><g class="x"><path class="xgrid crisp" transform="translate(258.88,0)" d="M0,100v589" style="stroke: rgb(255, 255, 255); stroke-opacity: 1; stroke-width: 1px;"/><path class="xgrid crisp" transform="translate(354.75,0)" d="M0,100v589" style="stroke: rgb(255, 255, 255); stroke-opacity: 1; stroke-width: 1px;"/><path class="xgrid crisp" transform="translate(450.63,0)" d="M0,100v589" style="stroke: rgb(255, 255, 255); stroke-opacity: 1; stroke-width: 1px;"/><path class="xgrid crisp" transform="translate(546.5,0)" d="M0,100v589" style="stroke: rgb(255, 255, 255); stroke-opacity: 1; stroke-width: 1px;"/><path class="xgrid crisp" transform="translate(642.38,0)" d="M0,100v589" style="stroke: rgb(255, 255, 255); stroke-opacity: 1; stroke-width: 1px;"/><path class="xgrid crisp" transform="translate(738.25,0)" d="M0,100v589" style="stroke: rgb(255, 255, 255); stroke-opacity: 1; stroke-width: 1px;"/><path class="xgrid crisp" transform="translate(834.13,0)" d="M0,100v589" style="stroke: rgb(255, 255, 255); stroke-opacity: 1; stroke-width: 1px;"/></g><g class="y"><path class="ygrid crisp" transform="translate(0,562.5899999999999)" d="M163,0h767" style="stroke: rgb(255, 255, 255); stroke-opacity: 1; stroke-width: 1px;"/><path class="ygrid crisp" transform="translate(0,465.64)" d="M163,0h767" style="stroke: rgb(255, 255, 255); stroke-opacity: 1; stroke-width: 1px;"/><path class="ygrid crisp" transform="translate(0,368.68)" d="M163,0h767" style="stroke: rgb(255, 255, 255); stroke-opacity: 1; stroke-width: 1px;"/><path class="ygrid crisp" transform="translate(0,271.73)" d="M163,0h767" style="stroke: rgb(255, 255, 255); stroke-opacity: 1; stroke-width: 1px;"/><path class="ygrid crisp" transform="translate(0,174.76999999999998)" d="M163,0h767" style="stroke: rgb(255, 255, 255); stroke-opacity: 1; stroke-width: 1px;"/></g></g><g class="zerolinelayer"><path class="xzl zl crisp" transform="translate(163,0)" d="M0,100v589" style="stroke: rgb(255, 255, 255); stroke-opacity: 1; stroke-width: 2px;"/><path class="yzl zl crisp" transform="translate(0,659.55)" d="M163,0h767" style="stroke: rgb(255, 255, 255); stroke-opacity: 1; stroke-width: 2px;"/></g><g class="layer-between"><g class="shapelayer"/><g class="imagelayer"/></g><path class="xlines-below"/><path class="ylines-below"/><g class="overlines-below"/><g class="xaxislayer-below"/><g class="yaxislayer-below"/><g class="overaxes-below"/><g class="overplot"><g class="xy" transform="translate(163,100)" clip-path="url(#clipb8cfa5xyplot)"><g class="scatterlayer mlayer"><g class="trace scatter tracedda5fc" style="stroke-miterlimit: 2; opacity: 1;"><g class="fills"/><g class="errorbars"/><g class="lines"><path class="js-line" d="M0,558.97L1.74,559.54L1.74,559.54L1.75,559.54L21.97,559.55L21.97,559.55L21.98,559.55L193.28,558.55L193.28,558.55L193.28,558.54L205.66,549.89L205.66,549.89L205.67,549.89L218.11,545.71L218.11,545.71L218.12,545.71L225.86,544.43L225.86,544.43L225.87,544.43L243.54,543.61L243.54,543.61L243.55,543.61L266.64,544.61L266.64,544.61L266.64,544.62L307.06,547.63L307.06,547.63L307.06,547.64L365.33,551.54L365.33,551.54L365.33,551.55L443.15,554.81L443.15,554.81L443.16,554.81L490.72,556.19L490.72,556.19L490.73,556.19L563.49,557.19L563.49,557.19L563.49,557.2L740.41,558.2L740.41,558.2L740.42,558.21L767,558.3L767,558.3" style="vector-effect: none; fill: none; stroke: rgb(99, 110, 250); stroke-opacity: 1; stroke-width: 4px; opacity: 1;"/></g><g class="points"/><g class="text"/></g><g class="trace scatter trace8f2a93" style="stroke-miterlimit: 2; opacity: 1;"><g class="fills"/><g class="errorbars"/><g class="lines"><path class="js-line" d="M0,559.31L268.57,558.32L268.57,558.32L268.57,558.31L295.94,555.95L295.94,555.95L295.95,555.94L343.23,554.4L343.23,554.4L343.24,554.4L649.71,555.32L649.71,555.32L649.71,555.33L717.17,556.33L717.17,556.34L767,556.93L767,556.93" style="vector-effect: none; fill: none; stroke: rgb(239, 85, 59); stroke-opacity: 1; stroke-width: 4px; opacity: 1;"/></g><g class="points"/><g class="text"/></g><g class="trace scatter trace9a015e" style="stroke-miterlimit: 2; opacity: 1;"><g class="fills"/><g class="errorbars"/><g class="lines"><path class="js-line" d="M0,555.86L51.35,556.86L51.35,556.86L51.35,556.87L126.87,557.87L126.87,557.88L203.16,557.27L203.16,557.27L203.16,557.26L211.66,554.98L211.66,554.97L220.91,550.69L220.91,550.68L227.29,546L227.29,546L227.29,545.99L232.78,540.25L232.78,540.24L238.95,531.08L238.95,531.08L238.95,531.07L245.32,517.57L245.32,517.57L245.32,517.56L250.91,501.73L250.91,501.72L255.26,487.03L255.26,487.02L263.92,454.69L263.92,454.68L278.23,403.51L278.23,403.5L296.05,340.65L296.05,340.64L302.25,316.5L302.25,316.49L319.58,243.08L319.58,243.07L345.68,140.25L345.69,140.24L357.41,104.6L357.41,104.6L357.42,104.59L367.9,79L367.9,79L367.91,78.99L374.62,65.62L374.62,65.62L374.63,65.61L384.04,50.7L384.04,50.7L384.05,50.7L391.35,42.07L391.35,42.07L391.36,42.07L398.34,36.05L398.34,36.05L398.35,36.05L406.33,31.62L406.33,31.62L406.34,31.62L413.4,29.73L413.4,29.73L413.41,29.73L420.74,29.63L420.74,29.63L420.75,29.64L428.3,31.39L428.3,31.4L436.58,35.34L436.58,35.35L444.16,40.7L444.16,40.7L444.17,40.71L454.04,50L454.04,50L454.04,50.01L462.35,59.73L462.35,59.73L462.35,59.74L472.4,73.68L472.4,73.68L472.4,73.69L479.27,84.51L479.27,84.51L479.27,84.52L488.54,100.67L488.54,100.67L488.54,100.68L502.36,127.59L502.36,127.59L502.36,127.6L517.17,159.44L517.17,159.44L517.17,159.45L525.31,177.96L525.31,177.96L525.31,177.97L531.93,193.44L531.93,193.44L531.93,193.45L540.33,213.51L540.33,213.52L570.58,287.91L570.58,287.92L616.96,396.98L616.96,396.98L616.97,396.99L625.44,414.54L625.44,414.54L625.45,414.55L642.5,446.45L642.51,446.45L653.93,464.97L653.93,464.97L653.94,464.97L666.28,482.23L666.28,482.23L666.29,482.23L674.43,492.04L674.43,492.04L674.44,492.04L683.08,501.1L683.08,501.1L683.09,501.1L691.42,508.57L691.43,508.57L704.87,518.22L704.87,518.22L704.88,518.22L716.49,524.55L716.49,524.55L716.5,524.55L729.36,529.87L729.36,529.87L729.37,529.87L745.21,534.65L745.21,534.65L745.22,534.65L767,539.15L767,539.15" style="vector-effect: none; fill: none; stroke: rgb(0, 204, 150); stroke-opacity: 1; stroke-width: 4px; opacity: 1;"/></g><g class="points"/><g class="text"/></g></g></g></g><path class="xlines-above crisp" d="M0,0" style="fill: none;"/><path class="ylines-above crisp" d="M0,0" style="fill: none;"/><g class="overlines-above"/><g class="xaxislayer-above"><g class="xtick"><text text-anchor="middle" x="0" y="730" transform="translate(163,0)" style="font-family: 'Open Sans', verdana, arial, sans-serif; font-size: 40px; fill: rgb(42, 63, 95); fill-opacity: 1; white-space: pre; opacity: 1;">0</text></g><g class="xtick"><text text-anchor="middle" x="0" y="730" style="font-family: 'Open Sans', verdana, arial, sans-serif; font-size: 40px; fill: rgb(42, 63, 95); fill-opacity: 1; white-space: pre; opacity: 1;" transform="translate(258.88,0)">1</text></g><g class="xtick"><text text-anchor="middle" x="0" y="730" style="font-family: 'Open Sans', verdana, arial, sans-serif; font-size: 40px; fill: rgb(42, 63, 95); fill-opacity: 1; white-space: pre; opacity: 1;" transform="translate(354.75,0)">2</text></g><g class="xtick"><text text-anchor="middle" x="0" y="730" style="font-family: 'Open Sans', verdana, arial, sans-serif; font-size: 40px; fill: rgb(42, 63, 95); fill-opacity: 1; white-space: pre; opacity: 1;" transform="translate(450.63,0)">3</text></g><g class="xtick"><text text-anchor="middle" x="0" y="730" style="font-family: 'Open Sans', verdana, arial, sans-serif; font-size: 40px; fill: rgb(42, 63, 95); fill-opacity: 1; white-space: pre; opacity: 1;" transform="translate(546.5,0)">4</text></g><g class="xtick"><text text-anchor="middle" x="0" y="730" style="font-family: 'Open Sans', verdana, arial, sans-serif; font-size: 40px; fill: rgb(42, 63, 95); fill-opacity: 1; white-space: pre; opacity: 1;" transform="translate(642.38,0)">5</text></g><g class="xtick"><text text-anchor="middle" x="0" y="730" style="font-family: 'Open Sans', verdana, arial, sans-serif; font-size: 40px; fill: rgb(42, 63, 95); fill-opacity: 1; white-space: pre; opacity: 1;" transform="translate(738.25,0)">6</text></g><g class="xtick"><text text-anchor="middle" x="0" y="730" style="font-family: 'Open Sans', verdana, arial, sans-serif; font-size: 40px; fill: rgb(42, 63, 95); fill-opacity: 1; white-space: pre; opacity: 1;" transform="translate(834.13,0)">7</text></g><g class="xtick"><text text-anchor="middle" x="0" y="730" style="font-family: 'Open Sans', verdana, arial, sans-serif; font-size: 40px; fill: rgb(42, 63, 95); fill-opacity: 1; white-space: pre; opacity: 1;" transform="translate(930,0)">8</text></g></g><g class="yaxislayer-above"><g class="ytick"><text text-anchor="end" x="162" y="14" transform="translate(0,659.55)" style="font-family: 'Open Sans', verdana, arial, sans-serif; font-size: 40px; fill: rgb(42, 63, 95); fill-opacity: 1; white-space: pre; opacity: 1;">0</text></g><g class="ytick"><text text-anchor="end" x="162" y="14" style="font-family: 'Open Sans', verdana, arial, sans-serif; font-size: 40px; fill: rgb(42, 63, 95); fill-opacity: 1; white-space: pre; opacity: 1;" transform="translate(0,562.5899999999999)">0.001</text></g><g class="ytick"><text text-anchor="end" x="162" y="14" style="font-family: 'Open Sans', verdana, arial, sans-serif; font-size: 40px; fill: rgb(42, 63, 95); fill-opacity: 1; white-space: pre; opacity: 1;" transform="translate(0,465.64)">0.002</text></g><g class="ytick"><text text-anchor="end" x="162" y="14" style="font-family: 'Open Sans', verdana, arial, sans-serif; font-size: 40px; fill: rgb(42, 63, 95); fill-opacity: 1; white-space: pre; opacity: 1;" transform="translate(0,368.68)">0.003</text></g><g class="ytick"><text text-anchor="end" x="162" y="14" style="font-family: 'Open Sans', verdana, arial, sans-serif; font-size: 40px; fill: rgb(42, 63, 95); fill-opacity: 1; white-space: pre; opacity: 1;" transform="translate(0,271.73)">0.004</text></g><g class="ytick"><text text-anchor="end" x="162" y="14" style="font-family: 'Open Sans', verdana, arial, sans-serif; font-size: 40px; fill: rgb(42, 63, 95); fill-opacity: 1; white-space: pre; opacity: 1;" transform="translate(0,174.76999999999998)">0.005</text></g></g><g class="overaxes-above"/></g></g><g class="polarlayer"/><g class="smithlayer"/><g class="ternarylayer"/><g class="geolayer"/><g class="funnelarealayer"/><g class="pielayer"/><g class="iciclelayer"/><g class="treemaplayer"/><g class="sunburstlayer"/><g class="glimages"/><defs id="topdefs-b8cfa5"><g class="clips"/><clipPath id="legendb8cfa5"><rect width="243" height="214" x="0" y="0"/></clipPath></defs><g class="layer-above"><g class="imagelayer"/><g class="shapelayer"/></g><g class="infolayer"><g class="legend" pointer-events="all" transform="translate(945.34,100)"><rect class="bg" shape-rendering="crispEdges" width="243" height="214" x="0" y="0" style="stroke: rgb(68, 68, 68); stroke-opacity: 1; fill: rgb(255, 255, 255); fill-opacity: 1; stroke-width: 0px;"/><g class="scrollbox" transform="" clip-path="url(#legendb8cfa5)"><g class="groups"><g class="traces" transform="translate(0,39)" style="opacity: 1;"><text class="legendtext" text-anchor="start" x="40" y="19.5" style="font-family: 'Open Sans', verdana, arial, sans-serif; font-size: 50px; fill: rgb(42, 63, 95); fill-opacity: 1; white-space: pre;">D1R_DA</text><g class="layers" style="opacity: 1;"><g class="legendfill"/><g class="legendlines"><path class="js-line" d="M5,0h30" style="fill: none; stroke: rgb(99, 110, 250); stroke-opacity: 1; stroke-width: 4px;"/></g><g class="legendsymbols"><g class="legendpoints"/></g></g><rect class="legendtoggle" x="0" y="-34" width="237.953125" height="68" style="fill: rgb(0, 0, 0); fill-opacity: 0;"/></g><g class="traces" transform="translate(0,107)" style="opacity: 1;"><text class="legendtext" text-anchor="start" x="40" y="19.5" style="font-family: 'Open Sans', verdana, arial, sans-serif; font-size: 50px; fill: rgb(42, 63, 95); fill-opacity: 1; white-space: pre;">PKAc</text><g class="layers" style="opacity: 1;"><g class="legendfill"/><g class="legendlines"><path class="js-line" d="M5,0h30" style="fill: none; stroke: rgb(239, 85, 59); stroke-opacity: 1; stroke-width: 4px;"/></g><g class="legendsymbols"><g class="legendpoints"/></g></g><rect class="legendtoggle" x="0" y="-34" width="237.953125" height="68" style="fill: rgb(0, 0, 0); fill-opacity: 0;"/></g><g class="traces" transform="translate(0,175)" style="opacity: 1;"><text class="legendtext" text-anchor="start" x="40" y="19.5" style="font-family: 'Open Sans', verdana, arial, sans-serif; font-size: 50px; fill: rgb(42, 63, 95); fill-opacity: 1; white-space: pre;">cAMP</text><g class="layers" style="opacity: 1;"><g class="legendfill"/><g class="legendlines"><path class="js-line" d="M5,0h30" style="fill: none; stroke: rgb(0, 204, 150); stroke-opacity: 1; stroke-width: 4px;"/></g><g class="legendsymbols"><g class="legendpoints"/></g></g><rect class="legendtoggle" x="0" y="-34" width="237.953125" height="68" style="fill: rgb(0, 0, 0); fill-opacity: 0;"/></g></g></g><rect class="scrollbar" rx="20" ry="3" width="0" height="0" x="0" y="0" style="fill: rgb(128, 139, 164); fill-opacity: 1;"/></g><g class="g-gtitle"/><g class="g-xtitle"><text class="xtitle" x="546.5" y="787.5" text-anchor="middle" style="opacity: 1; font-family: 'Open Sans', verdana, arial, sans-serif; font-size: 50px; fill: rgb(42, 63, 95); fill-opacity: 1; white-space: pre;">Time (s)</text></g><g class="g-ytitle" transform="translate(15.109375,0)"><text class="ytitle" transform="rotate(-90,29.890625,394.5)" x="29.890625" y="394.5" text-anchor="middle" style="opacity: 1; font-family: 'Open Sans', verdana, arial, sans-serif; font-size: 50px; fill: rgb(42, 63, 95); fill-opacity: 1; white-space: pre;">Concentration (mM)</text></g></g></svg>