<svg class="main-svg" xmlns="http://www.w3.org/2000/svg" xmlns:xlink="http://www.w3.org/1999/xlink" width="2400" height="1600" style="" viewBox="0 0 1200 800"><rect x="0" y="0" width="1200" height="800" style="fill: rgb(255, 255, 255); fill-opacity: 1;"/><defs id="defs-5b5b7a"><g class="clips"><clipPath id="clip5b5b7axyplot" class="plotclip"><rect width="843" height="589"/></clipPath><clipPath id="clip5b5b7axy2plot" class="plotclip"><rect width="843" height="589"/></clipPath><clipPath class="axesclip" id="clip5b5b7ax"><rect x="131" y="0" width="843" height="800"/></clipPath><clipPath class="axesclip" id="clip5b5b7ay"><rect x="0" y="100" width="1200" height="589"/></clipPath><clipPath class="axesclip" id="clip5b5b7axy"><rect x="131" y="100" width="843" height="589"/></clipPath><clipPath class="axesclip" id="clip5b5b7ay2"><rect x="0" y="100" width="1200" height="589"/></clipPath><clipPath class="axesclip" id="clip5b5b7axy2"><rect x="131" y="100" width="843" height="589"/></clipPath></g><g class="gradients"/><g class="patterns"/></defs><g class="bglayer"/><g class="layer-below"><g class="imagelayer"/><g class="shapelayer"/></g><g class="cartesianlayer"><g class="subplot xy"><g class="layer-subplot"><g class="shapelayer"/><g class="imagelayer"/></g><g class="minor-gridlayer"><g class="x"/><g class="y"/><g class="y2"/></g><g class="gridlayer"><g class="x"><path class="xgrid crisp" transform="translate(341.75,0)" d="M0,100v589" style="stroke: rgb(255, 255, 255); stroke-opacity: 1; stroke-width: 1px;"/><path class="xgrid crisp" transform="translate(552.5,0)" d="M0,100v589" style="stroke: rgb(255, 255, 255); stroke-opacity: 1; stroke-width: 1px;"/><path class="xgrid crisp" transform="translate(763.25,0)" d="M0,100v589" style="stroke: rgb(255, 255, 255); stroke-opacity: 1; stroke-width: 1px;"/></g><g class="y"><path class="ygrid crisp" transform="translate(0,613.32)" d="M131,0h843" style="stroke: rgb(255, 255, 255); stroke-opacity: 1; stroke-width: 1px;"/><path class="ygrid crisp" transform="translate(0,521.4100000000001)" d="M131,0h843" style="stroke: rgb(255, 255, 255); stroke-opacity: 1; stroke-width: 1px;"/><path class="ygrid crisp" transform="translate(0,429.49)" d="M131,0h843" style="stroke: rgb(255, 255, 255); stroke-opacity: 1; stroke-width: 1px;"/><path class="ygrid crisp" transform="translate(0,337.58000000000004)" d="M131,0h843" style="stroke: rgb(255, 255, 255); stroke-opacity: 1; stroke-width: 1px;"/><path class="ygrid crisp" transform="translate(0,153.75)" d="M131,0h843" style="stroke: rgb(255, 255, 255); stroke-opacity: 1; stroke-width: 1px;"/></g><g class="y2"/></g><g class="zerolinelayer"><path class="xzl zl crisp" transform="translate(131,0)" d="M0,100v589" style="stroke: rgb(255, 255, 255); stroke-opacity: 1; stroke-width: 2px;"/><path class="yzl zl crisp" transform="translate(0,245.67)" d="M131,0h843" style="stroke: rgb(255, 255, 255); stroke-opacity: 1; stroke-width: 2px;"/><path class="y2zl zl crisp" transform="translate(0,689)" d="M131,0h843" style="stroke: rgb(255, 255, 255); stroke-opacity: 1; stroke-width: 2px;"/></g><g class="layer-between"><g class="shapelayer"/><g class="imagelayer"/></g><path class="xlines-below"/><path class="ylines-below"/><g class="overlines-below"><path class="xy2-x"/><path class="xy2-y"/></g><g class="xaxislayer-below"/><g class="yaxislayer-below"/><g class="overaxes-below"><g class="xy2-x"/><g class="xy2-y"/></g><g class="overplot"><g class="xy" transform="translate(131,100)" clip-path="url(#clip5b5b7axyplot)"><g class="scatterlayer mlayer"><g class="trace scatter trace733bb4" style="stroke-miterlimit: 2; opacity: 0.5;"><g class="fills"/><g class="errorbars"/><g class="lines"><path class="js-line" d="M0,540.9L1.71,558.45L1.72,558.45L3.56,559.47L3.56,559.47L3.57,559.47L14.39,559.55L14.39,559.55L14.4,559.55L21.07,559.55L21.07,559.55L21.08,556.92L22.08,471.5L22.09,471.44L24.33,441.45L24.34,441.42L28.08,413.94L28.09,413.92L31.4,385.31L31.4,385.26L32.09,351.68L32.09,351.21L32.2,299.45L32.21,295.33L32.26,31.78L32.65,507.17L33.21,469.44L33.22,469.31L34.22,451.97L34.23,451.96L38.04,440.79L38.05,440.79L43.43,419.79L43.43,419.77L46.62,402.89L46.62,402.88L48.6,382.12L48.6,382.06L49.18,344.52L49.18,343.82L49.31,31.12L49.69,507.01L50.18,473.69L50.19,473.53L51.19,452.2L51.2,452.19L53.84,444.05L53.85,444.04L58.59,428.36L58.59,428.35L62.89,407.03L62.89,407.02L64.83,392.25L64.83,392.22L65.8,371.65L65.8,371.52L66.18,30.92L66.57,507.21L66.8,492.35L66.81,492.13L67.81,453.66L67.82,453.64L69.87,446.26L69.88,446.26L75.4,428.43L75.4,428.41L79.56,407.66L79.56,407.64L81.53,392.7L81.53,392.67L82.51,371.89L82.51,371.76L82.79,338.12L82.79,337.16L82.9,30.7L83.28,507.37L83.79,472.57L83.8,472.42L84.8,452.09L84.81,452.08L87.31,444.26L87.32,444.26L92.47,426.73L92.47,426.72L96.24,407.53L96.24,407.52L98.14,392.94L98.14,392.91L99.13,372.13L99.13,372L99.41,339.3L99.41,338.4L99.52,30.37L99.91,507.5L100.41,472.61L100.42,472.46L101.42,452.11L101.43,452.1L104.1,443.81L104.11,443.8L108.66,428.6L108.66,428.58L112.7,408.31L112.7,408.29L114.68,393.31L114.68,393.28L115.69,372.22L115.7,372.09L116.08,30.18L116.47,507.6L116.7,492.78L116.71,492.56L117.71,453.72L117.72,453.7L119.78,446.26L119.78,446.26L119.79,446.25L125.61,426.88L125.61,426.86L129.33,407.86L129.33,407.84L131.35,391.93L131.35,391.89L132.26,370.86L132.26,370.72L132.53,333.3L132.53,332.11L132.62,30.1L133.01,507.68L133.53,471.9L133.54,471.76L134.54,452.11L134.55,452.09L137.21,443.86L137.21,443.86L137.22,443.85L141.74,428.72L141.74,428.71L145.77,408.48L145.77,408.46L147.75,393.5L147.75,393.47L148.74,373.6L148.75,373.48L149.16,30.02L149.55,507.75L149.75,495.25L149.76,495.03L150.76,454.03L150.77,454.01L152.36,447.79L152.37,447.78L158.68,426.99L158.68,426.98L162.43,407.86L162.43,407.85L164.98,383.47L164.98,383.41L165.58,347.19L165.58,346.57L165.72,30.02L166.1,507.81L166.58,474.32L166.59,474.16L167.59,452.37L167.6,452.36L170.27,444.06L170.28,444.06L174.84,428.82L174.84,428.81L178.91,408.41L178.91,408.4L180.9,393.38L180.9,393.35L181.91,372.25L181.91,372.12L182.19,339.4L182.19,338.49L182.3,29.88L182.68,507.86L183.19,472.69L183.2,472.54L184.2,452.29L184.21,452.28L186.69,444.57L186.69,444.57L186.7,444.56L191.42,428.9L191.42,428.89L195.54,408.3L195.54,408.28L197.53,393.26L197.53,393.23L198.5,373.59L198.5,373.47L198.8,342.56L198.8,341.78L198.92,29.94L199.3,507.91L199.8,473.29L199.81,473.14L200.81,452.38L200.82,452.37L203.46,444.24L203.47,444.23L208.06,428.92L208.06,428.91L212.21,408.2L212.21,408.18L214.2,393.15L214.2,393.12L215.2,372.12L215.2,371.99L215.58,29.75L215.97,507.95L216.2,492.91L216.21,492.69L217.21,453.94L217.22,453.92L219.25,446.69L219.26,446.68L225.14,427.19L225.14,427.18L229.01,407.58L229.01,407.56L230.91,392.97L230.91,392.94L231.89,372.24L231.89,372.11L232.17,338.45L232.17,337.5L232.25,239.09L232.25,222.82L232.28,29.77L232.67,507.98L233.25,468.73L233.26,468.61L234.26,452.07L234.27,452.06L238.1,440.82L238.11,440.81L243.09,421.03L243.09,421.02L247.15,395.68L247.15,395.65L248.06,382.25L248.06,382.19L248.57,352.34L248.57,351.87L248.73,29.58L249.12,507.94L249.57,475.98L249.58,475.82L250.58,452.29L250.59,452.28L253.3,443.33L253.31,443.33L258.54,422.95L258.54,422.93L261.49,403.12L261.49,403.09L262.67,387.8L262.67,387.75L263.36,350.96L263.36,350.43L263.51,29.45L263.89,507.44L264.36,474.17L264.37,474L265.37,449.61L265.38,449.59L268.84,433.19L268.85,433.18L271.93,412.72L271.93,412.69L273.6,386.07L273.6,385.98L274.08,347.76L274.09,347.09L274.22,30.8L274.6,504.34L275.09,469.49L275.1,469.32L276.1,441.35L276.11,441.32L280.7,385.39L280.7,385.29L281.16,343.69L281.16,342.88L281.25,260.92L281.25,250.27L281.29,36.88L281.68,498.96L282.25,460.39L282.26,460.25L283.26,433.67L283.27,433.64L285.71,404.7L285.72,404.66L286.95,359.05L286.95,358.67L287.15,40.53L287.54,496.47L287.95,469.26L287.96,469.08L288.96,433.59L288.97,433.55L291.11,407.23L291.12,407.19L292.5,361.14L292.5,360.79L292.72,42.07L293.11,496.22L293.5,470.03L293.51,469.84L294.51,433.04L294.52,433L297.93,359.31L297.94,358.93L298.14,42.44L298.53,496.39L298.94,468.77L298.95,468.58L299.95,432.47L299.96,432.42L303.27,361.81L303.27,361.48L303.5,42.42L303.88,496.47L304.27,470.46L304.28,470.27L305.28,432.71L305.29,432.67L308.62,359.34L308.62,358.96L308.83,42.45L309.21,496.5L309.62,468.92L309.63,468.73L310.63,432.34L310.64,432.3L313.94,359.5L313.94,359.13L314.14,42.26L314.53,496.52L314.94,468.8L314.95,468.62L315.95,432.34L315.96,432.3L319.25,359.74L319.25,359.37L319.46,42.41L319.85,496.53L320.25,469.29L320.26,469.1L321.26,432.4L321.27,432.36L324.56,359.52L324.57,359.14L324.77,42.23L325.16,496.53L325.57,468.61L325.58,468.42L326.58,432.28L326.59,432.24L329.87,359.68L329.87,359.31L330.01,316.56L330.01,314.3L330.08,42.38L330.47,496.54L331.01,460.11L331.02,459.95L332.02,430.32L332.03,430.29L335.21,355.44L335.21,354.98L335.39,42.2L335.78,496.55L336.21,466.95L336.22,466.77L337.22,431.9L337.23,431.86L340.47,361.93L340.47,361.6L340.69,42.21L341.08,496.55L341.47,470.29L341.48,470.1L342.48,432.6L342.49,432.56L345.8,357.6L345.8,357.19L345.93,310.85L345.93,308.11L346,42.17L346.07,313.19L346.08,317.91L346.39,496.56L347.08,452.02L347.09,451.9L348.09,428.23L348.1,428.19L351.07,361.85L351.08,361.51L351.3,42.36L351.69,496.56L352.08,469.85L352.09,469.66L353.09,432.54L353.1,432.49L356.39,359.75L356.39,359.38L356.6,42.36L356.99,496.57L357.39,469.28L357.4,469.09L358.4,432.36L358.41,432.32L361.69,359.56L361.69,359.19L361.9,42.15L362.28,496.57L362.69,469.18L362.7,468.99L363.7,432.34L363.71,432.3L366.99,359.57L366.99,359.19L367.19,42.14L367.58,496.58L367.99,468.99L368,468.8L369,432.29L369.01,432.25L372.28,359.78L372.28,359.41L372.42,316.99L372.42,314.77L372.49,42.3L372.88,496.58L373.42,460.28L373.43,460.12L374.43,430.3L374.44,430.26L377.59,357.52L377.6,357.1L377.79,42.18L378.18,496.58L378.6,467.63L378.61,467.45L379.61,432.03L379.62,431.99L382.87,359.77L382.87,359.4L383.01,316.92L383.01,314.69L383.08,42.31L383.47,496.59L384.01,460.27L384.02,460.11L385.02,430.29L385.03,430.25L388.18,357.62L388.18,357.21L388.31,310.9L388.31,308.17L388.38,42.11L388.77,496.59L389.31,459.87L389.32,459.72L390.32,430.19L390.33,430.15L393.48,357.27L393.48,356.85L393.67,42.13L394.06,496.59L394.48,467.7L394.49,467.52L395.49,432.04L395.5,432L398.75,359.57L398.75,359.2L398.89,315.72L398.89,313.39L398.96,42.1L399.35,496.59L399.89,460.18L399.9,460.03L400.9,430.26L400.91,430.22L404.06,357.46L404.06,357.04L404.25,42.27L404.64,496.6L405.06,467.97L405.07,467.78L406.07,432.09L406.08,432.05L409.32,361.99L409.32,361.66L409.54,42.1L409.93,496.6L410.32,470.11L410.33,469.92L411.33,432.57L411.34,432.53L414.64,357.64L414.64,357.23L414.83,42.09L415.22,496.6L415.64,468.05L415.65,467.86L416.65,432.11L416.66,432.07L419.91,359.92L419.91,359.55L420.05,317.72L420.05,315.56L420.12,42.09L420.51,496.6L421.05,460.17L421.06,460.01L422.06,430.29L422.07,430.25L425.22,357.48L425.22,357.06L425.41,42.22L425.8,496.6L426.22,467.98L426.23,467.79L427.23,432.09L427.24,432.05L430.49,359.64L430.49,359.26L430.63,316.07L430.63,313.77L430.7,42.1L431.09,496.61L431.63,460.05L431.64,459.89L432.64,430.26L432.65,430.22L435.79,357.84L435.79,357.43L435.92,312.21L435.92,309.59L435.99,42.31L436.06,304.39L436.06,310.5L436.38,496.61L437.17,447.79L437.18,447.69L439.24,413.94L439.25,413.9L441.07,359.85L441.07,359.48L441.28,42.15L441.66,496.61L442.07,468.93L442.08,468.74L443.08,432.3L443.09,432.26L446.36,359.5L446.36,359.13L446.56,42.11L446.95,496.61L447.36,468.75L447.37,468.56L448.37,432.26L448.38,432.22L451.64,359.85L451.64,359.48L451.78,317.3L451.78,315.1L451.85,42.14L452.24,496.61L452.78,460.13L452.79,459.98L453.79,430.24L453.8,430.2L456.94,357.85L456.94,357.45L457.07,312.27L457.07,309.65L457.14,42.28L457.53,496.61L458.07,459.95L458.08,459.79L459.08,430.19L459.09,430.16L462.24,355.6L462.24,355.14L462.36,305.91L462.36,302.7L462.42,42.12L462.53,355.95L462.53,359.24L462.81,496.61L463.58,448.82L463.59,448.71L464.59,427.24L464.6,427.21L467.49,361.65L467.49,361.31L467.71,42.09L468.1,496.61L468.49,469.9L468.5,469.71L469.5,432.51L469.51,432.47L472.79,359.71L472.79,359.34L472.99,42.18L473.38,496.61L473.79,468.86L473.8,468.67L474.8,432.28L474.81,432.24L478.07,359.87L478.07,359.5L478.21,317.4L478.21,315.21L478.28,42.11L478.67,496.62L479.21,460.14L479.22,459.98L480.22,430.27L480.23,430.24L483.38,355.54L483.39,355.09L483.57,42.06L483.96,496.62L484.39,466.96L484.4,466.78L485.4,431.81L485.41,431.77L488.63,361.83L488.63,361.49L488.85,42.19L489.24,496.62L489.63,470.19L489.64,470L490.64,432.53L490.65,432.49L493.93,359.8L493.93,359.43L494.14,42.24L494.52,496.62L494.93,469.08L494.94,468.9L495.94,432.29L495.95,432.24L499.2,361.94L499.2,361.6L499.42,42.14L499.81,496.62L500.2,470.06L500.21,469.87L501.21,432.54L501.22,432.5L504.5,359.87L504.5,359.5L504.71,42.1L505.09,496.62L505.5,468.94L505.51,468.75L506.51,432.29L506.52,432.25L509.78,359.88L509.78,359.51L509.92,317.46L509.92,315.27L509.99,42.09L510.38,496.62L510.92,460.14L510.93,459.99L511.93,430.27L511.94,430.24L515.09,355.84L515.09,355.39L515.22,304.44L515.22,301.07L515.28,42.1L515.66,496.62L516.22,459.21L516.23,459.06L517.23,430.05L517.24,430.01L520.37,357.52L520.37,357.1L520.56,42.14L520.95,496.62L521.37,467.8L521.38,467.61L522.38,432.04L522.39,432L525.63,359.8L525.64,359.43L525.84,42.23L526.23,496.62L526.64,468.9L526.65,468.71L527.65,432.24L527.66,432.2L530.92,359.74L530.92,359.37L531.13,42.22L531.52,496.62L531.92,469.25L531.93,469.06L532.93,432.32L532.94,432.28L536.2,359.67L536.21,359.3L536.41,42.09L536.8,496.62L537.21,468.64L537.22,468.46L538.22,432.23L538.23,432.18L541.47,362.04L541.47,361.7L541.7,42.04L542.08,496.62L542.47,470.51L542.48,470.31L543.48,432.6L543.49,432.56L546.79,357.54L546.79,357.12L546.98,42.11L547.37,496.62L547.79,467.81L547.8,467.62L548.8,432.04L548.81,432L552.05,359.76L552.06,359.39L552.26,42.25L552.65,496.62L553.06,468.87L553.07,468.69L554.07,432.24L554.08,432.19L557.32,362.08L557.32,361.75L557.46,325.42L557.47,323.78L557.55,42.06L557.93,496.62L558.47,460.51L558.48,460.35L559.48,430.36L559.49,430.32L562.64,357.57L562.64,357.15L562.83,42.08L563.22,496.62L563.64,468.01L563.65,467.82L564.65,432.04L564.66,432L567.89,361.86L567.89,361.52L568.11,42.25L568.5,496.62L568.89,470.4L568.9,470.21L569.9,432.57L569.91,432.53L573.19,359.62L573.19,359.25L573.33,315.91L573.33,313.6L573.4,42.05L573.79,496.62L574.33,460.03L574.34,459.88L575.34,430.21L575.35,430.17L578.49,357.51L578.49,357.1L578.68,42.14L579.07,496.62L579.49,467.98L579.5,467.8L580.5,432.08L580.51,432.04L583.76,359.69L583.76,359.32L583.96,42.11L584.35,496.62L584.76,469.03L584.77,468.84L585.77,432.27L585.78,432.23L589.04,359.9L589.04,359.53L589.25,42.07L589.64,496.62L590.04,469.14L590.05,468.95L591.05,432.34L591.06,432.29L594.32,359.74L594.33,359.37L594.53,42.2L594.92,496.62L595.33,468.68L595.34,468.49L596.34,432.23L596.35,432.19L599.61,359.57L599.61,359.2L599.82,42.04L600.2,496.62L600.61,468.97L600.62,468.78L601.62,432.3L601.63,432.26L604.89,359.77L604.89,359.4L605.1,42.27L605.49,496.62L605.89,469.26L605.9,469.07L606.9,432.32L606.91,432.28L610.17,359.96L610.17,359.59L610.31,317.9L610.31,315.75L610.38,42.04L610.77,496.62L611.31,460.18L611.32,460.02L612.32,430.28L612.33,430.24L615.47,357.86L615.47,357.45L615.67,42.27L616.05,496.62L616.47,468.32L616.48,468.14L617.48,432.11L617.49,432.07L620.74,359.6L620.74,359.23L620.88,315.79L620.88,313.47L620.95,42.04L621.34,496.62L621.88,460.02L621.89,459.87L622.89,430.24L622.9,430.2L626.04,357.45L626.04,357.03L626.23,42.27L626.62,496.62L627.04,467.95L627.05,467.77L628.05,432.07L628.06,432.03L631.31,359.6L631.31,359.22L631.52,42.04L631.9,496.62L632.31,468.98L632.32,468.79L633.32,432.26L633.33,432.22L636.59,359.78L636.59,359.4L636.8,42.29L637.19,496.62L637.59,469.26L637.6,469.07L638.6,432.32L638.61,432.28L641.87,359.95L641.87,359.58L642.01,317.85L642.01,315.69L642.08,42.04L642.47,496.62L643.01,460.17L643.02,460.02L644.02,430.28L644.03,430.24L647.17,357.83L647.17,357.42L647.36,42.25L647.75,496.62L648.17,468.13L648.18,467.94L649.18,432.11L649.19,432.07L652.44,359.56L652.44,359.19L652.57,317.74L652.58,315.58L652.65,42.04L653.04,496.62L653.58,460.01L653.59,459.85L654.59,430.2L654.6,430.16L657.74,357.4L657.74,356.98L657.93,42.2L658.32,496.62L658.74,467.93L658.75,467.74L659.75,432.07L659.76,432.02L662.99,362L662.99,361.66L663.21,42.06L663.6,496.62L663.99,470.29L664,470.1L665,432.59L665.01,432.55L668.29,359.72L668.29,359.34L668.5,42.15L668.88,496.62L669.29,469.04L669.3,468.85L670.3,432.31L670.31,432.27L673.57,359.89L673.57,359.52L673.71,317.49L673.71,315.31L673.78,42.08L674.17,496.62L674.71,460.14L674.72,459.99L675.72,430.27L675.73,430.23L678.87,357.76L678.87,357.35L679.06,42.11L679.45,496.62L679.87,468.09L679.88,467.91L680.88,432.1L680.89,432.06L684.14,359.87L684.14,359.5L684.35,42.1L684.73,496.62L685.14,469.12L685.15,468.93L686.15,432.29L686.16,432.25L689.42,359.68L689.42,359.3L689.56,316.24L689.56,313.96L689.63,42.09L690.02,496.62L690.56,460.05L690.57,459.9L691.57,430.25L691.58,430.21L694.72,357.53L694.72,357.11L694.91,42.13L695.3,496.62L695.72,468.17L695.73,467.99L696.73,432.08L696.74,432.04L699.99,359.66L699.99,359.29L700.2,42.07L700.58,496.62L700.99,469.01L701,468.82L702,432.31L702.01,432.27L705.27,359.84L705.27,359.47L705.48,42.14L705.87,496.62L706.27,469.3L706.28,469.11L707.28,432.33L707.29,432.29L710.55,359.66L710.56,359.28L710.76,42.07L711.15,496.62L711.56,468.82L711.57,468.63L712.57,432.22L712.58,432.18L715.84,359.84L715.84,359.47L716.05,42.14L716.43,496.62L716.84,469.11L716.85,468.92L717.85,432.29L717.86,432.24L721.1,362.11L721.1,361.77L721.25,323.88L721.25,322.14L721.33,42.08L721.72,496.62L722.25,460.68L722.26,460.52L723.26,430.4L723.27,430.36L726.42,357.54L726.42,357.12L726.61,42.11L727,496.62L727.42,467.99L727.43,467.81L728.43,432.08L728.44,432.04L731.69,359.69L731.69,359.32L731.9,42.11L732.28,496.62L732.69,469.03L732.7,468.84L733.7,432.31L733.71,432.27L736.97,359.9L736.97,359.53L737.18,42.07L737.57,496.63L737.97,469.32L737.98,469.13L738.98,432.34L738.99,432.29L742.25,359.74L742.26,359.37L742.46,42.2L742.85,496.62L743.26,468.87L743.27,468.68L744.27,432.23L744.28,432.19L747.54,359.59L747.54,359.21L747.75,42.04L748.14,496.63L748.54,468.98L748.55,468.79L749.55,432.3L749.56,432.26L752.82,359.81L752.82,359.44L752.96,317.05L752.96,314.83L753.03,42.2L753.42,496.63L753.96,460.11L753.97,459.96L754.97,430.23L754.98,430.19L758.12,357.74L758.12,357.33L758.31,42.09L758.7,496.63L759.12,468.09L759.13,467.9L760.13,432.1L760.14,432.06L763.39,359.55L763.39,359.17L763.6,42.05L763.99,496.63L764.39,469.15L764.4,468.96L765.4,432.3L765.41,432.26L768.67,359.8L768.67,359.43L768.81,316.98L768.81,314.76L768.88,42.22L769.27,496.63L769.81,460.11L769.82,459.95L770.82,430.26L770.83,430.23L773.98,355.62L773.98,355.17L774.11,302.83L774.11,299.29L774.16,42.11L774.55,496.63L775.11,459.14L775.12,458.99L776.12,430.03L776.13,429.99L779.25,357.65L779.26,357.24L779.45,42.04L779.84,496.63L780.26,467.68L780.27,467.49L781.27,432.01L781.28,431.97L784.51,361.97L784.51,361.63L784.73,42.09L785.12,496.63L785.51,470.27L785.52,470.08L786.52,432.55L786.53,432.51L789.82,357.48L789.83,357.06L790.02,42.2L790.41,496.63L790.83,467.6L790.84,467.41L791.84,431.99L791.85,431.95L795.08,361.85L795.08,361.52L795.3,42.23L795.69,496.63L796.08,470.01L796.09,469.82L797.09,432.53L797.1,432.49L800.38,359.71L800.38,359.34L800.58,42.14L800.97,496.63L801.38,468.85L801.39,468.66L802.39,432.28L802.4,432.23L805.64,362.12L805.64,361.79L805.79,323.94L805.79,322.21L805.87,42.09L806.26,496.63L806.79,460.69L806.8,460.53L807.8,430.37L807.81,430.33L810.96,357.73L810.96,357.32L811.15,42.08L811.54,496.63L811.96,468.08L811.97,467.9L812.97,432.11L812.98,432.06L816.21,362.11L816.21,361.78L816.36,323.93L816.36,322.19L816.44,42.09L816.83,496.63L817.36,460.53L817.37,460.37L818.37,430.37L818.38,430.33L821.53,357.77L821.53,357.36L821.72,42.13L822.11,496.63L822.53,468.1L822.54,467.92L823.54,432.11L823.55,432.07L826.8,359.75L826.8,359.38L827.01,42.22L827.4,496.63L827.8,469.06L827.81,468.87L828.81,432.33L828.82,432.28L832.09,359.44L832.09,359.07L832.29,42.19L832.68,496.63L833.09,468.72L833.1,468.53L834.1,432.25L834.11,432.21L837.37,359.9L837.37,359.53L837.58,42.06L837.97,496.63L838.37,469.14L838.38,468.95L839.38,432.34L839.39,432.3L842.65,360.01L842.65,359.65L842.79,318.21L842.79,316.08L842.86,42.06L843,390.29" style="vector-effect: none; fill: none; stroke: rgb(255, 0, 0); stroke-opacity: 1; stroke-width: 4px; opacity: 1;"/></g><g class="points"/><g class="text"/></g><g class="trace scatter tracecba26f" style="stroke-miterlimit: 2; opacity: 0.5;"><g class="fills"/><g class="errorbars"/><g class="lines"><path class="js-line" d="M0,540.9L1.71,558.45L1.72,558.45L3.56,559.47L3.56,559.47L3.57,559.47L14.39,559.55L14.39,559.55L14.4,559.55L21.07,559.55L21.07,559.55L21.08,556.92L22.08,471.5L22.09,471.44L24.33,441.43L24.34,441.41L28.09,413.83L28.1,413.81L31.38,385.39L31.38,385.34L32.11,344.51L32.11,343.82L32.24,31.73L32.62,507.16L33.11,473.89L33.12,473.74L34.12,452.31L34.13,452.3L36.79,444.05L36.8,444.05L41.49,428.48L41.49,428.47L45.99,406.36L45.99,406.35L47.92,391.61L47.92,391.58L48.88,370.1L48.88,369.96L49.23,31.26L49.62,507L49.88,489.82L49.89,489.6L50.89,453.44L50.9,453.42L53.01,446L53.02,445.99L58.48,428.34L58.48,428.33L62.68,407.43L62.68,407.41L64.64,392.53L64.64,392.5L65.62,371.81L65.62,371.68L66,31.02L66.39,507.19L66.62,492.51L66.63,492.29L67.63,453.61L67.64,453.59L69.26,447.39L69.27,447.38L76.92,420.22L76.92,420.21L81.04,394.57L81.04,394.54L82.2,370.93L82.2,370.78L82.46,335.62L82.47,334.55L82.57,30.56L82.95,507.33L83.47,471.99L83.48,471.84L84.48,451.91L84.49,451.9L87.19,443.46L87.2,443.46L92.06,426.68L92.06,426.67L95.66,408.15L95.66,408.13L97.57,393.49L97.57,393.46L98.58,372.37L98.59,372.24L98.98,30.37L99.36,507.44L99.59,492.89L99.6,492.67L100.6,453.57L100.61,453.55L102.24,447.23L102.24,447.23L102.25,447.22L109.73,420.45L109.73,420.44L113.67,395.69L113.67,395.66L114.87,372.66L114.87,372.53L115.16,339.2L115.16,338.29L115.27,30.39L115.65,507.52L116.16,472.64L116.17,472.49L117.17,451.9L117.18,451.89L119.93,443.2L119.94,443.19L124.26,428.58L124.26,428.56L128.03,409.37L128.03,409.35L130.01,394.36L130.01,394.33L131.05,374.01L131.05,373.89L131.47,30.16L131.86,507.58L132.05,495.88L132.06,495.66L133.06,453.81L133.07,453.79L134.73,447.16L134.73,447.16L134.74,447.15L142.13,420.6L142.13,420.58L146.18,394.09L146.18,394.06L147.21,372.77L147.21,372.64L147.49,340.2L147.49,339.32L147.57,251.94L147.57,238.73L147.61,30.17L147.99,507.63L148.32,484.62L148.33,484.41L149.33,452.8L149.34,452.78L151.45,445.39L151.46,445.38L156.96,426.77L156.96,426.76L162.02,396.66L162.02,396.63L163.29,372.94L163.29,372.82L163.69,30.05L164.07,507.67L164.29,493.77L164.3,493.54L165.3,453.57L165.31,453.55L166.96,447.05L166.97,447.04L174.29,420.66L174.29,420.65L178.27,394.52L178.27,394.49L179.3,374.21L179.3,374.09L179.6,344.36L179.6,343.64L179.72,29.92L180.11,507.7L180.6,473.43L180.61,473.28L181.61,451.91L181.62,451.9L184.24,443.45L184.24,443.45L184.25,443.44L189.03,426.84L189.03,426.82L192.36,409.4L192.36,409.38L194.37,393.49L194.37,393.46L195.36,371.67L195.36,371.53L195.63,335.56L195.63,334.47L195.73,29.97L196.11,507.72L196.63,472.18L196.64,472.03L197.64,451.79L197.65,451.78L200.44,442.88L200.45,442.88L204.61,428.71L204.61,428.69L208.23,410.11L208.23,410.09L210.21,395.11L210.21,395.09L211.28,374.45L211.28,374.34L211.58,344.91L211.58,344.21L211.67,272.09L211.67,263.3L211.71,29.94L212.09,507.74L212.67,468.96L212.68,468.83L213.68,451.51L213.69,451.5L216.44,442.81L216.45,442.81L221,426.83L221,426.82L224.3,409.51L224.3,409.49L226.31,393.62L226.31,393.59L227.3,371.73L227.3,371.59L227.67,29.82L228.06,507.76L228.3,491.59L228.31,491.37L229.31,453.34L229.32,453.32L231.43,445.54L231.44,445.53L238.22,420.73L238.22,420.71L241.91,397.21L241.91,397.18L242.87,384.06L242.87,384L243.47,347.73L243.47,347.13L243.57,282.01L243.57,275.11L243.61,29.8L244,507.77L244.57,469.14L244.58,469.01L245.58,451.52L245.59,451.51L248.35,442.77L248.36,442.76L252.89,426.85L252.89,426.83L256.17,409.59L256.17,409.58L258.69,386.27L258.69,386.22L259.38,352.57L259.38,352.11L259.54,29.87L259.93,507.78L260.38,475.92L260.39,475.75L261.39,452.08L261.4,452.06L264.25,442.84L264.26,442.84L268.4,428.72L268.4,428.7L271.99,410.22L271.99,410.2L274.08,393.91L274.08,393.88L275.07,373.05L275.07,372.92L275.47,29.87L275.85,507.78L276.07,493.56L276.08,493.33L277.08,453.53L277.09,453.51L278.7,447.09L278.71,447.09L286,420.73L286,420.72L289.67,397.3L289.67,397.28L290.97,373.34L290.97,373.21L291.26,341.38L291.26,340.55L291.38,29.77L291.76,507.79L292.26,473.1L292.27,472.95L293.27,451.84L293.28,451.82L296.1,442.78L296.11,442.78L301.9,420.76L301.9,420.75L305.8,395.02L305.8,394.99L306.85,374.5L306.85,374.38L307.15,344.9L307.15,344.2L307.24,271.55L307.24,262.64L307.28,29.9L307.67,507.79L307.84,497.8L307.85,497.58L308.85,453.94L308.86,453.91L310.5,447.14L310.51,447.13L317.81,420.74L317.81,420.73L321.47,397.38L321.47,397.35L322.75,374.69L322.75,374.58L323.05,344.66L323.06,343.95L323.18,29.8L323.57,507.79L324.06,473.47L324.07,473.31L325.07,451.86L325.08,451.85L327.72,443.29L327.73,443.28L332.02,428.75L332.02,428.74L335.6,410.3L335.6,410.28L337.69,393.99L337.69,393.96L338.68,373.14L338.68,373.01L338.97,339.96L338.97,339.07L339.08,29.78L339.46,507.8L339.97,472.54L339.98,472.39L340.98,451.8L340.99,451.79L343.62,443.28L343.63,443.27L348.34,426.85L348.34,426.84L353.25,397.46L353.25,397.43L354.54,374.64L354.54,374.53L354.97,29.79L355.36,507.8L355.54,496.73L355.55,496.51L356.55,453.82L356.56,453.79L358.24,446.97L358.25,446.96L365.49,420.75L365.49,420.73L369.14,397.44L369.14,397.42L370.11,384.24L370.11,384.18L370.72,347.24L370.72,346.62L370.81,282.92L370.82,276.18L370.86,29.77L371.24,507.8L371.82,468.89L371.83,468.76L372.83,451.49L372.84,451.48L375.61,442.69L375.61,442.69L375.62,442.68L379.7,428.72L379.7,428.71L383.7,407.61L383.7,407.59L385.32,394.41L385.32,394.38L386.34,373.2L386.35,373.07L386.75,29.86L387.13,507.8L387.35,493.78L387.36,493.55L388.36,453.52L388.37,453.5L389.98,447.07L389.99,447.06L397.26,420.76L397.26,420.75L401.14,395.12L401.14,395.1L402.2,374.59L402.2,374.47L402.5,344.66L402.5,343.95L402.59,268.55L402.59,259.02L402.63,29.79L403.01,507.8L403.22,495.04L403.23,494.81L404.23,453.64L404.24,453.62L405.82,447.22L405.82,447.22L405.83,447.21L413.14,420.78L413.14,420.76L416.8,397.43L416.8,397.4L418.08,374.69L418.08,374.58L418.39,343.13L418.39,342.37L418.51,29.75L418.9,507.8L419.39,473.44L419.4,473.29L420.4,451.85L420.41,451.84L423.05,443.27L423.06,443.27L427.34,428.77L427.34,428.76L430.91,410.36L430.91,410.35L433,394.05L433,394.02L434.02,371.84L434.02,371.71L434.29,335.29L434.3,334.18L434.39,29.86L434.78,507.8L435.3,471.67L435.31,471.52L436.31,451.72L436.32,451.71L439.13,442.72L439.13,442.72L439.14,442.71L443.23,428.72L443.23,428.71L446.8,410.32L446.8,410.3L449.49,384.91L449.49,384.85L450.13,348.92L450.13,348.35L450.27,29.73L450.65,507.8L451.13,474.55L451.14,474.38L452.14,451.95L452.15,451.94L455,442.74L455.01,442.73L459.11,428.71L459.11,428.69L462.68,410.3L462.68,410.29L465.36,384.97L465.36,384.92L465.83,368.75L465.83,368.58L466.07,325.98L466.07,324.34L466.15,29.79L466.53,507.8L467.07,470.93L467.08,470.79L468.08,451.66L468.09,451.65L470.89,442.7L470.9,442.7L474.98,428.74L474.98,428.73L478.54,410.38L478.54,410.37L480.64,394.01L480.64,393.98L481.65,371.93L481.65,371.79L481.92,336.94L481.92,335.92L482,228.65L482,209.95L482.03,29.73L482.41,507.8L483,468.21L483.01,468.09L484.01,451.42L484.02,451.41L486.78,442.67L486.79,442.66L491.27,426.88L491.27,426.87L494.52,409.75L494.52,409.73L496.53,393.84L496.53,393.8L497.5,373.15L497.5,373.03L497.79,340.02L497.79,339.13L497.9,29.79L498.29,507.8L498.79,472.85L498.8,472.69L499.8,451.8L499.81,451.79L502.63,442.74L502.63,442.74L502.64,442.73L507.15,426.86L507.15,426.85L510.79,407.27L510.79,407.25L512.99,384.92L512.99,384.86L513.46,368.74L513.46,368.57L513.78,29.75L514.16,507.8L514.46,487.04L514.47,486.83L515.47,452.94L515.48,452.92L517.64,445.18L517.65,445.17L523.03,426.85L523.03,426.83L526.27,409.76L526.27,409.74L528.27,393.91L528.27,393.88L529.25,373.21L529.25,373.08L529.53,341.22L529.54,340.38L529.65,29.83L530.03,507.8L530.54,472.6L530.55,472.45L531.55,451.79L531.56,451.78L534.38,442.73L534.39,442.72L538.9,426.85L538.9,426.84L542.53,407.3L542.53,407.28L544.21,393.14L544.21,393.1L545.15,371.77L545.15,371.63L545.42,336.82L545.42,335.79L545.52,29.75L545.91,507.8L546.42,472.18L546.43,472.03L547.43,451.76L547.44,451.74L550.25,442.74L550.26,442.73L554.77,426.86L554.77,426.85L558.01,409.78L558.01,409.76L560.02,393.88L560.02,393.85L561,373.08L561,372.95L561.4,29.84L561.78,507.8L562,493.55L562.01,493.33L563.01,453.51L563.02,453.49L564.63,447.06L564.64,447.05L571.9,420.78L571.9,420.76L575.55,397.47L575.55,397.44L576.83,374.7L576.83,374.58L577.14,344.59L577.14,343.88L577.27,29.74L577.65,507.8L578.14,473.6L578.15,473.44L579.15,451.86L579.16,451.84L581.99,442.74L581.99,442.74L582,442.73L586.1,428.71L586.1,428.7L589.65,410.38L589.65,410.37L591.75,394.03L591.75,393.99L592.73,373.29L592.73,373.16L593.02,341.71L593.02,340.89L593.13,29.81L593.52,507.8L594.02,473L594.03,472.85L595.03,451.81L595.04,451.8L597.86,442.74L597.86,442.74L597.87,442.73L602.38,426.86L602.38,426.85L606.01,407.31L606.01,407.29L607.59,394.32L607.59,394.29L608.6,373.27L608.6,373.14L608.89,339.9L608.89,339L608.97,245.87L608.97,231.18L609,29.74L609.39,507.8L609.75,482.29L609.76,482.09L610.76,452.54L610.77,452.52L612.79,445.4L612.8,445.39L619.5,420.8L619.5,420.79L623.15,397.51L623.15,397.48L624.44,374.76L624.44,374.64L624.87,29.85L625.26,507.8L625.44,496.92L625.45,496.7L626.45,453.82L626.46,453.8L628.14,446.96L628.15,446.95L635.37,420.8L635.37,420.78L639.02,397.49L639.02,397.46L640.31,374.67L640.31,374.55L640.74,29.75L641.12,507.8L641.31,496.52L641.32,496.3L642.32,453.81L642.33,453.78L644.01,446.95L644.02,446.94L651.24,420.78L651.24,420.77L654.89,397.46L654.89,397.44L656.17,374.77L656.17,374.66L656.48,345.03L656.48,344.33L656.61,29.78L656.99,507.8L657.48,473.54L657.49,473.38L658.49,451.86L658.5,451.85L661.33,442.74L661.33,442.74L661.34,442.73L665.85,426.86L665.85,426.85L669.09,409.77L669.09,409.75L671.1,393.88L671.1,393.85L672.1,371.85L672.1,371.71L672.37,336.35L672.37,335.3L672.47,29.87L672.86,507.8L673.37,472.26L673.38,472.11L674.38,451.75L674.39,451.73L677.2,442.72L677.21,442.72L681.72,426.85L681.72,426.84L684.95,409.81L684.95,409.79L686.96,393.92L686.96,393.89L687.96,371.9L687.96,371.76L688.23,336.67L688.24,335.63L688.34,29.82L688.72,507.8L689.24,471.86L689.25,471.71L690.25,451.72L690.26,451.71L693.07,442.71L693.08,442.7L697.59,426.83L697.59,426.82L701.21,407.31L701.21,407.29L703.34,386.45L703.34,386.4L704.03,352.78L704.04,352.32L704.2,29.81L704.58,507.8L705.04,475.8L705.05,475.63L706.05,452.03L706.06,452.01L708.92,442.75L708.92,442.75L708.93,442.74L713.45,426.84L713.45,426.83L717.07,407.32L717.07,407.31L718.75,393.16L718.75,393.13L719.69,371.86L719.69,371.72L719.96,336.4L719.96,335.35L720.04,219.04L720.04,198.24L720.06,29.9L720.45,507.8L721.04,468.14L721.05,468.02L722.05,451.41L722.06,451.39L726.44,437.93L726.44,437.93L726.45,437.92L730.56,420.79L730.56,420.78L734.21,397.5L734.21,397.47L735.49,374.78L735.49,374.67L735.8,345.09L735.8,344.4L735.93,29.75L736.31,507.8L736.8,473.71L736.81,473.55L737.81,451.86L737.82,451.85L740.66,442.71L740.67,442.7L745.17,426.86L745.17,426.85L748.4,409.82L748.4,409.8L750.41,393.93L750.41,393.9L751.39,373.13L751.39,373L751.68,339.79L751.68,338.89L751.79,29.73L752.17,507.8L752.68,472.65L752.69,472.5L753.69,451.77L753.7,451.76L756.52,442.71L756.53,442.7L760.62,428.71L760.62,428.7L764.61,407.64L764.61,407.63L766.87,384.91L766.87,384.85L767.5,349.36L767.5,348.8L767.6,286.78L767.61,280.69L767.65,29.75L768.04,507.8L768.61,468.96L768.62,468.83L769.62,451.47L769.63,451.45L772.4,442.65L772.41,442.65L776.47,428.75L776.47,428.73L780.03,410.39L780.03,410.37L781.99,395.5L781.99,395.47L783.08,374.62L783.08,374.5L783.38,344.78L783.38,344.08L783.47,270L783.47,260.77L783.51,29.89L783.9,507.8L784.09,495.97L784.1,495.75L785.1,453.72L785.11,453.7L786.78,446.95L786.78,446.95L786.79,446.94L794.01,420.77L794.01,420.76L797.65,397.52L797.65,397.49L798.94,374.65L798.94,374.54L799.25,343.55L799.25,342.8L799.37,29.83L799.75,507.8L800.25,473.21L800.26,473.06L801.26,451.83L801.27,451.82L804.1,442.71L804.11,442.7L808.61,426.87L808.61,426.85L811.85,409.77L811.85,409.75L813.85,393.93L813.85,393.9L814.85,372.03L814.85,371.89L815.12,337.64L815.13,336.65L815.23,29.83L815.61,507.8L816.13,472L816.14,471.85L817.14,451.73L817.15,451.72L819.97,442.68L819.98,442.67L824.47,426.86L824.47,426.85L827.7,409.81L827.7,409.8L829.59,395.27L829.59,395.24L830.66,374.62L830.66,374.5L831.09,29.86L831.47,507.8L831.66,496.41L831.67,496.19L832.67,453.79L832.68,453.76L834.36,446.93L834.36,446.93L834.37,446.92L841.59,420.76L841.59,420.75L843,413.13" style="vector-effect: none; fill: none; stroke: rgb(0, 0, 0); stroke-opacity: 1; stroke-width: 4px; opacity: 1;"/></g><g class="points"/><g class="text"/></g></g></g><g class="xy2" transform="translate(131,100)" clip-path="url(#clip5b5b7axy2plot)"><g class="scatterlayer mlayer"><g class="trace scatter trace56782a" style="stroke-miterlimit: 2;"><g class="fills"><g><path class="js-fill" d="M2107.5,589L0,589L0,589L210.75,589L221.29,560.53L231.83,544.83L242.36,535.01L252.9,531.08L263.44,530.1L273.98,531.08L284.51,533.04L305.59,538.93L316.13,542.86L421.5,566.42L526.88,577.22L632.25,581.64L737.63,583.6L2107.5,588.36" style="fill: rgb(255, 0, 0); fill-opacity: 0.2; stroke-width: 0;"/></g></g><g class="errorbars"/><g class="lines"><path class="js-line" d="M0,589L210.75,589L221.29,560.53L231.83,544.83L242.36,535.01L252.9,531.08L263.44,530.1L273.98,531.08L284.51,533.04L305.59,538.93L316.13,542.86L421.5,566.42L526.88,577.22L632.25,581.64L737.63,583.6L2107.5,588.36" style="vector-effect: none; fill: none; stroke: rgb(255, 0, 0); stroke-opacity: 0.2; stroke-width: 0px; opacity: 1;"/></g><g class="points"/><g class="text"/></g></g></g></g><path class="xlines-above crisp" d="M0,0" style="fill: none;"/><path class="ylines-above crisp" d="M0,0" style="fill: none;"/><g class="overlines-above"><path class="xy2-x crisp" d="M0,0" style="fill: none;"/><path class="xy2-y crisp" d="M0,0" style="fill: none;"/></g><g class="xaxislayer-above"><g class="xtick"><text text-anchor="middle" x="0" y="730" transform="translate(131,0)" style="font-family: 'Open Sans', verdana, arial, sans-serif; font-size: 40px; fill: rgb(42, 63, 95); fill-opacity: 1; white-space: pre; opacity: 1;">0</text></g><g class="xtick"><text text-anchor="middle" x="0" y="730" style="font-family: 'Open Sans', verdana, arial, sans-serif; font-size: 40px; fill: rgb(42, 63, 95); fill-opacity: 1; white-space: pre; opacity: 1;" transform="translate(341.75,0)">2</text></g><g class="xtick"><text text-anchor="middle" x="0" y="730" style="font-family: 'Open Sans', verdana, arial, sans-serif; font-size: 40px; fill: rgb(42, 63, 95); fill-opacity: 1; white-space: pre; opacity: 1;" transform="translate(552.5,0)">4</text></g><g class="xtick"><text text-anchor="middle" x="0" y="730" style="font-family: 'Open Sans', verdana, arial, sans-serif; font-size: 40px; fill: rgb(42, 63, 95); fill-opacity: 1; white-space: pre; opacity: 1;" transform="translate(763.25,0)">6</text></g><g class="xtick"><text text-anchor="middle" x="0" y="730" style="font-family: 'Open Sans', verdana, arial, sans-serif; font-size: 40px; fill: rgb(42, 63, 95); fill-opacity: 1; white-space: pre; opacity: 1;" transform="translate(974,0)">8</text></g></g><g class="yaxislayer-above"><g class="ytick"><text text-anchor="end" x="130" y="14" transform="translate(0,613.32)" style="font-family: 'Open Sans', verdana, arial, sans-serif; font-size: 40px; fill: rgb(42, 63, 95); fill-opacity: 1; white-space: pre; opacity: 1;">−80</text></g><g class="ytick"><text text-anchor="end" x="130" y="14" style="font-family: 'Open Sans', verdana, arial, sans-serif; font-size: 40px; fill: rgb(42, 63, 95); fill-opacity: 1; white-space: pre; opacity: 1;" transform="translate(0,521.4100000000001)">−60</text></g><g class="ytick"><text text-anchor="end" x="130" y="14" style="font-family: 'Open Sans', verdana, arial, sans-serif; font-size: 40px; fill: rgb(42, 63, 95); fill-opacity: 1; white-space: pre; opacity: 1;" transform="translate(0,429.49)">−40</text></g><g class="ytick"><text text-anchor="end" x="130" y="14" style="font-family: 'Open Sans', verdana, arial, sans-serif; font-size: 40px; fill: rgb(42, 63, 95); fill-opacity: 1; white-space: pre; opacity: 1;" transform="translate(0,337.58000000000004)">−20</text></g><g class="ytick"><text text-anchor="end" x="130" y="14" style="font-family: 'Open Sans', verdana, arial, sans-serif; font-size: 40px; fill: rgb(42, 63, 95); fill-opacity: 1; white-space: pre; opacity: 1;" transform="translate(0,245.67)">0</text></g><g class="ytick"><text text-anchor="end" x="130" y="14" style="font-family: 'Open Sans', verdana, arial, sans-serif; font-size: 40px; fill: rgb(42, 63, 95); fill-opacity: 1; white-space: pre; opacity: 1;" transform="translate(0,153.75)">20</text></g></g><g class="overaxes-above"><g class="xy2-x"/><g class="xy2-y"><g class="y2tick"><text text-anchor="start" x="975" y="14" transform="translate(0,689)" style="font-family: 'Open Sans', verdana, arial, sans-serif; font-size: 40px; fill: rgb(42, 63, 95); fill-opacity: 1; white-space: pre; opacity: 1;">0</text></g><g class="y2tick"><text text-anchor="start" x="975" y="14" style="font-family: 'Open Sans', verdana, arial, sans-serif; font-size: 40px; fill: rgb(42, 63, 95); fill-opacity: 1; white-space: pre; opacity: 1;" transform="translate(0,630.1)">600.0</text></g></g></g></g><g class="subplot xy2"/></g><g class="polarlayer"/><g class="smithlayer"/><g class="ternarylayer"/><g class="geolayer"/><g class="funnelarealayer"/><g class="pielayer"/><g class="iciclelayer"/><g class="treemaplayer"/><g class="sunburstlayer"/><g class="glimages"/><defs id="topdefs-5b5b7a"><g class="clips"/><clipPath id="legend5b5b7a"><rect width="197" height="175" x="0" y="0"/></clipPath></defs><g class="layer-above"><g class="imagelayer"/><g class="shapelayer"/></g><g class="infolayer"><g class="legend" pointer-events="all" transform="translate(990.86,42.799999999999955)"><rect class="bg" shape-rendering="crispEdges" style="stroke: rgb(68, 68, 68); stroke-opacity: 1; fill: rgb(255, 255, 255); fill-opacity: 1; stroke-width: 0px;" width="197" height="175" x="0" y="0"/><g class="scrollbox" transform="" clip-path="url(#legend5b5b7a)"><g class="groups"><g class="traces" transform="translate(0,32.5)" style="opacity: 1;"><text class="legendtext" text-anchor="start" x="40" y="15.6" style="font-family: 'Open Sans', verdana, arial, sans-serif; font-size: 40px; fill: rgb(42, 63, 95); fill-opacity: 1; white-space: pre;">DA</text><g class="layers" style="opacity: 0.5;"><g class="legendfill"/><g class="legendlines"><path class="js-line" d="M5,0h30" style="fill: none; stroke: rgb(255, 0, 0); stroke-opacity: 1; stroke-width: 4px;"/></g><g class="legendsymbols"><g class="legendpoints"/></g></g><rect class="legendtoggle" x="0" y="-27.5" width="191.171875" height="55" style="fill: rgb(0, 0, 0); fill-opacity: 0;"/></g><g class="traces" transform="translate(0,87.5)" style="opacity: 1;"><text class="legendtext" text-anchor="start" x="40" y="15.6" style="font-family: 'Open Sans', verdana, arial, sans-serif; font-size: 40px; fill: rgb(42, 63, 95); fill-opacity: 1; white-space: pre;">No DA</text><g class="layers" style="opacity: 0.5;"><g class="legendfill"/><g class="legendlines"><path class="js-line" d="M5,0h30" style="fill: none; stroke: rgb(0, 0, 0); stroke-opacity: 1; stroke-width: 4px;"/></g><g class="legendsymbols"><g class="legendpoints"/></g></g><rect class="legendtoggle" x="0" y="-27.5" width="191.171875" height="55" style="fill: rgb(0, 0, 0); fill-opacity: 0;"/></g><g class="traces" transform="translate(0,142.5)" style="opacity: 1;"><text class="legendtext" text-anchor="start" x="40" y="15.6" style="font-family: 'Open Sans', verdana, arial, sans-serif; font-size: 40px; fill: rgb(42, 63, 95); fill-opacity: 1; white-space: pre;">DA conc</text><g class="layers"><g class="legendfill"><path class="js-fill" d="M5,-2h30v6h-30z" style="stroke-width: 0; fill: rgb(255, 0, 0); fill-opacity: 0.2;"/></g><g class="legendlines"><path class="js-line" d="M5,-2h30" style="fill: none; stroke: rgb(255, 0, 0); stroke-opacity: 0.2; stroke-width: 0px;"/></g><g class="legendsymbols"><g class="legendpoints"/></g></g><rect class="legendtoggle" x="0" y="-27.5" width="191.171875" height="55" style="fill: rgb(0, 0, 0); fill-opacity: 0;"/></g></g></g><rect class="scrollbar" rx="20" ry="3" width="0" height="0" style="fill: rgb(128, 139, 164); fill-opacity: 1;" x="0" y="0"/></g><g class="g-gtitle"/><g class="g-xtitle"><text class="xtitle" x="552.5" y="787.5" text-anchor="middle" style="opacity: 1; font-family: 'Open Sans', verdana, arial, sans-serif; font-size: 50px; fill: rgb(42, 63, 95); fill-opacity: 1; white-space: pre;">Time (s)</text></g><g class="g-ytitle" transform="translate(14.859375,0)"><text class="ytitle" transform="rotate(-90,30.140625,394.5)" x="30.140625" y="394.5" text-anchor="middle" style="opacity: 1; font-family: 'Open Sans', verdana, arial, sans-serif; font-size: 50px; fill: rgb(42, 63, 95); fill-opacity: 1; white-space: pre;">Voltage (mV)</text></g><g class="g-y2title"><text class="y2title" transform="rotate(-90,1124.609375,394.5)" x="1124.609375" y="394.5" text-anchor="middle" style="opacity: 1; font-family: 'Open Sans', verdana, arial, sans-serif; font-size: 50px; fill: rgb(42, 63, 95); fill-opacity: 1; white-space: pre;">DA Conc (nM)</text></g></g></svg>