<svg class="main-svg" xmlns="http://www.w3.org/2000/svg" xmlns:xlink="http://www.w3.org/1999/xlink" width="2400" height="1600" style="" viewBox="0 0 1200 800"><rect x="0" y="0" width="1200" height="800" style="fill: rgb(255, 255, 255); fill-opacity: 1;"/><defs id="defs-d65618"><g class="clips"><clipPath id="clipd65618xyplot" class="plotclip"><rect width="822" height="589"/></clipPath><clipPath id="clipd65618xy2plot" class="plotclip"><rect width="822" height="589"/></clipPath><clipPath class="axesclip" id="clipd65618x"><rect x="153" y="0" width="822" height="800"/></clipPath><clipPath class="axesclip" id="clipd65618y"><rect x="0" y="100" width="1200" height="589"/></clipPath><clipPath class="axesclip" id="clipd65618xy"><rect x="153" y="100" width="822" height="589"/></clipPath><clipPath class="axesclip" id="clipd65618y2"><rect x="0" y="100" width="1200" height="589"/></clipPath><clipPath class="axesclip" id="clipd65618xy2"><rect x="153" y="100" width="822" height="589"/></clipPath></g><g class="gradients"/><g class="patterns"/></defs><g class="bglayer"/><g class="layer-below"><g class="imagelayer"/><g class="shapelayer"/></g><g class="cartesianlayer"><g class="subplot xy"><g class="layer-subplot"><g class="shapelayer"/><g class="imagelayer"/></g><g class="minor-gridlayer"><g class="x"/><g class="y"/><g class="y2"/></g><g class="gridlayer"><g class="x"><path class="xgrid crisp" transform="translate(358.5,0)" d="M0,100v589" style="stroke: rgb(255, 255, 255); stroke-opacity: 1; stroke-width: 1px;"/><path class="xgrid crisp" transform="translate(564,0)" d="M0,100v589" style="stroke: rgb(255, 255, 255); stroke-opacity: 1; stroke-width: 1px;"/><path class="xgrid crisp" transform="translate(769.5,0)" d="M0,100v589" style="stroke: rgb(255, 255, 255); stroke-opacity: 1; stroke-width: 1px;"/></g><g class="y"><path class="ygrid crisp" transform="translate(0,680.03)" d="M153,0h822" style="stroke: rgb(255, 255, 255); stroke-opacity: 1; stroke-width: 1px;"/><path class="ygrid crisp" transform="translate(0,596.25)" d="M153,0h822" style="stroke: rgb(255, 255, 255); stroke-opacity: 1; stroke-width: 1px;"/><path class="ygrid crisp" transform="translate(0,512.48)" d="M153,0h822" style="stroke: rgb(255, 255, 255); stroke-opacity: 1; stroke-width: 1px;"/><path class="ygrid crisp" transform="translate(0,428.7)" d="M153,0h822" style="stroke: rgb(255, 255, 255); stroke-opacity: 1; stroke-width: 1px;"/><path class="ygrid crisp" transform="translate(0,344.91999999999996)" d="M153,0h822" style="stroke: rgb(255, 255, 255); stroke-opacity: 1; stroke-width: 1px;"/><path class="ygrid crisp" transform="translate(0,177.37)" d="M153,0h822" style="stroke: rgb(255, 255, 255); stroke-opacity: 1; stroke-width: 1px;"/></g><g class="y2"/></g><g class="zerolinelayer"><path class="xzl zl crisp" transform="translate(153,0)" d="M0,100v589" style="stroke: rgb(255, 255, 255); stroke-opacity: 1; stroke-width: 2px;"/><path class="yzl zl crisp" transform="translate(0,261.15)" d="M153,0h822" style="stroke: rgb(255, 255, 255); stroke-opacity: 1; stroke-width: 2px;"/><path class="y2zl zl crisp" transform="translate(0,689)" d="M153,0h822" style="stroke: rgb(255, 255, 255); stroke-opacity: 1; stroke-width: 2px;"/></g><g class="layer-between"><g class="shapelayer"/><g class="imagelayer"/></g><path class="xlines-below"/><path class="ylines-below"/><g class="overlines-below"><path class="xy2-x"/><path class="xy2-y"/></g><g class="xaxislayer-below"/><g class="yaxislayer-below"/><g class="overaxes-below"><g class="xy2-x"/><g class="xy2-y"/></g><g class="overplot"><g class="xy" transform="translate(153,100)" clip-path="url(#clipd65618xyplot)"><g class="scatterlayer mlayer"><g class="trace scatter trace51821a" style="stroke-miterlimit: 2; opacity: 0.5;"><g class="fills"/><g class="errorbars"/><g class="lines"><path class="js-line" d="M0,525.58L1,556.09L1.01,556.11L2.32,559.4L2.32,559.4L2.33,559.4L6.31,559.55L6.31,559.55L6.32,559.55L20.55,559.55L20.55,559.55L20.55,557.3L22.03,476.07L22.04,476.03L23.99,454.96L24,454.94L28.05,433.48L28.06,433.47L34.72,398.95L34.72,398.92L35.67,377.57L35.67,377.45L36.07,30.14L36.54,476.39L36.67,473.88L36.68,473.81L37.68,453.68L37.69,453.66L39.36,446.64L39.37,446.63L44.48,433.05L44.49,433.04L49.78,412.23L49.78,412.22L51.57,397.54L51.57,397.5L52.36,379.56L52.36,379.44L52.67,350.7L52.67,350.09L52.81,30.16L53.27,476.36L53.67,465.38L53.68,465.3L54.68,451.96L54.69,451.95L56.82,444.43L56.83,444.43L65.24,418.56L65.24,418.54L67.56,405.15L67.56,405.13L68.75,389.77L68.75,389.71L69.38,352.66L69.38,352.11L69.48,294.36L69.48,288.58L69.53,29.94L69.99,476.34L70.48,462.94L70.49,462.88L72.02,449.27L72.03,449.26L75.58,439.15L75.59,439.15L81.49,420.58L81.49,420.57L84.4,404.07L84.4,404.05L85.8,379.16L85.8,379.04L86.11,348.92L86.11,348.26L86.24,29.94L86.7,476.33L87.11,465.01L87.12,464.94L88.12,451.86L88.13,451.84L90.86,442.76L90.87,442.76L98.21,420.58L98.21,420.57L100.94,405.55L100.94,405.53L102.17,389.88L102.17,389.82L102.81,352.3L102.81,351.73L102.91,290.3L102.91,283.77L102.95,29.84L103.42,476.34L103.91,462.85L103.92,462.79L105.45,449.26L105.46,449.25L108.97,439.31L108.98,439.3L113.68,425.57L113.68,425.56L116.77,411.78L116.77,411.77L118.39,398.59L118.39,398.56L119.32,376.34L119.32,376.2L119.6,340.51L119.6,339.5L119.7,29.74L120.16,476.35L120.6,464.31L120.61,464.24L121.61,451.73L121.62,451.72L124.31,442.88L124.31,442.88L124.32,442.87L131.74,420.53L131.74,420.51L134.48,405.46L134.48,405.43L135.7,389.88L135.7,389.82L136.34,352.32L136.34,351.76L136.44,290.31L136.44,283.78L136.48,29.72L136.95,476.37L137.44,462.85L137.45,462.79L138.95,449.43L138.96,449.42L142.44,439.58L142.45,439.58L148.56,420.52L148.56,420.51L151.33,405.33L151.33,405.31L152.54,389.82L152.54,389.76L153.17,352.87L153.17,352.33L153.27,295.88L153.27,290.33L153.32,29.66L153.78,476.4L154.27,462.92L154.28,462.86L155.81,449.37L155.82,449.36L159.26,439.7L159.26,439.7L159.27,439.69L165.45,420.46L165.45,420.45L168.22,405.26L168.22,405.24L169.38,390.78L169.38,390.73L170.05,354.27L170.06,353.76L170.21,29.58L170.67,476.43L171.06,465.63L171.07,465.55L172.07,452.06L172.08,452.04L174.77,443.19L174.78,443.19L182.39,420.43L182.39,420.42L185.18,405.17L185.18,405.15L186.38,389.69L186.38,389.63L187.01,352.39L187.02,351.83L187.15,29.61L187.62,476.46L188.02,465.31L188.03,465.23L189.73,449.17L189.74,449.16L193.07,439.93L193.08,439.92L198.09,425.46L198.09,425.45L201.29,411.31L201.29,411.29L202.95,397.28L202.95,397.25L203.75,378.39L203.75,378.27L204.05,346.47L204.05,345.71L204.13,264.46L204.14,252.06L204.17,29.48L204.63,476.5L205.14,462.59L205.15,462.52L206.68,449.44L206.69,449.43L210.04,440.13L210.04,440.13L210.05,440.12L215.16,425.42L215.16,425.41L218.38,411.21L218.38,411.19L220.04,397.16L220.04,397.13L220.83,378.39L220.83,378.27L221.13,347.24L221.13,346.51L221.25,29.45L221.71,476.53L222.13,464.96L222.14,464.89L223.14,452.02L223.15,452.01L225.79,443.45L225.8,443.44L233.51,420.48L233.51,420.47L236.32,405.14L236.32,405.12L237.47,390.75L237.47,390.69L238.13,356.17L238.13,355.71L238.29,29.52L238.75,476.42L239.13,465.98L239.14,465.91L240.14,452.07L240.15,452.06L243.08,442.43L243.08,442.43L243.09,442.42L249.66,422.12L249.66,422.1L252.26,407.59L252.26,407.56L253.52,392.44L253.52,392.39L254.23,356.86L254.23,356.41L254.34,308.97L254.34,305.37L254.4,30.52L254.54,375.22L254.55,377.61L254.86,475.32L255.55,457.81L255.56,457.76L257.05,446.76L257.06,446.75L264.11,415.39L264.11,415.37L265.63,398.54L265.63,398.49L266.56,355.16L266.56,354.67L266.72,35.29L267.21,470.48L267.56,461.72L267.57,461.65L268.57,444.67L268.58,444.65L272.1,418.12L272.11,418.09L274.08,387.24L274.08,387.15L274.56,346.09L274.56,345.35L274.68,42.65L275.21,464.78L275.56,457.02L275.57,456.94L276.57,438.78L276.58,438.75L280.44,391.21L280.44,391.14L281,355.62L281,355.15L281.17,45.78L281.71,463.02L282,457.03L282.01,456.96L283.01,437.66L283.02,437.63L286.72,387.56L286.72,387.47L287.2,348L287.2,347.34L287.34,46.52L287.86,463.19L288.2,455.94L288.21,455.87L289.21,437.05L289.22,437.02L291.18,416.78L291.19,416.75L293.23,362.86L293.23,362.53L293.45,46.69L293.98,463.22L294.23,458.22L294.24,458.15L296.81,421.8L296.82,421.78L298.93,387.75L298.93,387.66L299.41,347.88L299.41,347.22L299.51,273.22L299.51,264.59L299.55,46.74L300.07,463.2L300.51,453.21L300.52,453.14L301.52,435.82L301.53,435.79L303.62,413.9L303.63,413.87L305.45,358.52L305.45,358.12L305.64,46.72L306.16,463.19L306.45,457.31L306.46,457.24L307.46,437.56L307.47,437.53L309.36,417.89L309.37,417.86L310.98,391.76L310.98,391.69L311.55,355.84L311.55,355.38L311.67,303.23L311.67,299.47L311.73,46.9L312.25,463.18L312.67,453.65L312.68,453.58L313.68,435.99L313.69,435.96L315.66,415.48L315.67,415.45L317.61,360.54L317.61,360.18L317.81,46.74L318.33,463.18L318.61,457.61L318.62,457.54L321.18,421.59L321.19,421.57L323.21,389.87L323.21,389.78L323.73,353.77L323.73,353.27L323.89,46.71L324.42,463.17L324.73,456.59L324.74,456.52L325.74,437.23L325.75,437.2L327.73,416.56L327.74,416.53L329.77,360.63L329.77,360.27L329.97,46.88L330.5,463.17L330.77,457.76L330.78,457.69L331.78,437.71L331.79,437.68L335.43,387.81L335.43,387.72L335.92,348.15L335.92,347.49L336.05,46.72L336.58,463.17L336.92,455.72L336.93,455.65L339.54,420.36L339.55,420.34L341.51,387.84L341.51,387.75L342,346.31L342,345.6L342.09,270.43L342.09,261.22L342.13,46.88L342.66,463.17L342.75,462.18L342.76,462.13L345.75,418.94L345.76,418.92L347.99,362.63L347.99,362.3L348.21,46.75L348.73,463.16L348.99,458.17L349,458.1L350,437.92L350.01,437.88L351.9,418.15L351.91,418.12L353.66,387.86L353.66,387.77L354.15,347.83L354.15,347.17L354.28,46.73L354.81,463.16L355.15,455.82L355.16,455.75L356.16,436.86L356.17,436.83L359.74,387.87L359.74,387.78L360.22,347.88L360.23,347.21L360.36,46.7L360.88,463.16L361.23,455.68L361.24,455.61L362.24,436.83L362.25,436.79L364.23,416.14L364.24,416.11L366.23,360.67L366.23,360.31L366.43,46.85L366.96,463.16L367.23,457.75L367.24,457.68L368.24,437.72L368.25,437.69L370.14,417.97L370.15,417.94L372.29,362.85L372.29,362.53L372.51,46.66L373.03,463.16L373.29,458.14L373.3,458.07L374.3,437.89L374.31,437.86L376.2,418.12L376.21,418.09L378.36,362.91L378.36,362.58L378.58,46.68L379.11,463.16L379.36,458.22L379.37,458.15L380.37,437.93L380.38,437.9L382.48,415.78L382.49,415.75L384.45,360.5L384.45,360.14L384.65,46.66L385.17,463.15L385.45,457.71L385.46,457.64L386.46,437.7L386.47,437.67L388.29,418.7L388.3,418.67L390.1,387.88L390.1,387.78L390.59,347.87L390.59,347.21L390.72,46.7L391.25,463.15L391.59,455.81L391.6,455.74L392.6,436.87L392.61,436.84L394.59,416.17L394.6,416.14L396.58,362.63L396.58,362.3L396.79,46.72L397.32,463.15L397.58,458.08L397.59,458.01L398.59,437.86L398.6,437.83L400.5,417.97L400.51,417.94L402.65,362.73L402.65,362.41L402.87,46.79L403.39,463.15L403.65,458.1L403.66,458.03L404.66,437.87L404.67,437.84L406.49,418.84L406.5,418.81L408.31,387.96L408.31,387.87L408.8,347.85L408.8,347.19L408.9,272.61L408.9,263.85L408.94,46.7L409.46,463.15L409.9,453.13L409.91,453.07L410.91,435.73L410.92,435.7L412.9,415.03L412.91,415L414.82,358.49L414.82,358.09L415.01,46.7L415.53,463.15L415.82,457.25L415.83,457.18L416.83,437.49L416.84,437.46L418.73,417.75L418.74,417.72L420.33,391.8L420.33,391.73L420.9,355.89L420.91,355.43L421.08,46.78L421.6,463.15L421.91,456.66L421.92,456.59L422.92,437.23L422.93,437.2L424.82,417.54L424.83,417.51L426.93,362.65L426.93,362.32L427.14,46.74L427.67,463.15L427.93,458.08L427.94,458.01L428.94,437.86L428.95,437.82L430.85,417.96L430.86,417.93L432.99,362.85L433,362.52L433.21,46.65L433.74,463.15L434,458.05L434.01,457.98L435.01,437.84L435.02,437.81L436.92,417.94L436.93,417.92L439.06,363.01L439.06,362.69L439.2,326.56L439.2,324.91L439.26,150.35L439.26,125.74L439.28,46.82L439.81,463.15L440.09,457.44L440.1,457.37L441.1,437.57L441.11,437.54L443,417.81L443.01,417.79L445.13,362.82L445.13,362.5L445.27,325.6L445.27,323.9L445.33,135.69L445.33,112.28L445.35,46.66L445.88,463.15L446.14,457.97L446.15,457.9L447.15,437.8L447.16,437.77L449.06,417.91L449.07,417.88L451.2,362.92L451.2,362.6L451.42,46.67L451.95,463.15L452.2,458.21L452.21,458.14L453.21,437.88L453.22,437.85L455.32,415.74L455.33,415.71L457.27,362.68L457.27,362.36L457.49,46.8L458.02,463.15L458.27,458.16L458.28,458.09L459.28,437.85L459.29,437.82L462.93,387.96L462.93,387.87L463.43,346.41L463.43,345.7L463.56,46.77L464.08,463.14L464.43,455.57L464.44,455.5L465.44,436.73L465.45,436.7L468.94,389.94L468.94,389.86L469.47,352L469.47,351.45L469.58,291.37L469.58,285.97L469.62,46.71L470.15,463.14L470.58,453.26L470.59,453.19L472.61,425.37L472.62,425.34L474.93,392.26L474.93,392.19L475.52,355.96L475.52,355.51L475.69,46.69L476.21,463.14L476.52,456.81L476.53,456.74L477.53,437.29L477.54,437.26L479.43,417.56L479.44,417.53L481.54,362.79L481.54,362.46L481.76,46.69L482.28,463.14L482.54,458.11L482.55,458.03L485.25,420.22L485.26,420.19L487.14,389.94L487.14,389.86L487.67,351.99L487.67,351.44L487.78,291.27L487.78,285.85L487.83,46.72L488.35,463.14L488.78,453.33L488.79,453.26L489.79,435.8L489.8,435.77L491.9,413.68L491.91,413.64L493.7,358.83L493.7,358.43L493.83,315.11L493.83,312.6L493.89,46.78L494.42,463.14L494.83,453.8L494.84,453.73L495.84,436.01L495.85,435.98L497.83,415.3L497.84,415.27L499.76,360.64L499.76,360.28L499.96,46.8L500.48,463.14L500.76,457.58L500.77,457.51L503.33,421.5L503.34,421.47L505.34,389.98L505.34,389.9L505.87,353.34L505.87,352.82L506.03,46.69L506.55,463.14L506.87,456.41L506.88,456.34L507.88,437.12L507.89,437.09L509.78,417.4L509.79,417.37L511.87,362.88L511.87,362.56L512.01,325.91L512.02,324.22L512.09,46.64L512.62,463.14L513.02,454.11L513.03,454.04L514.03,436.14L514.04,436.11L516.02,415.43L516.03,415.4L517.96,360.77L517.96,360.41L518.16,46.67L518.68,463.14L518.96,457.6L518.97,457.53L519.97,437.64L519.98,437.6L521.87,417.87L521.88,417.84L523.48,391.8L523.48,391.72L524.04,357.59L524.05,357.17L524.23,46.83L524.75,463.14L525.05,457.01L525.06,456.93L526.06,437.34L526.07,437.31L529.67,387.92L529.67,387.83L530.16,348.17L530.16,347.51L530.29,46.67L530.82,463.14L531.16,455.76L531.17,455.69L532.17,436.84L532.18,436.81L534.07,417.14L534.08,417.11L536.14,362.83L536.14,362.51L536.36,46.64L536.88,463.14L537.14,458.19L537.15,458.11L538.15,437.9L538.16,437.86L540.06,417.98L540.07,417.95L541.8,387.95L541.8,387.86L542.29,347.73L542.29,347.06L542.38,278.61L542.39,271.02L542.43,46.8L542.95,463.14L543.39,453.11L543.4,453.04L544.4,435.71L544.41,435.68L546.39,414.99L546.4,414.96L548.29,360.55L548.29,360.19L548.49,46.66L549.02,463.14L549.29,457.7L549.3,457.63L550.3,437.68L550.31,437.65L552.2,417.9L552.21,417.88L554.34,362.81L554.34,362.48L554.56,46.67L555.08,463.14L555.34,458.18L555.35,458.11L556.35,437.89L556.36,437.86L558.26,417.98L558.27,417.95L560.41,362.68L560.41,362.35L560.62,46.78L561.15,463.14L561.41,458.08L561.42,458.01L562.42,437.85L562.43,437.81L564.33,417.94L564.34,417.91L566.47,362.87L566.47,362.54L566.61,325.83L566.61,324.14L566.67,139.04L566.67,115.29L566.69,46.63L567.22,463.14L567.48,457.98L567.49,457.91L568.49,437.8L568.5,437.77L570.4,417.9L570.41,417.87L572.54,362.73L572.54,362.4L572.76,46.79L573.28,463.14L573.54,458.16L573.55,458.09L574.55,437.85L574.56,437.82L578.2,387.92L578.2,387.83L578.7,346.08L578.7,345.36L578.82,46.65L579.35,463.14L579.7,455.54L579.71,455.46L580.71,436.71L580.72,436.68L584.21,389.94L584.21,389.86L584.74,351.99L584.74,351.44L584.89,46.71L585.41,463.14L585.74,456.22L585.75,456.15L586.75,437.03L586.76,437L588.74,416.3L588.75,416.28L590.28,389.74L590.28,389.66L590.81,350.03L590.82,349.43L590.96,46.68L591.48,463.14L591.82,455.83L591.83,455.76L592.83,436.87L592.84,436.84L594.73,417.16L594.74,417.13L596.28,391.74L596.28,391.67L596.85,355.97L596.85,355.52L597.02,46.68L597.55,463.14L597.85,456.88L597.86,456.81L598.86,437.32L598.87,437.29L600.76,417.58L600.77,417.55L602.87,362.97L602.87,362.64L603.09,46.71L603.61,463.14L603.87,458.14L603.88,458.07L604.88,437.88L604.89,437.84L606.79,417.99L606.8,417.96L608.94,362.81L608.94,362.49L609.16,46.66L609.68,463.14L609.94,458.04L609.95,457.97L610.95,437.83L610.96,437.8L613.06,415.69L613.07,415.66L615.02,360.61L615.02,360.25L615.22,46.73L615.74,463.14L616.02,457.64L616.03,457.57L618.6,421.41L618.61,421.38L620.6,390.04L620.6,389.95L621.13,353.64L621.13,353.13L621.29,46.65L621.81,463.14L622.13,456.45L622.14,456.38L623.14,437.13L623.15,437.1L625.04,417.41L625.05,417.38L627.13,362.99L627.13,362.67L627.28,324.79L627.28,323.03L627.35,46.75L627.88,463.14L628.28,454.13L628.29,454.06L629.29,436.11L629.3,436.08L632.64,392.7L632.64,392.63L633.23,359.33L633.23,358.94L633.42,46.64L633.94,463.14L634.23,457.32L634.24,457.25L635.24,437.51L635.25,437.48L637.14,417.78L637.15,417.75L639.27,362.67L639.27,362.34L639.49,46.76L640.01,463.14L640.27,458.08L640.28,458.01L641.28,437.85L641.29,437.81L643.19,417.94L643.2,417.91L645.33,362.83L645.33,362.51L645.47,325.66L645.48,323.96L645.55,46.64L646.08,463.14L646.48,454.1L646.49,454.03L647.49,436.1L647.5,436.07L650.93,390L650.93,389.92L651.47,351.83L651.47,351.28L651.62,46.77L652.14,463.14L652.47,456.2L652.48,456.13L653.48,436.99L653.49,436.96L657,389.96L657,389.88L657.53,352.11L657.53,351.56L657.64,292.34L657.64,287.09L657.68,46.64L658.21,463.14L658.64,453.34L658.65,453.27L659.65,435.77L659.66,435.75L663.07,389.92L663.07,389.84L663.6,351.84L663.6,351.29L663.75,46.78L664.27,463.14L664.6,456.2L664.61,456.13L667.13,421.41L667.14,421.38L669.13,389.96L669.13,389.88L669.67,351.57L669.67,351.01L669.82,46.64L670.34,463.14L670.67,456.1L670.68,456.02L673.3,420.33L673.31,420.3L675.26,387.94L675.26,387.85L675.75,347.66L675.75,346.99L675.88,46.8L676.41,463.14L676.75,455.77L676.76,455.7L677.76,436.81L677.77,436.78L681.26,390.04L681.26,389.96L681.79,353.69L681.79,353.18L681.95,46.63L682.47,463.14L682.79,456.46L682.8,456.39L683.8,437.14L683.81,437.1L685.79,416.4L685.8,416.37L687.28,391.57L687.28,391.5L687.84,355.84L687.84,355.38L687.96,306.5L687.96,303.11L688.01,46.84L688.54,463.14L688.96,453.59L688.97,453.52L689.97,435.91L689.98,435.88L691.96,415.2L691.97,415.17L693.41,389.55L693.41,389.47L693.93,351.62L693.93,351.06L694.08,46.63L694.61,463.14L694.93,456.25L694.94,456.17L695.94,437.04L695.95,437.01L697.93,416.31L697.94,416.29L699.47,389.68L699.47,389.6L699.99,351.92L700,351.37L700.15,46.8L700.67,463.14L701,456.14L701.01,456.07L702.01,437L702.02,436.97L703.91,417.29L703.92,417.26L705.47,391.77L705.47,391.7L706.04,355.67L706.04,355.21L706.16,305.27L706.16,301.75L706.21,46.64L706.74,463.14L707.16,453.56L707.17,453.49L708.17,435.9L708.18,435.87L710.16,415.19L710.17,415.16L712.08,360.73L712.08,360.37L712.28,46.72L712.8,463.14L713.08,457.6L713.09,457.52L715.77,420.24L715.78,420.21L717.66,389.99L717.66,389.9L718.19,353.33L718.19,352.82L718.35,46.68L718.87,463.14L719.19,456.41L719.2,456.34L720.2,437.11L720.21,437.08L722.19,416.38L722.2,416.35L724.19,362.82L724.19,362.49L724.33,325.58L724.34,323.88L724.41,46.65L724.93,463.14L725.34,454.1L725.35,454.03L726.35,436.13L726.36,436.1L728.34,415.42L728.35,415.39L730.28,360.65L730.28,360.29L730.48,46.81L731,463.14L731.28,457.58L731.29,457.51L732.29,437.62L732.3,437.59L734.19,417.86L734.2,417.83L735.8,391.84L735.8,391.77L736.37,355.66L736.38,355.2L736.55,46.64L737.07,463.14L737.38,456.69L737.39,456.61L738.39,437.2L738.4,437.17L741.99,387.88L741.99,387.79L742.48,347.86L742.48,347.19L742.61,46.69L743.13,463.14L743.48,455.72L743.49,455.65L744.49,436.82L744.5,436.79L746.48,416.1L746.49,416.07L748.46,362.68L748.46,362.35L748.68,46.78L749.2,463.14L749.46,458.15L749.47,458.08L750.47,437.88L750.48,437.85L752.3,418.84L752.31,418.81L754.12,387.92L754.12,387.83L754.62,346.07L754.62,345.35L754.74,46.64L755.27,463.14L755.62,455.54L755.63,455.46L756.63,436.74L756.64,436.71L758.62,416.03L758.63,416L760.61,360.79L760.61,360.43L760.81,46.65L761.33,463.14L761.61,457.68L761.62,457.61L762.62,437.67L762.63,437.64L764.52,417.9L764.53,417.87L766.66,362.75L766.66,362.42L766.88,46.75L767.4,463.14L767.66,458.17L767.67,458.1L768.67,437.89L768.68,437.86L770.78,415.72L770.79,415.69L772.74,360.64L772.74,360.28L772.88,319.24L772.88,317.07L772.94,46.79L773.47,463.14L773.88,453.86L773.89,453.79L776.43,420.32L776.44,420.29L778.33,389.9L778.33,389.82L778.86,351.76L778.86,351.2L778.97,289.06L778.97,283.3L779.01,46.69L779.54,463.15L779.97,453.3L779.98,453.23L780.98,435.76L780.99,435.73L784.31,392.51L784.31,392.43L784.88,359.8L784.88,359.43L785.01,316.43L785.02,314.03L785.08,46.64L785.61,463.15L786.02,453.7L786.03,453.63L788.07,425.33L788.08,425.3L790.39,392.21L790.39,392.14L790.96,357.82L790.96,357.4L791.09,311.21L791.09,308.32L791.15,46.63L791.67,463.15L792.09,453.63L792.1,453.56L793.1,435.93L793.11,435.9L795.21,413.82L795.22,413.78L797.01,360.5L797.01,360.14L797.14,318.43L797.15,316.2L797.21,46.63L797.74,463.15L798.15,453.84L798.16,453.77L799.16,436.02L799.17,435.99L801.15,415.32L801.16,415.29L802.61,389.56L802.61,389.47L803.13,351.65L803.13,351.09L803.24,288L803.24,282.07L803.28,46.63L803.81,463.15L804.24,453.22L804.25,453.15L806.77,420.29L806.78,420.26L808.72,388.01L808.72,387.92L809.22,346.09L809.22,345.37L809.31,267.57L809.31,257.76L809.35,46.64L809.88,463.15L809.99,461.73L810,461.67L812.72,421.49L812.73,421.47L814.73,389.99L814.73,389.91L815.26,351.77L815.27,351.22L815.42,46.69L815.94,463.15L816.27,456.13L816.28,456.05L817.28,437L817.29,436.97L819.18,417.29L819.19,417.26L820.74,391.72L820.74,391.65L821.31,355.84L821.31,355.39L821.43,303.12L821.43,299.33L821.48,46.83L822,463.12" style="vector-effect: none; fill: none; stroke: rgb(255, 0, 0); stroke-opacity: 1; stroke-width: 4px; opacity: 1;"/></g><g class="points"/><g class="text"/></g><g class="trace scatter trace6107a1" style="stroke-miterlimit: 2; opacity: 0.5;"><g class="fills"/><g class="errorbars"/><g class="lines"><path class="js-line" d="M0,525.58L1,556.09L1.01,556.11L2.32,559.4L2.32,559.4L2.33,559.4L6.31,559.55L6.31,559.55L6.32,559.55L20.55,559.55L20.55,559.55L20.55,557.29L22.03,476.07L22.04,476.02L24.06,454.43L24.07,454.42L26.35,440.97L26.36,440.96L34.7,398.98L34.7,398.95L35.65,377.52L35.65,377.39L35.94,344.45L35.94,343.62L36.05,30.22L36.52,476.37L36.94,464.78L36.95,464.71L37.95,451.87L37.96,451.86L40.09,444.36L40.1,444.36L49.7,412.34L49.7,412.33L51.49,397.6L51.49,397.57L52.31,378.52L52.31,378.4L52.61,347.43L52.61,346.71L52.73,30.21L53.2,476.32L53.61,464.91L53.62,464.84L55.31,448.93L55.32,448.92L58.85,438.88L58.86,438.88L64.6,420.69L64.6,420.68L67.32,405.72L67.32,405.7L68.57,389.96L68.57,389.9L69.2,354.12L69.2,353.62L69.35,30.03L69.82,476.27L70.2,465.75L70.21,465.67L71.21,451.93L71.22,451.92L73.28,444.53L73.29,444.52L81.61,418.81L81.61,418.8L83.91,405.49L83.91,405.47L85.12,389.96L85.12,389.9L85.76,352.73L85.76,352.18L85.86,294.9L85.86,289.2L85.9,29.96L86.37,476.23L86.86,462.78L86.87,462.72L88.4,449.12L88.41,449.11L92.02,438.75L92.03,438.75L97.67,420.81L97.67,420.8L100.37,405.9L100.37,405.88L101.62,390.11L101.62,390.05L102.26,352.85L102.26,352.3L102.36,295.92L102.36,290.4L102.41,29.97L102.87,476.2L103.36,462.82L103.37,462.76L104.88,449.15L104.89,449.14L108.52,438.71L108.52,438.71L108.53,438.7L114.14,420.85L114.14,420.83L116.82,406.01L116.82,405.99L118.08,390.17L118.08,390.11L118.73,352.65L118.73,352.09L118.87,29.89L119.33,476.18L119.73,465.25L119.74,465.18L120.74,451.74L120.75,451.72L123.73,441.84L123.74,441.83L130.58,420.86L130.58,420.85L133.25,406.05L133.25,406.03L134.51,390.15L134.51,390.1L135.16,352.37L135.16,351.8L135.3,29.96L135.76,476.16L136.16,465.26L136.17,465.19L137.17,451.72L137.18,451.7L139.32,444.11L139.33,444.11L147.43,418.95L147.43,418.94L150.33,399.55L150.33,399.52L151.3,377.87L151.3,377.75L151.59,344.29L151.6,343.45L151.71,29.93L152.17,476.15L152.6,464.3L152.61,464.23L153.61,451.52L153.62,451.51L155.75,444.03L155.75,444.03L155.76,444.02L163.81,419L163.81,418.99L166.09,405.76L166.09,405.74L167.65,379.39L167.66,379.27L168.09,29.83L168.56,476.13L168.66,474.51L168.67,474.44L169.67,453.57L169.68,453.55L171.41,446.2L171.41,446.2L171.42,446.19L177.06,430.82L177.07,430.82L181.38,413.03L181.38,413.02L183.21,398.1L183.21,398.07L184.31,356.01L184.31,355.55L184.47,29.95L184.93,476.13L185.31,465.69L185.32,465.61L187.02,448.76L187.03,448.75L190.61,438.51L190.61,438.51L190.62,438.5L196.12,420.91L196.12,420.9L198.77,406.18L198.77,406.16L200.03,390.32L200.03,390.26L200.68,354.13L200.68,353.62L200.83,29.9L201.29,476.12L201.68,465.45L201.69,465.38L202.69,451.69L202.7,451.68L205.5,442.25L205.51,442.25L212.9,419.03L212.9,419.02L215.16,405.86L215.16,405.84L216.39,390.18L216.39,390.12L217.03,352.76L217.04,352.21L217.18,29.8L217.64,476.11L218.04,465.18L218.05,465.1L219.05,451.65L219.06,451.63L221.2,444.04L221.21,444.04L230.43,413.09L230.43,413.08L232.26,398.15L232.26,398.12L233.1,378.77L233.1,378.65L233.52,29.97L233.99,476.11L234.1,474.17L234.11,474.1L235.11,453.44L235.12,453.42L236.8,446.28L236.81,446.27L242.58,430.48L242.58,430.48L242.59,430.47L246.76,413.13L246.76,413.11L248.5,399.36L248.5,399.33L249.45,377.93L249.45,377.8L249.75,344.48L249.75,343.64L249.86,29.95L250.33,476.11L250.75,464.33L250.76,464.26L251.76,451.48L251.77,451.47L253.9,443.98L253.9,443.98L253.91,443.97L263.09,413.15L263.09,413.13L264.84,399.34L264.84,399.3L265.79,377.82L265.79,377.69L266.19,29.86L266.65,476.1L266.79,473.59L266.8,473.51L267.8,453.28L267.81,453.26L269.53,446.08L269.53,446.08L269.54,446.07L275.47,429.75L275.48,429.74L279.42,413.15L279.42,413.13L281.17,399.29L281.17,399.26L282.11,377.9L282.12,377.77L282.52,29.85L282.98,476.1L283.12,473.55L283.13,473.47L284.13,453.25L284.14,453.23L286.49,444.17L286.5,444.17L295.75,413.13L295.75,413.11L297.49,399.34L297.49,399.3L298.44,377.93L298.44,377.8L298.73,346.06L298.73,345.29L298.85,29.94L299.31,476.1L299.73,464.47L299.74,464.39L300.74,451.5L300.75,451.48L303.52,442.21L303.53,442.21L310.46,420.96L310.46,420.95L313.1,406.28L313.1,406.26L314.37,390.34L314.37,390.29L315.02,352.61L315.03,352.06L315.17,29.83L315.64,476.1L316.03,465.13L316.04,465.06L317.04,451.62L317.05,451.61L319.1,444.28L319.1,444.28L319.11,444.27L328.39,413.14L328.39,413.12L330.13,399.35L330.13,399.32L331.08,377.99L331.08,377.86L331.37,345.65L331.37,344.86L331.45,263.88L331.45,251.38L331.49,29.78L331.95,476.09L332.2,469.85L332.21,469.76L333.21,452.49L333.22,452.47L335.37,444.42L335.37,444.42L335.38,444.41L343.53,419.07L343.53,419.05L345.93,404.68L345.93,404.66L347.03,389.93L347.03,389.87L347.66,352.47L347.66,351.91L347.76,291.7L347.76,285.42L347.8,29.97L348.2,474.77L348.21,474.88L348.27,476.09L349.21,455.07L349.22,455.04L351.03,446.43L351.04,446.42L356.92,430.26L356.92,430.26L356.93,430.25L361.02,413.16L361.02,413.15L362.86,398.19L362.86,398.16L363.95,358.05L363.95,357.63L364.12,29.83L364.59,476.09L364.95,466.16L364.96,466.08L365.96,451.79L365.97,451.77L368.98,441.72L368.98,441.72L368.99,441.71L375.73,420.96L375.73,420.95L378.37,406.3L378.37,406.28L379.64,390.33L379.64,390.27L380.28,354.52L380.29,354.02L380.43,29.92L380.9,476.09L381.29,465.33L381.3,465.25L383.02,448.6L383.03,448.59L386.6,438.39L386.61,438.39L392.05,420.95L392.05,420.94L394.68,406.31L394.68,406.29L395.95,390.36L395.95,390.31L396.42,373.53L396.42,373.36L396.67,332.09L396.67,330.62L396.75,29.78L397.21,476.09L397.67,463.51L397.68,463.44L399.22,449.01L399.23,449L402.89,438.45L402.9,438.45L408.35,420.98L408.35,420.97L410.99,406.31L410.99,406.29L412.22,391.4L412.22,391.35L412.9,356.27L412.9,355.81L413.06,29.79L413.53,476.09L413.9,465.83L413.91,465.76L414.91,451.73L414.92,451.71L417.93,441.68L417.94,441.68L424.67,420.95L424.67,420.94L427.31,406.27L427.31,406.25L428.58,390.29L428.58,390.24L429.23,352.61L429.23,352.06L429.37,29.83L429.84,476.09L430.23,465.2L430.24,465.13L431.95,448.61L431.96,448.61L435.53,438.4L435.54,438.4L440.97,420.98L440.97,420.97L443.62,406.27L443.62,406.25L444.89,390.3L444.89,390.25L445.54,352.71L445.54,352.16L445.68,29.79L446.15,476.09L446.54,465.21L446.55,465.14L447.55,451.63L447.56,451.61L449.71,443.98L449.72,443.98L458.89,413.16L458.89,413.14L460.63,399.38L460.63,399.35L461.58,377.95L461.58,377.83L461.88,344.61L461.88,343.78L461.99,29.85L462.45,476.09L462.88,464.32L462.89,464.25L463.89,451.46L463.9,451.45L466.03,443.95L466.04,443.94L474.02,419.09L474.02,419.07L476.27,405.96L476.27,405.94L477.5,390.31L477.5,390.26L477.97,373.37L477.97,373.2L478.22,330.71L478.22,329.15L478.3,29.79L478.76,476.09L479.22,463.45L479.23,463.38L480.75,449.07L480.76,449.06L484.43,438.46L484.44,438.46L489.9,420.96L489.9,420.94L492.71,404.86L492.71,404.84L493.82,390.03L493.82,389.97L494.46,352.79L494.46,352.24L494.6,29.79L495.07,476.09L495.46,465.3L495.47,465.22L496.47,451.64L496.48,451.63L498.54,444.25L498.54,444.25L498.55,444.24L507.81,413.16L507.81,413.15L509.64,398.25L509.64,398.21L510.45,380.07L510.46,379.96L510.91,29.86L511.37,476.09L511.46,474.84L511.47,474.78L513.36,449.08L513.37,449.07L517.05,438.44L517.06,438.43L522.51,420.96L522.51,420.95L525.15,406.29L525.15,406.27L526.37,391.45L526.37,391.39L527.05,356.19L527.05,355.73L527.16,303.61L527.16,299.27L527.21,29.79L527.42,423.65L527.42,425.33L527.68,476.09L528.42,457.61L528.43,457.57L529.82,448.51L529.83,448.5L533.39,438.35L533.4,438.34L538.82,420.95L538.82,420.93L541.62,404.88L541.62,404.85L542.69,391.02L542.69,390.96L543.35,356.6L543.35,356.15L543.46,307.07L543.47,303.21L543.52,29.8L543.98,476.09L544.47,462.64L544.48,462.57L546.02,448.88L546.03,448.87L549.67,438.41L549.67,438.41L549.68,438.4L555.11,420.99L555.11,420.97L557.92,404.89L557.92,404.87L559.04,389.99L559.04,389.93L559.68,352.42L559.68,351.86L559.82,29.91L560.28,476.08L560.68,465.17L560.69,465.1L561.69,451.61L561.7,451.6L563.85,443.97L563.86,443.96L571.42,420.96L571.42,420.95L574.05,406.33L574.05,406.31L575.33,390.34L575.33,390.29L575.98,352.54L575.98,351.98L576.12,29.9L576.58,476.08L576.98,465.19L576.99,465.11L578.7,448.61L578.71,448.6L582.29,438.36L582.3,438.36L587.72,420.97L587.72,420.96L590.36,406.29L590.36,406.27L591.63,390.34L591.63,390.28L592.28,352.47L592.28,351.91L592.42,29.97L592.89,476.08L593.28,465.25L593.29,465.18L594.29,451.63L594.3,451.61L596.45,443.98L596.45,443.98L596.46,443.97L604.44,419.1L604.44,419.09L606.7,405.94L606.7,405.92L607.93,390.25L607.93,390.2L608.58,352.76L608.58,352.21L608.72,29.79L609.18,476.08L609.58,465.22L609.59,465.14L611.31,448.57L611.32,448.56L614.9,438.34L614.9,438.34L614.91,438.33L620.32,420.97L620.32,420.95L623.12,404.91L623.12,404.89L624.2,390.98L624.2,390.93L624.87,354.42L624.87,353.92L625.02,29.82L625.49,476.08L625.87,465.53L625.88,465.46L626.88,451.68L626.89,451.66L629.05,443.97L629.06,443.97L637.04,419.1L637.04,419.08L639.3,405.93L639.3,405.91L640.48,391.35L640.48,391.3L641.17,354.35L641.17,353.85L641.32,29.79L641.78,476.08L642.17,465.45L642.18,465.37L643.18,451.66L643.19,451.65L646,442.17L646,442.17L646.01,442.16L652.91,420.98L652.91,420.97L655.55,406.31L655.55,406.29L656.82,390.35L656.82,390.29L657.47,353.08L657.47,352.54L657.57,292.45L657.57,286.31L657.62,29.9L658,474.1L658.01,474.24L658.08,476.08L659.01,455.2L659.02,455.17L660.79,446.58L660.79,446.58L660.8,446.57L666.77,430.09L666.78,430.09L671.82,406.54L671.82,406.52L673.06,391.55L673.06,391.49L673.75,356.58L673.75,356.14L673.91,29.81L674.38,476.08L674.75,465.88L674.76,465.81L675.76,451.74L675.77,451.73L677.93,444L677.94,444L685.93,419.11L685.93,419.09L688.34,404.68L688.34,404.65L689.74,380.82L689.74,380.72L690.06,353.13L690.07,352.59L690.21,29.86L690.67,476.08L691.07,465.19L691.08,465.12L692.08,451.61L692.09,451.6L694.24,443.97L694.24,443.97L694.25,443.96L702.23,419.09L702.23,419.08L704.48,405.97L704.48,405.95L705.71,390.33L705.71,390.27L706.36,352.89L706.36,352.34L706.46,295.9L706.46,290.37L706.5,29.84L706.97,476.08L707.46,462.6L707.47,462.53L709.01,448.87L709.02,448.86L712.66,438.39L712.67,438.38L718.1,420.96L718.1,420.95L720.73,406.33L720.73,406.31L722,390.4L722,390.34L722.66,352.47L722.66,351.91L722.8,29.98L723.26,476.08L723.66,465.18L723.67,465.1L724.67,451.61L724.68,451.6L726.74,444.22L726.75,444.21L735.99,413.2L735.99,413.18L737.73,399.41L737.73,399.38L738.69,377.92L738.69,377.79L739.09,29.91L739.56,476.08L739.69,473.54L739.7,473.46L740.7,453.25L740.71,453.23L743.07,444.12L743.07,444.12L743.08,444.11L752.28,413.21L752.28,413.19L754.03,399.37L754.03,399.33L754.98,377.86L754.98,377.74L755.27,344.83L755.27,344.01L755.35,263.53L755.35,250.93L755.38,29.79L755.85,476.08L756.35,462.39L756.36,462.32L757.91,448.79L757.92,448.78L761.54,438.38L761.55,438.38L766.97,420.99L766.97,420.97L769.78,404.89L769.78,404.87L770.85,391.04L770.85,390.99L771.52,354.44L771.53,353.93L771.68,29.84L772.14,476.08L772.53,465.38L772.54,465.31L773.54,451.65L773.55,451.63L775.71,443.95L775.72,443.94L783.27,420.96L783.27,420.95L785.9,406.33L785.9,406.31L787.17,390.38L787.17,390.32L787.82,354.41L787.82,353.9L787.97,29.82L788.43,476.08L788.82,465.38L788.83,465.3L789.83,451.64L789.84,451.63L792.84,441.65L792.84,441.65L792.85,441.64L799.55,420.99L799.55,420.98L802.19,406.32L802.19,406.3L803.46,390.36L803.46,390.3L804.11,354.22L804.11,353.71L804.26,29.82L804.72,476.08L805.11,465.42L805.12,465.35L806.12,451.65L806.13,451.64L808.29,443.95L808.3,443.95L817.45,413.18L817.45,413.17L819.28,398.24L819.28,398.2L820.09,380.12L820.09,380.01L820.41,351.12L820.41,350.52L820.5,289.55L820.5,282.88L820.55,29.8L820.98,475.83L820.99,475.87L821.02,476.08L821.29,468.9L821.29,468.82L822,454.6" style="vector-effect: none; fill: none; stroke: rgb(0, 0, 0); stroke-opacity: 1; stroke-width: 4px; opacity: 1;"/></g><g class="points"/><g class="text"/></g></g></g><g class="xy2" transform="translate(153,100)" clip-path="url(#clipd65618xy2plot)"><g class="scatterlayer mlayer"><g class="trace scatter trace3547f1" style="stroke-miterlimit: 2;"><g class="fills"><g><path class="js-fill" d="M2055,589L0,589L0,589L205.5,589L215.78,560.53L226.05,544.83L236.33,535.01L246.6,531.08L256.88,530.1L267.15,531.08L277.43,533.04L297.97,538.93L308.25,542.86L411,566.42L513.75,577.22L616.5,581.64L719.25,583.6L2055,588.36" style="fill: rgb(255, 0, 0); fill-opacity: 0.2; stroke-width: 0;"/></g></g><g class="errorbars"/><g class="lines"><path class="js-line" d="M0,589L205.5,589L215.78,560.53L226.05,544.83L236.33,535.01L246.6,531.08L256.88,530.1L267.15,531.08L277.43,533.04L297.97,538.93L308.25,542.86L411,566.42L513.75,577.22L616.5,581.64L719.25,583.6L2055,588.36" style="vector-effect: none; fill: none; stroke: rgb(255, 0, 0); stroke-opacity: 0.2; stroke-width: 0px; opacity: 1;"/></g><g class="points"/><g class="text"/></g></g></g></g><path class="xlines-above crisp" d="M0,0" style="fill: none;"/><path class="ylines-above crisp" d="M0,0" style="fill: none;"/><g class="overlines-above"><path class="xy2-x crisp" d="M0,0" style="fill: none;"/><path class="xy2-y crisp" d="M0,0" style="fill: none;"/></g><g class="xaxislayer-above"><g class="xtick"><text text-anchor="middle" x="0" y="730" transform="translate(153,0)" style="font-family: 'Open Sans', verdana, arial, sans-serif; font-size: 40px; fill: rgb(42, 63, 95); fill-opacity: 1; white-space: pre; opacity: 1;">0</text></g><g class="xtick"><text text-anchor="middle" x="0" y="730" style="font-family: 'Open Sans', verdana, arial, sans-serif; font-size: 40px; fill: rgb(42, 63, 95); fill-opacity: 1; white-space: pre; opacity: 1;" transform="translate(358.5,0)">2</text></g><g class="xtick"><text text-anchor="middle" x="0" y="730" style="font-family: 'Open Sans', verdana, arial, sans-serif; font-size: 40px; fill: rgb(42, 63, 95); fill-opacity: 1; white-space: pre; opacity: 1;" transform="translate(564,0)">4</text></g><g class="xtick"><text text-anchor="middle" x="0" y="730" style="font-family: 'Open Sans', verdana, arial, sans-serif; font-size: 40px; fill: rgb(42, 63, 95); fill-opacity: 1; white-space: pre; opacity: 1;" transform="translate(769.5,0)">6</text></g><g class="xtick"><text text-anchor="middle" x="0" y="730" style="font-family: 'Open Sans', verdana, arial, sans-serif; font-size: 40px; fill: rgb(42, 63, 95); fill-opacity: 1; white-space: pre; opacity: 1;" transform="translate(975,0)">8</text></g></g><g class="yaxislayer-above"><g class="ytick"><text text-anchor="end" x="152" y="14" transform="translate(0,680.03)" style="font-family: 'Open Sans', verdana, arial, sans-serif; font-size: 40px; fill: rgb(42, 63, 95); fill-opacity: 1; white-space: pre; opacity: 1;">−100</text></g><g class="ytick"><text text-anchor="end" x="152" y="14" style="font-family: 'Open Sans', verdana, arial, sans-serif; font-size: 40px; fill: rgb(42, 63, 95); fill-opacity: 1; white-space: pre; opacity: 1;" transform="translate(0,596.25)">−80</text></g><g class="ytick"><text text-anchor="end" x="152" y="14" style="font-family: 'Open Sans', verdana, arial, sans-serif; font-size: 40px; fill: rgb(42, 63, 95); fill-opacity: 1; white-space: pre; opacity: 1;" transform="translate(0,512.48)">−60</text></g><g class="ytick"><text text-anchor="end" x="152" y="14" style="font-family: 'Open Sans', verdana, arial, sans-serif; font-size: 40px; fill: rgb(42, 63, 95); fill-opacity: 1; white-space: pre; opacity: 1;" transform="translate(0,428.7)">−40</text></g><g class="ytick"><text text-anchor="end" x="152" y="14" style="font-family: 'Open Sans', verdana, arial, sans-serif; font-size: 40px; fill: rgb(42, 63, 95); fill-opacity: 1; white-space: pre; opacity: 1;" transform="translate(0,344.91999999999996)">−20</text></g><g class="ytick"><text text-anchor="end" x="152" y="14" style="font-family: 'Open Sans', verdana, arial, sans-serif; font-size: 40px; fill: rgb(42, 63, 95); fill-opacity: 1; white-space: pre; opacity: 1;" transform="translate(0,261.15)">0</text></g><g class="ytick"><text text-anchor="end" x="152" y="14" style="font-family: 'Open Sans', verdana, arial, sans-serif; font-size: 40px; fill: rgb(42, 63, 95); fill-opacity: 1; white-space: pre; opacity: 1;" transform="translate(0,177.37)">20</text></g></g><g class="overaxes-above"><g class="xy2-x"/><g class="xy2-y"><g class="y2tick"><text text-anchor="start" x="976" y="14" transform="translate(0,689)" style="font-family: 'Open Sans', verdana, arial, sans-serif; font-size: 40px; fill: rgb(42, 63, 95); fill-opacity: 1; white-space: pre; opacity: 1;">0</text></g><g class="y2tick"><text text-anchor="start" x="976" y="14" style="font-family: 'Open Sans', verdana, arial, sans-serif; font-size: 40px; fill: rgb(42, 63, 95); fill-opacity: 1; white-space: pre; opacity: 1;" transform="translate(0,630.1)">600.0</text></g></g></g></g><g class="subplot xy2"/></g><g class="polarlayer"/><g class="smithlayer"/><g class="ternarylayer"/><g class="geolayer"/><g class="funnelarealayer"/><g class="pielayer"/><g class="iciclelayer"/><g class="treemaplayer"/><g class="sunburstlayer"/><g class="glimages"/><defs id="topdefs-d65618"><g class="clips"/><clipPath id="legendd65618"><rect width="197" height="175" x="0" y="0"/></clipPath></defs><g class="layer-above"><g class="imagelayer"/><g class="shapelayer"/></g><g class="infolayer"><g class="legend" pointer-events="all" transform="translate(991.44,42.799999999999955)"><rect class="bg" shape-rendering="crispEdges" width="197" height="175" x="0" y="0" style="stroke: rgb(68, 68, 68); stroke-opacity: 1; fill: rgb(255, 255, 255); fill-opacity: 1; stroke-width: 0px;"/><g class="scrollbox" transform="" clip-path="url(#legendd65618)"><g class="groups"><g class="traces" transform="translate(0,32.5)" style="opacity: 1;"><text class="legendtext" text-anchor="start" x="40" y="15.6" style="font-family: 'Open Sans', verdana, arial, sans-serif; font-size: 40px; fill: rgb(42, 63, 95); fill-opacity: 1; white-space: pre;">DA</text><g class="layers" style="opacity: 0.5;"><g class="legendfill"/><g class="legendlines"><path class="js-line" d="M5,0h30" style="fill: none; stroke: rgb(255, 0, 0); stroke-opacity: 1; stroke-width: 4px;"/></g><g class="legendsymbols"><g class="legendpoints"/></g></g><rect class="legendtoggle" x="0" y="-27.5" width="191.171875" height="55" style="fill: rgb(0, 0, 0); fill-opacity: 0;"/></g><g class="traces" transform="translate(0,87.5)" style="opacity: 1;"><text class="legendtext" text-anchor="start" x="40" y="15.6" style="font-family: 'Open Sans', verdana, arial, sans-serif; font-size: 40px; fill: rgb(42, 63, 95); fill-opacity: 1; white-space: pre;">No DA</text><g class="layers" style="opacity: 0.5;"><g class="legendfill"/><g class="legendlines"><path class="js-line" d="M5,0h30" style="fill: none; stroke: rgb(0, 0, 0); stroke-opacity: 1; stroke-width: 4px;"/></g><g class="legendsymbols"><g class="legendpoints"/></g></g><rect class="legendtoggle" x="0" y="-27.5" width="191.171875" height="55" style="fill: rgb(0, 0, 0); fill-opacity: 0;"/></g><g class="traces" transform="translate(0,142.5)" style="opacity: 1;"><text class="legendtext" text-anchor="start" x="40" y="15.6" style="font-family: 'Open Sans', verdana, arial, sans-serif; font-size: 40px; fill: rgb(42, 63, 95); fill-opacity: 1; white-space: pre;">DA conc</text><g class="layers"><g class="legendfill"><path class="js-fill" d="M5,-2h30v6h-30z" style="stroke-width: 0; fill: rgb(255, 0, 0); fill-opacity: 0.2;"/></g><g class="legendlines"><path class="js-line" d="M5,-2h30" style="fill: none; stroke: rgb(255, 0, 0); stroke-opacity: 0.2; stroke-width: 0px;"/></g><g class="legendsymbols"><g class="legendpoints"/></g></g><rect class="legendtoggle" x="0" y="-27.5" width="191.171875" height="55" style="fill: rgb(0, 0, 0); fill-opacity: 0;"/></g></g></g><rect class="scrollbar" rx="20" ry="3" width="0" height="0" x="0" y="0" style="fill: rgb(128, 139, 164); fill-opacity: 1;"/></g><g class="g-gtitle"/><g class="g-xtitle"><text class="xtitle" x="564" y="787.5" text-anchor="middle" style="opacity: 1; font-family: 'Open Sans', verdana, arial, sans-serif; font-size: 50px; fill: rgb(42, 63, 95); fill-opacity: 1; white-space: pre;">Time (s)</text></g><g class="g-ytitle" transform="translate(15.109375,0)"><text class="ytitle" transform="rotate(-90,29.890625,394.5)" x="29.890625" y="394.5" text-anchor="middle" style="opacity: 1; font-family: 'Open Sans', verdana, arial, sans-serif; font-size: 50px; fill: rgb(42, 63, 95); fill-opacity: 1; white-space: pre;">Voltage (mV)</text></g><g class="g-y2title"><text class="y2title" transform="rotate(-90,1125.609375,394.5)" x="1125.609375" y="394.5" text-anchor="middle" style="opacity: 1; font-family: 'Open Sans', verdana, arial, sans-serif; font-size: 50px; fill: rgb(42, 63, 95); fill-opacity: 1; white-space: pre;">DA Conc (nM)</text></g></g></svg>