<svg class="main-svg" xmlns="http://www.w3.org/2000/svg" xmlns:xlink="http://www.w3.org/1999/xlink" width="2400" height="1600" style="" viewBox="0 0 1200 800"><rect x="0" y="0" width="1200" height="800" style="fill: rgb(255, 255, 255); fill-opacity: 1;"/><defs id="defs-331a60"><g class="clips"><clipPath id="clip331a60xyplot" class="plotclip"><rect width="843" height="589"/></clipPath><clipPath id="clip331a60xy2plot" class="plotclip"><rect width="843" height="589"/></clipPath><clipPath class="axesclip" id="clip331a60x"><rect x="131" y="0" width="843" height="800"/></clipPath><clipPath class="axesclip" id="clip331a60y"><rect x="0" y="100" width="1200" height="589"/></clipPath><clipPath class="axesclip" id="clip331a60xy"><rect x="131" y="100" width="843" height="589"/></clipPath><clipPath class="axesclip" id="clip331a60y2"><rect x="0" y="100" width="1200" height="589"/></clipPath><clipPath class="axesclip" id="clip331a60xy2"><rect x="131" y="100" width="843" height="589"/></clipPath></g><g class="gradients"/><g class="patterns"/></defs><g class="bglayer"/><g class="layer-below"><g class="imagelayer"/><g class="shapelayer"/></g><g class="cartesianlayer"><g class="subplot xy"><g class="layer-subplot"><g class="shapelayer"/><g class="imagelayer"/></g><g class="minor-gridlayer"><g class="x"/><g class="y"/><g class="y2"/></g><g class="gridlayer"><g class="x"><path class="xgrid crisp" transform="translate(341.75,0)" d="M0,100v589" style="stroke: rgb(255, 255, 255); stroke-opacity: 1; stroke-width: 1px;"/><path class="xgrid crisp" transform="translate(552.5,0)" d="M0,100v589" style="stroke: rgb(255, 255, 255); stroke-opacity: 1; stroke-width: 1px;"/><path class="xgrid crisp" transform="translate(763.25,0)" d="M0,100v589" style="stroke: rgb(255, 255, 255); stroke-opacity: 1; stroke-width: 1px;"/></g><g class="y"><path class="ygrid crisp" transform="translate(0,614.41)" d="M131,0h843" style="stroke: rgb(255, 255, 255); stroke-opacity: 1; stroke-width: 1px;"/><path class="ygrid crisp" transform="translate(0,525.74)" d="M131,0h843" style="stroke: rgb(255, 255, 255); stroke-opacity: 1; stroke-width: 1px;"/><path class="ygrid crisp" transform="translate(0,437.07)" d="M131,0h843" style="stroke: rgb(255, 255, 255); stroke-opacity: 1; stroke-width: 1px;"/><path class="ygrid crisp" transform="translate(0,348.4)" d="M131,0h843" style="stroke: rgb(255, 255, 255); stroke-opacity: 1; stroke-width: 1px;"/><path class="ygrid crisp" transform="translate(0,171.05)" d="M131,0h843" style="stroke: rgb(255, 255, 255); stroke-opacity: 1; stroke-width: 1px;"/></g><g class="y2"/></g><g class="zerolinelayer"><path class="xzl zl crisp" transform="translate(131,0)" d="M0,100v589" style="stroke: rgb(255, 255, 255); stroke-opacity: 1; stroke-width: 2px;"/><path class="yzl zl crisp" transform="translate(0,259.72)" d="M131,0h843" style="stroke: rgb(255, 255, 255); stroke-opacity: 1; stroke-width: 2px;"/><path class="y2zl zl crisp" transform="translate(0,689)" d="M131,0h843" style="stroke: rgb(255, 255, 255); stroke-opacity: 1; stroke-width: 2px;"/></g><g class="layer-between"><g class="shapelayer"/><g class="imagelayer"/></g><path class="xlines-below"/><path class="ylines-below"/><g class="overlines-below"><path class="xy2-x"/><path class="xy2-y"/></g><g class="xaxislayer-below"/><g class="yaxislayer-below"/><g class="overaxes-below"><g class="xy2-x"/><g class="xy2-y"/></g><g class="overplot"><g class="xy" transform="translate(131,100)" clip-path="url(#clip331a60xyplot)"><g class="scatterlayer mlayer"><g class="trace scatter trace7d320d" style="stroke-miterlimit: 2; opacity: 0.5;"><g class="fills"/><g class="errorbars"/><g class="lines"><path class="js-line" d="M0,541.01L1.73,556.47L1.74,556.48L3.57,559.11L3.57,559.11L3.58,559.11L7.16,559.54L7.16,559.54L7.17,559.54L21.07,559.55L21.07,559.55L21.08,557.84L22.08,487.57L22.09,487.5L23.09,468.25L23.1,468.22L24.86,452.13L24.87,452.12L27.91,437.81L27.92,437.81L31.16,428.95L31.16,428.95L31.17,428.94L38.89,409.18L38.89,409.16L40.28,397.14L40.28,397.09L40.84,380.69L40.84,380.53L41.09,342.32L41.09,341.06L41.16,219.57L41.16,197.05L41.19,30.62L42.16,447.8L42.17,447.81L42.6,448.8L43.2,448.01L43.21,448.01L46.69,443.78L46.7,443.78L51.02,437.74L51.02,437.73L57.89,421.76L57.89,421.75L61.23,412.38L61.23,412.37L62.95,401.41L62.95,401.38L63.78,382.15L63.78,382.01L64.05,345.9L64.05,344.81L64.15,30.42L65.05,447.1L65.06,447.12L65.55,448.58L66.13,447.84L66.14,447.83L69.66,443.53L69.67,443.53L73.95,437.53L73.95,437.52L83.92,411.31L83.92,411.3L85.6,397.91L85.6,397.87L86.37,361.44L86.37,360.93L86.53,30.04L87.37,446.56L87.38,446.58L87.93,448.44L88.49,447.72L88.5,447.71L92.02,443.41L92.03,443.41L96.29,437.43L96.29,437.43L96.29,437.42L100.9,425.97L100.9,425.97L100.9,425.96L105.22,414.51L105.22,414.5L107.02,405.05L107.02,405.03L107.94,392.22L107.94,392.15L108.41,363.05L108.41,362.58L108.52,309.89L108.53,305.75L108.58,29.92L109.53,447.36L109.54,447.37L109.99,448.36L110.58,447.58L110.58,447.57L114.69,442.73L114.69,442.73L114.7,442.72L118.33,437.38L118.33,437.38L118.33,437.37L122.71,426.38L122.71,426.37L127.02,414.94L127.02,414.93L128.9,405.21L128.9,405.19L129.82,392.35L129.82,392.28L130.3,363.22L130.3,362.76L130.47,29.97L131.3,446.42L131.31,446.44L131.88,448.33L132.42,447.62L132.43,447.62L135.9,443.42L135.9,443.42L135.91,443.41L140.21,437.39L140.21,437.38L144.53,426.51L144.53,426.51L144.53,426.5L149.66,411.77L149.66,411.76L151.36,398.25L151.36,398.21L151.95,381.59L151.95,381.43L152.3,29.72L152.95,444.21L152.96,444.25L153.7,448.33L154.13,447.83L154.14,447.83L157.67,443.52L157.67,443.52L157.68,443.52L162.05,437.43L162.05,437.42L171.19,413.17L171.19,413.16L172.92,402.16L172.92,402.13L173.76,383.79L173.76,383.66L174.04,350.45L174.05,349.57L174.16,29.58L175.05,446.99L175.06,447.01L175.55,448.35L176.15,447.59L176.15,447.58L180.6,442.48L180.6,442.48L180.61,442.48L183.9,437.5L183.9,437.49L193.16,412.96L193.16,412.95L194.84,402.13L194.84,402.1L195.68,383.82L195.68,383.69L195.97,350.62L195.97,349.74L196.08,29.52L196.97,447.01L196.98,447.03L197.49,448.38L198.07,447.63L198.08,447.62L201.38,443.72L201.39,443.72L205.82,437.59L205.82,437.59L205.82,437.58L210.3,426.39L210.3,426.39L210.3,426.38L214.73,414.7L214.73,414.69L216.55,405.17L216.55,405.14L217.47,392.34L217.47,392.27L217.94,362.97L217.95,362.5L218.11,29.47L218.95,446.65L218.96,446.67L219.52,448.42L220.06,447.74L220.07,447.74L223.36,443.86L223.36,443.86L223.37,443.86L227.85,437.68L227.85,437.68L227.85,437.67L237.32,412.64L237.32,412.63L238.92,402.13L238.92,402.1L239.78,382.63L239.79,382.49L240.16,29.45L240.79,444.08L240.8,444.12L241.54,448.36L241.98,447.87L241.99,447.86L246.29,442.7L246.3,442.7L249.67,437.63L249.67,437.63L249.67,437.62L253.67,426.85L253.67,426.85L253.67,426.84L257.93,412.42L257.93,412.4L259.47,399.03L259.47,398.99L260.25,362.22L260.26,361.72L260.42,30.58L261.26,445.11L261.27,445.14L261.73,446.8L262.33,445.82L262.34,445.81L270.34,425.9L270.34,425.88L272.23,414.2L272.23,414.17L273.74,389.32L273.74,389.21L274.24,38.02L274.74,433.25L274.75,433.3L275.46,439.98L275.97,438.23L275.98,438.21L279.65,413.62L279.65,413.6L280.67,399.42L280.67,399.36L281.37,360.48L281.37,359.97L281.54,46.78L282.37,432.54L282.38,432.57L282.76,434.45L283.34,431.72L283.34,431.7L285.76,407.74L285.76,407.7L286.62,386.36L286.62,386.23L286.94,352.04L286.94,351.28L287.07,49.72L287.94,431.45L287.95,431.47L288.28,432.88L288.82,430.23L288.83,430.21L291.59,393.52L291.59,393.43L292.08,354.85L292.08,354.19L292.22,50.7L293.08,432.37L293.09,432.39L293.37,433.37L293.92,430.59L293.93,430.57L296.7,392.09L296.7,391.99L297.16,351.88L297.16,351.13L297.29,51.04L298.16,432.99L298.17,433.01L298.39,433.69L298.91,431.21L298.92,431.19L301.66,394.45L301.66,394.37L302.17,357.26L302.17,356.67L302.32,51.11L303.17,432.88L303.18,432.9L303.41,433.66L303.94,431.18L303.94,431.16L306.73,392.4L306.73,392.3L307.19,351.45L307.19,350.68L307.32,51.2L308.19,432.97L308.2,432.99L308.42,433.61L308.93,431.14L308.94,431.12L311.71,392.51L311.71,392.42L312.17,352.23L312.17,351.48L312.27,267.8L312.27,257.9L312.31,51.19L313.27,433.41L313.27,433.41L313.28,433.42L313.41,433.58L313.73,432.39L313.73,432.38L315.66,412.85L315.66,412.82L316.72,391.18L316.72,391.08L317.09,363.93L317.09,363.5L317.28,51.18L318.09,432.48L318.1,432.5L318.37,433.56L318.93,430.8L318.93,430.78L321.7,390.7L321.7,390.6L322.25,51.04L322.7,426.6L322.71,426.66L323.35,433.54L323.86,430.98L323.87,430.96L326.6,392.74L326.6,392.65L327.07,352.3L327.07,351.56L327.17,268.46L327.17,258.68L327.21,51.12L328.17,433.37L328.18,433.37L328.35,433.48L328.6,432.48L328.61,432.47L328.61,432.45L330.55,412.84L330.55,412.81L331.6,391.31L331.6,391.21L332.16,51.06L332.6,426.19L332.61,426.26L333.23,433.52L333.61,432.13L333.62,432.11L335.64,410.95L335.64,410.91L336.6,389.33L336.6,389.22L337.11,51L337.6,427.44L337.61,427.5L338.2,433.51L338.74,430.83L338.75,430.81L341.45,392.84L341.45,392.75L341.92,352.19L341.93,351.44L342.06,50.97L342.93,432.9L342.94,432.92L343.15,433.5L343.66,431.02L343.67,430.99L346.33,394.95L346.33,394.87L346.85,357.05L346.85,356.45L347,50.92L347.85,432.74L347.86,432.76L348.1,433.49L348.61,430.97L348.61,430.95L350.47,410.92L350.47,410.88L351.43,389.38L351.43,389.27L351.94,50.85L352.43,427.49L352.44,427.55L353.04,433.48L353.57,430.8L353.58,430.78L356.28,392.73L356.28,392.64L356.75,350.35L356.75,349.54L356.88,50.82L357.75,432.89L357.76,432.91L357.97,433.48L358.48,431L358.49,430.98L361.21,392.83L361.21,392.74L361.68,351.92L361.68,351.16L361.81,50.81L362.68,432.87L362.69,432.89L362.91,433.47L363.41,431.01L363.42,430.99L366.14,392.84L366.14,392.75L366.61,352L366.61,351.25L366.7,273.15L366.7,264.22L366.74,50.8L367.38,430.3L367.39,430.34L367.83,433.47L368.4,430.56L368.4,430.54L370.22,410.78L370.22,410.74L371.16,389.44L371.16,389.33L371.67,50.88L372.16,427.4L372.17,427.46L372.77,433.46L373.3,430.77L373.31,430.75L376,392.82L376,392.73L376.47,351.79L376.47,351.03L376.6,50.82L377.47,432.86L377.48,432.88L377.69,433.46L378.2,430.98L378.21,430.96L380.86,394.97L380.86,394.89L381.37,357.54L381.37,356.95L381.48,295.25L381.48,289.92L381.53,50.98L382.48,433.27L382.49,433.28L382.64,433.44L382.96,432.18L382.96,432.16L384.83,413.02L384.83,412.99L385.89,391.38L385.89,391.28L386.45,50.93L386.89,426.27L386.9,426.34L387.54,433.45L388.09,430.65L388.1,430.63L390.77,392.86L390.77,392.76L391.24,351.97L391.24,351.22L391.37,50.75L392.24,432.83L392.25,432.85L392.46,433.45L392.97,430.97L392.98,430.95L395.69,392.85L395.69,392.75L396.16,351.87L396.16,351.11L396.25,271.55L396.25,262.33L396.29,50.76L396.94,430.46L396.95,430.51L397.39,433.44L397.95,430.5L397.96,430.48L400.54,395.04L400.54,394.96L401.06,357.35L401.06,356.76L401.21,50.77L402.06,432.7L402.07,432.72L402.31,433.44L402.81,430.96L402.82,430.94L405.46,395.03L405.46,394.94L405.97,358.95L405.97,358.39L406.13,50.73L406.97,432.65L406.98,432.66L407.22,433.44L407.73,430.98L407.73,430.96L409.58,410.98L409.58,410.94L410.56,388.21L410.56,388.09L410.9,356.27L410.9,355.64L411.05,50.85L411.9,432.73L411.91,432.75L412.12,433.44L412.65,430.98L412.65,430.96L415.36,392.89L415.36,392.8L415.83,352.19L415.83,351.44L415.96,50.8L416.83,432.84L416.84,432.85L417.06,433.43L417.56,430.95L417.57,430.93L420.2,395.18L420.2,395.1L420.72,357.73L420.72,357.14L420.83,291.61L420.83,285.75L420.88,50.75L421.83,433.25L421.84,433.25L421.97,433.43L422.33,432L422.34,431.98L424.31,411.16L424.31,411.12L425.28,389.43L425.28,389.32L425.79,50.71L426.28,427.49L426.29,427.55L426.88,433.43L427.42,430.69L427.43,430.67L430.1,392.94L430.1,392.85L430.57,351.82L430.57,351.06L430.66,270.83L430.66,261.48L430.7,50.76L431.35,430.42L431.36,430.46L431.79,433.43L432.36,430.52L432.36,430.49L434.16,410.84L434.16,410.8L435.13,388.2L435.13,388.08L435.46,356.22L435.47,355.59L435.61,50.77L436.47,432.74L436.48,432.76L436.69,433.43L437.21,430.96L437.22,430.94L439.85,395.16L439.85,395.08L440.37,357.53L440.37,356.94L440.48,295.04L440.48,289.68L440.53,50.91L441.48,433.24L441.49,433.25L441.64,433.41L441.96,432.14L441.96,432.12L443.96,411.11L443.96,411.07L444.92,389.49L444.92,389.38L445.28,358.62L445.28,358.06L445.44,50.84L446.28,432.67L446.29,432.69L446.53,433.42L447.03,430.96L447.04,430.94L449.74,392.98L449.74,392.88L450.21,353.46L450.21,352.75L450.35,50.7L451.21,432.8L451.22,432.82L451.44,433.42L451.95,430.89L451.96,430.87L454.65,392.92L454.65,392.83L455.12,352.33L455.12,351.59L455.21,268.13L455.22,258.27L455.25,50.9L456.22,433.27L456.23,433.28L456.66,432.32L456.66,432.31L458.55,413.01L458.55,412.98L459.64,389.96L459.64,389.85L460.16,50.79L460.64,427.2L460.65,427.27L461.25,433.42L461.79,430.73L461.79,430.71L463.61,410.9L463.61,410.87L464.59,388.14L464.59,388.02L465.07,50.79L465.59,428.14L465.6,428.19L466.16,433.42L466.7,430.69L466.71,430.67L469.42,391.09L469.42,390.99L469.79,363.57L469.79,363.13L469.91,314.27L469.92,311.18L469.98,50.9L470.92,433.19L470.93,433.2L471.06,433.42L471.46,431.78L471.47,431.76L473.27,413.03L473.27,413L474.36,390.01L474.36,389.9L474.89,50.69L475.36,427.11L475.37,427.18L475.96,433.42L476.51,430.72L476.52,430.69L479.18,393.03L479.18,392.94L479.66,352.41L479.66,351.67L479.79,50.85L480.66,432.82L480.67,432.84L480.89,433.41L481.39,430.93L481.4,430.91L484.09,392.97L484.09,392.88L484.56,351.91L484.57,351.15L484.7,50.69L485.57,432.85L485.58,432.86L485.79,433.41L486.3,430.92L486.3,430.9L488.14,410.96L488.14,410.93L489.12,388.19L489.12,388.07L489.6,50.68L490.12,428.06L490.13,428.12L490.7,433.41L491.23,430.69L491.24,430.67L493.9,392.99L493.9,392.9L494.37,352.07L494.38,351.31L494.51,50.69L495.38,432.84L495.39,432.86L495.6,433.41L496.11,430.92L496.11,430.9L497.94,411.08L497.94,411.04L498.93,388.19L498.93,388.07L499.41,50.68L499.93,428.06L499.94,428.12L500.51,433.41L501.04,430.69L501.05,430.67L503.65,395.12L503.65,395.04L504.16,357.74L504.16,357.16L504.27,291.68L504.27,285.83L504.32,50.7L505.27,433.22L505.28,433.23L505.41,433.41L505.77,431.99L505.77,431.97L507.02,420.09L507.02,420.06L508.56,394.77L508.56,394.68L509.07,357.57L509.07,356.98L509.22,50.88L510.07,432.67L510.08,432.69L510.31,433.41L510.83,430.9L510.83,430.88L512.66,411.01L512.66,410.97L513.64,388.2L513.64,388.08L513.98,356.14L513.98,355.51L514.13,50.68L514.98,432.72L514.99,432.74L515.22,433.41L515.73,430.87L515.74,430.85L518.42,393.04L518.42,392.95L518.9,351.72L518.9,350.95L519.03,50.8L519.9,432.83L519.91,432.85L520.12,433.41L520.63,430.92L520.63,430.9L522.34,412.79L522.34,412.76L523.37,391.46L523.37,391.36L523.75,363.83L523.75,363.39L523.94,50.67L524.75,432.44L524.76,432.46L525.02,433.41L525.57,430.62L525.58,430.6L528.28,391.09L528.28,390.99L528.65,363.98L528.65,363.55L528.84,50.82L529.65,432.41L529.66,432.43L529.93,433.41L530.48,430.56L530.49,430.54L533.13,393.05L533.13,392.95L533.6,353.9L533.6,353.21L533.7,278.06L533.7,270.01L533.74,50.76L534.7,433.25L534.71,433.25L534.83,433.41L535.16,432.2L535.16,432.18L537.03,413.04L537.03,413L538.08,391.45L538.08,391.35L538.46,362.42L538.47,361.95L538.65,50.68L539.47,432.51L539.48,432.53L539.73,433.41L540.29,430.53L540.3,430.51L542.87,395.22L542.87,395.14L543.38,358.99L543.39,358.44L543.55,50.67L544.39,432.64L544.4,432.66L544.63,433.41L545.14,430.95L545.15,430.93L547.84,393L547.84,392.9L548.31,353.52L548.31,352.82L548.41,273.79L548.41,264.97L548.45,50.68L549.41,433.25L549.42,433.26L549.77,432.77L549.85,432.33L549.85,432.32L551.74,413.05L551.74,413.01L552.79,391.47L552.79,391.37L553.23,348.96L553.23,348.1L553.35,50.69L554.23,432.87L554.24,432.88L554.44,433.41L554.95,430.91L554.96,430.89L557.65,393L557.65,392.91L558.12,352.11L558.12,351.36L558.21,274.03L558.22,265.25L558.26,50.69L559.22,433.26L559.23,433.26L559.65,432.36L559.65,432.32L559.66,432.3L561.68,411.16L561.68,411.13L562.67,388.32L562.67,388.2L563.01,356.13L563.01,355.5L563.16,50.67L564.01,432.72L564.02,432.73L564.24,433.41L564.75,430.95L564.76,430.93L567.45,393.08L567.45,392.99L567.93,352L567.93,351.25L568.06,50.66L568.93,432.82L568.94,432.84L569.14,433.41L569.66,430.91L569.67,430.89L572.35,393.07L572.35,392.97L572.82,354.04L572.82,353.35L572.92,279.51L572.92,271.71L572.96,50.68L573.92,433.24L573.93,433.25L574.1,433.36L574.36,432.33L574.36,432.31L575.66,420.17L575.66,420.14L577.26,392.87L577.26,392.77L577.73,353.23L577.73,352.52L577.87,50.74L578.73,432.79L578.74,432.81L578.94,433.41L579.46,430.94L579.47,430.92L582.16,393.03L582.16,392.94L582.63,352.38L582.63,351.63L582.73,268.55L582.73,258.76L582.77,50.88L583.73,433.25L583.74,433.26L584.16,432.37L584.16,432.32L584.17,432.3L586.19,411.17L586.19,411.13L587.15,389.6L587.15,389.49L587.5,360.18L587.5,359.66L587.61,303.28L587.62,299L587.67,50.74L588.62,433.22L588.63,433.23L588.77,433.4L589.11,432.04L589.11,432.02L590.37,420.09L590.37,420.06L591.97,392.81L591.97,392.71L592.44,352.03L592.44,351.27L592.57,50.66L593.44,432.82L593.45,432.84L593.65,433.41L594.17,430.91L594.18,430.89L596.87,392.96L596.87,392.87L597.34,351.82L597.34,351.06L597.47,50.71L598.34,432.81L598.35,432.83L598.55,433.41L599.07,430.92L599.08,430.9L601.77,392.94L601.77,392.85L602.24,352.34L602.24,351.6L602.37,50.87L603.24,432.8L603.25,432.81L603.45,433.41L603.97,430.94L603.98,430.91L606.6,395.23L606.6,395.15L607.11,359.05L607.12,358.51L607.28,50.68L608.12,432.66L608.13,432.68L608.35,433.41L608.87,430.95L608.88,430.93L611.57,393.06L611.57,392.97L612.04,351.87L612.05,351.11L612.18,50.69L613.05,432.84L613.06,432.86L613.25,433.41L613.78,430.92L613.78,430.9L615.61,411.03L615.61,410.99L616.56,389.51L616.56,389.4L616.91,359.76L616.92,359.23L617.08,50.89L617.92,432.63L617.93,432.65L618.16,433.41L618.68,430.96L618.68,430.94L621.37,393.09L621.37,393L621.85,352.1L621.85,351.35L621.98,50.68L622.85,432.82L622.86,432.84L623.06,433.41L623.58,430.91L623.59,430.89L626.28,392.97L626.28,392.87L626.74,353.98L626.74,353.28L626.84,278.82L626.84,270.9L626.88,50.7L627.84,433.23L627.84,433.23L627.85,433.24L627.98,433.4L628.31,432.13L628.31,432.11L629.49,421.12L629.49,421.09L631.12,394.85L631.12,394.76L631.63,357.52L631.63,356.93L631.78,50.82L632.63,432.67L632.64,432.69L632.86,433.41L633.38,430.93L633.39,430.91L636.01,395.23L636.01,395.14L636.52,358.99L636.53,358.44L636.69,50.66L637.53,432.66L637.54,432.68L637.76,433.41L638.29,430.89L638.29,430.86L640,412.75L640,412.72L641.4,363.67L641.4,363.23L641.59,50.75L642.4,432.4L642.41,432.42L642.66,433.41L643.23,430.56L643.24,430.54L645.88,393.01L645.88,392.92L646.35,353.65L646.35,352.95L646.49,50.75L647.35,432.77L647.36,432.78L647.57,433.41L648.09,430.93L648.09,430.91L649.92,411.05L649.92,411.01L650.9,388.3L650.9,388.18L651.24,356.03L651.24,355.4L651.34,286.6L651.35,279.97L651.39,50.66L652.35,433.24L652.36,433.25L652.57,433.28L652.78,432.36L652.78,432.34L654.09,420.14L654.09,420.11L655.69,392.86L655.69,392.76L656.16,351.68L656.16,350.92L656.29,50.82L657.16,432.81L657.17,432.83L657.37,433.41L657.89,430.92L657.9,430.9L660.59,393.01L660.59,392.92L661.06,352.17L661.06,351.42L661.19,50.71L662.06,432.8L662.07,432.82L662.27,433.41L662.8,430.87L662.8,430.85L664.63,411.01L664.63,410.97L665.61,388.18L665.61,388.06L665.95,354.71L665.95,354.05L666.05,279.57L666.05,271.78L666.1,50.67L666.67,429.21L666.68,429.26L667.18,433.41L667.73,430.63L667.74,430.61L670.39,393.04L670.39,392.95L670.86,352.41L670.86,351.67L670.96,268.94L670.96,259.22L671,50.84L671.96,433.25L671.97,433.26L672.4,432.32L672.4,432.3L674.28,413.09L674.28,413.05L675.33,391.58L675.33,391.48L675.71,363.91L675.71,363.48L675.9,50.72L676.71,432.39L676.72,432.41L676.98,433.41L677.54,430.58L677.55,430.56L680.13,395.14L680.13,395.05L680.64,358.94L680.64,358.39L680.8,50.66L681.64,432.63L681.65,432.65L681.88,433.41L682.4,430.91L682.41,430.88L685.03,395.2L685.03,395.11L685.54,359.34L685.54,358.8L685.7,50.75L686.54,432.61L686.55,432.63L686.79,433.41L687.3,430.94L687.3,430.92L689.14,410.99L689.14,410.95L690.09,389.51L690.09,389.4L690.45,358.1L690.45,357.53L690.6,50.85L691.45,432.68L691.46,432.69L691.69,433.41L692.21,430.9L692.21,430.87L693.91,412.81L693.91,412.77L694.94,391.48L694.94,391.38L695.32,363.91L695.32,363.47L695.51,50.71L696.32,432.41L696.33,432.44L696.59,433.41L697.15,430.62L697.15,430.6L699.86,390.96L699.86,390.86L700.41,50.66L700.86,426.6L700.87,426.67L701.49,433.41L702.05,430.6L702.05,430.57L703.85,410.93L703.85,410.89L704.8,389.45L704.8,389.34L705.31,50.67L705.8,427.5L705.81,427.56L706.4,433.41L706.94,430.68L706.95,430.66L709.54,395.2L709.54,395.12L710.05,358.86L710.05,358.31L710.16,296.74L710.16,291.61L710.21,50.7L710.57,423.21L710.58,423.35L711.27,433.41L711.58,432.48L711.59,432.46L713.5,413.07L713.5,413.04L714.58,390.2L714.58,390.09L714.95,360.41L714.95,359.9L715.12,50.72L715.95,432.59L715.96,432.61L716.2,433.41L716.71,430.95L716.72,430.93L719.41,393.05L719.41,392.96L719.88,353.26L719.88,352.55L719.97,278.56L719.98,270.6L720.02,50.72L720.98,433.26L720.99,433.26L721.36,432.66L721.42,432.33L721.42,432.31L723.44,411.19L723.44,411.15L724.4,389.66L724.4,389.55L724.76,358.3L724.76,357.74L724.87,296.7L724.87,291.57L724.92,50.7L725.87,433.21L725.88,433.22L726.01,433.41L726.37,431.99L726.38,431.97L728.35,411.12L728.35,411.08L729.34,388.18L729.34,388.06L729.67,356.62L729.67,356.01L729.78,286.4L729.78,279.74L729.82,50.67L730.78,433.24L730.79,433.25L730.92,433.41L731.24,432.19L731.25,432.17L733.11,413.08L733.11,413.05L734.2,390.12L734.2,390.02L734.73,50.67L735.2,427.12L735.21,427.19L735.82,433.41L736.35,430.73L736.36,430.71L739.08,390.99L739.08,390.88L739.51,347.36L739.51,346.44L739.6,244.69L739.6,230.23L739.63,50.77L740.6,433.28L740.6,433.28L740.61,433.29L741.04,432.28L741.04,432.26L743.05,411.22L743.05,411.18L744.02,389.53L744.02,389.42L744.53,50.78L745.02,427.46L745.03,427.52L745.63,433.41L746.16,430.7L746.17,430.68L748.83,392.99L748.83,392.9L749.3,352.04L749.31,351.28L749.44,50.67L750.31,432.86L750.32,432.88L750.54,433.41L751,431.18L751.01,431.16L753.67,395.18L753.67,395.1L754.18,357.59L754.19,357L754.34,50.86L755.19,432.7L755.2,432.72L755.42,433.42L755.94,430.95L755.94,430.93L757.78,411.01L757.78,410.97L758.73,389.58L758.73,389.47L759.25,50.68L759.73,427.37L759.74,427.43L760.33,433.42L760.87,430.71L760.88,430.69L763.54,393.06L763.54,392.96L764.01,353.98L764.01,353.29L764.15,50.71L765.01,432.79L765.02,432.8L765.23,433.42L765.75,430.96L765.75,430.94L767.59,410.99L767.59,410.95L768.57,388.14L768.57,388.01L768.9,356.41L768.91,355.8L769.06,50.84L769.91,432.76L769.92,432.77L770.14,433.42L770.66,430.89L770.66,430.87L772.49,411.02L772.49,410.98L773.44,389.51L773.44,389.39L773.79,359.74L773.79,359.21L773.91,299.75L773.91,295.02L773.96,50.87L774.91,433.23L774.92,433.24L775.05,433.42L775.41,431.99L775.42,431.97L777.39,411.13L777.39,411.1L778.38,388.24L778.38,388.12L778.86,50.87L779.38,428.05L779.39,428.11L779.96,433.42L780.5,430.62L780.51,430.6L783.22,391.01L783.22,390.91L783.77,50.84L784.22,426.57L784.23,426.64L784.86,433.42L785.38,430.83L785.39,430.81L788.07,392.96L788.07,392.87L788.54,351.85L788.54,351.09L788.63,271.13L788.64,261.83L788.68,50.71L789.64,433.28L789.65,433.28L790.06,432.44L790.07,432.34L790.08,432.33L792.1,411.19L792.1,411.16L793.09,388.32L793.09,388.21L793.43,356.17L793.43,355.55L793.53,288.02L793.54,281.62L793.58,50.7L794.54,433.26L794.55,433.27L794.71,433.39L794.98,432.35L794.98,432.34L796.87,413.06L796.87,413.02L797.92,391.52L797.92,391.42L798.3,364.1L798.3,363.66L798.49,50.77L799.3,432.42L799.31,432.44L799.57,433.43L800.13,430.59L800.14,430.57L802.72,395.16L802.72,395.08L803.24,357.46L803.24,356.87L803.39,50.77L804.24,432.68L804.25,432.69L804.48,433.43L805.04,430.56L805.05,430.54L807.75,391.06L807.75,390.96L808.3,50.69L808.75,426.47L808.76,426.54L809.39,433.43L809.91,430.85L809.92,430.83L812.6,392.98L812.6,392.89L813.08,352.02L813.08,351.27L813.21,50.68L814.08,432.84L814.09,432.86L814.3,433.43L814.81,430.94L814.81,430.92L816.65,411L816.65,410.96L817.63,388.2L817.63,388.08L817.97,354.87L817.98,354.2L818.12,50.69L818.98,432.79L818.99,432.81L819.21,433.43L819.71,430.98L819.72,430.96L822.42,393.01L822.42,392.92L822.89,352.27L822.89,351.52L822.99,267.23L822.99,257.19L823.03,50.81L823.99,433.28L824,433.29L824.43,432.35L824.43,432.33L826.46,411.13L826.46,411.1L827.45,388.27L827.45,388.15L827.94,50.72L828.45,428.04L828.46,428.1L829.01,433.44L829.57,430.67L829.58,430.64L832.24,392.92L832.24,392.82L832.7,353.68L832.71,352.98L832.84,50.8L833.71,432.83L833.72,432.84L833.93,433.44L834.44,430.97L834.45,430.95L837.15,392.98L837.15,392.89L837.62,353.51L837.62,352.8L837.75,50.69L838.62,432.83L838.63,432.85L838.84,433.44L839.36,430.89L839.37,430.87L842.06,392.98L842.06,392.89L842.53,352.02L842.53,351.27L842.62,273.04L842.63,264.09L842.67,50.68L843,421.82" style="vector-effect: none; fill: none; stroke: rgb(255, 0, 0); stroke-opacity: 1; stroke-width: 4px; opacity: 1;"/></g><g class="points"/><g class="text"/></g><g class="trace scatter trace23b725" style="stroke-miterlimit: 2; opacity: 0.5;"><g class="fills"/><g class="errorbars"/><g class="lines"><path class="js-line" d="M0,541.01L1.73,556.47L1.74,556.48L3.57,559.11L3.57,559.11L3.58,559.11L7.16,559.54L7.16,559.54L7.17,559.54L21.07,559.55L21.07,559.55L21.08,557.84L22.08,487.57L22.09,487.5L23.09,468.25L23.1,468.21L24.92,451.73L24.93,451.71L28.12,437.09L28.13,437.08L32.47,426.06L32.47,426.06L32.48,426.05L38.34,411.41L38.34,411.4L40,400.15L40,400.12L40.79,379.61L40.79,379.44L41.12,30.49L41.79,444.6L41.8,444.64L42.53,448.77L42.97,448.25L42.98,448.25L46.64,443.7L46.64,443.7L46.65,443.7L50.94,437.68L50.94,437.68L50.94,437.67L59.58,417.1L59.58,417.09L61.9,407.92L61.9,407.9L63.04,396.58L63.04,396.53L63.58,378.86L63.58,378.68L63.82,334.16L63.82,332.4L63.9,30.33L64.82,447.22L64.83,447.24L65.32,448.5L65.9,447.71L65.91,447.71L68.95,443.85L68.95,443.85L68.96,443.85L73.66,437.41L73.66,437.4L78.3,425.89L78.3,425.88L82.6,414.47L82.6,414.46L84.4,405L84.4,404.98L85.31,392.19L85.31,392.12L85.8,361.04L85.8,360.52L85.95,30.18L86.8,446.45L86.81,446.47L87.32,448.32L87.91,447.59L87.92,447.58L91.57,443.04L91.57,443.04L91.58,443.04L95.68,437.2L95.68,437.2L95.68,437.19L101.43,422.73L101.43,422.72L104.85,412.04L104.85,412.03L106.37,401.35L106.37,401.32L107.2,380.37L107.2,380.2L107.45,340.3L107.45,338.91L107.54,30.13L108.45,446.92L108.46,446.94L108.94,448.18L109.52,447.39L109.53,447.38L113.19,442.83L113.19,442.83L113.2,442.83L117.23,437.06L117.23,437.06L117.23,437.05L121.09,427.1L121.09,427.1L121.09,427.09L125.92,413.06L125.92,413.05L127.54,402.45L127.54,402.42L128.4,383.84L128.4,383.71L128.8,30.13L129.4,443.17L129.41,443.21L130.2,448.08L130.6,447.6L130.61,447.6L134.48,442.67L134.49,442.67L138.47,436.96L138.47,436.96L138.47,436.95L143.29,424.45L143.29,424.44L146.96,413.16L146.96,413.15L148.57,402.6L148.57,402.57L149.43,383.98L149.43,383.85L149.72,350.52L149.72,349.64L149.84,29.97L150.72,446.57L150.73,446.59L151.24,448.01L151.79,447.26L151.8,447.26L154.95,443.18L154.95,443.18L154.96,443.18L159.5,436.87L159.5,436.87L159.5,436.86L164.11,424.8L164.11,424.79L167.78,413.51L167.78,413.5L169.51,401.96L169.51,401.93L170.35,381.71L170.36,381.56L170.72,30.02L171.36,443.82L171.37,443.86L172.11,447.96L172.52,447.47L172.53,447.46L176.42,442.49L176.42,442.49L176.43,442.49L180.35,436.84L180.35,436.84L180.35,436.83L183.9,427.5L183.9,427.49L188.38,414.29L188.38,414.27L190.19,402.94L190.19,402.91L191.07,384.22L191.07,384.1L191.36,351.06L191.36,350.2L191.44,257.93L191.45,243.78L191.48,29.94L192.45,447.08L192.46,447.09L192.84,447.93L193.47,447.09L193.48,447.09L196.61,443.05L196.61,443.05L196.62,443.05L201.11,436.79L201.11,436.78L204.61,427.55L204.61,427.55L204.61,427.54L209.02,414.49L209.02,414.48L210.87,402.98L210.87,402.95L211.76,384.05L211.76,383.92L212.16,29.95L212.76,443.07L212.77,443.11L213.53,447.9L213.97,447.38L213.98,447.38L217.88,442.39L217.88,442.39L217.89,442.39L221.79,436.75L221.79,436.75L221.79,436.74L226.13,425.25L226.13,425.24L229.75,414.07L229.75,414.06L231.49,403.01L231.49,402.98L232.38,384.1L232.38,383.98L232.78,29.98L233.38,443.09L233.39,443.13L234.15,447.88L234.59,447.36L234.6,447.36L238.51,442.35L238.52,442.35L242.4,436.74L242.4,436.73L246.69,425.35L246.69,425.34L250.31,414.17L250.31,414.16L252.06,403.06L252.06,403.03L252.95,384.14L252.95,384.01L253.24,351.18L253.24,350.32L253.36,29.87L254.24,446.46L254.25,446.48L254.75,447.86L255.33,447.05L255.34,447.05L258.5,442.95L258.5,442.95L258.51,442.95L262.98,436.71L262.98,436.7L269.88,417.78L269.88,417.77L272.23,406.5L272.23,406.48L273.51,383.15L273.51,383.02L273.79,348L273.79,347L273.9,29.96L274.79,446.52L274.8,446.54L275.28,447.85L275.87,447.04L275.88,447.04L279.05,442.93L279.05,442.93L279.06,442.92L283.51,436.71L283.51,436.7L287.76,425.4L287.76,425.4L287.76,425.39L292.08,410.82L292.08,410.8L293.45,398.9L293.45,398.86L294.24,363.66L294.24,363.21L294.35,314.05L294.36,310.41L294.41,29.91L295.36,446.87L295.37,446.88L295.8,447.84L296.4,447.02L296.4,447.01L300.16,442.29L300.16,442.29L300.17,442.28L304.03,436.69L304.03,436.68L310.86,417.93L310.86,417.92L313.24,406.55L313.24,406.53L314.53,383.11L314.53,382.97L314.91,29.84L315.53,443.39L315.54,443.43L316.31,447.83L316.72,447.32L316.73,447.31L320.66,442.27L320.67,442.27L324.52,436.69L324.52,436.69L324.52,436.68L327.92,427.65L327.92,427.64L333.05,410.89L333.05,410.87L334.43,398.91L334.43,398.87L335.23,362.18L335.23,361.69L335.39,29.85L336.23,446.04L336.24,446.06L336.78,447.83L337.34,447.07L337.35,447.06L341.14,442.27L341.14,442.27L341.15,442.27L345,436.69L345,436.69L345,436.68L349.19,425.51L349.19,425.5L352.77,414.43L352.77,414.42L354.56,403.18L354.56,403.15L355.5,381.97L355.5,381.83L355.77,343.33L355.77,342.11L355.86,29.84L356.77,446.59L356.78,446.6L357.23,447.83L357.84,447.01L357.85,447.01L361.02,442.89L361.02,442.89L361.03,442.89L365.47,436.68L365.47,436.68L365.47,436.67L368.87,427.64L368.87,427.64L368.87,427.63L373.98,410.92L373.98,410.91L375.41,398.09L375.41,398.05L375.99,380.66L375.99,380.5L376.33,30.01L376.99,444.03L377,444.07L377.72,447.82L378.14,447.3L378.15,447.29L382.08,442.25L382.08,442.25L382.09,442.25L385.94,436.67L385.94,436.66L392.7,418.07L392.7,418.06L395.1,406.62L395.1,406.6L396.15,392.25L396.15,392.18L396.62,361.35L396.63,360.83L396.78,30.01L397.63,446.12L397.64,446.14L398.16,447.82L398.73,447.06L398.74,447.05L402.54,442.24L402.55,442.24L406.39,436.67L406.39,436.66L410.58,425.49L410.58,425.48L414.89,410.92L414.89,410.91L416.32,398.08L416.32,398.04L417.08,360.15L417.08,359.6L417.23,29.86L418.08,446.12L418.09,446.14L418.61,447.82L419.18,447.05L419.19,447.05L422.38,442.89L422.38,442.89L422.39,442.89L426.84,436.67L426.84,436.66L431.02,425.51L431.02,425.5L435.33,410.94L435.33,410.92L436.71,398.96L436.71,398.92L437.52,361.69L437.52,361.19L437.68,29.85L438.52,446.07L438.53,446.1L439.04,447.82L439.62,447.06L439.63,447.06L442.83,442.88L442.83,442.88L442.84,442.88L447.29,436.66L447.29,436.65L454.02,418.13L454.02,418.12L456.44,406.61L456.44,406.59L457.49,392.19L457.49,392.12L457.96,361.41L457.96,360.9L458.07,303.12L458.07,298.03L458.12,30L459.07,446.87L459.08,446.89L459.52,447.81L460.1,446.99L460.11,446.99L463.28,442.87L463.28,442.87L463.29,442.87L467.73,436.66L467.73,436.65L474.46,418.13L474.46,418.12L476.87,406.65L476.87,406.63L477.93,392.2L477.93,392.13L478.4,361.48L478.4,360.97L478.56,29.92L479.4,446.08L479.41,446.1L479.95,447.81L480.5,447.06L480.51,447.05L483.71,442.87L483.72,442.87L488.17,436.65L488.17,436.65L488.17,436.64L492.33,425.53L492.33,425.52L496.64,410.98L496.64,410.96L498.02,398.98L498.02,398.94L498.61,383.08L498.61,382.94L498.88,348.34L498.88,347.36L498.96,242.77L498.96,225.03L498.99,29.92L499.96,446.97L499.97,446.99L500.38,447.81L500.98,446.98L500.98,446.97L504.75,442.23L504.75,442.23L504.76,442.23L508.6,436.66L508.6,436.66L508.6,436.65L515.33,418.13L515.33,418.12L517.74,406.65L517.74,406.63L518.79,392.27L518.79,392.2L519.26,361.45L519.27,360.94L519.42,29.95L520.27,446.1L520.28,446.13L520.81,447.81L521.37,447.05L521.38,447.04L525.18,442.23L525.18,442.23L525.19,442.23L529.03,436.66L529.03,436.65L535.75,418.16L535.75,418.15L538.17,406.65L538.17,406.63L539.22,392.27L539.22,392.2L539.69,361.45L539.7,360.94L539.85,29.95L540.7,446.1L540.71,446.13L541.24,447.81L541.8,447.05L541.81,447.04L545.6,442.24L545.6,442.24L545.61,442.24L549.45,436.67L549.45,436.67L549.45,436.66L552.83,427.67L552.83,427.66L557.02,415.14L557.02,415.13L558.97,403.24L558.97,403.22L559.88,384.15L559.88,384.02L560.28,29.89L560.88,443.06L560.89,443.1L561.66,447.81L562.08,447.31L562.09,447.3L566.04,442.22L566.05,442.22L569.89,436.65L569.89,436.64L576.6,418.17L576.6,418.16L579.02,406.66L579.02,406.64L580.07,392.29L580.07,392.22L580.55,361.64L580.55,361.13L580.71,29.84L581.55,446.09L581.56,446.12L582.08,447.81L582.65,447.05L582.66,447.05L585.87,442.85L585.88,442.85L590.31,436.66L590.31,436.66L590.31,436.65L594.47,425.54L594.47,425.54L594.47,425.53L598.77,411.01L598.77,410.99L600.16,398.98L600.16,398.94L600.97,361.87L600.97,361.37L601.13,30.04L601.97,446.06L601.98,446.08L602.5,447.81L603.07,447.05L603.08,447.05L606.29,442.86L606.29,442.86L606.3,442.85L610.73,436.66L610.73,436.66L610.73,436.65L614.89,425.54L614.89,425.54L614.89,425.53L619.19,411L619.19,410.99L620.58,399L620.58,398.96L621.38,363.62L621.38,363.16L621.55,29.86L622.38,445.97L622.39,445.99L622.92,447.81L623.49,447.06L623.5,447.05L626.71,442.86L626.71,442.86L626.72,442.85L631.15,436.66L631.15,436.66L631.15,436.65L635.31,425.54L635.31,425.54L635.31,425.53L639.61,411L639.61,410.99L641,399L641,398.96L641.8,363.58L641.8,363.12L641.97,29.85L642.8,445.97L642.81,446L643.33,447.81L643.91,447.05L643.92,447.05L647.13,442.85L647.13,442.85L647.14,442.85L651.57,436.65L651.57,436.64L655.72,425.56L655.72,425.56L655.72,425.55L660.03,411.01L660.03,410.99L661.42,398.97L661.42,398.93L662.22,362.24L662.22,361.75L662.33,306.17L662.33,301.52L662.38,29.89L662.63,424.14L662.64,424.76L663.64,447.77L663.64,447.77L663.65,447.77L664.51,446.73L664.51,446.73L664.51,446.72L668.15,442.21L668.15,442.21L668.16,442.21L671.99,436.65L671.99,436.64L678.68,418.22L678.68,418.21L681.12,406.64L681.12,406.62L682.17,392.2L682.17,392.13L682.64,361.47L682.64,360.95L682.75,303.62L682.75,298.61L682.8,29.94L683.75,446.86L683.76,446.88L684.2,447.8L684.78,446.98L684.79,446.97L688.56,442.21L688.57,442.21L692.4,436.65L692.4,436.64L696.55,425.56L696.55,425.55L700.85,411.03L700.85,411.01L702.24,399.01L702.24,398.97L702.83,383.04L702.83,382.9L703.1,348.04L703.11,347.04L703.21,29.98L704.11,446.5L704.12,446.52L704.61,447.8L705.17,447.02L705.18,447.01L708.98,442.2L708.99,442.2L712.82,436.64L712.82,436.63L716.97,425.54L716.97,425.54L716.97,425.53L721.27,411L721.27,410.98L722.65,399.01L722.65,398.97L723.24,383.04L723.24,382.9L723.52,348.03L723.52,347.04L723.62,29.97L724.52,446.5L724.53,446.52L725.02,447.8L725.6,446.98L725.61,446.98L728.79,442.84L728.79,442.84L728.8,442.84L733.23,436.64L733.23,436.64L733.23,436.63L737.37,425.56L737.37,425.55L740.92,414.55L740.92,414.54L742.73,403.22L742.73,403.19L743.63,384.27L743.63,384.14L744.03,29.94L744.63,442.97L744.64,443.01L745.42,447.8L745.84,447.29L745.85,447.28L749.8,442.2L749.8,442.2L749.81,442.2L753.63,436.65L753.63,436.64L757,427.67L757,427.66L762.08,411.03L762.08,411.01L763.47,399.01L763.47,398.97L764.27,363.66L764.27,363.2L764.44,29.9L765.27,445.94L765.28,445.96L765.83,447.8L766.38,447.05L766.39,447.04L770.21,442.2L770.21,442.2L770.22,442.19L774.04,436.65L774.04,436.65L774.04,436.64L778.19,425.55L778.19,425.55L778.19,425.54L782.49,411.01L782.49,411L783.88,398.97L783.88,398.93L784.69,361.7L784.69,361.19L784.85,29.86L785.69,446.08L785.7,446.1L786.23,447.8L786.79,447.04L786.8,447.04L790.01,442.84L790.01,442.84L790.02,442.84L794.45,436.64L794.45,436.64L794.45,436.63L798.59,425.56L798.59,425.55L802.14,414.55L802.14,414.54L803.95,403.21L803.95,403.18L804.89,381.88L804.89,381.73L805.15,343.71L805.15,342.5L805.22,217.51L805.22,194.41L805.25,29.94L806.08,445.96L806.09,445.98L806.63,447.8L807.19,447.05L807.2,447.04L811.02,442.19L811.03,442.19L814.85,436.64L814.85,436.64L814.85,436.63L818.22,427.66L818.22,427.65L823.29,411.04L823.29,411.02L824.68,398.99L824.68,398.95L825.27,383.1L825.27,382.96L825.54,347.48L825.55,346.46L825.65,29.88L826.55,446.51L826.56,446.53L827.03,447.8L827.63,446.98L827.64,446.97L831.42,442.19L831.43,442.19L835.25,436.64L835.25,436.64L835.25,436.63L838.62,427.66L838.62,427.66L838.62,427.65L843,414.31" style="vector-effect: none; fill: none; stroke: rgb(0, 0, 0); stroke-opacity: 1; stroke-width: 4px; opacity: 1;"/></g><g class="points"/><g class="text"/></g></g></g><g class="xy2" transform="translate(131,100)" clip-path="url(#clip331a60xy2plot)"><g class="scatterlayer mlayer"><g class="trace scatter tracee6e327" style="stroke-miterlimit: 2;"><g class="fills"><g><path class="js-fill" d="M2107.5,589L0,589L0,589L210.75,589L221.29,560.53L231.83,544.83L242.36,535.01L252.9,531.08L263.44,530.1L273.98,531.08L284.51,533.04L305.59,538.93L316.13,542.86L421.5,566.42L526.88,577.22L632.25,581.64L737.63,583.6L2107.5,588.36" style="fill: rgb(255, 0, 0); fill-opacity: 0.2; stroke-width: 0;"/></g></g><g class="errorbars"/><g class="lines"><path class="js-line" d="M0,589L210.75,589L221.29,560.53L231.83,544.83L242.36,535.01L252.9,531.08L263.44,530.1L273.98,531.08L284.51,533.04L305.59,538.93L316.13,542.86L421.5,566.42L526.88,577.22L632.25,581.64L737.63,583.6L2107.5,588.36" style="vector-effect: none; fill: none; stroke: rgb(255, 0, 0); stroke-opacity: 0.2; stroke-width: 0px; opacity: 1;"/></g><g class="points"/><g class="text"/></g></g></g></g><path class="xlines-above crisp" d="M0,0" style="fill: none;"/><path class="ylines-above crisp" d="M0,0" style="fill: none;"/><g class="overlines-above"><path class="xy2-x crisp" d="M0,0" style="fill: none;"/><path class="xy2-y crisp" d="M0,0" style="fill: none;"/></g><g class="xaxislayer-above"><g class="xtick"><text text-anchor="middle" x="0" y="730" transform="translate(131,0)" style="font-family: 'Open Sans', verdana, arial, sans-serif; font-size: 40px; fill: rgb(42, 63, 95); fill-opacity: 1; white-space: pre; opacity: 1;">0</text></g><g class="xtick"><text text-anchor="middle" x="0" y="730" style="font-family: 'Open Sans', verdana, arial, sans-serif; font-size: 40px; fill: rgb(42, 63, 95); fill-opacity: 1; white-space: pre; opacity: 1;" transform="translate(341.75,0)">2</text></g><g class="xtick"><text text-anchor="middle" x="0" y="730" style="font-family: 'Open Sans', verdana, arial, sans-serif; font-size: 40px; fill: rgb(42, 63, 95); fill-opacity: 1; white-space: pre; opacity: 1;" transform="translate(552.5,0)">4</text></g><g class="xtick"><text text-anchor="middle" x="0" y="730" style="font-family: 'Open Sans', verdana, arial, sans-serif; font-size: 40px; fill: rgb(42, 63, 95); fill-opacity: 1; white-space: pre; opacity: 1;" transform="translate(763.25,0)">6</text></g><g class="xtick"><text text-anchor="middle" x="0" y="730" style="font-family: 'Open Sans', verdana, arial, sans-serif; font-size: 40px; fill: rgb(42, 63, 95); fill-opacity: 1; white-space: pre; opacity: 1;" transform="translate(974,0)">8</text></g></g><g class="yaxislayer-above"><g class="ytick"><text text-anchor="end" x="130" y="14" transform="translate(0,614.41)" style="font-family: 'Open Sans', verdana, arial, sans-serif; font-size: 40px; fill: rgb(42, 63, 95); fill-opacity: 1; white-space: pre; opacity: 1;">−80</text></g><g class="ytick"><text text-anchor="end" x="130" y="14" style="font-family: 'Open Sans', verdana, arial, sans-serif; font-size: 40px; fill: rgb(42, 63, 95); fill-opacity: 1; white-space: pre; opacity: 1;" transform="translate(0,525.74)">−60</text></g><g class="ytick"><text text-anchor="end" x="130" y="14" style="font-family: 'Open Sans', verdana, arial, sans-serif; font-size: 40px; fill: rgb(42, 63, 95); fill-opacity: 1; white-space: pre; opacity: 1;" transform="translate(0,437.07)">−40</text></g><g class="ytick"><text text-anchor="end" x="130" y="14" style="font-family: 'Open Sans', verdana, arial, sans-serif; font-size: 40px; fill: rgb(42, 63, 95); fill-opacity: 1; white-space: pre; opacity: 1;" transform="translate(0,348.4)">−20</text></g><g class="ytick"><text text-anchor="end" x="130" y="14" style="font-family: 'Open Sans', verdana, arial, sans-serif; font-size: 40px; fill: rgb(42, 63, 95); fill-opacity: 1; white-space: pre; opacity: 1;" transform="translate(0,259.72)">0</text></g><g class="ytick"><text text-anchor="end" x="130" y="14" style="font-family: 'Open Sans', verdana, arial, sans-serif; font-size: 40px; fill: rgb(42, 63, 95); fill-opacity: 1; white-space: pre; opacity: 1;" transform="translate(0,171.05)">20</text></g></g><g class="overaxes-above"><g class="xy2-x"/><g class="xy2-y"><g class="y2tick"><text text-anchor="start" x="975" y="14" transform="translate(0,689)" style="font-family: 'Open Sans', verdana, arial, sans-serif; font-size: 40px; fill: rgb(42, 63, 95); fill-opacity: 1; white-space: pre; opacity: 1;">0</text></g><g class="y2tick"><text text-anchor="start" x="975" y="14" style="font-family: 'Open Sans', verdana, arial, sans-serif; font-size: 40px; fill: rgb(42, 63, 95); fill-opacity: 1; white-space: pre; opacity: 1;" transform="translate(0,630.1)">600.0</text></g></g></g></g><g class="subplot xy2"/></g><g class="polarlayer"/><g class="smithlayer"/><g class="ternarylayer"/><g class="geolayer"/><g class="funnelarealayer"/><g class="pielayer"/><g class="iciclelayer"/><g class="treemaplayer"/><g class="sunburstlayer"/><g class="glimages"/><defs id="topdefs-331a60"><g class="clips"/><clipPath id="legend331a60"><rect width="197" height="175" x="0" y="0"/></clipPath></defs><g class="layer-above"><g class="imagelayer"/><g class="shapelayer"/></g><g class="infolayer"><g class="legend" pointer-events="all" transform="translate(990.86,42.799999999999955)"><rect class="bg" shape-rendering="crispEdges" width="197" height="175" x="0" y="0" style="stroke: rgb(68, 68, 68); stroke-opacity: 1; fill: rgb(255, 255, 255); fill-opacity: 1; stroke-width: 0px;"/><g class="scrollbox" transform="" clip-path="url(#legend331a60)"><g class="groups"><g class="traces" transform="translate(0,32.5)" style="opacity: 1;"><text class="legendtext" text-anchor="start" x="40" y="15.6" style="font-family: 'Open Sans', verdana, arial, sans-serif; font-size: 40px; fill: rgb(42, 63, 95); fill-opacity: 1; white-space: pre;">DA</text><g class="layers" style="opacity: 0.5;"><g class="legendfill"/><g class="legendlines"><path class="js-line" d="M5,0h30" style="fill: none; stroke: rgb(255, 0, 0); stroke-opacity: 1; stroke-width: 4px;"/></g><g class="legendsymbols"><g class="legendpoints"/></g></g><rect class="legendtoggle" x="0" y="-27.5" width="191.171875" height="55" style="fill: rgb(0, 0, 0); fill-opacity: 0;"/></g><g class="traces" transform="translate(0,87.5)" style="opacity: 1;"><text class="legendtext" text-anchor="start" x="40" y="15.6" style="font-family: 'Open Sans', verdana, arial, sans-serif; font-size: 40px; fill: rgb(42, 63, 95); fill-opacity: 1; white-space: pre;">No DA</text><g class="layers" style="opacity: 0.5;"><g class="legendfill"/><g class="legendlines"><path class="js-line" d="M5,0h30" style="fill: none; stroke: rgb(0, 0, 0); stroke-opacity: 1; stroke-width: 4px;"/></g><g class="legendsymbols"><g class="legendpoints"/></g></g><rect class="legendtoggle" x="0" y="-27.5" width="191.171875" height="55" style="fill: rgb(0, 0, 0); fill-opacity: 0;"/></g><g class="traces" transform="translate(0,142.5)" style="opacity: 1;"><text class="legendtext" text-anchor="start" x="40" y="15.6" style="font-family: 'Open Sans', verdana, arial, sans-serif; font-size: 40px; fill: rgb(42, 63, 95); fill-opacity: 1; white-space: pre;">DA conc</text><g class="layers"><g class="legendfill"><path class="js-fill" d="M5,-2h30v6h-30z" style="stroke-width: 0; fill: rgb(255, 0, 0); fill-opacity: 0.2;"/></g><g class="legendlines"><path class="js-line" d="M5,-2h30" style="fill: none; stroke: rgb(255, 0, 0); stroke-opacity: 0.2; stroke-width: 0px;"/></g><g class="legendsymbols"><g class="legendpoints"/></g></g><rect class="legendtoggle" x="0" y="-27.5" width="191.171875" height="55" style="fill: rgb(0, 0, 0); fill-opacity: 0;"/></g></g></g><rect class="scrollbar" rx="20" ry="3" width="0" height="0" x="0" y="0" style="fill: rgb(128, 139, 164); fill-opacity: 1;"/></g><g class="g-gtitle"/><g class="g-xtitle"><text class="xtitle" x="552.5" y="787.5" text-anchor="middle" style="opacity: 1; font-family: 'Open Sans', verdana, arial, sans-serif; font-size: 50px; fill: rgb(42, 63, 95); fill-opacity: 1; white-space: pre;">Time (s)</text></g><g class="g-ytitle" transform="translate(14.859375,0)"><text class="ytitle" transform="rotate(-90,30.140625,394.5)" x="30.140625" y="394.5" text-anchor="middle" style="opacity: 1; font-family: 'Open Sans', verdana, arial, sans-serif; font-size: 50px; fill: rgb(42, 63, 95); fill-opacity: 1; white-space: pre;">Voltage (mV)</text></g><g class="g-y2title"><text class="y2title" transform="rotate(-90,1124.609375,394.5)" x="1124.609375" y="394.5" text-anchor="middle" style="opacity: 1; font-family: 'Open Sans', verdana, arial, sans-serif; font-size: 50px; fill: rgb(42, 63, 95); fill-opacity: 1; white-space: pre;">DA Conc (nM)</text></g></g></svg>