<svg class="main-svg" xmlns="http://www.w3.org/2000/svg" xmlns:xlink="http://www.w3.org/1999/xlink" width="2400" height="1600" style="" viewBox="0 0 1200 800"><rect x="0" y="0" width="1200" height="800" style="fill: rgb(255, 255, 255); fill-opacity: 1;"/><defs id="defs-6685c3"><g class="clips"><clipPath id="clip6685c3xyplot" class="plotclip"><rect width="843" height="589"/></clipPath><clipPath id="clip6685c3xy2plot" class="plotclip"><rect width="843" height="589"/></clipPath><clipPath class="axesclip" id="clip6685c3x"><rect x="131" y="0" width="843" height="800"/></clipPath><clipPath class="axesclip" id="clip6685c3y"><rect x="0" y="100" width="1200" height="589"/></clipPath><clipPath class="axesclip" id="clip6685c3xy"><rect x="131" y="100" width="843" height="589"/></clipPath><clipPath class="axesclip" id="clip6685c3y2"><rect x="0" y="100" width="1200" height="589"/></clipPath><clipPath class="axesclip" id="clip6685c3xy2"><rect x="131" y="100" width="843" height="589"/></clipPath></g><g class="gradients"/><g class="patterns"/></defs><g class="bglayer"/><g class="layer-below"><g class="imagelayer"/><g class="shapelayer"/></g><g class="cartesianlayer"><g class="subplot xy"><g class="layer-subplot"><g class="shapelayer"/><g class="imagelayer"/></g><g class="minor-gridlayer"><g class="x"/><g class="y"/><g class="y2"/></g><g class="gridlayer"><g class="x"><path class="xgrid crisp" transform="translate(341.75,0)" d="M0,100v589" style="stroke: rgb(255, 255, 255); stroke-opacity: 1; stroke-width: 1px;"/><path class="xgrid crisp" transform="translate(552.5,0)" d="M0,100v589" style="stroke: rgb(255, 255, 255); stroke-opacity: 1; stroke-width: 1px;"/><path class="xgrid crisp" transform="translate(763.25,0)" d="M0,100v589" style="stroke: rgb(255, 255, 255); stroke-opacity: 1; stroke-width: 1px;"/></g><g class="y"><path class="ygrid crisp" transform="translate(0,607.8199999999999)" d="M131,0h843" style="stroke: rgb(255, 255, 255); stroke-opacity: 1; stroke-width: 1px;"/><path class="ygrid crisp" transform="translate(0,517.5899999999999)" d="M131,0h843" style="stroke: rgb(255, 255, 255); stroke-opacity: 1; stroke-width: 1px;"/><path class="ygrid crisp" transform="translate(0,427.37)" d="M131,0h843" style="stroke: rgb(255, 255, 255); stroke-opacity: 1; stroke-width: 1px;"/><path class="ygrid crisp" transform="translate(0,337.14)" d="M131,0h843" style="stroke: rgb(255, 255, 255); stroke-opacity: 1; stroke-width: 1px;"/><path class="ygrid crisp" transform="translate(0,156.68)" d="M131,0h843" style="stroke: rgb(255, 255, 255); stroke-opacity: 1; stroke-width: 1px;"/></g><g class="y2"/></g><g class="zerolinelayer"><path class="xzl zl crisp" transform="translate(131,0)" d="M0,100v589" style="stroke: rgb(255, 255, 255); stroke-opacity: 1; stroke-width: 2px;"/><path class="yzl zl crisp" transform="translate(0,246.91)" d="M131,0h843" style="stroke: rgb(255, 255, 255); stroke-opacity: 1; stroke-width: 2px;"/><path class="y2zl zl crisp" transform="translate(0,689)" d="M131,0h843" style="stroke: rgb(255, 255, 255); stroke-opacity: 1; stroke-width: 2px;"/></g><g class="layer-between"><g class="shapelayer"/><g class="imagelayer"/></g><path class="xlines-below"/><path class="ylines-below"/><g class="overlines-below"><path class="xy2-x"/><path class="xy2-y"/></g><g class="xaxislayer-below"/><g class="yaxislayer-below"/><g class="overaxes-below"><g class="xy2-x"/><g class="xy2-y"/></g><g class="overplot"><g class="xy" transform="translate(131,100)" clip-path="url(#clip6685c3xyplot)"><g class="scatterlayer mlayer"><g class="trace scatter trace27abe5" style="stroke-miterlimit: 2; opacity: 0.5;"><g class="fills"/><g class="errorbars"/><g class="lines"><path class="js-line" d="M0,534.89L0.22,559.55L1,558.2L1.01,558.19L3.02,557.59L3.02,557.59L3.03,557.59L21.07,557.56L21.07,557.56L21.08,551.77L22.08,490.2L22.09,490.14L24.46,458.43L24.47,458.4L27.36,439.45L27.37,439.44L31.58,423.42L31.59,423.41L35.71,413.14L35.71,413.14L35.72,413.13L41.61,401.7L41.62,401.7L47.93,386.99L47.93,386.98L49.93,376.85L49.93,376.83L50.88,363.16L50.88,363.07L51.25,330.26L51.25,329.34L51.35,34.88L52.25,426.58L52.26,426.58L52.47,426.82L53.03,425.85L53.03,425.85L53.04,425.84L55.2,423.74L55.2,423.74L55.21,423.74L59.07,420.06L59.07,420.06L59.07,420.05L62.71,414L62.71,414L62.71,413.99L70.39,396.41L70.39,396.41L70.39,396.4L73.74,384.44L73.74,384.43L75.23,371.92L75.23,371.88L75.93,338.72L75.94,338.14L76.07,32.97L76.94,426.23L76.95,426.24L77.15,426.49L77.71,425.49L77.72,425.49L79.96,423.07L79.96,423.07L79.97,423.07L84.36,418.24L84.36,418.24L84.36,418.23L87.91,411.48L87.91,411.47L95.27,391.46L95.27,391.45L97.64,377.9L97.64,377.88L98.61,357.31L98.61,357.15L98.83,318.85L98.84,317.16L98.91,32.04L99.84,426.19L99.84,426.19L99.85,426.2L100.53,425.31L100.53,425.3L100.53,425.29L103.03,422.49L103.03,422.49L103.04,422.49L106.87,418.09L106.87,418.09L106.88,418.08L111.04,409.84L111.04,409.84L111.04,409.83L116.7,393.83L116.7,393.82L118.97,382.78L118.97,382.76L120.22,366.98L120.22,366.91L120.64,337.23L120.64,336.57L120.76,31.26L121.64,425.98L121.65,425.99L121.86,426.14L122.33,425.24L122.34,425.24L122.34,425.23L124.56,422.52L124.56,422.52L124.57,422.52L129.32,416.77L129.32,416.77L129.32,416.76L132.71,409.69L132.71,409.68L137.79,395.05L137.79,395.04L140.19,383.57L140.19,383.55L141.49,367.42L141.49,367.35L141.92,337.52L141.92,336.87L142.05,30.67L142.92,425.92L142.93,425.93L143.15,426.06L143.6,425.18L143.6,425.18L143.61,425.17L145.86,422.37L145.86,422.37L145.87,422.37L150.48,416.74L150.48,416.74L150.48,416.73L153.85,409.69L153.85,409.68L158.64,395.74L158.64,395.73L161.1,384.06L161.1,384.04L162.4,368.7L162.4,368.63L162.89,331.72L162.89,330.81L162.99,30.21L163.89,425.95L163.89,425.95L163.9,425.96L164.55,425.15L164.55,425.14L164.55,425.13L167.25,421.92L167.25,421.92L167.26,421.92L171.37,416.72L171.37,416.72L171.37,416.71L174.74,409.67L174.74,409.66L180.7,390.71L180.7,390.7L182.41,379.75L182.41,379.73L183.24,366.86L183.24,366.78L183.64,336.32L183.64,335.61L183.76,30.06L184.64,425.93L184.65,425.94L184.89,426L185.29,425.18L185.3,425.17L187.59,422.28L187.59,422.28L187.6,422.28L192.11,416.73L192.11,416.73L192.11,416.72L195.45,409.73L195.45,409.72L200.01,396.33L200.01,396.32L202.52,384.51L202.52,384.49L203.84,368.97L203.84,368.91L204.34,331.69L204.34,330.77L204.44,29.79L205.34,426L205.35,426L206.01,425.13L206.01,425.12L206.01,425.11L208.69,421.94L208.69,421.94L208.7,421.94L212.8,416.75L212.8,416.75L212.8,416.74L216.13,409.76L216.13,409.76L216.13,409.75L220.68,396.38L220.68,396.37L223.18,384.57L223.18,384.55L224.5,369.11L224.5,369.04L225,332.09L225,331.19L225.07,242.72L225.08,227.14L225.11,29.45L226.07,426.11L226.08,426.11L226.09,426.12L227.1,424.28L227.1,424.28L227.1,424.27L230.55,420.75L230.56,420.75L235.18,413.52L235.18,413.52L235.18,413.51L238.97,403.71L238.97,403.71L238.97,403.7L242.5,391.25L242.5,391.23L244.29,379.41L244.29,379.39L245.23,360.03L245.24,359.89L245.57,29.62L246.24,424.71L246.25,424.73L246.6,425.89L247.24,424.63L247.25,424.63L249.59,421.63L249.59,421.63L249.6,421.62L253.76,415.72L253.76,415.72L253.76,415.71L257.05,407.74L257.05,407.73L260.07,396.65L260.07,396.64L262.57,379.19L262.57,379.15L263.55,341.52L263.56,341L263.7,32.04L264.56,422.82L264.57,422.83L264.74,423.01L265.19,421.97L265.2,421.96L272.3,397.37L272.3,397.36L273.79,384.82L273.79,384.79L274.83,361.36L274.83,361.22L275.1,324.45L275.1,323.23L275.17,193.02L275.17,170.17L275.19,44.01L276.17,412.56L276.17,412.56L276.18,412.56L276.69,411.31L276.69,411.3L279.47,392.32L279.47,392.3L281.04,366.75L281.04,366.66L281.54,56.03L282.04,397.07L282.05,397.14L282.64,403.71L283.05,402.41L283.06,402.4L285.14,381.87L285.14,381.83L285.87,364.5L285.87,364.39L286.33,61.11L286.87,393.41L286.88,393.48L287.49,399.86L288.02,397.39L288.03,397.37L290.08,367.48L290.08,367.39L290.51,327.87L290.52,326.98L290.63,62.48L291.52,397.62L291.53,397.64L291.77,398.46L292.33,395.69L292.34,395.67L294.22,365.95L294.22,365.85L294.57,338.99L294.57,338.49L294.72,62.94L295.57,396.79L295.58,396.82L295.87,397.87L296.41,395.03L296.42,395L298.15,367.89L298.15,367.8L298.59,329.33L298.59,328.5L298.67,243.37L298.67,231.79L298.71,62.65L299.46,395.56L299.47,395.59L299.84,397.6L300.42,394.47L300.42,394.45L301.64,378.86L301.64,378.81L302.46,342.66L302.46,342.24L302.63,62.53L303.46,396.27L303.47,396.29L303.76,397.45L304.3,394.6L304.31,394.58L306.01,366.54L306.01,366.44L306.36,339.55L306.37,339.06L306.53,62.28L307.37,396.36L307.38,396.38L307.65,397.35L308.19,394.47L308.2,394.45L309.83,368.25L309.83,368.16L310.27,329.46L310.28,328.63L310.39,62.03L311.28,396.62L311.29,396.64L311.51,397.28L312.01,394.76L312.02,394.74L313.68,368.37L313.68,368.28L314.12,329.41L314.13,328.58L314.24,61.88L315.13,396.6L315.14,396.61L315.35,397.23L315.86,394.7L315.86,394.68L317.01,380.3L317.01,380.26L317.71,359.93L317.71,359.78L318.07,61.86L318.71,393.55L318.72,393.6L319.19,397.18L319.74,394.19L319.75,394.17L321.38,366.76L321.38,366.66L321.79,325.06L321.79,324.03L321.87,218.38L321.87,202.24L321.9,61.63L322.87,396.95L322.88,396.96L323.02,397.14L323.36,395.72L323.37,395.7L324.63,380.58L324.63,380.54L325.34,360.05L325.34,359.9L325.61,322.67L325.61,321.52L325.71,61.55L326.61,396.58L326.62,396.59L326.83,397.11L327.32,394.54L327.33,394.52L328.94,368.58L328.94,368.49L329.39,329.52L329.39,328.69L329.47,242.61L329.48,230.79L329.51,61.43L330.48,396.89L330.49,396.9L330.61,397.09L330.97,395.65L330.98,395.63L332.23,380.56L332.23,380.51L332.91,361.26L332.91,361.12L333.2,324.99L333.2,323.96L333.3,61.34L334.2,396.52L334.21,396.54L334.42,397.06L334.87,394.83L334.88,394.81L336.61,365.3L336.61,365.19L336.94,337.57L336.94,337.01L337.09,61.26L337.94,396.17L337.95,396.19L338.19,397.04L338.75,394.06L338.75,394.04L340.39,365.37L340.39,365.26L340.72,336.13L340.73,335.53L340.87,61.38L341.73,396.25L341.74,396.27L341.97,397.02L342.48,394.42L342.48,394.4L343.59,380.28L343.59,380.23L344.5,335.54L344.5,334.93L344.6,264.65L344.6,256.89L344.64,61.31L345.6,396.77L345.61,396.78L345.75,397L346.13,395.33L346.14,395.31L347.84,368.7L347.84,368.61L348.29,329.79L348.29,328.96L348.41,61.08L349.29,396.37L349.3,396.39L349.52,396.98L350.01,394.4L350.02,394.38L351.6,368.68L351.6,368.59L352.05,330.31L352.05,329.51L352.17,61L353.05,396.35L353.06,396.37L353.26,396.97L353.77,394.39L353.78,394.37L355.4,367.08L355.4,366.98L355.76,339.94L355.76,339.46L355.87,286.76L355.87,282.41L355.93,61.11L356.26,384.13L356.27,384.3L356.99,396.95L357.27,396.17L357.28,396.16L358.61,380.64L358.61,380.59L359.53,337.31L359.53,336.74L359.67,61.03L360.53,396.14L360.54,396.16L360.77,396.94L361.28,394.33L361.28,394.31L362.43,379.2L362.43,379.15L362.99,363.52L362.99,363.4L363.42,60.97L363.99,392.2L364,392.25L364.53,396.92L365.07,393.9L365.08,393.87L366.64,367.18L366.64,367.08L367,340.28L367,339.79L367.11,289.27L367.11,285.23L367.16,60.8L368.11,396.65L368.12,396.66L368.27,396.91L368.66,395.19L368.66,395.17L369.84,380.58L369.84,380.54L370.53,360.29L370.53,360.15L370.8,322.21L370.81,321.04L370.9,60.78L371.81,396.45L371.82,396.47L372,396.9L372.46,394.64L372.47,394.62L374.07,368.85L374.07,368.76L374.52,329.63L374.52,328.8L374.64,60.69L375.52,396.31L375.53,396.33L375.74,396.89L376.23,394.33L376.24,394.31L377.85,367.12L377.85,367.02L378.26,326.43L378.26,325.45L378.37,60.71L379.26,396.35L379.27,396.36L379.47,396.88L379.97,394.3L379.97,394.28L381.57,367.24L381.57,367.14L381.93,339.92L381.94,339.43L382.1,60.73L382.94,396.01L382.95,396.03L383.19,396.87L383.74,393.84L383.75,393.82L385.34,365.6L385.34,365.5L385.68,336.15L385.68,335.55L385.82,60.65L386.68,396.12L386.69,396.14L386.92,396.86L387.42,394.22L387.43,394.2L389.02,367.23L389.02,367.13L389.43,326.29L389.44,325.31L389.54,60.55L390.44,396.36L390.45,396.38L390.64,396.85L391.1,394.56L391.11,394.54L392.69,368.89L392.69,368.8L393.14,330.43L393.14,329.63L393.23,241.57L393.23,229.46L393.26,60.52L394.23,396.67L394.23,396.67L394.24,396.68L394.37,396.84L394.67,395.65L394.68,395.63L395.98,379.52L395.98,379.47L396.81,341.48L396.81,341.03L396.98,60.59L397.81,395.9L397.82,395.92L398.06,396.84L398.62,393.89L398.62,393.86L400.17,367.29L400.17,367.19L400.58,326.68L400.59,325.72L400.69,60.67L401.59,396.35L401.6,396.37L401.79,396.83L402.25,394.55L402.25,394.53L403.36,380.41L403.36,380.36L404.26,335.69L404.27,335.07L404.4,60.61L405.27,396.15L405.28,396.17L405.5,396.82L406,394.18L406.01,394.16L407.59,367.31L407.59,367.22L407.95,340.08L407.95,339.59L408.06,287.1L408.06,282.77L408.11,60.54L409.06,396.57L409.07,396.58L409.2,396.82L409.59,395.15L409.6,395.13L411.25,368.93L411.25,368.84L411.7,330.52L411.7,329.72L411.78,242.37L411.79,230.41L411.82,60.38L412.79,396.64L412.79,396.64L412.8,396.65L412.92,396.81L413.24,395.57L413.24,395.55L414.47,380.67L414.47,380.63L415.39,335.75L415.39,335.14L415.53,60.53L416.39,396.12L416.4,396.14L416.63,396.8L417.12,394.18L417.13,394.15L418.66,368.99L418.66,368.9L419.11,330.14L419.11,329.32L419.19,247.69L419.19,236.74L419.23,60.5L419.96,394.82L419.97,394.85L420.32,396.8L420.87,393.82L420.87,393.79L422.45,365.71L422.45,365.6L422.78,338.12L422.78,337.57L422.88,278.36L422.89,272.8L422.93,60.4L423.89,396.6L423.9,396.61L424.03,396.79L424.38,395.34L424.38,395.32L425.64,379.51L425.64,379.46L426.46,341.8L426.46,341.36L426.58,289.88L426.58,285.9L426.63,60.36L427.58,396.55L427.59,396.56L427.73,396.79L428.11,395.1L428.11,395.08L429.28,380.59L429.28,380.55L430.15,343.49L430.15,343.09L430.33,60.36L431.15,395.76L431.16,395.78L431.43,396.78L431.97,393.74L431.98,393.71L433.5,367.37L433.5,367.27L433.87,340.2L433.87,339.71L434.03,60.3L434.87,395.94L434.88,395.96L435.12,396.78L435.62,394.16L435.63,394.14L437.2,367.36L437.2,367.27L437.56,340.16L437.56,339.68L437.67,287.57L437.67,283.3L437.73,60.32L438.05,383.46L438.06,383.65L438.78,396.77L439.06,395.99L439.07,395.98L440.36,380.7L440.36,380.65L441.05,360.39L441.05,360.24L441.42,60.23L442.05,393.34L442.06,393.38L442.51,396.77L443.06,393.69L443.07,393.66L444.63,365.78L444.63,365.67L444.97,336.69L444.97,336.1L445.11,60.21L445.97,396.04L445.98,396.06L446.2,396.77L446.71,394.13L446.71,394.1L448.28,367.36L448.28,367.27L448.64,340.12L448.64,339.63L448.75,287.1L448.75,282.76L448.81,60.35L449.14,384.04L449.15,384.21L449.86,396.76L450.15,395.92L450.16,395.9L451.43,380.78L451.43,380.73L452.1,361.62L452.1,361.48L452.39,325.94L452.39,324.95L452.5,60.29L453.39,396.28L453.4,396.3L453.59,396.76L454.05,394.49L454.05,394.46L455.61,369.11L455.61,369.02L456.07,330.08L456.07,329.26L456.18,60.26L457.07,396.22L457.08,396.24L457.27,396.76L457.74,394.43L457.75,394.41L459.3,369.05L459.3,368.96L459.75,330.32L459.76,329.52L459.87,60.28L460.76,396.22L460.77,396.23L460.98,396.75L461.46,394.16L461.47,394.14L463.04,367.38L463.04,367.28L463.46,324.87L463.46,323.82L463.56,60.31L464.46,396.29L464.47,396.31L464.66,396.75L465.11,394.47L465.12,394.45L466.68,369.01L466.68,368.93L467.13,329.96L467.13,329.14L467.21,244.92L467.21,233.42L467.25,60.16L467.99,394.93L468,394.96L468.34,396.75L468.88,393.75L468.89,393.72L470.45,365.84L470.45,365.73L470.79,336.34L470.79,335.75L470.89,271.43L470.89,264.78L470.93,60.3L471.89,396.54L471.9,396.55L472.02,396.75L472.4,395.17L472.4,395.16L473.57,380.65L473.57,380.6L474.48,335.73L474.48,335.12L474.57,271.28L474.58,264.6L474.62,60.27L475.58,396.56L475.59,396.57L475.72,396.74L476.04,395.43L476.05,395.41L477.25,380.69L477.25,380.64L478.17,335.54L478.17,334.92L478.31,60.12L479.17,396.08L479.18,396.1L479.4,396.74L479.9,394.08L479.9,394.06L481.01,379.22L481.01,379.17L481.81,343.61L481.81,343.21L481.99,60.29L482.81,395.73L482.82,395.75L483.08,396.74L483.62,393.74L483.63,393.71L485.19,365.76L485.19,365.66L485.53,336.49L485.53,335.9L485.67,60.18L486.53,396.03L486.54,396.05L486.76,396.74L487.26,394.14L487.26,394.11L488.38,379.23L488.38,379.18L489.17,343.65L489.17,343.24L489.29,297.61L489.3,294.51L489.36,60.22L490.3,396.5L490.31,396.51L490.44,396.74L490.83,395.03L490.84,395.01L492.51,367.46L492.51,367.37L492.88,340L492.88,339.51L493.04,60.15L493.88,395.92L493.89,395.94L494.14,396.73L494.62,394.14L494.63,394.12L496.2,367.32L496.2,367.22L496.72,60.12L497.2,390.12L497.21,390.19L497.77,396.73L498.21,394.9L498.22,394.88L499.83,369.02L499.83,368.93L500.28,329.85L500.28,329.02L500.36,243.32L500.37,231.52L500.4,60.06L501.37,396.58L501.37,396.58L501.38,396.59L501.79,395.66L501.79,395.61L501.8,395.59L503.08,379.62L503.08,379.57L503.9,343.45L503.9,343.04L504.08,60.06L504.9,395.73L504.91,395.75L505.17,396.73L505.72,393.71L505.72,393.68L507.28,365.8L507.28,365.7L507.76,60.05L508.28,391.1L508.29,391.17L508.85,396.73L509.39,393.73L509.4,393.7L510.96,365.77L510.96,365.67L511.44,60.13L511.96,391.12L511.97,391.18L512.52,396.73L513.07,393.79L513.07,393.77L514.55,369.04L514.55,368.96L515,330.03L515,329.21L515.12,60.08L516,396.17L516.01,396.19L516.19,396.73L516.71,394.13L516.71,394.1L518.22,369.17L518.22,369.08L518.68,330.34L518.68,329.53L518.8,60.16L519.68,396.18L519.69,396.19L519.9,396.72L520.38,394.13L520.39,394.11L521.95,367.43L521.95,367.34L522.31,340.29L522.31,339.81L522.42,288.3L522.42,284.11L522.48,60.05L522.79,382.66L522.8,382.86L523.53,396.72L523.8,395.98L523.81,395.97L525.1,380.7L525.1,380.66L525.97,343.41L525.97,343L526.09,298.7L526.09,295.71L526.15,60.03L526.3,340.54L526.3,341.92L527.21,396.72L527.3,396.65L527.31,396.64L527.96,392L527.96,391.97L529.26,369.02L529.26,368.93L529.71,329.81L529.71,328.97L529.79,242.56L529.8,230.6L529.83,60.02L530.8,396.57L530.81,396.58L531.22,395.64L531.22,395.61L531.22,395.59L532.12,386.02L532.12,385.99L533.08,363.5L533.08,363.37L533.51,60.05L534.08,392.21L534.09,392.26L534.6,396.72L535.15,393.66L535.15,393.64L536.61,369.08L536.61,368.99L537.06,330.28L537.07,329.47L537.19,60.2L538.07,396.19L538.08,396.21L538.27,396.72L538.73,394.44L538.74,394.41L540.29,369.05L540.29,368.96L540.74,329.98L540.74,329.16L540.82,244.87L540.83,233.35L540.86,60.03L541.83,396.56L541.83,396.56L541.84,396.57L542.25,395.64L542.25,395.61L542.25,395.59L543.15,386.02L543.15,385.99L544.11,363.48L544.11,363.36L544.54,60.1L545.11,392.21L545.12,392.27L545.62,396.72L546.17,393.68L546.18,393.65L547.73,365.83L547.73,365.72L548.06,337.87L548.07,337.32L548.21,60.01L549.07,396.01L549.08,396.03L549.3,396.72L549.8,394.13L549.8,394.11L550.91,379.3L550.91,379.25L551.72,341.49L551.72,341.03L551.83,290.52L551.84,286.61L551.89,60.18L552.84,396.51L552.85,396.52L552.97,396.72L553.34,395.22L553.34,395.2L554.57,379.57L554.57,379.52L555.38,343.7L555.38,343.3L555.5,297.9L555.51,294.82L555.57,60.08L556.51,396.48L556.52,396.49L556.64,396.72L557.04,395.03L557.04,395.01L558.19,380.61L558.19,380.57L559.06,343.77L559.06,343.37L559.24,60.01L560.06,395.7L560.07,395.73L560.34,396.71L560.87,393.7L560.88,393.68L562.34,369.12L562.34,369.03L562.8,329.81L562.8,328.98L562.92,60L563.8,396.18L563.81,396.2L564.01,396.71L564.46,394.44L564.47,394.42L566.06,367.55L566.06,367.45L566.48,327.23L566.48,326.29L566.56,230.84L566.56,216.67L566.59,59.99L567.56,396.56L567.57,396.57L567.98,395.63L567.98,395.6L567.98,395.58L568.93,385.27L568.93,385.23L569.84,363.27L569.84,363.14L570.14,331.36L570.14,330.59L570.23,252.32L570.23,242.23L570.27,60L571.23,396.55L571.24,396.55L571.39,396.69L571.66,395.58L571.66,395.57L572.88,380.76L572.88,380.71L573.57,360.4L573.57,360.25L573.84,323.02L573.84,321.87L573.91,197.17L573.91,177.98L573.94,60.02L574.77,395.79L574.78,395.81L575.04,396.71L575.57,393.7L575.58,393.67L577.13,365.89L577.13,365.78L577.47,337.62L577.47,337.06L577.62,60.1L578.47,396L578.48,396.01L578.71,396.71L579.2,394.09L579.21,394.07L580.76,367.5L580.76,367.4L581.13,340.08L581.13,339.59L581.29,60.13L582.13,395.88L582.14,395.9L582.38,396.71L582.88,394.06L582.88,394.04L583.99,379.24L583.99,379.19L584.79,341.8L584.79,341.35L584.91,292.98L584.91,289.36L584.96,60L585.91,396.49L585.92,396.5L586.06,396.71L586.42,395.13L586.43,395.11L588.11,367.44L588.11,367.34L588.53,327.09L588.53,326.14L588.64,60.01L589.53,396.23L589.54,396.24L589.73,396.71L590.19,394.43L590.19,394.41L591.74,369.08L591.74,368.99L592.19,330.22L592.19,329.4L592.28,236.84L592.28,223.79L592.31,60.16L593.28,396.56L593.28,396.56L593.29,396.57L593.7,395.64L593.7,395.59L593.71,395.57L594.99,379.59L594.99,379.54L595.8,343.84L595.8,343.44L595.92,298.91L595.92,295.94L595.99,59.98L596.13,339.04L596.13,340.45L597.04,396.71L597.13,396.64L597.14,396.63L597.8,391.95L597.8,391.92L599.09,369L599.09,368.92L599.54,328.69L599.55,327.81L599.66,60.12L600.55,396.22L600.56,396.23L600.75,396.71L601.21,394.42L601.21,394.4L602.29,380.49L602.29,380.44L603.15,343.48L603.15,343.07L603.27,299.14L603.27,296.19L603.33,59.99L604.27,396.44L604.28,396.46L604.43,396.71L604.81,394.98L604.82,394.96L606.48,367.42L606.48,367.32L606.9,326.91L606.9,325.95L607.01,60.11L607.9,396.23L607.91,396.25L608.1,396.71L608.55,394.44L608.56,394.42L610.11,369.05L610.11,368.96L610.56,329.92L610.56,329.1L610.64,244.01L610.65,232.33L610.68,59.98L611.65,396.57L611.66,396.57L612.07,395.63L612.07,395.58L612.08,395.56L613.36,379.57L613.36,379.52L614.17,343.64L614.17,343.24L614.29,297.41L614.29,294.28L614.35,60.17L614.51,347.66L614.52,348.87L615.41,396.71L615.52,396.59L615.53,396.58L616.28,390.65L616.28,390.62L617.54,365.82L617.54,365.71L617.88,337.79L617.88,337.24L618.03,59.97L618.88,395.97L618.89,395.99L619.12,396.71L619.61,394.12L619.62,394.09L621.18,367.4L621.18,367.3L621.59,325.69L621.6,324.68L621.7,60.08L622.6,396.26L622.61,396.28L622.79,396.71L623.25,394.42L623.25,394.39L624.33,380.47L624.33,380.42L625.01,360.24L625.01,360.09L625.37,60.03L626.01,393.42L626.02,393.47L626.46,396.71L627.02,393.54L627.03,393.52L628.47,369.14L628.47,369.05L628.93,329.95L628.93,329.12L629.05,59.98L629.93,396.18L629.94,396.19L630.14,396.71L630.63,394.12L630.64,394.1L632.19,367.51L632.19,367.41L632.56,340.11L632.56,339.62L632.72,60.17L633.56,395.88L633.57,395.9L633.81,396.71L634.3,394.13L634.31,394.1L635.82,369.12L635.82,369.03L636.28,329.72L636.28,328.89L636.39,60L637.28,396.2L637.29,396.21L637.48,396.71L637.94,394.43L637.95,394.4L639.49,369.15L639.49,369.06L639.95,330.01L639.95,329.19L640.07,60L640.95,396.18L640.96,396.19L641.16,396.71L641.65,394.1L641.66,394.08L643.21,367.51L643.21,367.42L643.58,340.15L643.58,339.66L643.74,60.15L644.58,395.88L644.59,395.9L644.83,396.71L645.32,394.13L645.33,394.11L646.89,367.45L646.89,367.35L647.31,326.23L647.31,325.24L647.41,59.98L648.31,396.26L648.32,396.27L648.5,396.71L648.96,394.43L648.97,394.41L650.51,369.15L650.51,369.07L650.97,330.07L650.97,329.25L651.09,60.03L651.97,396.17L651.98,396.19L652.18,396.71L652.64,394.37L652.65,394.35L654.19,369.1L654.19,369.01L654.64,330.37L654.64,329.56L654.76,60.09L655.64,396.15L655.65,396.17L655.85,396.71L656.35,394.11L656.35,394.09L657.91,367.46L657.91,367.37L658.33,325.36L658.33,324.33L658.43,59.97L659.33,396.25L659.34,396.27L659.52,396.71L659.98,394.41L659.99,394.39L661.53,369.17L661.53,369.08L661.99,330.2L661.99,329.38L662.11,60.12L662.99,396.17L663,396.19L663.2,396.71L663.66,394.35L663.67,394.33L665.21,369.12L665.21,369.03L665.66,330.53L665.66,329.72L665.78,59.99L666.66,396.15L666.67,396.17L666.87,396.71L667.37,394.11L667.37,394.09L668.93,367.39L668.93,367.29L669.29,340.5L669.29,340.02L669.45,60.04L670.29,395.84L670.3,395.87L670.55,396.71L671.08,393.73L671.09,393.7L672.64,365.91L672.64,365.8L672.98,336.55L672.99,335.96L673.13,60.03L673.99,396.05L674,396.07L674.22,396.71L674.71,394.11L674.72,394.09L676.28,367.39L676.28,367.29L676.8,60.02L677.28,390.09L677.29,390.16L677.9,396.71L678.44,393.65L678.44,393.63L679.9,369.11L679.9,369.02L680.35,330.48L680.36,329.67L680.47,60.02L681.36,396.18L681.37,396.2L681.57,396.71L682.07,394.05L682.07,394.02L683.17,379.25L683.17,379.2L683.97,343.56L683.97,343.16L684.15,60.07L684.97,395.74L684.98,395.76L685.24,396.71L685.78,393.68L685.79,393.66L687.25,369.12L687.25,369.04L687.7,330.62L687.7,329.82L687.79,242.58L687.79,230.63L687.82,59.98L688.79,396.56L688.8,396.57L689.21,395.65L689.21,395.6L689.22,395.58L690.5,379.57L690.5,379.52L691.31,343.67L691.32,343.27L691.5,60.11L692.32,395.75L692.33,395.78L692.59,396.71L693.13,393.74L693.13,393.72L694.6,369.07L694.6,368.98L695.05,330.11L695.05,329.29L695.13,246.46L695.14,235.25L695.17,60.06L696.14,396.57L696.15,396.58L696.56,395.64L696.56,395.59L696.57,395.57L697.85,379.6L697.85,379.54L698.66,343.46L698.67,343.05L698.84,59.98L699.67,395.77L699.68,395.79L699.95,396.71L700.47,393.75L700.48,393.73L701.95,369.03L701.95,368.94L702.4,329.78L702.4,328.95L702.48,242.09L702.49,230.04L702.52,59.99L703.49,396.57L703.49,396.57L703.5,396.58L703.91,395.62L703.91,395.58L703.92,395.57L705.2,379.58L705.2,379.53L706.01,343.74L706.01,343.34L706.13,300.97L706.13,298.2L706.19,60.02L707.13,396.45L707.14,396.46L707.28,396.72L707.69,394.84L707.7,394.82L709.34,367.53L709.34,367.43L709.76,327.04L709.76,326.09L709.87,60.04L710.76,396.24L710.77,396.25L710.95,396.72L711.42,394.39L711.43,394.37L712.97,369.11L712.97,369.02L713.43,329.69L713.43,328.85L713.54,60.02L714.43,396.2L714.44,396.22L714.63,396.72L715.09,394.44L715.1,394.42L716.65,369.03L716.65,368.94L717.1,329.79L717.1,328.95L717.18,242.2L717.18,230.17L717.22,59.99L717.97,395.02L717.98,395.05L718.31,396.72L718.89,393.31L718.9,393.29L720.32,369.14L720.32,369.05L720.78,329.95L720.78,329.13L720.89,60L721.78,396.2L721.79,396.22L721.99,396.72L722.44,394.45L722.45,394.43L724,369.07L724,368.98L724.45,331.74L724.45,330.98L724.57,60.15L725.45,396.17L725.46,396.18L725.66,396.72L726.16,394.12L726.16,394.1L727.72,367.44L727.72,367.34L728.08,340.28L728.09,339.79L728.25,60.02L729.09,395.92L729.1,395.94L729.34,396.72L729.83,394.13L729.84,394.11L731.4,367.39L731.4,367.29L731.76,340.51L731.76,340.04L731.92,60.09L732.76,395.87L732.77,395.9L733.02,396.72L733.51,394.15L733.51,394.12L735.07,367.45L735.07,367.35L735.44,340.33L735.44,339.85L735.6,60L736.44,395.9L736.45,395.92L736.67,396.73L737.19,394.09L737.19,394.07L738.3,379.26L738.3,379.21L739.11,341.59L739.11,341.14L739.28,60.1L740.11,395.85L740.12,395.87L740.36,396.73L740.87,394.11L740.87,394.09L742.43,367.41L742.43,367.31L742.79,340.13L742.79,339.64L742.9,286.95L742.9,282.59L742.95,60.2L743.9,396.5L743.91,396.51L744.04,396.73L744.43,395.03L744.43,395.01L745.58,380.64L745.58,380.59L746.49,335.81L746.49,335.2L746.63,60.22L747.49,396.03L747.5,396.05L747.72,396.73L748.22,394.16L748.22,394.13L749.74,369.09L749.74,369L750.19,330.36L750.19,329.55L750.31,60.13L751.19,396.19L751.2,396.2L751.4,396.73L751.9,394.14L751.9,394.12L753.46,367.44L753.46,367.34L753.82,340.31L753.83,339.83L753.99,60.02L754.83,395.91L754.84,395.93L755.08,396.73L755.62,393.7L755.63,393.68L757.09,369.14L757.09,369.06L757.55,330.1L757.55,329.28L757.66,60.1L758.55,396.19L758.56,396.21L758.77,396.73L759.25,394.14L759.26,394.11L760.77,369.11L760.77,369.02L761.23,329.75L761.23,328.92L761.34,60.03L762.23,396.2L762.24,396.22L762.43,396.74L762.93,394.13L762.94,394.11L764.5,367.41L764.5,367.31L764.86,340.17L764.86,339.68L764.97,287.28L764.97,282.96L765.03,60.16L765.36,383.7L765.36,383.89L766.08,396.74L766.36,395.94L766.37,395.92L767.65,380.73L767.65,380.68L768.56,335.8L768.57,335.19L768.71,60.24L769.57,396.09L769.58,396.11L769.8,396.74L770.3,394.1L770.3,394.08L771.86,367.4L771.86,367.31L772.22,340.15L772.22,339.66L772.33,287.14L772.33,282.8L772.39,60.19L772.72,384.07L772.73,384.24L773.44,396.74L773.73,395.88L773.74,395.87L775.07,379.56L775.07,379.51L775.88,343.74L775.88,343.34L776,301.03L776,298.28L776.07,60.07L776.18,325.23L776.19,326.93L777.12,396.74L777.19,396.71L777.2,396.7L777.81,392.68L777.81,392.65L779.22,367.47L779.22,367.37L779.59,340L779.59,339.5L779.75,60.1L780.59,395.93L780.6,395.95L780.83,396.75L781.34,394.11L781.34,394.09L782.45,379.26L782.45,379.21L783.26,341.68L783.26,341.23L783.43,60.06L784.26,395.84L784.27,395.86L784.52,396.75L785.06,393.73L785.07,393.7L786.63,365.77L786.63,365.67L787.11,60.13L787.63,391.08L787.64,391.14L788.2,396.75L788.74,393.77L788.75,393.75L790.31,365.78L790.31,365.67L790.65,336.53L790.65,335.93L790.79,60.12L791.65,396.03L791.66,396.05L791.89,396.75L792.38,394.15L792.39,394.13L793.95,367.43L793.95,367.34L794.31,340.33L794.32,339.85L794.48,60.06L795.32,395.93L795.33,395.95L795.56,396.76L796.11,393.74L796.12,393.72L797.59,369.05L797.59,368.96L798.04,331.72L798.04,330.96L798.16,60.22L799.04,396.18L799.05,396.2L799.25,396.76L799.75,394.15L799.75,394.13L800.87,379.26L800.87,379.21L801.68,341.31L801.68,340.86L801.85,60.08L802.68,395.87L802.69,395.89L802.94,396.76L803.44,394.13L803.44,394.1L804.55,379.3L804.55,379.25L805.35,343.4L805.35,342.99L805.53,60.08L806.35,395.74L806.36,395.76L806.63,396.76L807.17,393.75L807.17,393.73L808.65,369.02L808.65,368.93L809.1,329.92L809.1,329.09L809.22,60.09L810.1,396.22L810.11,396.24L810.3,396.77L810.81,394.18L810.81,394.16L812.38,367.38L812.38,367.28L812.74,340.08L812.74,339.6L812.85,286.66L812.85,282.26L812.9,60.28L813.85,396.54L813.86,396.55L814,396.77L814.38,395.08L814.38,395.06L815.54,380.64L815.54,380.59L816.45,336.12L816.45,335.52L816.59,60.09L817.45,396.08L817.46,396.09L817.69,396.77L818.18,394.19L818.18,394.16L819.24,380.39L819.24,380.34L820.1,343.37L820.1,342.96L820.28,60.1L821.1,395.77L821.11,395.8L821.38,396.77L821.91,393.79L821.91,393.77L822.94,380.19L822.94,380.15L823.78,343.8L823.78,343.4L823.9,298.77L823.91,295.79L823.97,60.1L824.91,396.53L824.92,396.54L825.06,396.78L825.44,395.08L825.45,395.06L827.08,369.12L827.08,369.04L827.54,330.12L827.54,329.3L827.65,60.22L828.54,396.23L828.55,396.25L828.75,396.78L829.24,394.21L829.25,394.18L830.77,369.09L830.77,369L831.23,329.8L831.23,328.97L831.35,60.11L832.23,396.24L832.24,396.26L832.45,396.78L832.9,394.47L832.91,394.45L834.46,369.08L834.46,368.99L834.92,330.5L834.92,329.7L835.04,60.14L835.92,396.25L835.93,396.26L836.12,396.79L836.62,394.2L836.63,394.18L838.2,367.42L838.2,367.32L838.62,326.29L838.62,325.31L838.73,60.12L839.62,396.29L839.63,396.31L839.82,396.79L840.32,394.17L840.32,394.14L841.44,379.26L841.44,379.2L842.24,343.56L842.24,343.16L842.42,60.29L843,392.38" style="vector-effect: none; fill: none; stroke: rgb(255, 0, 0); stroke-opacity: 1; stroke-width: 4px; opacity: 1;"/></g><g class="points"/><g class="text"/></g><g class="trace scatter tracefae1f8" style="stroke-miterlimit: 2; opacity: 0.5;"><g class="fills"/><g class="errorbars"/><g class="lines"><path class="js-line" d="M0,534.89L0.22,559.55L1,558.2L1.01,558.19L3.02,557.59L3.02,557.59L3.03,557.59L21.07,557.56L21.07,557.56L21.08,551.77L22.08,490.2L22.09,490.14L24.46,458.42L24.47,458.4L27.19,440.29L27.2,440.28L31.58,423.39L31.59,423.38L35.73,413.04L35.74,413.04L41.78,401.25L41.79,401.25L47.72,387.24L47.72,387.23L49.76,376.98L49.76,376.96L50.71,363.28L50.71,363.2L51.08,329.55L51.09,328.6L51.19,34.92L52.09,426.55L52.1,426.55L52.32,426.76L52.85,425.83L52.85,425.83L52.85,425.82L55.05,423.65L55.05,423.65L55.06,423.64L58.83,420.02L58.83,420.02L58.83,420.01L62.48,413.94L62.48,413.93L69.72,397.23L69.72,397.22L73.25,384.78L73.25,384.76L74.83,371.19L74.83,371.14L75.49,336.84L75.49,336.19L75.57,270.34L75.58,261.72L75.62,33.11L76.58,426.32L76.59,426.32L77.32,425.25L77.32,425.25L77.33,425.24L79.68,422.75L79.68,422.75L79.69,422.75L83.75,418.17L83.75,418.17L83.75,418.16L86.95,412.23L86.95,412.23L86.95,412.22L92.36,398.47L92.36,398.47L92.36,398.46L95.42,387.28L95.42,387.26L97.15,373.59L97.15,373.55L97.79,354.66L97.79,354.46L97.99,307.84L97.99,305.15L98.05,32.03L98.99,426.02L98.99,426.02L99,426.03L99.7,425.04L99.7,425.03L99.7,425.02L102.26,422.1L102.26,422.1L102.27,422.1L106.57,416.74L106.57,416.74L106.57,416.73L110,409.6L110,409.59L115.09,394.94L115.09,394.93L117.5,383.42L117.5,383.4L118.77,368.23L118.77,368.17L119.26,329.9L119.26,328.9L119.36,31.4L120.26,425.77L120.27,425.77L120.59,425.7L120.91,425L120.92,424.99L123.25,422.01L123.26,422.01L127.57,416.64L127.57,416.64L127.57,416.63L131.02,409.47L131.02,409.46L135.49,396.28L135.49,396.27L138.01,384.41L138.01,384.4L139.35,368.81L139.35,368.75L139.85,331.4L139.85,330.48L139.95,31.05L140.85,425.61L140.85,425.61L140.86,425.62L141.19,425.53L141.5,424.84L141.51,424.83L143.9,421.7L143.91,421.7L147.95,416.57L147.95,416.57L147.95,416.56L151.42,409.37L151.42,409.36L156.82,391.89L156.82,391.87L158.68,380.33L158.68,380.31L159.74,359.85L159.74,359.71L160.07,30.63L160.74,424.3L160.75,424.32L161.13,425.62L161.76,424.4L161.76,424.39L164.39,421.14L164.39,421.14L164.4,421.14L168.83,414.94L168.83,414.94L168.83,414.93L172.5,406.29L172.5,406.28L176.56,392.38L176.56,392.37L178.44,380.73L178.44,380.71L179.52,360.08L179.52,359.95L179.77,326.96L179.77,325.79L179.86,30.42L180.77,425.45L180.77,425.45L180.78,425.46L181.43,424.57L181.43,424.55L181.44,424.54L183.89,421.28L183.89,421.28L183.9,421.28L188.49,414.92L188.49,414.92L188.49,414.91L192.16,406.27L192.16,406.26L196.06,392.79L196.06,392.78L197.97,381.03L197.97,381L198.89,366.9L198.89,366.83L199.3,333.44L199.3,332.61L199.41,30.32L200.3,425.36L200.31,425.36L200.72,425.1L200.94,424.57L200.95,424.56L203.46,421.15L203.46,421.15L203.47,421.14L207.95,414.9L207.95,414.9L207.95,414.89L211.61,406.27L211.61,406.27L211.61,406.26L215.4,393.09L215.4,393.08L217.33,381.27L217.33,381.24L218.27,366.95L218.27,366.88L218.67,333.4L218.68,332.56L218.78,30.26L219.68,425.32L219.68,425.32L219.69,425.33L220.34,424.47L220.34,424.47L220.34,424.46L222.86,421.04L222.86,421.04L222.87,421.04L227.26,414.88L227.26,414.88L227.26,414.87L230.92,406.25L230.92,406.24L235,391.57L235,391.56L237.1,375.32L237.1,375.28L237.76,356.34L237.76,356.15L237.96,313.09L237.97,310.86L238.03,30.07L238.97,425.35L238.97,425.35L238.98,425.36L239.73,424.1L239.73,424.09L242.13,420.95L242.13,420.95L242.14,420.95L246.45,414.88L246.45,414.88L246.45,414.87L250.11,406.25L250.11,406.25L250.11,406.24L253.77,393.42L253.77,393.41L255.72,381.51L255.72,381.48L256.66,367.23L256.66,367.16L257.07,335.51L257.07,334.77L257.18,30.09L258.07,425.24L258.07,425.24L258.08,425.25L258.5,424.97L258.71,424.45L258.72,424.45L261.28,420.91L261.28,420.91L261.29,420.9L265.56,414.88L265.56,414.88L265.56,414.87L269.23,406.22L269.23,406.21L272.84,393.53L272.84,393.52L274.79,381.62L274.79,381.6L275.74,367.27L275.74,367.2L276.15,334.94L276.15,334.17L276.23,249.84L276.23,236.1L276.27,30.16L277.03,424.78L277.04,424.79L277.31,425.34L277.92,424.12L277.93,424.12L280.38,420.85L280.38,420.85L280.39,420.85L284.62,414.86L284.62,414.86L284.62,414.85L288.27,406.24L288.27,406.23L291.86,393.63L291.86,393.61L293.82,381.67L293.82,381.65L294.95,360.46L294.95,360.32L295.2,327.39L295.2,326.24L295.26,214.39L295.27,192.25L295.29,30L296.27,425.32L296.27,425.32L296.28,425.32L297.22,423.53L297.22,423.52L300.02,420.14L300.03,420.14L304.6,412.96L304.6,412.95L308.11,403.71L308.11,403.7L312.11,386.97L312.11,386.96L313.69,368.99L313.69,368.93L314.14,340.15L314.15,339.59L314.28,30.08L315.15,425.16L315.16,425.16L315.35,425.3L315.81,424.4L315.81,424.39L318.4,420.79L318.41,420.79L322.6,414.84L322.6,414.84L322.6,414.83L326.25,406.22L326.25,406.21L329.8,393.7L329.8,393.68L331.75,381.78L331.75,381.75L332.71,367.35L332.71,367.27L333.12,335.28L333.12,334.52L333.24,29.88L334.12,425.18L334.12,425.18L334.13,425.19L334.48,425.05L334.76,424.39L334.77,424.38L337.04,421.11L337.04,421.11L337.05,421.1L341.53,414.86L341.53,414.86L341.53,414.85L345.2,406.2L345.2,406.19L348.73,393.72L348.73,393.71L350.69,381.75L350.69,381.73L351.82,360.61L351.82,360.48L352.07,327.35L352.08,326.19L352.17,29.91L353.08,425.23L353.09,425.23L353.76,424.23L353.76,424.22L356.29,420.76L356.29,420.76L356.3,420.76L360.46,414.84L360.46,414.84L360.46,414.83L364.12,406.2L364.12,406.19L367.64,393.75L367.64,393.74L369.59,381.84L369.59,381.81L370.52,368.27L370.52,368.2L370.95,338.38L370.95,337.75L371.04,269.71L371.04,260.66L371.08,30.08L372.04,425.28L372.05,425.28L372.87,423.76L372.87,423.76L372.87,423.75L375.82,420.06L375.82,420.06L375.83,420.06L380.35,412.93L380.35,412.93L380.35,412.92L383.84,403.71L383.84,403.7L387.8,387.1L387.8,387.08L389.34,370.13L389.34,370.07L389.75,353.19L389.75,352.95L389.98,29.91L390.75,424.78L390.76,424.79L391,425.29L391.63,424.06L391.64,424.06L394.12,420.72L394.12,420.72L394.13,420.72L398.25,414.85L398.25,414.85L398.25,414.84L401.91,406.21L401.91,406.2L405.43,393.78L405.43,393.76L407.84,376.8L407.84,376.76L408.55,358.87L408.55,358.71L408.78,323L408.78,321.56L408.84,178.68L408.84,151.43L408.87,29.9L409.83,425.27L409.84,425.27L409.85,425.28L410.78,423.49L410.78,423.49L410.78,423.48L414.26,419.24L414.27,419.24L418.69,411.69L418.69,411.68L421.69,403.45L421.69,403.44L424.47,393.02L424.47,393L426.38,380.69L426.38,380.66L427.42,359.32L427.42,359.17L427.66,324.43L427.66,323.08L427.74,29.87L428.66,425.22L428.67,425.22L429.34,424.19L429.35,424.18L431.88,420.71L431.89,420.71L436.01,414.84L436.01,414.84L436.01,414.83L439.67,406.2L439.67,406.19L443.17,393.81L443.17,393.79L445.13,381.85L445.13,381.83L446.27,360.61L446.27,360.48L446.52,327.24L446.52,326.07L446.58,211.05L446.59,188.22L446.61,29.85L447.59,425.27L447.59,425.27L447.6,425.27L448.53,423.48L448.53,423.48L448.53,423.47L452.01,419.23L452.01,419.23L452.02,419.23L456.44,411.68L456.44,411.67L460.8,398.78L460.8,398.77L463.34,386.84L463.34,386.83L464.59,374.94L464.59,374.9L465.35,338.82L465.35,338.21L465.48,29.87L466.35,425.12L466.35,425.12L466.36,425.13L466.61,425.2L467,424.36L467.01,424.36L469.29,421.05L469.29,421.05L469.3,421.05L473.73,414.85L473.73,414.85L473.73,414.84L477.4,406.2L477.4,406.19L480.89,393.83L480.89,393.82L482.85,381.89L482.85,381.86L483.78,368.28L483.78,368.21L484.21,338.35L484.21,337.72L484.3,269.28L484.3,260.13L484.34,30.01L485.3,425.26L485.3,425.26L485.31,425.26L486.13,423.74L486.13,423.74L486.13,423.73L489.1,420L489.11,420L493.58,412.93L493.58,412.92L497.06,403.74L497.06,403.73L499.9,393.13L499.9,393.12L501.83,380.71L501.83,380.68L502.88,359.22L502.88,359.08L503.19,29.84L503.88,424.2L503.89,424.22L504.24,425.27L504.87,423.99L504.88,423.99L507.34,420.69L507.34,420.69L507.35,420.69L511.45,414.84L511.45,414.84L511.45,414.83L515.11,406.2L515.11,406.19L518.6,393.84L518.6,393.82L520.56,381.87L520.56,381.84L521.49,368.29L521.49,368.22L521.93,337.08L521.93,336.4L522.05,30.03L522.93,425.15L522.94,425.15L523.23,425.12L523.57,424.37L523.57,424.36L526.19,420.69L526.2,420.69L530.76,413.98L530.76,413.98L530.76,413.97L534,406.08L534,406.07L537.46,393.81L537.46,393.79L539.88,376.77L539.88,376.74L540.77,339.1L540.77,338.49L540.9,29.93L541.77,425.12L541.78,425.12L541.97,425.25L542.42,424.35L542.43,424.35L544.71,421.04L544.71,421.04L544.72,421.03L549.14,414.85L549.14,414.85L549.14,414.84L552.81,406.2L552.81,406.19L556.3,393.83L556.3,393.82L558.26,381.86L558.26,381.83L559.44,358.27L559.44,358.11L559.67,318.48L559.67,316.71L559.74,29.86L560.67,425.22L560.68,425.22L561.39,424.06L561.39,424.06L561.4,424.05L563.89,420.68L563.9,420.68L567.99,414.84L567.99,414.84L567.99,414.83L571.65,406.21L571.65,406.21L571.65,406.2L575.14,393.85L575.14,393.84L577.1,381.89L577.1,381.86L578.06,367.46L578.06,367.39L578.47,335.37L578.47,334.61L578.55,255.84L578.55,243.55L578.59,29.83L579.32,424.52L579.33,424.54L579.6,425.27L580.26,423.99L580.27,423.99L582.74,420.67L582.75,420.67L586.84,414.83L586.84,414.83L586.84,414.82L590.5,406.19L590.5,406.18L593.98,393.86L593.98,393.84L595.94,381.9L595.94,381.87L596.9,367.49L596.9,367.41L597.31,337.03L597.31,336.35L597.43,29.97L598.31,425.13L598.31,425.13L598.32,425.14L598.61,425.12L598.95,424.36L598.96,424.35L601.24,421.04L601.24,421.04L601.25,421.03L605.67,414.85L605.67,414.85L605.67,414.84L609.34,406.2L609.34,406.19L613.17,392.23L613.17,392.22L615.25,376.79L615.25,376.75L615.96,358.75L615.96,358.6L616.19,321.88L616.19,320.36L616.27,29.83L617.19,425.21L617.2,425.21L617.9,424.1L617.9,424.1L617.9,424.09L620.42,420.67L620.43,420.67L624.52,414.83L624.52,414.83L624.52,414.82L628.17,406.21L628.17,406.2L631.66,393.85L631.66,393.84L633.62,381.88L633.62,381.86L634.76,360.57L634.77,360.43L635.11,29.88L635.77,424L635.78,424.03L636.15,425.26L636.78,423.99L636.79,423.98L639.26,420.67L639.26,420.67L639.27,420.67L643.81,413.98L643.81,413.98L643.81,413.97L647.8,403.79L647.8,403.78L650.93,391.82L650.93,391.81L652.92,376.82L652.92,376.78L653.63,358.89L653.63,358.74L653.86,321.71L653.87,320.18L653.94,29.85L654.87,425.21L654.87,425.21L654.88,425.21L655.57,424.1L655.57,424.09L658.48,420.24L658.49,420.24L663.17,412.93L663.17,412.93L663.17,412.92L666.65,403.74L666.65,403.73L669.48,393.16L669.48,393.15L671.31,381.73L671.31,381.7L672.43,360.63L672.43,360.5L672.69,327.36L672.69,326.2L672.78,29.88L673.69,425.19L673.69,425.19L673.7,425.19L674.38,424.16L674.38,424.15L677.31,420.24L677.32,420.24L682.01,412.92L682.01,412.92L682.01,412.91L685.49,403.72L685.49,403.71L688.6,391.8L688.6,391.79L690.59,376.79L690.59,376.75L691.3,358.75L691.3,358.6L691.53,321.85L691.53,320.34L691.61,29.84L692.53,425.2L692.54,425.2L693.23,424.13L693.23,424.12L695.76,420.67L695.76,420.67L695.77,420.66L699.86,414.82L699.86,414.82L699.86,414.81L703.52,406.18L703.52,406.17L707,393.85L707,393.83L709.42,376.79L709.42,376.76L710.15,357.81L710.15,357.65L710.44,29.83L711.15,424.37L711.16,424.39L711.47,425.26L712.1,424.02L712.1,424.02L712.11,424.01L714.6,420.66L714.6,420.66L714.61,420.65L718.69,414.82L718.69,414.82L718.69,414.81L722.34,406.2L722.34,406.19L725.82,393.86L725.82,393.85L727.78,381.9L727.78,381.88L728.93,360.52L728.93,360.39L729.27,29.98L729.93,423.96L729.94,423.98L730.3,425.26L730.94,423.99L730.95,423.98L733.42,420.66L733.43,420.66L737.51,414.83L737.51,414.83L737.51,414.82L741.17,406.19L741.17,406.18L744.65,393.85L744.65,393.84L746.61,381.89L746.61,381.87L747.8,358.16L747.8,358L748.1,29.86L748.8,424.31L748.81,424.33L749.12,425.26L749.77,423.98L749.78,423.97L752.25,420.66L752.25,420.66L752.26,420.66L756.79,413.98L756.79,413.97L760.04,406.07L760.04,406.06L763.48,393.84L763.48,393.83L765.43,381.92L765.43,381.9L766.4,367.41L766.4,367.33L766.81,335.56L766.81,334.81L766.92,29.92L767.81,425.14L767.81,425.14L767.82,425.15L768.46,424.33L768.46,424.32L771.07,420.66L771.08,420.66L775.16,414.83L775.16,414.83L775.16,414.82L778.82,406.19L778.82,406.18L782.3,393.85L782.3,393.84L784.37,380.86L784.37,380.84L785.43,359.33L785.43,359.18L785.75,29.87L786.43,424.17L786.44,424.19L786.79,425.25L787.42,423.98L787.43,423.98L789.6,420.98L789.6,420.98L789.61,420.97L793.97,414.85L793.97,414.85L793.97,414.84L797.64,406.2L797.64,406.19L801.12,393.86L801.12,393.85L803.08,381.89L803.08,381.86L804.04,367.44L804.04,367.36L804.45,336.56L804.45,335.85L804.57,29.92L805.45,425.13L805.46,425.13L805.76,425.09L806.09,424.35L806.1,424.34L808.39,421.01L808.39,421.01L808.4,421L812.8,414.84L812.8,414.84L812.8,414.83L816.47,406.18L816.47,406.17L819.94,393.86L819.94,393.85L821.9,381.89L821.9,381.87L823.04,360.59L823.05,360.46L823.39,29.84L824.05,423.96L824.06,423.99L824.43,425.25L825.06,423.99L825.07,423.98L827.55,420.64L827.56,420.64L831.63,414.82L831.63,414.82L831.63,414.81L835.29,406.18L835.29,406.17L838.76,393.86L838.76,393.85L840.72,381.91L840.72,381.88L841.89,359.3L841.89,359.16L842.13,322.85L842.13,321.4L842.21,29.96L843,424.81" style="vector-effect: none; fill: none; stroke: rgb(0, 0, 0); stroke-opacity: 1; stroke-width: 4px; opacity: 1;"/></g><g class="points"/><g class="text"/></g></g></g><g class="xy2" transform="translate(131,100)" clip-path="url(#clip6685c3xy2plot)"><g class="scatterlayer mlayer"><g class="trace scatter trace7210c0" style="stroke-miterlimit: 2;"><g class="fills"><g><path class="js-fill" d="M2107.5,589L0,589L0,589L210.75,589L221.29,560.53L231.83,544.83L242.36,535.01L252.9,531.08L263.44,530.1L273.98,531.08L284.51,533.04L305.59,538.93L316.13,542.86L421.5,566.42L526.88,577.22L632.25,581.64L737.63,583.6L2107.5,588.36" style="fill: rgb(255, 0, 0); fill-opacity: 0.2; stroke-width: 0;"/></g></g><g class="errorbars"/><g class="lines"><path class="js-line" d="M0,589L210.75,589L221.29,560.53L231.83,544.83L242.36,535.01L252.9,531.08L263.44,530.1L273.98,531.08L284.51,533.04L305.59,538.93L316.13,542.86L421.5,566.42L526.88,577.22L632.25,581.64L737.63,583.6L2107.5,588.36" style="vector-effect: none; fill: none; stroke: rgb(255, 0, 0); stroke-opacity: 0.2; stroke-width: 0px; opacity: 1;"/></g><g class="points"/><g class="text"/></g></g></g></g><path class="xlines-above crisp" d="M0,0" style="fill: none;"/><path class="ylines-above crisp" d="M0,0" style="fill: none;"/><g class="overlines-above"><path class="xy2-x crisp" d="M0,0" style="fill: none;"/><path class="xy2-y crisp" d="M0,0" style="fill: none;"/></g><g class="xaxislayer-above"><g class="xtick"><text text-anchor="middle" x="0" y="730" transform="translate(131,0)" style="font-family: 'Open Sans', verdana, arial, sans-serif; font-size: 40px; fill: rgb(42, 63, 95); fill-opacity: 1; white-space: pre; opacity: 1;">0</text></g><g class="xtick"><text text-anchor="middle" x="0" y="730" style="font-family: 'Open Sans', verdana, arial, sans-serif; font-size: 40px; fill: rgb(42, 63, 95); fill-opacity: 1; white-space: pre; opacity: 1;" transform="translate(341.75,0)">2</text></g><g class="xtick"><text text-anchor="middle" x="0" y="730" style="font-family: 'Open Sans', verdana, arial, sans-serif; font-size: 40px; fill: rgb(42, 63, 95); fill-opacity: 1; white-space: pre; opacity: 1;" transform="translate(552.5,0)">4</text></g><g class="xtick"><text text-anchor="middle" x="0" y="730" style="font-family: 'Open Sans', verdana, arial, sans-serif; font-size: 40px; fill: rgb(42, 63, 95); fill-opacity: 1; white-space: pre; opacity: 1;" transform="translate(763.25,0)">6</text></g><g class="xtick"><text text-anchor="middle" x="0" y="730" style="font-family: 'Open Sans', verdana, arial, sans-serif; font-size: 40px; fill: rgb(42, 63, 95); fill-opacity: 1; white-space: pre; opacity: 1;" transform="translate(974,0)">8</text></g></g><g class="yaxislayer-above"><g class="ytick"><text text-anchor="end" x="130" y="14" transform="translate(0,607.8199999999999)" style="font-family: 'Open Sans', verdana, arial, sans-serif; font-size: 40px; fill: rgb(42, 63, 95); fill-opacity: 1; white-space: pre; opacity: 1;">−80</text></g><g class="ytick"><text text-anchor="end" x="130" y="14" style="font-family: 'Open Sans', verdana, arial, sans-serif; font-size: 40px; fill: rgb(42, 63, 95); fill-opacity: 1; white-space: pre; opacity: 1;" transform="translate(0,517.5899999999999)">−60</text></g><g class="ytick"><text text-anchor="end" x="130" y="14" style="font-family: 'Open Sans', verdana, arial, sans-serif; font-size: 40px; fill: rgb(42, 63, 95); fill-opacity: 1; white-space: pre; opacity: 1;" transform="translate(0,427.37)">−40</text></g><g class="ytick"><text text-anchor="end" x="130" y="14" style="font-family: 'Open Sans', verdana, arial, sans-serif; font-size: 40px; fill: rgb(42, 63, 95); fill-opacity: 1; white-space: pre; opacity: 1;" transform="translate(0,337.14)">−20</text></g><g class="ytick"><text text-anchor="end" x="130" y="14" style="font-family: 'Open Sans', verdana, arial, sans-serif; font-size: 40px; fill: rgb(42, 63, 95); fill-opacity: 1; white-space: pre; opacity: 1;" transform="translate(0,246.91)">0</text></g><g class="ytick"><text text-anchor="end" x="130" y="14" style="font-family: 'Open Sans', verdana, arial, sans-serif; font-size: 40px; fill: rgb(42, 63, 95); fill-opacity: 1; white-space: pre; opacity: 1;" transform="translate(0,156.68)">20</text></g></g><g class="overaxes-above"><g class="xy2-x"/><g class="xy2-y"><g class="y2tick"><text text-anchor="start" x="975" y="14" transform="translate(0,689)" style="font-family: 'Open Sans', verdana, arial, sans-serif; font-size: 40px; fill: rgb(42, 63, 95); fill-opacity: 1; white-space: pre; opacity: 1;">0</text></g><g class="y2tick"><text text-anchor="start" x="975" y="14" style="font-family: 'Open Sans', verdana, arial, sans-serif; font-size: 40px; fill: rgb(42, 63, 95); fill-opacity: 1; white-space: pre; opacity: 1;" transform="translate(0,630.1)">600.0</text></g></g></g></g><g class="subplot xy2"/></g><g class="polarlayer"/><g class="smithlayer"/><g class="ternarylayer"/><g class="geolayer"/><g class="funnelarealayer"/><g class="pielayer"/><g class="iciclelayer"/><g class="treemaplayer"/><g class="sunburstlayer"/><g class="glimages"/><defs id="topdefs-6685c3"><g class="clips"/><clipPath id="legend6685c3"><rect width="197" height="175" x="0" y="0"/></clipPath></defs><g class="layer-above"><g class="imagelayer"/><g class="shapelayer"/></g><g class="infolayer"><g class="legend" pointer-events="all" transform="translate(990.86,42.799999999999955)"><rect class="bg" shape-rendering="crispEdges" width="197" height="175" x="0" y="0" style="stroke: rgb(68, 68, 68); stroke-opacity: 1; fill: rgb(255, 255, 255); fill-opacity: 1; stroke-width: 0px;"/><g class="scrollbox" transform="" clip-path="url(#legend6685c3)"><g class="groups"><g class="traces" transform="translate(0,32.5)" style="opacity: 1;"><text class="legendtext" text-anchor="start" x="40" y="15.6" style="font-family: 'Open Sans', verdana, arial, sans-serif; font-size: 40px; fill: rgb(42, 63, 95); fill-opacity: 1; white-space: pre;">DA</text><g class="layers" style="opacity: 0.5;"><g class="legendfill"/><g class="legendlines"><path class="js-line" d="M5,0h30" style="fill: none; stroke: rgb(255, 0, 0); stroke-opacity: 1; stroke-width: 4px;"/></g><g class="legendsymbols"><g class="legendpoints"/></g></g><rect class="legendtoggle" x="0" y="-27.5" width="191.171875" height="55" style="fill: rgb(0, 0, 0); fill-opacity: 0;"/></g><g class="traces" transform="translate(0,87.5)" style="opacity: 1;"><text class="legendtext" text-anchor="start" x="40" y="15.6" style="font-family: 'Open Sans', verdana, arial, sans-serif; font-size: 40px; fill: rgb(42, 63, 95); fill-opacity: 1; white-space: pre;">No DA</text><g class="layers" style="opacity: 0.5;"><g class="legendfill"/><g class="legendlines"><path class="js-line" d="M5,0h30" style="fill: none; stroke: rgb(0, 0, 0); stroke-opacity: 1; stroke-width: 4px;"/></g><g class="legendsymbols"><g class="legendpoints"/></g></g><rect class="legendtoggle" x="0" y="-27.5" width="191.171875" height="55" style="fill: rgb(0, 0, 0); fill-opacity: 0;"/></g><g class="traces" transform="translate(0,142.5)" style="opacity: 1;"><text class="legendtext" text-anchor="start" x="40" y="15.6" style="font-family: 'Open Sans', verdana, arial, sans-serif; font-size: 40px; fill: rgb(42, 63, 95); fill-opacity: 1; white-space: pre;">DA conc</text><g class="layers"><g class="legendfill"><path class="js-fill" d="M5,-2h30v6h-30z" style="stroke-width: 0; fill: rgb(255, 0, 0); fill-opacity: 0.2;"/></g><g class="legendlines"><path class="js-line" d="M5,-2h30" style="fill: none; stroke: rgb(255, 0, 0); stroke-opacity: 0.2; stroke-width: 0px;"/></g><g class="legendsymbols"><g class="legendpoints"/></g></g><rect class="legendtoggle" x="0" y="-27.5" width="191.171875" height="55" style="fill: rgb(0, 0, 0); fill-opacity: 0;"/></g></g></g><rect class="scrollbar" rx="20" ry="3" width="0" height="0" x="0" y="0" style="fill: rgb(128, 139, 164); fill-opacity: 1;"/></g><g class="g-gtitle"/><g class="g-xtitle"><text class="xtitle" x="552.5" y="787.5" text-anchor="middle" style="opacity: 1; font-family: 'Open Sans', verdana, arial, sans-serif; font-size: 50px; fill: rgb(42, 63, 95); fill-opacity: 1; white-space: pre;">Time (s)</text></g><g class="g-ytitle" transform="translate(14.859375,0)"><text class="ytitle" transform="rotate(-90,30.140625,394.5)" x="30.140625" y="394.5" text-anchor="middle" style="opacity: 1; font-family: 'Open Sans', verdana, arial, sans-serif; font-size: 50px; fill: rgb(42, 63, 95); fill-opacity: 1; white-space: pre;">Voltage (mV)</text></g><g class="g-y2title"><text class="y2title" transform="rotate(-90,1124.609375,394.5)" x="1124.609375" y="394.5" text-anchor="middle" style="opacity: 1; font-family: 'Open Sans', verdana, arial, sans-serif; font-size: 50px; fill: rgb(42, 63, 95); fill-opacity: 1; white-space: pre;">DA Conc (nM)</text></g></g></svg>