<svg class="main-svg" xmlns="http://www.w3.org/2000/svg" xmlns:xlink="http://www.w3.org/1999/xlink" width="1200" height="800" style="" viewBox="0 0 1200 800"><rect x="0" y="0" width="1200" height="800" style="fill: rgb(255, 255, 255); fill-opacity: 1;"/><defs id="defs-68b79c"><g class="clips"><clipPath id="clip68b79cxyplot" class="plotclip"><rect width="810" height="589"/></clipPath><clipPath class="axesclip" id="clip68b79cx"><rect x="119" y="0" width="810" height="800"/></clipPath><clipPath class="axesclip" id="clip68b79cy"><rect x="0" y="100" width="1200" height="589"/></clipPath><clipPath class="axesclip" id="clip68b79cxy"><rect x="119" y="100" width="810" height="589"/></clipPath></g><g class="gradients"/><g class="patterns"/></defs><g class="bglayer"/><g class="layer-below"><g class="imagelayer"/><g class="shapelayer"/></g><g class="cartesianlayer"><g class="subplot xy"><g class="layer-subplot"><g class="shapelayer"/><g class="imagelayer"/></g><g class="minor-gridlayer"><g class="x"/><g class="y"/></g><g class="gridlayer"><g class="x"><path class="xgrid crisp" transform="translate(220.25,0)" d="M0,100v589" style="stroke: rgb(255, 255, 255); stroke-opacity: 1; stroke-width: 1px;"/><path class="xgrid crisp" transform="translate(321.5,0)" d="M0,100v589" style="stroke: rgb(255, 255, 255); stroke-opacity: 1; stroke-width: 1px;"/><path class="xgrid crisp" transform="translate(422.75,0)" d="M0,100v589" style="stroke: rgb(255, 255, 255); stroke-opacity: 1; stroke-width: 1px;"/><path class="xgrid crisp" transform="translate(524,0)" d="M0,100v589" style="stroke: rgb(255, 255, 255); stroke-opacity: 1; stroke-width: 1px;"/><path class="xgrid crisp" transform="translate(625.25,0)" d="M0,100v589" style="stroke: rgb(255, 255, 255); stroke-opacity: 1; stroke-width: 1px;"/><path class="xgrid crisp" transform="translate(726.5,0)" d="M0,100v589" style="stroke: rgb(255, 255, 255); stroke-opacity: 1; stroke-width: 1px;"/><path class="xgrid crisp" transform="translate(827.75,0)" d="M0,100v589" style="stroke: rgb(255, 255, 255); stroke-opacity: 1; stroke-width: 1px;"/></g><g class="y"><path class="ygrid crisp" transform="translate(0,553.53)" d="M119,0h810" style="stroke: rgb(255, 255, 255); stroke-opacity: 1; stroke-width: 1px;"/><path class="ygrid crisp" transform="translate(0,447.51)" d="M119,0h810" style="stroke: rgb(255, 255, 255); stroke-opacity: 1; stroke-width: 1px;"/><path class="ygrid crisp" transform="translate(0,341.49)" d="M119,0h810" style="stroke: rgb(255, 255, 255); stroke-opacity: 1; stroke-width: 1px;"/><path class="ygrid crisp" transform="translate(0,235.47)" d="M119,0h810" style="stroke: rgb(255, 255, 255); stroke-opacity: 1; stroke-width: 1px;"/><path class="ygrid crisp" transform="translate(0,129.45)" d="M119,0h810" style="stroke: rgb(255, 255, 255); stroke-opacity: 1; stroke-width: 1px;"/></g></g><g class="zerolinelayer"><path class="xzl zl crisp" transform="translate(119,0)" d="M0,100v589" style="stroke: rgb(255, 255, 255); stroke-opacity: 1; stroke-width: 2px;"/><path class="yzl zl crisp" transform="translate(0,659.55)" d="M119,0h810" style="stroke: rgb(255, 255, 255); stroke-opacity: 1; stroke-width: 2px;"/></g><g class="layer-between"><g class="shapelayer"/><g class="imagelayer"/></g><path class="xlines-below"/><path class="ylines-below"/><g class="overlines-below"/><g class="xaxislayer-below"/><g class="yaxislayer-below"/><g class="overaxes-below"/><g class="overplot"><g class="xy" transform="translate(119,100)" clip-path="url(#clip68b79cxyplot)"><g class="scatterlayer mlayer"><g class="trace scatter trace2c5ef0" style="stroke-miterlimit: 2; opacity: 1;"><g class="fills"/><g class="errorbars"/><g class="lines"><path class="js-line" d="M0,540.38L1.66,559.23L1.66,559.23L1.67,559.23L3.99,559.55L3.99,559.55L4,559.55L202.68,558.62L202.68,558.55L202.69,558.52L203.69,537.52L203.69,537.45L214.85,270.9L214.86,270.86L217.67,232.69L217.68,232.66L220.43,195.78L220.44,195.74L223.24,159.65L223.25,159.63L227.51,123.7L227.52,123.68L232.19,85.09L232.2,85.07L234.4,72.43L234.41,72.42L242.82,42.87L242.83,42.86L244.72,39.39L244.72,39.39L244.73,39.38L254.02,29.52L254.02,29.52L254.03,29.52L263.92,34.21L263.92,34.22L274.66,48.99L274.66,48.99L274.66,49L285.63,73.17L285.63,73.17L285.63,73.18L294.78,94.82L294.78,94.83L300.95,114.46L300.95,114.47L306.35,129.01L306.35,129.01L306.36,129.02L357.25,232.46L357.25,232.47L373.19,266.57L373.19,266.57L373.19,266.58L386.02,294.46L386.02,294.47L397.26,319.18L397.26,319.18L397.26,319.19L407.78,339.69L407.78,339.69L407.79,339.69L456.02,389.92L456.02,389.92L456.03,389.92L506.92,443L506.92,443L506.93,443L517.18,447.56L517.18,447.56L517.19,447.56L595.53,481.62L595.53,481.62L595.53,481.63L614.13,488.18L614.13,488.18L614.14,488.18L713.43,507.03L713.43,507.03L713.44,507.03L742.9,510.44L742.9,510.44L742.91,510.44L771.91,513.78L771.91,513.78L771.92,513.78L800.58,517.07L800.58,517.07L800.59,517.07L810,518.15L810,518.15" style="vector-effect: none; fill: none; stroke: rgb(99, 110, 250); stroke-opacity: 1; stroke-width: 4px; opacity: 1;"/></g><g class="points"/><g class="text"/></g><g class="trace scatter trace3104a5" style="stroke-miterlimit: 2; opacity: 1;"><g class="fills"/><g class="errorbars"/><g class="lines"><path class="js-line" d="M0,535.11L191.31,536.11L191.31,536.11L191.31,536.12L242.12,535.29L242.12,535.29L242.12,535.28L249.21,533.57L249.21,533.57L249.22,533.56L255.52,530.19L255.52,530.19L255.52,530.18L260.45,525.25L260.45,525.24L264.57,518.59L264.57,518.59L264.57,518.58L269.26,506.99L269.26,506.98L272.89,494.24L272.89,494.23L278.1,469.32L278.1,469.3L283.24,437L283.24,436.98L291.63,371.25L291.63,371.23L295.81,334.91L295.81,334.89L298.91,307.5L298.91,307.48L306.42,242.35L306.43,242.33L310.75,207.44L310.76,207.42L314.64,178.59L314.65,178.57L317.75,157.55L317.76,157.54L324.87,116.78L324.88,116.77L331.86,86.89L331.87,86.89L336.76,71.44L336.76,71.44L336.77,71.43L343.22,56.77L343.22,56.77L343.23,56.76L349.81,46.94L349.81,46.94L349.82,46.94L355.85,41.09L355.85,41.09L355.86,41.09L362.65,36.85L362.65,36.85L362.66,36.85L371.43,33.57L371.43,33.57L371.44,33.57L382.3,31.35L382.3,31.35L382.31,31.35L399.15,29.83L399.15,29.83L399.16,29.83L425.24,29.52L425.24,29.52L425.25,29.52L499.21,33.76L499.21,33.76L499.22,33.77L516.16,35.61L516.16,35.61L516.16,35.62L538.63,38.86L538.63,38.87L559.45,42.99L559.45,42.99L559.45,43L575.67,47.25L575.67,47.25L575.67,47.26L588.58,51.51L588.58,51.52L606.99,59.35L606.99,59.35L606.99,59.36L623.82,68.87L623.82,68.87L623.82,68.88L639.03,79.89L639.03,79.89L639.03,79.9L649.5,88.99L649.5,89L664.61,104.45L664.61,104.45L664.61,104.46L677.29,119.5L677.29,119.5L677.29,119.51L693.04,140.46L693.04,140.46L693.04,140.47L708.29,162.45L708.29,162.45L708.29,162.46L719.14,178.58L719.14,178.58L719.14,178.59L767.43,246.51L767.43,246.51L767.44,246.51L783.25,265.56L783.25,265.56L783.26,265.56L795.54,279.1L795.55,279.1L810,293.68L810,293.68" style="vector-effect: none; fill: none; stroke: rgb(239, 85, 59); stroke-opacity: 1; stroke-width: 4px; opacity: 1;"/></g><g class="points"/><g class="text"/></g><g class="trace scatter trace5369d4" style="stroke-miterlimit: 2; opacity: 1;"><g class="fills"/><g class="errorbars"/><g class="lines"><path class="js-line" d="M0,555.86L54.23,556.86L54.23,556.86L54.23,556.87L133.98,557.87L133.98,557.87L133.98,557.88L214.55,557.27L214.55,557.27L214.55,557.26L223.88,554.86L223.88,554.86L223.88,554.85L232.1,551.35L232.1,551.34L239.2,546.68L239.2,546.68L239.2,546.67L245.3,540.86L245.3,540.86L245.3,540.85L250.94,533.35L250.94,533.35L250.94,533.34L257.14,521.94L257.14,521.94L257.14,521.93L262.31,509.36L262.31,509.36L262.31,509.35L269.95,485.75L269.95,485.74L315.06,331.92L315.06,331.91L322.68,303.05L322.68,303.04L359.78,157.69L359.79,157.68L373.79,114.35L373.79,114.35L373.8,114.34L385.51,85.39L385.51,85.39L385.52,85.38L392.79,70.68L392.79,70.68L392.8,70.67L403.43,53.54L403.43,53.54L403.44,53.54L409.5,46L409.5,46L409.51,46L415.93,39.68L415.93,39.68L415.94,39.68L422.64,34.79L422.64,34.79L422.65,34.79L429.72,31.4L429.72,31.4L429.73,31.4L437.4,29.63L437.4,29.63L437.41,29.63L445.69,29.8L445.69,29.81L452.63,31.5L452.63,31.5L452.64,31.51L459.98,34.75L459.98,34.75L459.99,34.76L467.93,39.84L467.93,39.85L476.71,47.27L476.71,47.27L476.72,47.28L487.07,58.3L487.07,58.3L487.07,58.31L494.83,68.08L494.83,68.08L494.83,68.09L507.4,86.49L507.4,86.49L507.4,86.5L519.72,107.36L519.72,107.36L519.72,107.37L537.22,140.9L537.22,140.9L537.22,140.91L555.99,180.66L555.99,180.67L565.69,202.3L565.69,202.31L573.67,220.5L573.67,220.5L573.67,220.51L580.86,237.12L580.86,237.13L591.33,261.56L591.33,261.56L591.33,261.57L631.31,353.97L631.32,353.97L643.62,380.63L643.63,380.63L651.85,397.59L651.86,397.59L664.73,422.46L664.74,422.46L674.49,439.74L674.5,439.74L685.31,457.16L685.31,457.16L685.32,457.16L698.75,476.11L698.76,476.11L707.6,486.91L707.61,486.91L717.16,497.09L717.16,497.09L717.17,497.09L726.34,505.46L726.35,505.46L741.28,516.34L741.28,516.34L741.29,516.34L753.59,523.12L753.59,523.12L753.6,523.12L767.18,528.8L767.18,528.8L767.19,528.8L783.73,533.84L783.73,533.84L783.74,533.84L807.25,538.7L807.25,538.7L807.26,538.7L810,539.15L810,539.15" style="vector-effect: none; fill: none; stroke: rgb(0, 204, 150); stroke-opacity: 1; stroke-width: 4px; opacity: 1;"/></g><g class="points"/><g class="text"/></g></g></g></g><path class="xlines-above crisp" d="M0,0" style="fill: none;"/><path class="ylines-above crisp" d="M0,0" style="fill: none;"/><g class="overlines-above"/><g class="xaxislayer-above"><g class="xtick"><text text-anchor="middle" x="0" y="730" transform="translate(119,0)" style="font-family: 'Open Sans', verdana, arial, sans-serif; font-size: 40px; fill: rgb(42, 63, 95); fill-opacity: 1; white-space: pre; opacity: 1;">0</text></g><g class="xtick"><text text-anchor="middle" x="0" y="730" style="font-family: 'Open Sans', verdana, arial, sans-serif; font-size: 40px; fill: rgb(42, 63, 95); fill-opacity: 1; white-space: pre; opacity: 1;" transform="translate(220.25,0)">1</text></g><g class="xtick"><text text-anchor="middle" x="0" y="730" style="font-family: 'Open Sans', verdana, arial, sans-serif; font-size: 40px; fill: rgb(42, 63, 95); fill-opacity: 1; white-space: pre; opacity: 1;" transform="translate(321.5,0)">2</text></g><g class="xtick"><text text-anchor="middle" x="0" y="730" style="font-family: 'Open Sans', verdana, arial, sans-serif; font-size: 40px; fill: rgb(42, 63, 95); fill-opacity: 1; white-space: pre; opacity: 1;" transform="translate(422.75,0)">3</text></g><g class="xtick"><text text-anchor="middle" x="0" y="730" style="font-family: 'Open Sans', verdana, arial, sans-serif; font-size: 40px; fill: rgb(42, 63, 95); fill-opacity: 1; white-space: pre; opacity: 1;" transform="translate(524,0)">4</text></g><g class="xtick"><text text-anchor="middle" x="0" y="730" style="font-family: 'Open Sans', verdana, arial, sans-serif; font-size: 40px; fill: rgb(42, 63, 95); fill-opacity: 1; white-space: pre; opacity: 1;" transform="translate(625.25,0)">5</text></g><g class="xtick"><text text-anchor="middle" x="0" y="730" style="font-family: 'Open Sans', verdana, arial, sans-serif; font-size: 40px; fill: rgb(42, 63, 95); fill-opacity: 1; white-space: pre; opacity: 1;" transform="translate(726.5,0)">6</text></g><g class="xtick"><text text-anchor="middle" x="0" y="730" style="font-family: 'Open Sans', verdana, arial, sans-serif; font-size: 40px; fill: rgb(42, 63, 95); fill-opacity: 1; white-space: pre; opacity: 1;" transform="translate(827.75,0)">7</text></g><g class="xtick"><text text-anchor="middle" x="0" y="730" style="font-family: 'Open Sans', verdana, arial, sans-serif; font-size: 40px; fill: rgb(42, 63, 95); fill-opacity: 1; white-space: pre; opacity: 1;" transform="translate(929,0)">8</text></g></g><g class="yaxislayer-above"><g class="ytick"><text text-anchor="end" x="118" y="14" transform="translate(0,659.55)" style="font-family: 'Open Sans', verdana, arial, sans-serif; font-size: 40px; fill: rgb(42, 63, 95); fill-opacity: 1; white-space: pre; opacity: 1;">0</text></g><g class="ytick"><text text-anchor="end" x="118" y="14" style="font-family: 'Open Sans', verdana, arial, sans-serif; font-size: 40px; fill: rgb(42, 63, 95); fill-opacity: 1; white-space: pre; opacity: 1;" transform="translate(0,553.53)">0.2</text></g><g class="ytick"><text text-anchor="end" x="118" y="14" style="font-family: 'Open Sans', verdana, arial, sans-serif; font-size: 40px; fill: rgb(42, 63, 95); fill-opacity: 1; white-space: pre; opacity: 1;" transform="translate(0,447.51)">0.4</text></g><g class="ytick"><text text-anchor="end" x="118" y="14" style="font-family: 'Open Sans', verdana, arial, sans-serif; font-size: 40px; fill: rgb(42, 63, 95); fill-opacity: 1; white-space: pre; opacity: 1;" transform="translate(0,341.49)">0.6</text></g><g class="ytick"><text text-anchor="end" x="118" y="14" style="font-family: 'Open Sans', verdana, arial, sans-serif; font-size: 40px; fill: rgb(42, 63, 95); fill-opacity: 1; white-space: pre; opacity: 1;" transform="translate(0,235.47)">0.8</text></g><g class="ytick"><text text-anchor="end" x="118" y="14" style="font-family: 'Open Sans', verdana, arial, sans-serif; font-size: 40px; fill: rgb(42, 63, 95); fill-opacity: 1; white-space: pre; opacity: 1;" transform="translate(0,129.45)">1</text></g></g><g class="overaxes-above"/></g></g><g class="polarlayer"/><g class="smithlayer"/><g class="ternarylayer"/><g class="geolayer"/><g class="funnelarealayer"/><g class="pielayer"/><g class="iciclelayer"/><g class="treemaplayer"/><g class="sunburstlayer"/><g class="glimages"/><defs id="topdefs-68b79c"><g class="clips"/><clipPath id="legend68b79c"><rect width="243" height="214" x="0" y="0"/></clipPath></defs><g class="layer-above"><g class="imagelayer"/><g class="shapelayer"/></g><g class="infolayer"><g class="legend" pointer-events="all" transform="translate(945.2,100)"><rect class="bg" shape-rendering="crispEdges" width="243" height="214" x="0" y="0" style="stroke: rgb(68, 68, 68); stroke-opacity: 1; fill: rgb(255, 255, 255); fill-opacity: 1; stroke-width: 0px;"/><g class="scrollbox" transform="" clip-path="url(#legend68b79c)"><g class="groups"><g class="traces" transform="translate(0,39)" style="opacity: 1;"><text class="legendtext" text-anchor="start" x="40" y="19.5" style="font-family: 'Open Sans', verdana, arial, sans-serif; font-size: 50px; fill: rgb(42, 63, 95); fill-opacity: 1; white-space: pre;">D1R_DA</text><g class="layers" style="opacity: 1;"><g class="legendfill"/><g class="legendlines"><path class="js-line" d="M5,0h30" style="fill: none; stroke: rgb(99, 110, 250); stroke-opacity: 1; stroke-width: 4px;"/></g><g class="legendsymbols"><g class="legendpoints"/></g></g><rect class="legendtoggle" x="0" y="-34" width="237.953125" height="68" style="fill: rgb(0, 0, 0); fill-opacity: 0;"/></g><g class="traces" transform="translate(0,107)" style="opacity: 1;"><text class="legendtext" text-anchor="start" x="40" y="19.5" style="font-family: 'Open Sans', verdana, arial, sans-serif; font-size: 50px; fill: rgb(42, 63, 95); fill-opacity: 1; white-space: pre;">PKAc</text><g class="layers" style="opacity: 1;"><g class="legendfill"/><g class="legendlines"><path class="js-line" d="M5,0h30" style="fill: none; stroke: rgb(239, 85, 59); stroke-opacity: 1; stroke-width: 4px;"/></g><g class="legendsymbols"><g class="legendpoints"/></g></g><rect class="legendtoggle" x="0" y="-34" width="237.953125" height="68" style="fill: rgb(0, 0, 0); fill-opacity: 0;"/></g><g class="traces" transform="translate(0,175)" style="opacity: 1;"><text class="legendtext" text-anchor="start" x="40" y="19.5" style="font-family: 'Open Sans', verdana, arial, sans-serif; font-size: 50px; fill: rgb(42, 63, 95); fill-opacity: 1; white-space: pre;">cAMP</text><g class="layers" style="opacity: 1;"><g class="legendfill"/><g class="legendlines"><path class="js-line" d="M5,0h30" style="fill: none; stroke: rgb(0, 204, 150); stroke-opacity: 1; stroke-width: 4px;"/></g><g class="legendsymbols"><g class="legendpoints"/></g></g><rect class="legendtoggle" x="0" y="-34" width="237.953125" height="68" style="fill: rgb(0, 0, 0); fill-opacity: 0;"/></g></g></g><rect class="scrollbar" rx="20" ry="3" width="0" height="0" x="0" y="0" style="fill: rgb(128, 139, 164); fill-opacity: 1;"/></g><g class="g-gtitle"/><g class="g-xtitle"><text class="xtitle" x="524" y="787.5" text-anchor="middle" style="opacity: 1; font-family: 'Open Sans', verdana, arial, sans-serif; font-size: 50px; fill: rgb(42, 63, 95); fill-opacity: 1; white-space: pre;">Time (s)</text></g><g class="g-ytitle" transform="translate(14.609375,0)"><text class="ytitle" transform="rotate(-90,30.390625,394.5)" x="30.390625" y="394.5" text-anchor="middle" style="opacity: 1; font-family: 'Open Sans', verdana, arial, sans-serif; font-size: 50px; fill: rgb(42, 63, 95); fill-opacity: 1; white-space: pre;">Concentration (normalised)</text></g></g></svg>