<svg class="main-svg" xmlns="http://www.w3.org/2000/svg" xmlns:xlink="http://www.w3.org/1999/xlink" width="2400" height="1600" style="" viewBox="0 0 1200 800"><rect x="0" y="0" width="1200" height="800" style="fill: rgb(255, 255, 255); fill-opacity: 1;"/><defs id="defs-7612a6"><g class="clips"><clipPath id="clip7612a6xyplot" class="plotclip"><rect width="822" height="589"/></clipPath><clipPath id="clip7612a6xy2plot" class="plotclip"><rect width="822" height="589"/></clipPath><clipPath class="axesclip" id="clip7612a6x"><rect x="153" y="0" width="822" height="800"/></clipPath><clipPath class="axesclip" id="clip7612a6y"><rect x="0" y="100" width="1200" height="589"/></clipPath><clipPath class="axesclip" id="clip7612a6xy"><rect x="153" y="100" width="822" height="589"/></clipPath><clipPath class="axesclip" id="clip7612a6y2"><rect x="0" y="100" width="1200" height="589"/></clipPath><clipPath class="axesclip" id="clip7612a6xy2"><rect x="153" y="100" width="822" height="589"/></clipPath></g><g class="gradients"/><g class="patterns"/></defs><g class="bglayer"/><g class="layer-below"><g class="imagelayer"/><g class="shapelayer"/></g><g class="cartesianlayer"><g class="subplot xy"><g class="layer-subplot"><g class="shapelayer"/><g class="imagelayer"/></g><g class="minor-gridlayer"><g class="x"/><g class="y"/><g class="y2"/></g><g class="gridlayer"><g class="x"><path class="xgrid crisp" transform="translate(358.5,0)" d="M0,100v589" style="stroke: rgb(255, 255, 255); stroke-opacity: 1; stroke-width: 1px;"/><path class="xgrid crisp" transform="translate(564,0)" d="M0,100v589" style="stroke: rgb(255, 255, 255); stroke-opacity: 1; stroke-width: 1px;"/><path class="xgrid crisp" transform="translate(769.5,0)" d="M0,100v589" style="stroke: rgb(255, 255, 255); stroke-opacity: 1; stroke-width: 1px;"/></g><g class="y"><path class="ygrid crisp" transform="translate(0,678.91)" d="M153,0h822" style="stroke: rgb(255, 255, 255); stroke-opacity: 1; stroke-width: 1px;"/><path class="ygrid crisp" transform="translate(0,589.64)" d="M153,0h822" style="stroke: rgb(255, 255, 255); stroke-opacity: 1; stroke-width: 1px;"/><path class="ygrid crisp" transform="translate(0,500.37)" d="M153,0h822" style="stroke: rgb(255, 255, 255); stroke-opacity: 1; stroke-width: 1px;"/><path class="ygrid crisp" transform="translate(0,411.1)" d="M153,0h822" style="stroke: rgb(255, 255, 255); stroke-opacity: 1; stroke-width: 1px;"/><path class="ygrid crisp" transform="translate(0,321.84000000000003)" d="M153,0h822" style="stroke: rgb(255, 255, 255); stroke-opacity: 1; stroke-width: 1px;"/><path class="ygrid crisp" transform="translate(0,143.3)" d="M153,0h822" style="stroke: rgb(255, 255, 255); stroke-opacity: 1; stroke-width: 1px;"/></g><g class="y2"/></g><g class="zerolinelayer"><path class="xzl zl crisp" transform="translate(153,0)" d="M0,100v589" style="stroke: rgb(255, 255, 255); stroke-opacity: 1; stroke-width: 2px;"/><path class="yzl zl crisp" transform="translate(0,232.57)" d="M153,0h822" style="stroke: rgb(255, 255, 255); stroke-opacity: 1; stroke-width: 2px;"/><path class="y2zl zl crisp" transform="translate(0,689)" d="M153,0h822" style="stroke: rgb(255, 255, 255); stroke-opacity: 1; stroke-width: 2px;"/></g><g class="layer-between"><g class="shapelayer"/><g class="imagelayer"/></g><path class="xlines-below"/><path class="ylines-below"/><g class="overlines-below"><path class="xy2-x"/><path class="xy2-y"/></g><g class="xaxislayer-below"/><g class="yaxislayer-below"/><g class="overaxes-below"><g class="xy2-x"/><g class="xy2-y"/></g><g class="overplot"><g class="xy" transform="translate(153,100)" clip-path="url(#clip7612a6xyplot)"><g class="scatterlayer mlayer"><g class="trace scatter traceeea7eb" style="stroke-miterlimit: 2; opacity: 0.5;"><g class="fills"/><g class="errorbars"/><g class="lines"><path class="js-line" d="M0,516.42L1,558.43L1.01,558.43L2.38,559.53L2.38,559.53L2.39,559.53L20.55,559.55L20.55,559.55L20.55,554L21.74,484.02L21.75,483.97L24.25,453.79L24.26,453.77L27.11,434.31L27.12,434.3L31,414.16L31.01,414.15L36.83,380.13L36.83,380.11L38.47,352.69L38.47,352.59L38.8,323.88L38.8,323.27L38.93,32.41L39.54,434.04L39.8,431.85L39.81,431.82L41.09,425.49L41.09,425.49L41.1,425.49L44.45,424.79L44.45,424.79L44.46,424.78L46.75,420.39L46.75,420.38L49.6,409.79L49.6,409.77L52.75,393.06L52.75,393.04L54.77,377.1L54.77,377.07L56.01,354.73L56.01,354.64L56.42,314.6L56.42,313.61L56.52,32.09L57.12,433.88L57.42,431.19L57.43,431.16L58.7,425.16L58.7,425.16L58.71,425.16L61.99,424.39L61.99,424.38L64.28,420L64.28,420L64.28,419.99L67.08,409.52L67.08,409.5L70,393.71L70,393.69L72.74,367.69L72.74,367.64L73.4,348.59L73.4,348.45L73.67,311.76L73.67,310.61L73.76,31.51L74.36,433.9L74.67,431.05L74.68,431.02L75.95,425.02L75.95,425.02L75.96,425.02L79.24,424.11L79.24,424.11L79.24,424.1L81.46,419.8L81.46,419.79L84.22,409.43L84.22,409.42L87.32,392.1L87.32,392.08L89.73,368.23L89.73,368.18L90.62,327.51L90.62,327L90.76,31.11L91.36,433.93L91.62,431.65L91.63,431.62L92.96,424.93L92.96,424.93L92.97,424.93L96.2,423.99L96.2,423.99L96.21,423.98L98.42,419.69L98.42,419.68L101.16,409.37L101.16,409.36L105.31,383.61L105.31,383.59L107.13,354.38L107.13,354.28L107.6,30.7L108.13,433.57L108.14,433.6L108.22,433.96L108.69,428.94L108.7,428.91L110.07,424.87L110.08,424.88L110.09,424.88L112.7,424.28L112.7,424.28L112.7,424.27L114.66,421.08L114.66,421.08L114.66,421.07L116.91,413.99L116.91,413.98L120.41,395.9L120.41,395.88L123.29,368.94L123.29,368.89L123.96,350.54L123.96,350.41L124.25,315.65L124.25,314.69L124.35,30.31L124.93,434L125.25,431.05L125.26,431.02L126.56,424.87L126.56,424.87L126.57,424.87L129.76,423.91L129.76,423.91L129.76,423.9L131.96,419.63L131.96,419.62L134.67,409.39L134.67,409.38L137.28,394.83L137.28,394.81L139.06,380.83L139.06,380.8L140.5,356.43L140.5,356.34L140.92,318.52L140.92,317.68L141,235.69L141,222.61L141.03,30.02L141.62,434.05L142,430.23L142.01,430.2L143.25,424.88L143.25,424.88L143.26,424.88L146.44,423.93L146.44,423.93L146.44,423.92L148.64,419.65L148.64,419.64L151.34,409.43L151.34,409.42L155.35,384.34L155.35,384.32L156.7,367.83L156.7,367.78L157.55,324.28L157.56,323.66L157.68,29.82L158.27,434.1L158.56,431.41L158.57,431.38L159.89,424.91L159.89,424.91L159.9,424.91L163.1,423.97L163.1,423.97L163.1,423.96L165.29,419.7L165.29,419.69L167.99,409.49L167.99,409.48L171.99,384.46L171.99,384.44L173.35,367.87L173.35,367.82L174.2,324.33L174.2,323.71L174.29,255.77L174.29,247.27L174.33,29.66L174.91,434.15L174.93,434.15L174.94,434.14L175.59,427.42L175.59,427.4L176.88,424.96L176.96,424.98L176.97,424.98L179.36,424.45L179.36,424.45L179.36,424.44L181.38,421.19L181.38,421.19L181.38,421.18L184.04,412.32L184.04,412.3L187.09,395.99L187.09,395.97L188.98,381.43L188.98,381.4L190.51,354.92L190.51,354.82L190.9,313.93L190.9,312.87L190.99,29.56L191.58,434.21L191.9,431.07L191.91,431.04L193.21,425.01L193.21,425.01L193.22,425.01L196.37,424.18L196.37,424.17L198.61,419.85L198.61,419.85L198.61,419.84L201.31,409.64L201.31,409.63L205.35,384.39L205.35,384.37L207.19,355L207.19,354.9L207.53,328.44L207.53,327.94L207.68,29.62L208.26,434.26L208.53,431.82L208.54,431.79L209.87,425.07L209.87,425.07L209.88,425.07L213.07,424.26L213.07,424.26L213.08,424.25L215.31,419.93L215.31,419.92L218,409.75L218,409.74L222.06,384.42L222.06,384.4L223.41,367.9L223.41,367.85L224.26,324.62L224.26,324L224.35,258.48L224.35,250.52L224.39,29.45L224.97,434.3L224.98,434.3L225.5,428.87L225.5,428.84L226.77,425.09L226.87,425.11L226.88,425.11L229.44,424.63L229.44,424.63L229.44,424.62L231.43,421.41L231.43,421.41L231.43,421.4L234.07,412.58L234.07,412.57L237.09,396.4L237.09,396.38L239.81,371.61L239.81,371.57L240.83,332.02L240.83,331.61L240.94,287L240.95,283.7L241,29.53L241.58,434.09L241.95,430.39L241.96,430.35L243.21,424.66L243.21,424.66L243.22,424.66L246.36,423.22L246.36,423.21L248.57,418.36L248.57,418.35L251,408.4L251,408.38L253.97,388.47L253.97,388.45L255.31,372.81L255.31,372.77L256.03,354.75L256.03,354.64L256.36,325.38L256.36,324.78L256.49,30.88L257.09,432.12L257.36,429.6L257.37,429.56L258.81,420.58L258.82,420.58L262.34,411.62L262.34,411.61L264.69,398.12L264.69,398.1L266.46,378.7L266.46,378.66L267.63,334.08L267.63,333.7L267.75,291.27L267.76,288.63L267.82,38.48L268.46,424.36L268.76,421.42L268.77,421.38L270.57,402.89L270.58,402.86L273.42,365.92L273.42,365.85L274,329.61L274.01,329.15L274.17,47.23L274.87,417.24L275.01,416.4L275.02,416.37L277.98,372.81L277.98,372.75L278.82,330.98L278.82,330.55L278.94,284.52L278.94,281.49L279,51.17L279.14,340.04L279.14,341.66L279.71,414.15L280.14,409.34L280.15,409.3L283.19,335.33L283.2,334.99L283.4,52.48L284.11,413.22L284.2,412.92L284.21,412.9L285.99,385.16L285.99,385.11L286.94,364.66L286.94,364.58L287.49,325.92L287.49,325.37L287.6,264.47L287.6,258.94L287.64,52.85L288.34,413L288.6,410.78L288.61,410.74L291.62,331.21L291.63,330.78L291.8,52.7L292.5,412.94L292.63,412.26L292.64,412.23L294.43,382.94L294.43,382.89L295.33,361L295.33,360.9L295.73,333.23L295.73,332.84L295.86,289.26L295.86,286.72L295.92,52.54L296.62,412.91L296.86,410.88L296.87,410.84L299.83,333.57L299.83,333.2L300.02,52.49L300.72,412.9L300.83,412.38L300.84,412.36L302.41,386.64L302.41,386.59L303.37,366.03L303.37,365.95L303.94,328.37L303.95,327.88L304.11,52.33L304.81,412.9L304.95,412.03L304.96,412L307.95,338.48L307.95,338.18L308.1,304.65L308.1,303.24L308.18,52.2L308.88,412.9L309.1,411.13L309.11,411.09L312.06,333.91L312.06,333.53L312.25,52.15L312.95,412.9L313.06,412.38L313.07,412.35L314.62,386.84L314.62,386.79L316.11,335.93L316.11,335.59L316.32,51.97L317.01,412.9L317.11,412.48L317.12,412.45L318.67,386.95L318.67,386.9L319.63,366.34L319.63,366.26L320.21,328.61L320.21,328.13L320.32,273.08L320.33,268.74L320.37,52.04L321.07,412.91L321.33,410.52L321.34,410.49L324.19,338.62L324.2,338.32L324.43,52.04L325.12,412.91L325.2,412.64L325.21,412.62L326.77,387.06L326.77,387.02L327.78,364.91L327.78,364.82L328.33,325.01L328.33,324.43L328.43,263.99L328.43,258.33L328.48,51.9L328.92,407.45L328.93,407.59L329.17,412.91L329.93,401.8L329.94,401.75L332.32,334.02L332.33,333.65L332.52,51.89L333.22,412.92L333.33,412.35L333.34,412.32L334.85,387.21L334.85,387.17L335.87,364.95L335.87,364.87L336.42,325.13L336.42,324.55L336.56,51.71L337.26,412.92L337.42,411.85L337.43,411.81L340.41,333.9L340.41,333.52L340.6,51.63L341.29,412.92L341.41,412.36L341.42,412.34L342.93,387.23L342.93,387.19L344.44,334.3L344.44,333.93L344.64,51.59L345.32,412.92L345.44,412.41L345.45,412.39L346.96,387.26L346.96,387.21L347.97,365.11L347.97,365.02L348.52,326.41L348.52,325.87L348.67,51.56L349.37,412.93L349.52,411.91L349.53,411.88L351.36,380.72L351.36,380.67L352.53,329.89L352.53,329.43L352.65,278.94L352.65,275.31L352.7,51.54L353.39,412.93L353.65,410.6L353.66,410.56L356.5,338.67L356.5,338.37L356.73,51.58L357.42,412.93L357.5,412.66L357.51,412.64L359.04,387.38L359.04,387.34L360.06,365.1L360.06,365.02L360.61,325.08L360.61,324.51L360.76,51.58L361.44,412.93L361.61,411.86L361.62,411.83L364.58,334.38L364.58,334.01L364.71,292.67L364.71,290.41L364.78,51.45L364.85,276.84L364.85,281.49L365.47,412.94L365.85,408.57L365.86,408.52L368.61,333.95L368.61,333.57L368.8,51.39L369.49,412.94L369.61,412.34L369.62,412.31L371.11,387.41L371.11,387.36L372.12,365.26L372.12,365.17L372.67,326.47L372.67,325.93L372.82,51.38L373.51,412.94L373.67,411.94L373.68,411.91L376.64,334.19L376.65,333.82L376.84,51.5L377.53,412.94L377.65,412.35L377.66,412.33L379.32,384.38L379.32,384.34L380.24,362.25L380.24,362.16L380.66,333.78L380.67,333.41L380.86,51.57L381.54,412.94L381.67,412.33L381.68,412.3L383.34,384.36L383.34,384.32L384.26,362.29L384.26,362.19L384.75,319.42L384.75,318.67L384.84,236.76L384.84,226.15L384.87,51.33L385.56,412.94L385.84,410.29L385.85,410.25L388.65,339.1L388.65,338.81L388.8,305.4L388.8,304.02L388.87,155.93L388.87,134.45L388.89,51.42L389.58,412.95L389.87,410.04L389.88,410L392.69,336.42L392.69,336.08L392.9,51.26L393.59,412.95L393.69,412.52L393.7,412.5L395.38,384.39L395.38,384.34L396.73,331.95L396.73,331.53L396.85,286.95L396.85,284.16L396.91,51.29L397.02,320.25L397.03,322.3L397.6,412.95L398.03,407.76L398.04,407.72L400.74,332.12L400.74,331.71L400.86,285.33L400.87,282.38L400.92,51.25L401.61,412.95L401.87,410.62L401.88,410.58L404.7,338.99L404.7,338.7L404.93,51.24L405.62,412.95L405.7,412.7L405.71,412.68L407.23,387.53L407.23,387.49L408.74,334.3L408.75,333.93L408.94,51.24L409.63,412.95L409.75,412.36L409.76,412.33L411.24,387.51L411.24,387.47L412.75,334.4L412.75,334.03L412.88,292.47L412.89,290.18L412.95,51.18L413.64,412.95L413.89,410.69L413.9,410.65L416.72,338.94L416.73,338.64L416.96,51.17L417.64,412.95L417.73,412.66L417.74,412.64L419.43,384.43L419.43,384.38L420.35,362.31L420.35,362.22L420.77,333.85L420.77,333.48L420.96,51.34L421.65,412.95L421.77,412.38L421.78,412.35L423.26,387.52L423.26,387.48L424.77,334.34L424.77,333.97L424.9,292.09L424.9,289.77L424.97,51.16L425.04,282.77L425.04,286.48L425.67,412.96L426.26,404.59L426.27,404.54L428.79,332.03L428.79,331.61L428.91,287.3L428.91,284.55L428.97,51.14L429.08,320.04L429.09,322.09L429.67,412.96L430.09,407.76L430.1,407.71L432.8,331.93L432.8,331.51L432.98,51.24L433.67,412.96L433.8,412.23L433.81,412.2L435.62,381.26L435.62,381.21L436.75,339.01L436.75,338.72L436.98,51.14L437.67,412.96L437.75,412.68L437.76,412.67L439.44,384.63L439.44,384.58L440.37,362.41L440.37,362.32L440.86,319.19L440.86,318.43L440.95,233.11L440.95,221.76L440.98,51.31L441.67,412.96L441.95,410.3L441.96,410.26L444.75,339.12L444.75,338.82L444.9,306.62L444.9,305.3L444.99,51.33L445.68,412.96L445.9,411.08L445.91,411.04L448.79,334.54L448.79,334.17L448.99,51.23L449.68,412.96L449.79,412.42L449.8,412.4L451.27,387.7L451.27,387.65L452.28,365.52L452.28,365.43L452.83,327.03L452.84,326.5L452.99,51.08L453.68,412.96L453.84,411.9L453.85,411.87L456.79,334.23L456.8,333.86L456.99,51.29L457.68,412.96L457.8,412.35L457.81,412.33L459.45,384.58L459.45,384.53L460.37,362.46L460.37,362.37L460.87,319.5L460.87,318.75L460.99,51.09L461.68,412.96L461.87,411.54L461.88,411.51L464.78,336.5L464.78,336.16L464.99,51.06L465.68,412.96L465.78,412.53L465.79,412.5L467.45,384.59L467.45,384.54L468.37,362.48L468.37,362.39L468.87,319.63L468.87,318.88L468.99,51.05L469.68,412.96L469.87,411.55L469.88,411.52L472.78,336.46L472.78,336.13L472.99,51.06L473.67,412.96L473.78,412.52L473.79,412.5L475.45,384.58L475.45,384.53L476.37,362.45L476.37,362.35L476.87,319.34L476.87,318.59L476.99,51.18L477.67,412.96L477.87,411.5L477.88,411.47L480.77,336.58L480.77,336.25L480.91,298.77L480.91,296.96L480.97,106.16L480.97,88.63L480.99,51.1L481.67,412.96L481.72,412.88L481.73,412.87L482.47,401.25L482.47,401.2L484.8,332.4L484.8,331.99L484.92,286.94L484.93,284.15L484.99,51.1L485.67,412.96L485.93,410.63L485.94,410.59L488.75,339.02L488.75,338.73L488.98,51.05L489.67,412.96L489.75,412.7L489.76,412.68L491.27,387.61L491.27,387.57L492.78,334.57L492.78,334.21L492.91,293.33L492.91,291.11L492.98,51.21L493.05,269.61L493.05,275.53L493.66,412.96L494.05,408.58L494.06,408.54L496.8,331.94L496.8,331.52L496.98,51.17L497.66,412.96L497.8,412.23L497.81,412.2L499.61,381.38L499.61,381.33L500.74,339.2L500.74,338.9L500.98,51.1L501.66,412.96L501.74,412.71L501.75,412.7L503.25,387.76L503.25,387.72L504.27,365.51L504.27,365.43L504.83,325.25L504.83,324.68L504.97,51.08L505.66,412.96L505.83,411.83L505.84,411.8L508.79,331.97L508.79,331.55L508.97,51.12L509.65,412.96L509.79,412.23L509.8,412.2L511.61,381.28L511.61,381.23L512.73,339.15L512.73,338.86L512.88,305.37L512.88,303.99L512.97,51.21L513.66,412.97L513.88,411.07L513.89,411.04L516.78,332.24L516.78,331.83L516.96,51.13L517.66,412.97L517.78,412.27L517.79,412.25L519.59,381.45L519.59,381.4L520.42,359.45L520.42,359.34L520.96,51.01L521.42,408.52L521.43,408.64L521.65,412.97L522.43,401.28L522.44,401.23L524.77,332.41L524.77,332L524.89,286.96L524.9,284.17L524.95,51.07L525.65,412.97L525.9,410.63L525.91,410.59L528.72,339.1L528.72,338.8L528.95,51.13L529.64,412.97L529.72,412.69L529.73,412.67L531.23,387.69L531.23,387.65L532.24,365.53L532.24,365.45L532.79,326.99L532.79,326.46L532.9,270.41L532.9,265.67L532.95,51L533.64,412.97L533.9,410.48L533.91,410.44L536.71,339.12L536.71,338.83L536.94,51.19L537.63,412.97L537.71,412.69L537.72,412.67L539.22,387.74L539.22,387.7L540.74,334.39L540.74,334.02L540.94,51L541.63,412.97L541.74,412.41L541.75,412.39L543.39,384.68L543.39,384.64L544.32,362.44L544.32,362.34L544.81,319.13L544.81,318.36L544.9,241.54L544.9,231.85L544.93,51.1L545.63,412.97L545.9,410.29L545.91,410.25L548.7,338.91L548.7,338.61L548.93,51.08L549.62,412.97L549.7,412.66L549.71,412.64L551.38,384.67L551.38,384.62L552.27,363.81L552.27,363.72L552.79,321.77L552.79,321.09L552.88,247.6L552.89,239.07L552.92,50.99L553.61,412.97L553.89,410.28L553.9,410.24L556.69,338.81L556.69,338.51L556.92,51.12L557.61,412.97L557.69,412.67L557.7,412.65L559.2,387.69L559.2,387.65L560.72,334.3L560.72,333.92L560.91,51.12L561.61,412.97L561.72,412.38L561.73,412.36L563.37,384.62L563.37,384.57L564.29,362.49L564.29,362.4L564.79,319.55L564.79,318.8L564.91,51L565.6,412.97L565.79,411.54L565.8,411.51L568.69,336.55L568.69,336.22L568.83,298.56L568.83,296.73L568.9,51L569.59,412.97L569.83,410.91L569.84,410.87L572.72,332.23L572.72,331.82L572.9,51.08L573.59,412.97L573.72,412.25L573.73,412.22L575.53,381.39L575.53,381.34L576.66,339.14L576.66,338.84L576.89,51.22L577.59,412.97L577.66,412.71L577.67,412.69L579.17,387.74L579.17,387.69L580.18,365.6L580.18,365.51L580.74,326.85L580.74,326.31L580.89,51.11L581.58,412.97L581.74,411.89L581.75,411.86L583.69,378.02L583.69,377.97L584.69,334.35L584.69,333.97L584.88,51.03L585.57,412.97L585.69,412.38L585.7,412.36L587.34,384.62L587.34,384.58L588.7,332.06L588.7,331.65L588.88,50.99L589.57,412.97L589.7,412.24L589.71,412.21L592.64,338.99L592.64,338.7L592.87,50.98L593.56,412.97L593.64,412.7L593.65,412.68L595.15,387.71L595.15,387.67L596.16,365.55L596.16,365.47L596.72,326.55L596.72,326.01L596.87,50.99L597.56,412.97L597.72,411.9L597.73,411.87L600.67,334.12L600.67,333.75L600.86,51.01L601.55,412.97L601.67,412.37L601.68,412.35L603.31,384.73L603.31,384.68L604.2,363.92L604.2,363.83L604.73,321.22L604.73,320.52L604.86,51.03L605.55,412.97L605.73,411.62L605.74,411.59L608.64,336.61L608.64,336.28L608.85,51.07L609.54,412.97L609.64,412.53L609.65,412.51L611.31,384.6L611.31,384.55L612.66,332.25L612.66,331.84L612.79,285.9L612.79,283L612.84,51.1L613.54,412.97L613.79,410.65L613.8,410.61L616.61,339.11L616.61,338.82L616.84,51.14L617.53,412.97L617.61,412.67L617.62,412.66L619.29,384.69L619.29,384.65L620.22,362.45L620.22,362.36L620.71,319.23L620.72,318.47L620.83,51.19L621.52,412.97L621.72,411.46L621.73,411.43L624.61,336.68L624.62,336.35L624.83,51.22L625.52,412.97L625.62,412.52L625.63,412.49L627.28,384.7L627.28,384.65L628.21,362.46L628.21,362.37L628.7,319.31L628.7,318.55L628.79,234.25L628.79,223.11L628.82,51.18L629.51,412.97L629.79,410.3L629.8,410.26L632.59,338.88L632.59,338.59L632.82,51.13L633.51,412.97L633.59,412.68L633.6,412.66L635.27,384.66L635.27,384.61L636.19,362.57L636.19,362.48L636.62,333.94L636.62,333.56L636.81,51.09L637.5,412.97L637.62,412.38L637.63,412.36L639.27,384.62L639.27,384.57L640.63,332L640.63,331.58L640.81,51.05L641.5,412.97L641.63,412.23L641.64,412.21L644.57,338.94L644.57,338.65L644.8,51.01L645.49,412.97L645.57,412.7L645.58,412.68L647.08,387.7L647.08,387.66L648.09,365.54L648.09,365.45L648.64,326.98L648.65,326.45L648.8,50.99L649.49,412.97L649.65,411.87L649.66,411.83L651.43,381.36L651.43,381.31L652.25,359.45L652.25,359.34L652.63,329.03L652.63,328.55L652.79,50.98L653.48,412.97L653.63,412.05L653.64,412.02L656.57,336.55L656.58,336.22L656.79,50.99L657.48,412.97L657.58,412.49L657.59,412.46L659.42,381.38L659.42,381.33L660.55,339.07L660.55,338.78L660.78,51.04L661.47,412.97L661.55,412.69L661.56,412.67L663.06,387.73L663.06,387.68L664.58,334.21L664.58,333.84L664.77,51.15L665.47,412.97L665.58,412.4L665.59,412.38L667.23,384.65L667.23,384.61L668.15,362.56L668.15,362.47L668.58,333.91L668.58,333.53L668.77,51.15L669.46,412.97L669.58,412.36L669.59,412.33L671.22,384.71L671.22,384.66L672.15,362.49L672.15,362.39L672.64,319.48L672.65,318.73L672.77,51.02L673.45,412.97L673.65,411.47L673.66,411.44L676.55,336.52L676.55,336.19L676.76,50.98L677.45,412.97L677.55,412.53L677.56,412.51L679.39,381.42L679.39,381.38L680.52,339.08L680.52,338.79L680.67,305.04L680.67,303.64L680.73,149L680.74,127.48L680.75,51.07L681.44,412.97L681.74,410.01L681.75,409.96L684.54,336.71L684.54,336.38L684.75,51.14L685.44,412.97L685.54,412.54L685.55,412.52L687.2,384.71L687.2,384.67L688.13,362.5L688.13,362.4L688.62,319.59L688.63,318.84L688.75,50.99L689.43,412.97L689.63,411.48L689.64,411.45L692.53,336.62L692.53,336.29L692.74,51.09L693.43,412.97L693.53,412.54L693.54,412.51L695.2,384.61L695.2,384.56L696.56,332L696.56,331.59L696.74,51.05L697.43,412.97L697.56,412.21L697.57,412.18L699.02,387.67L699.02,387.62L700.54,334.14L700.54,333.77L700.73,51.04L701.42,412.97L701.54,412.37L701.55,412.35L703.19,384.61L703.19,384.56L704.11,362.48L704.11,362.38L704.61,319.45L704.61,318.69L704.73,51.05L705.42,412.97L705.61,411.54L705.62,411.51L708.51,336.62L708.51,336.29L708.65,298.94L708.65,297.14L708.72,51.11L709.41,412.97L709.65,410.92L709.66,410.88L712.54,332.1L712.54,331.68L712.72,51L713.41,412.97L713.54,412.24L713.55,412.22L715,387.68L715,387.64L716.01,365.51L716.01,365.43L716.57,325.23L716.57,324.65L716.67,264.43L716.67,258.81L716.72,51.1L717.16,407.68L717.17,407.82L717.4,412.97L718.17,401.63L718.18,401.58L720.52,334.22L720.52,333.85L720.71,51.21L721.4,412.97L721.52,412.38L721.53,412.36L723.17,384.63L723.17,384.58L724.09,362.53L724.09,362.43L724.59,319.11L724.59,318.35L724.71,51.09L725.4,412.97L725.59,411.53L725.6,411.49L728.47,339.06L728.47,338.76L728.62,306.28L728.62,304.94L728.71,51.05L729.39,412.97L729.62,411.1L729.63,411.07L732.52,332.2L732.52,331.78L732.64,285.54L732.65,282.61L732.7,51.06L733.39,412.97L733.65,410.61L733.66,410.57L736.52,332.23L736.52,331.82L736.7,51.11L737.39,412.97L737.52,412.25L737.53,412.23L740.47,338.84L740.47,338.54L740.7,51.26L741.38,412.97L741.47,412.66L741.48,412.64L743.15,384.69L743.15,384.64L744.08,362.47L744.08,362.38L744.57,319.45L744.58,318.69L744.7,51.07L745.38,412.97L745.58,411.48L745.59,411.44L748.48,336.54L748.48,336.21L748.69,51.03L749.38,412.97L749.48,412.56L749.49,412.54L751.15,384.63L751.15,384.58L752.07,362.55L752.07,362.45L752.57,319.32L752.57,318.56L752.69,51.19L753.38,412.97L753.57,411.58L753.58,411.54L756.46,339.03L756.46,338.74L756.69,51.04L757.38,412.97L757.46,412.69L757.47,412.68L759.15,384.59L759.15,384.55L760.07,362.47L760.07,362.38L760.57,319.5L760.57,318.75L760.69,51.05L761.37,412.97L761.57,411.55L761.58,411.52L764.48,336.38L764.48,336.04L764.69,51.16L765.37,412.97L765.48,412.51L765.49,412.48L767.32,381.41L767.32,381.36L768.45,339.14L768.45,338.85L768.6,305.36L768.6,303.97L768.67,154.16L768.67,132.61L768.69,51.24L769.37,412.97L769.67,410.03L769.68,409.99L772.47,336.69L772.47,336.36L772.61,299.33L772.61,297.56L772.67,112.48L772.67,93.96L772.69,51.22L773.37,412.97L773.67,410.03L773.68,409.99L776.47,336.74L776.47,336.41L776.61,297.85L776.62,295.97L776.69,51.11L777.37,412.97L777.62,410.79L777.63,410.76L780.45,338.98L780.46,338.69L780.69,51.04L781.38,412.98L781.46,412.68L781.47,412.66L783.15,384.56L783.15,384.51L784.07,362.43L784.07,362.33L784.57,319.19L784.57,318.43L784.69,51.23L785.38,412.98L785.57,411.54L785.58,411.51L788.48,336.49L788.48,336.15L788.69,51.05L789.38,412.98L789.48,412.52L789.49,412.49L791.15,384.57L791.15,384.52L792.07,362.45L792.07,362.35L792.57,319.37L792.57,318.62L792.69,51.16L793.38,412.98L793.57,411.55L793.58,411.52L796.48,336.66L796.48,336.33L796.69,51.3L797.38,412.98L797.48,412.55L797.49,412.53L799.16,384.51L799.16,384.46L800.51,332.29L800.51,331.88L800.69,51.31L801.39,412.98L801.51,412.29L801.52,412.27L803.34,381.25L803.34,381.2L804.46,339.16L804.46,338.86L804.61,306.77L804.61,305.46L804.7,51.2L805.39,412.98L805.61,411.1L805.62,411.06L808.5,334.37L808.5,334.01L808.63,292.21L808.63,289.9L808.7,51.07L808.77,282.59L808.77,286.33L809.4,412.98L809.99,404.6L810,404.55L812.52,332.23L812.52,331.82L812.7,51.2L813.39,412.98L813.52,412.29L813.53,412.27L815.34,381.35L815.34,381.31L816.47,338.96L816.47,338.67L816.62,304.57L816.62,303.14L816.69,142L816.69,120.71L816.71,51.07L817.39,412.98L817.69,410.02L817.7,409.98L820.5,336.4L820.5,336.07L820.71,51.14L821.4,412.98L821.5,412.54L821.51,412.52L822,404.69" style="vector-effect: none; fill: none; stroke: rgb(255, 0, 0); stroke-opacity: 1; stroke-width: 4px; opacity: 1;"/></g><g class="points"/><g class="text"/></g><g class="trace scatter traced60b6b" style="stroke-miterlimit: 2; opacity: 0.5;"><g class="fills"/><g class="errorbars"/><g class="lines"><path class="js-line" d="M0,516.42L1,558.43L1.01,558.43L2.38,559.53L2.38,559.53L2.39,559.53L20.55,559.55L20.55,559.55L20.55,554L21.74,484.02L21.75,483.97L24.25,453.79L24.26,453.77L26.93,435.35L26.94,435.33L30.9,414.62L30.91,414.61L37.06,377.71L37.06,377.68L38.45,352.7L38.45,352.59L38.77,325.01L38.77,324.44L38.86,264.97L38.87,258.5L38.91,32.47L39.51,434.01L39.87,430.68L39.88,430.65L41.29,425.44L41.36,425.46L41.37,425.46L44.01,425.12L44.01,425.12L44.02,425.11L46.11,421.81L46.11,421.8L48.9,412.63L48.9,412.62L52.51,394.08L52.51,394.07L54.65,377.52L54.65,377.49L56,351.69L56,351.57L56.3,322.06L56.31,321.39L56.43,32.22L57.03,433.81L57.31,431.39L57.32,431.36L58.6,425.06L58.6,425.06L58.61,425.06L61.93,424.16L61.93,424.15L64.15,419.85L64.15,419.84L66.94,409.41L66.94,409.4L70.11,391.8L70.11,391.78L72.42,369.73L72.42,369.69L73.13,351.69L73.14,351.57L73.56,31.61L74.14,433.77L74.15,433.77L74.54,430.11L74.54,430.08L76.03,424.83L76.03,424.83L76.04,424.83L78.64,424.23L78.64,424.23L78.64,424.22L80.62,421.01L80.62,421L83.35,411.97L83.35,411.95L86.49,395.28L86.49,395.27L88.4,380.63L88.4,380.61L89.91,354.4L89.91,354.29L90.25,327.56L90.25,327.05L90.39,31.27L90.99,433.77L91.25,431.48L91.26,431.45L92.83,424.66L92.83,424.66L92.84,424.66L95.57,423.85L95.57,423.84L95.58,423.84L97.97,419.34L97.97,419.34L97.97,419.33L100.7,409.05L100.7,409.04L104.67,384.16L104.67,384.14L106.52,354.71L106.52,354.61L106.86,327.96L106.86,327.46L107,30.76L107.59,433.75L107.86,431.47L107.87,431.43L109.18,424.57L109.18,424.57L109.19,424.57L112.56,423.16L112.56,423.16L112.57,423.15L114.9,418.13L114.9,418.12L118.32,403.33L118.32,403.31L121.16,384.04L121.16,384.02L122.96,355.04L122.96,354.94L123.31,328.11L123.31,327.61L123.45,30.57L124.04,433.74L124.31,431.39L124.32,431.35L125.9,424.42L125.9,424.42L125.91,424.42L128.63,423.45L128.63,423.45L128.63,423.44L130.64,419.83L130.64,419.83L130.64,419.82L133.07,411.48L133.07,411.47L135.93,395.91L135.93,395.89L138.57,371.64L138.57,371.6L139.31,354.22L139.31,354.12L139.77,30.43L140.31,433.46L140.32,433.48L140.38,433.73L140.76,429.73L140.77,429.7L142.27,424.33L142.27,424.33L142.28,424.33L144.92,423.35L144.92,423.34L147.06,419.39L147.06,419.38L149.37,411.34L149.37,411.32L153.61,385.24L153.61,385.22L155.51,355.25L155.51,355.15L155.91,313.75L155.91,312.68L156,30.24L156.59,433.72L156.91,430.64L156.92,430.6L158.45,424.27L158.45,424.27L158.46,424.27L161.2,423.18L161.2,423.17L163.43,418.86L163.43,418.85L166.11,408.72L166.11,408.7L169.75,385.46L169.75,385.43L171.61,357.11L171.61,357.02L172.04,318.67L172.04,317.84L172.12,224.49L172.12,208.66L172.15,30.07L172.74,433.71L173.12,429.88L173.13,429.84L174.39,424.26L174.39,424.26L174.4,424.26L177.6,422.78L177.6,422.77L179.93,417.76L179.93,417.75L183.25,403.3L183.25,403.28L185.91,384.92L185.91,384.89L187.24,368.53L187.24,368.48L188.11,324.77L188.11,324.16L188.2,261.03L188.2,253.63L188.24,30.03L188.78,433.47L188.79,433.49L188.85,433.7L189.23,429.69L189.23,429.65L190.74,424.17L190.74,424.17L190.75,424.17L193.31,423.18L193.31,423.17L193.32,423.16L195.34,419.54L195.34,419.53L197.75,411.24L197.75,411.23L200.49,396.15L200.49,396.13L203.06,372.32L203.06,372.28L203.81,354.78L203.81,354.67L204.14,328.1L204.15,327.59L204.29,29.94L204.88,433.7L205.15,431.24L205.16,431.2L206.5,424.2L206.5,424.2L206.51,424.2L209.8,422.57L209.8,422.56L211.89,418.11L211.89,418.11L211.89,418.1L214.35,408.54L214.35,408.52L216.66,395.17L216.66,395.15L219.07,372.4L219.07,372.36L219.91,351.17L219.91,351.04L220.3,29.87L220.89,433.69L220.91,433.68L220.92,433.67L223.07,424.1L223.07,424.1L223.08,424.1L225.35,423.1L225.35,423.1L225.35,423.09L227.38,419.46L227.38,419.46L227.38,419.45L229.78,411.19L229.78,411.18L232.49,396.23L232.49,396.21L234.23,382.44L234.23,382.41L235.79,355.68L235.79,355.59L236.19,314.56L236.19,313.53L236.28,30.02L236.87,433.69L237.19,430.63L237.2,430.6L238.52,424.15L238.52,424.15L238.53,424.15L241.78,422.51L241.78,422.51L241.78,422.5L243.87,418.05L243.87,418.04L246.33,408.48L246.33,408.47L249.82,385.98L249.82,385.95L251.7,357.44L251.7,357.36L252.14,318.9L252.14,318.07L252.25,29.85L252.84,433.69L253.14,430.78L253.15,430.75L254.48,424.14L254.48,424.14L254.49,424.13L257.73,422.5L257.73,422.5L257.73,422.49L259.83,418.03L259.83,418.02L262.27,408.52L262.27,408.5L264.56,395.23L264.56,395.21L267.08,370.59L267.08,370.55L268.04,328.36L268.05,327.86L268.19,29.83L268.78,433.68L269.05,431.21L269.06,431.18L270.41,424.13L270.41,424.13L270.42,424.13L273.76,422.35L273.76,422.35L273.76,422.34L275.92,417.56L275.92,417.55L278.23,408.4L278.23,408.38L280.5,395.18L280.5,395.16L283.01,370.59L283.01,370.55L283.98,328.18L283.98,327.67L284.12,29.77L284.71,433.68L284.98,431.19L284.99,431.16L286.34,424.12L286.34,424.12L286.35,424.12L289.69,422.34L289.69,422.33L292.08,416.82L292.08,416.81L294.4,407.17L294.4,407.15L297.62,386L297.62,385.97L299.49,357.56L299.49,357.47L299.93,320.46L299.93,319.69L300.04,29.78L300.63,433.68L300.93,430.8L300.94,430.77L302.27,424.11L302.27,424.11L302.28,424.11L305.6,422.33L305.6,422.33L305.6,422.32L307.76,417.54L307.76,417.53L310.08,408.35L310.08,408.34L313.52,386.08L313.52,386.05L314.85,370.45L314.85,370.41L315.8,328.79L315.8,328.3L315.9,274.23L315.91,269.17L315.95,29.73L316.54,433.68L316.91,429.9L316.92,429.87L318.18,424.1L318.18,424.1L318.19,424.1L321.42,422.45L321.42,422.45L321.42,422.44L323.52,417.98L323.52,417.98L323.52,417.97L325.96,408.46L325.96,408.45L328.23,395.25L328.23,395.24L330.62,372.61L330.62,372.57L331.68,332.33L331.69,331.93L331.85,29.76L332.45,433.68L332.69,431.49L332.7,431.46L334.06,424.11L334.06,424.11L334.07,424.1L337.42,422.31L337.42,422.3L339.81,416.78L339.81,416.78L339.81,416.77L342.12,407.15L342.12,407.14L345.32,386.09L345.32,386.07L346.65,370.5L346.65,370.46L347.61,328.29L347.61,327.79L347.75,29.71L348.34,433.67L348.61,431.22L348.62,431.19L349.97,424.1L349.97,424.1L349.98,424.09L353.22,422.44L353.22,422.43L355.47,417.52L355.47,417.51L357.99,407.29L357.99,407.28L361.22,386.06L361.22,386.03L362.54,370.51L362.54,370.47L363.24,351.75L363.24,351.63L363.54,317.98L363.54,317.11L363.65,29.71L364.23,433.67L364.54,430.72L364.55,430.68L365.87,424.09L365.87,424.09L365.88,424.09L369.2,422.3L369.2,422.3L369.2,422.29L371.36,417.51L371.36,417.5L373.67,408.34L373.67,408.33L377.1,386.14L377.1,386.12L378.5,369.28L378.5,369.24L379.18,349.13L379.18,348.98L379.44,312.69L379.45,311.56L379.54,29.85L380.12,433.67L380.45,430.43L380.46,430.4L381.77,424.08L381.77,424.08L381.78,424.08L385,422.43L385,422.42L387.24,417.53L387.24,417.52L389.56,408.34L389.56,408.33L393.25,383.72L393.25,383.69L394.87,357.55L394.87,357.47L395.31,319.44L395.31,318.63L395.39,234.97L395.39,221.66L395.42,29.72L396.01,433.67L396.39,429.76L396.4,429.73L397.65,424.08L397.65,424.08L397.66,424.08L400.89,422.42L400.89,422.41L403.37,416.77L403.37,416.76L406.4,403.22L406.4,403.21L409.17,383.35L409.17,383.33L410.75,357.66L410.75,357.57L411.19,320.36L411.19,319.59L411.27,237.26L411.27,224.51L411.3,29.7L411.89,433.67L412.27,429.79L412.28,429.76L413.53,424.08L413.53,424.08L413.54,424.08L416.86,422.29L416.86,422.28L419.25,416.77L419.25,416.77L419.25,416.76L421.56,407.15L421.56,407.13L425.02,383.69L425.02,383.66L426.64,357.51L426.64,357.42L427.07,320.58L427.07,319.82L427.15,240.54L427.15,228.58L427.18,29.82L427.77,433.67L428.15,429.8L428.16,429.77L429.41,424.08L429.41,424.08L429.42,424.08L432.73,422.29L432.73,422.29L432.74,422.28L435.14,416.75L435.14,416.74L438.16,403.23L438.16,403.21L440.72,385.36L440.72,385.33L442.56,355.9L442.56,355.8L442.91,329.17L442.91,328.69L443.01,277.72L443.02,273.19L443.06,29.71L443.65,433.67L444.02,429.91L444.03,429.88L445.29,424.08L445.29,424.08L445.3,424.07L448.52,422.42L448.52,422.42L448.52,422.41L450.62,417.95L450.62,417.94L453.07,408.42L453.07,408.4L456.51,386.14L456.51,386.11L458.39,357.63L458.39,357.55L458.83,319.32L458.83,318.51L458.91,233.19L458.91,219.44L458.94,29.77L459.53,433.67L459.91,429.75L459.92,429.72L461.17,424.07L461.17,424.07L461.18,424.07L464.4,422.41L464.4,422.41L464.4,422.4L466.65,417.5L466.65,417.49L469.17,407.27L469.17,407.26L472.39,386.1L472.39,386.08L474.31,355.91L474.31,355.81L474.67,328.73L474.67,328.24L474.82,29.69L475.4,433.67L475.67,431.24L475.68,431.21L477.01,424.09L477.01,424.09L477.02,424.09L480.49,422.09L480.49,422.09L480.49,422.08L482.77,416.74L482.77,416.73L485.79,403.22L485.79,403.2L488.35,385.33L488.35,385.31L490.19,355.88L490.19,355.78L490.6,313.81L490.6,312.74L490.69,29.81L491.28,433.67L491.6,430.49L491.61,430.46L492.93,424.07L492.93,424.07L492.94,424.06L496.15,422.41L496.15,422.41L496.15,422.4L498.39,417.51L498.39,417.51L498.39,417.5L500.71,408.32L500.71,408.31L504.39,383.73L504.39,383.71L505.52,369.45L505.52,369.4L506.19,350.16L506.19,350.03L506.47,315.03L506.47,314.02L506.56,29.71L507.16,433.67L507.47,430.53L507.48,430.5L508.8,424.07L508.8,424.07L508.81,424.06L512.02,422.41L512.02,422.41L512.02,422.4L514.27,417.5L514.27,417.49L516.79,407.27L516.79,407.26L520,386.14L520,386.12L521.4,369.25L521.4,369.2L522.06,350.13L522.06,349.99L522.34,314.79L522.34,313.77L522.43,29.84L523.02,433.66L523.34,430.56L523.35,430.52L524.67,424.06L524.67,424.06L524.68,424.06L527.89,422.41L527.89,422.41L527.89,422.4L530.14,417.49L530.14,417.49L530.14,417.48L532.45,408.33L532.45,408.31L535.87,386.17L535.87,386.15L537.27,369.31L537.27,369.27L538.17,324.97L538.18,324.36L538.3,29.7L538.89,433.66L539.18,430.97L539.19,430.93L540.53,424.07L540.53,424.07L540.54,424.07L543.86,422.27L543.86,422.26L546.25,416.75L546.25,416.74L549.28,403.2L549.28,403.18L551.83,385.34L551.83,385.32L553.16,368.94L553.16,368.89L553.82,349.03L553.82,348.88L554.08,311.86L554.09,310.69L554.17,29.71L554.76,433.66L555.09,430.43L555.1,430.4L556.41,424.06L556.41,424.06L556.42,424.06L559.63,422.4L559.63,422.4L559.64,422.39L562.12,416.74L562.12,416.73L565.15,403.19L565.15,403.18L567.91,383.38L567.91,383.35L569.49,357.61L569.49,357.52L569.93,320.63L569.93,319.87L570.04,29.86L570.63,433.66L570.93,430.81L570.94,430.78L572.27,424.06L572.28,424.06L575.5,422.4L575.5,422.4L575.5,422.39L577.75,417.48L577.75,417.48L577.75,417.47L580.27,407.26L580.27,407.25L583.48,386.12L583.48,386.1L584.88,369.25L584.88,369.21L585.78,324.76L585.78,324.15L585.87,259.88L585.87,252.22L585.91,29.86L586.47,433.6L586.48,433.61L586.81,430.72L586.81,430.69L588.44,423.99L588.44,423.99L588.45,423.99L591,422.87L591,422.86L593.25,418.53L593.25,418.53L593.25,418.52L595.89,408.49L595.89,408.48L599.61,383.73L599.61,383.7L601.23,357.61L601.23,357.52L601.66,320.63L601.67,319.87L601.78,29.86L602.36,433.66L602.67,430.71L602.68,430.68L604.01,424.06L604.01,424.06L604.02,424.06L607.32,422.27L607.32,422.27L607.32,422.26L609.48,417.48L609.48,417.47L611.8,408.29L611.8,408.28L615.21,386.18L615.21,386.15L617.09,357.65L617.09,357.57L617.54,318.65L617.54,317.81L617.64,29.71L618.23,433.66L618.54,430.66L618.55,430.63L619.87,424.06L619.87,424.06L619.88,424.06L623.19,422.26L623.19,422.26L623.2,422.25L625.59,416.73L625.59,416.72L628.62,403.18L628.62,403.16L631.16,385.37L631.16,385.35L632.49,368.99L632.49,368.95L633.16,348.91L633.16,348.76L633.51,29.69L634.09,433.66L634.16,433.45L634.17,433.43L636.01,423.99L636.01,423.99L636.02,423.99L638.59,422.87L638.59,422.87L638.59,422.86L640.69,418.95L640.69,418.94L643.48,408.51L643.48,408.5L645.98,393.69L645.98,393.67L648.14,372.59L648.14,372.55L649.2,332.59L649.2,332.2L649.32,288.21L649.32,285.06L649.37,29.72L649.96,433.66L650.32,430.03L650.33,430L651.58,424.07L651.58,424.07L651.59,424.07L655.05,422.07L655.05,422.06L657.32,416.72L657.32,416.72L657.32,416.71L660.35,403.17L660.35,403.16L663.99,372.76L663.99,372.72L664.84,351.41L664.84,351.28L665.23,29.79L665.82,433.66L665.84,433.65L665.85,433.64L668.03,423.97L668.03,423.97L668.04,423.97L670.31,422.87L670.31,422.87L670.32,422.86L672.58,418.51L672.58,418.51L672.58,418.5L675.21,408.49L675.21,408.48L677.47,395.32L677.47,395.31L679.86,372.73L679.86,372.69L680.96,326.42L680.96,325.86L681.06,265.6L681.06,259.06L681.1,29.92L681.69,433.66L682.06,429.83L682.07,429.79L683.58,423.99L683.58,423.99L683.59,423.99L686.28,422.75L686.28,422.74L688.44,418.51L688.44,418.51L688.44,418.5L691.08,408.46L691.08,408.44L694.52,386.21L694.52,386.19L695.93,369.29L695.93,369.24L696.82,326.87L696.82,326.33L696.96,29.79L697.55,433.66L697.82,431.14L697.83,431.11L699.18,424.06L699.18,424.06L699.19,424.06L702.5,422.26L702.5,422.26L702.5,422.25L704.52,417.89L704.52,417.89L704.52,417.88L706.96,408.39L706.96,408.37L710.39,386.16L710.39,386.13L712.27,357.65L712.27,357.56L712.71,320.19L712.71,319.41L712.82,29.73L713.41,433.66L713.71,430.76L713.72,430.72L715.05,424.05L715.05,424.05L715.06,424.05L718.27,422.39L718.27,422.39L718.27,422.38L720.52,417.48L720.52,417.47L722.83,408.31L722.83,408.3L726.24,386.21L726.24,386.18L727.58,370.53L727.58,370.49L728.53,328.77L728.53,328.28L728.63,274L728.64,268.9L728.68,29.7L729.27,433.66L729.64,429.87L729.65,429.84L730.91,424.05L730.91,424.05L730.92,424.05L734.22,422.26L734.22,422.26L734.22,422.25L736.38,417.47L736.38,417.46L738.7,408.28L738.7,408.26L742.1,386.21L742.1,386.18L743.43,370.61L743.43,370.57L744.13,351.87L744.13,351.74L744.43,319.5L744.43,318.7L744.54,29.7L745.12,433.65L745.43,430.76L745.44,430.72L746.77,424.05L746.77,424.05L746.78,424.05L750.08,422.26L750.08,422.26L750.08,422.25L752.24,417.47L752.24,417.46L754.76,407.25L754.76,407.23L758.23,383.74L758.23,383.71L759.85,357.62L759.85,357.54L760.29,319.17L760.29,318.35L760.4,29.92L760.98,433.65L761.29,430.74L761.3,430.71L762.63,424.05L762.63,424.05L762.64,424.05L765.94,422.25L765.94,422.25L765.94,422.24L768.1,417.46L768.1,417.45L770.41,408.29L770.41,408.28L773.82,386.18L773.82,386.16L775.22,369.31L775.22,369.27L775.9,349.17L775.9,349.02L776.16,312.91L776.17,311.8L776.26,29.74L776.84,433.65L777.17,430.45L777.18,430.42L778.49,424.05L778.49,424.05L778.5,424.05L781.8,422.25L781.8,422.25L781.8,422.24L784.2,416.72L784.2,416.71L787.23,403.16L787.23,403.14L789.77,385.35L789.77,385.33L791.1,368.99L791.1,368.94L791.98,324.87L791.98,324.27L792.07,261.22L792.07,253.84L792.11,29.75L792.65,433.46L792.66,433.48L792.95,431.49L792.95,431.45L794.64,423.98L794.64,423.98L794.65,423.98L797.28,422.75L797.28,422.75L797.28,422.74L799.45,418.5L799.45,418.49L802.09,408.46L802.09,408.45L805.53,386.2L805.53,386.17L806.86,370.6L806.86,370.55L807.56,351.81L807.56,351.68L807.86,319.9L807.86,319.11L807.97,29.91L808.55,433.65L808.86,430.74L808.87,430.71L810.2,424.05L810.2,424.05L810.21,424.04L813.42,422.38L813.42,422.38L813.42,422.37L815.52,417.91L815.52,417.9L817.96,408.39L817.96,408.38L821.39,386.18L821.39,386.16L822,380.19" style="vector-effect: none; fill: none; stroke: rgb(0, 0, 0); stroke-opacity: 1; stroke-width: 4px; opacity: 1;"/></g><g class="points"/><g class="text"/></g></g></g><g class="xy2" transform="translate(153,100)" clip-path="url(#clip7612a6xy2plot)"><g class="scatterlayer mlayer"><g class="trace scatter trace5b2760" style="stroke-miterlimit: 2;"><g class="fills"><g><path class="js-fill" d="M2055,589L0,589L0,589L205.5,589L215.78,560.53L226.05,544.83L236.33,535.01L246.6,531.08L256.88,530.1L267.15,531.08L277.43,533.04L297.97,538.93L308.25,542.86L411,566.42L513.75,577.22L616.5,581.64L719.25,583.6L2055,588.36" style="fill: rgb(255, 0, 0); fill-opacity: 0.2; stroke-width: 0;"/></g></g><g class="errorbars"/><g class="lines"><path class="js-line" d="M0,589L205.5,589L215.78,560.53L226.05,544.83L236.33,535.01L246.6,531.08L256.88,530.1L267.15,531.08L277.43,533.04L297.97,538.93L308.25,542.86L411,566.42L513.75,577.22L616.5,581.64L719.25,583.6L2055,588.36" style="vector-effect: none; fill: none; stroke: rgb(255, 0, 0); stroke-opacity: 0.2; stroke-width: 0px; opacity: 1;"/></g><g class="points"/><g class="text"/></g></g></g></g><path class="xlines-above crisp" d="M0,0" style="fill: none;"/><path class="ylines-above crisp" d="M0,0" style="fill: none;"/><g class="overlines-above"><path class="xy2-x crisp" d="M0,0" style="fill: none;"/><path class="xy2-y crisp" d="M0,0" style="fill: none;"/></g><g class="xaxislayer-above"><g class="xtick"><text text-anchor="middle" x="0" y="730" transform="translate(153,0)" style="font-family: 'Open Sans', verdana, arial, sans-serif; font-size: 40px; fill: rgb(42, 63, 95); fill-opacity: 1; white-space: pre; opacity: 1;">0</text></g><g class="xtick"><text text-anchor="middle" x="0" y="730" style="font-family: 'Open Sans', verdana, arial, sans-serif; font-size: 40px; fill: rgb(42, 63, 95); fill-opacity: 1; white-space: pre; opacity: 1;" transform="translate(358.5,0)">2</text></g><g class="xtick"><text text-anchor="middle" x="0" y="730" style="font-family: 'Open Sans', verdana, arial, sans-serif; font-size: 40px; fill: rgb(42, 63, 95); fill-opacity: 1; white-space: pre; opacity: 1;" transform="translate(564,0)">4</text></g><g class="xtick"><text text-anchor="middle" x="0" y="730" style="font-family: 'Open Sans', verdana, arial, sans-serif; font-size: 40px; fill: rgb(42, 63, 95); fill-opacity: 1; white-space: pre; opacity: 1;" transform="translate(769.5,0)">6</text></g><g class="xtick"><text text-anchor="middle" x="0" y="730" style="font-family: 'Open Sans', verdana, arial, sans-serif; font-size: 40px; fill: rgb(42, 63, 95); fill-opacity: 1; white-space: pre; opacity: 1;" transform="translate(975,0)">8</text></g></g><g class="yaxislayer-above"><g class="ytick"><text text-anchor="end" x="152" y="14" transform="translate(0,678.91)" style="font-family: 'Open Sans', verdana, arial, sans-serif; font-size: 40px; fill: rgb(42, 63, 95); fill-opacity: 1; white-space: pre; opacity: 1;">−100</text></g><g class="ytick"><text text-anchor="end" x="152" y="14" style="font-family: 'Open Sans', verdana, arial, sans-serif; font-size: 40px; fill: rgb(42, 63, 95); fill-opacity: 1; white-space: pre; opacity: 1;" transform="translate(0,589.64)">−80</text></g><g class="ytick"><text text-anchor="end" x="152" y="14" style="font-family: 'Open Sans', verdana, arial, sans-serif; font-size: 40px; fill: rgb(42, 63, 95); fill-opacity: 1; white-space: pre; opacity: 1;" transform="translate(0,500.37)">−60</text></g><g class="ytick"><text text-anchor="end" x="152" y="14" style="font-family: 'Open Sans', verdana, arial, sans-serif; font-size: 40px; fill: rgb(42, 63, 95); fill-opacity: 1; white-space: pre; opacity: 1;" transform="translate(0,411.1)">−40</text></g><g class="ytick"><text text-anchor="end" x="152" y="14" style="font-family: 'Open Sans', verdana, arial, sans-serif; font-size: 40px; fill: rgb(42, 63, 95); fill-opacity: 1; white-space: pre; opacity: 1;" transform="translate(0,321.84000000000003)">−20</text></g><g class="ytick"><text text-anchor="end" x="152" y="14" style="font-family: 'Open Sans', verdana, arial, sans-serif; font-size: 40px; fill: rgb(42, 63, 95); fill-opacity: 1; white-space: pre; opacity: 1;" transform="translate(0,232.57)">0</text></g><g class="ytick"><text text-anchor="end" x="152" y="14" style="font-family: 'Open Sans', verdana, arial, sans-serif; font-size: 40px; fill: rgb(42, 63, 95); fill-opacity: 1; white-space: pre; opacity: 1;" transform="translate(0,143.3)">20</text></g></g><g class="overaxes-above"><g class="xy2-x"/><g class="xy2-y"><g class="y2tick"><text text-anchor="start" x="976" y="14" transform="translate(0,689)" style="font-family: 'Open Sans', verdana, arial, sans-serif; font-size: 40px; fill: rgb(42, 63, 95); fill-opacity: 1; white-space: pre; opacity: 1;">0</text></g><g class="y2tick"><text text-anchor="start" x="976" y="14" style="font-family: 'Open Sans', verdana, arial, sans-serif; font-size: 40px; fill: rgb(42, 63, 95); fill-opacity: 1; white-space: pre; opacity: 1;" transform="translate(0,630.1)">600.0</text></g></g></g></g><g class="subplot xy2"/></g><g class="polarlayer"/><g class="smithlayer"/><g class="ternarylayer"/><g class="geolayer"/><g class="funnelarealayer"/><g class="pielayer"/><g class="iciclelayer"/><g class="treemaplayer"/><g class="sunburstlayer"/><g class="glimages"/><defs id="topdefs-7612a6"><g class="clips"/><clipPath id="legend7612a6"><rect width="197" height="175" x="0" y="0"/></clipPath></defs><g class="layer-above"><g class="imagelayer"/><g class="shapelayer"/></g><g class="infolayer"><g class="legend" pointer-events="all" transform="translate(991.44,42.799999999999955)"><rect class="bg" shape-rendering="crispEdges" width="197" height="175" x="0" y="0" style="stroke: rgb(68, 68, 68); stroke-opacity: 1; fill: rgb(255, 255, 255); fill-opacity: 1; stroke-width: 0px;"/><g class="scrollbox" transform="" clip-path="url(#legend7612a6)"><g class="groups"><g class="traces" transform="translate(0,32.5)" style="opacity: 1;"><text class="legendtext" text-anchor="start" x="40" y="15.6" style="font-family: 'Open Sans', verdana, arial, sans-serif; font-size: 40px; fill: rgb(42, 63, 95); fill-opacity: 1; white-space: pre;">DA</text><g class="layers" style="opacity: 0.5;"><g class="legendfill"/><g class="legendlines"><path class="js-line" d="M5,0h30" style="fill: none; stroke: rgb(255, 0, 0); stroke-opacity: 1; stroke-width: 4px;"/></g><g class="legendsymbols"><g class="legendpoints"/></g></g><rect class="legendtoggle" x="0" y="-27.5" width="191.171875" height="55" style="fill: rgb(0, 0, 0); fill-opacity: 0;"/></g><g class="traces" transform="translate(0,87.5)" style="opacity: 1;"><text class="legendtext" text-anchor="start" x="40" y="15.6" style="font-family: 'Open Sans', verdana, arial, sans-serif; font-size: 40px; fill: rgb(42, 63, 95); fill-opacity: 1; white-space: pre;">No DA</text><g class="layers" style="opacity: 0.5;"><g class="legendfill"/><g class="legendlines"><path class="js-line" d="M5,0h30" style="fill: none; stroke: rgb(0, 0, 0); stroke-opacity: 1; stroke-width: 4px;"/></g><g class="legendsymbols"><g class="legendpoints"/></g></g><rect class="legendtoggle" x="0" y="-27.5" width="191.171875" height="55" style="fill: rgb(0, 0, 0); fill-opacity: 0;"/></g><g class="traces" transform="translate(0,142.5)" style="opacity: 1;"><text class="legendtext" text-anchor="start" x="40" y="15.6" style="font-family: 'Open Sans', verdana, arial, sans-serif; font-size: 40px; fill: rgb(42, 63, 95); fill-opacity: 1; white-space: pre;">DA conc</text><g class="layers"><g class="legendfill"><path class="js-fill" d="M5,-2h30v6h-30z" style="stroke-width: 0; fill: rgb(255, 0, 0); fill-opacity: 0.2;"/></g><g class="legendlines"><path class="js-line" d="M5,-2h30" style="fill: none; stroke: rgb(255, 0, 0); stroke-opacity: 0.2; stroke-width: 0px;"/></g><g class="legendsymbols"><g class="legendpoints"/></g></g><rect class="legendtoggle" x="0" y="-27.5" width="191.171875" height="55" style="fill: rgb(0, 0, 0); fill-opacity: 0;"/></g></g></g><rect class="scrollbar" rx="20" ry="3" width="0" height="0" x="0" y="0" style="fill: rgb(128, 139, 164); fill-opacity: 1;"/></g><g class="g-gtitle"/><g class="g-xtitle"><text class="xtitle" x="564" y="787.5" text-anchor="middle" style="opacity: 1; font-family: 'Open Sans', verdana, arial, sans-serif; font-size: 50px; fill: rgb(42, 63, 95); fill-opacity: 1; white-space: pre;">Time (s)</text></g><g class="g-ytitle" transform="translate(15.109375,0)"><text class="ytitle" transform="rotate(-90,29.890625,394.5)" x="29.890625" y="394.5" text-anchor="middle" style="opacity: 1; font-family: 'Open Sans', verdana, arial, sans-serif; font-size: 50px; fill: rgb(42, 63, 95); fill-opacity: 1; white-space: pre;">Voltage (mV)</text></g><g class="g-y2title"><text class="y2title" transform="rotate(-90,1125.609375,394.5)" x="1125.609375" y="394.5" text-anchor="middle" style="opacity: 1; font-family: 'Open Sans', verdana, arial, sans-serif; font-size: 50px; fill: rgb(42, 63, 95); fill-opacity: 1; white-space: pre;">DA Conc (nM)</text></g></g></svg>