<svg class="main-svg" xmlns="http://www.w3.org/2000/svg" xmlns:xlink="http://www.w3.org/1999/xlink" width="800" height="700" style="" viewBox="0 0 800 700"><rect x="0" y="0" width="800" height="700" style="fill: rgb(255, 255, 255); fill-opacity: 1;"/><defs id="defs-8808f8"><g class="clips"><clipPath id="clip8808f8xyplot" class="plotclip"><rect width="463" height="436"/></clipPath><clipPath class="axesclip" id="clip8808f8x"><rect x="112" y="0" width="463" height="700"/></clipPath><clipPath class="axesclip" id="clip8808f8y"><rect x="0" y="160" width="800" height="436"/></clipPath><clipPath class="axesclip" id="clip8808f8xy"><rect x="112" y="160" width="463" height="436"/></clipPath></g><g class="gradients"/><g class="patterns"/></defs><g class="bglayer"/><g class="layer-below"><g class="imagelayer"/><g class="shapelayer"/></g><g class="cartesianlayer"><g class="subplot xy"><g class="layer-subplot"><g class="shapelayer"/><g class="imagelayer"/></g><g class="minor-gridlayer"><g class="x"/><g class="y"/></g><g class="gridlayer"><g class="x"><path class="xgrid crisp" transform="translate(217.23000000000002,0)" d="M0,160v436" style="stroke: rgb(255, 255, 255); stroke-opacity: 1; stroke-width: 1px;"/><path class="xgrid crisp" transform="translate(322.45,0)" d="M0,160v436" style="stroke: rgb(255, 255, 255); stroke-opacity: 1; stroke-width: 1px;"/><path class="xgrid crisp" transform="translate(427.68,0)" d="M0,160v436" style="stroke: rgb(255, 255, 255); stroke-opacity: 1; stroke-width: 1px;"/><path class="xgrid crisp" transform="translate(532.9100000000001,0)" d="M0,160v436" style="stroke: rgb(255, 255, 255); stroke-opacity: 1; stroke-width: 1px;"/></g><g class="y"><path class="ygrid crisp" transform="translate(0,495.72)" d="M112,0h463" style="stroke: rgb(255, 255, 255); stroke-opacity: 1; stroke-width: 1px;"/><path class="ygrid crisp" transform="translate(0,417.24)" d="M112,0h463" style="stroke: rgb(255, 255, 255); stroke-opacity: 1; stroke-width: 1px;"/><path class="ygrid crisp" transform="translate(0,338.76)" d="M112,0h463" style="stroke: rgb(255, 255, 255); stroke-opacity: 1; stroke-width: 1px;"/><path class="ygrid crisp" transform="translate(0,260.28)" d="M112,0h463" style="stroke: rgb(255, 255, 255); stroke-opacity: 1; stroke-width: 1px;"/><path class="ygrid crisp" transform="translate(0,181.8)" d="M112,0h463" style="stroke: rgb(255, 255, 255); stroke-opacity: 1; stroke-width: 1px;"/></g></g><g class="zerolinelayer"><path class="xzl zl crisp" transform="translate(112,0)" d="M0,160v436" style="stroke: rgb(255, 255, 255); stroke-opacity: 1; stroke-width: 2px;"/><path class="yzl zl crisp" transform="translate(0,574.2)" d="M112,0h463" style="stroke: rgb(255, 255, 255); stroke-opacity: 1; stroke-width: 2px;"/></g><g class="layer-between"><g class="shapelayer"/><g class="imagelayer"/></g><path class="xlines-below"/><path class="ylines-below"/><g class="overlines-below"/><g class="xaxislayer-below"/><g class="yaxislayer-below"/><g class="overaxes-below"/><g class="overplot"><g class="xy" transform="translate(112,160)" clip-path="url(#clip8808f8xyplot)"><g class="scatterlayer mlayer"><g class="trace scatter traceb6f998" style="stroke-miterlimit: 2; opacity: 1;"><g class="fills"/><g class="errorbars"/><g class="lines"><path class="js-line" d="M0,385.31L1.71,410.36L1.72,410.39L3.35,413.65L3.35,413.65L3.36,413.65L6.01,414.18L6.01,414.18L6.02,414.18L42.51,413.23L42.51,413.21L42.52,413.19L44.43,397.21L44.43,397.16L64.32,189.41L64.33,189.38L68.03,175.92L68.04,175.9L86.39,118.19L86.4,118.18L127.01,39.16L127.01,39.16L127.02,39.15L131.24,35.83L131.25,35.83L149.59,24.1L149.59,24.1L149.6,24.1L174.81,22.58L174.81,22.58L174.82,22.58L191.75,22.68L191.75,22.68L191.76,22.69L213.18,34.02L213.19,34.01L233.99,34.33L233.99,34.33L234,34.34L254.32,46.76L254.32,46.77L283.59,68.64L283.59,68.65L345.78,116.52L345.78,116.53L378.63,142.4L378.63,142.41L405.37,163.7L405.37,163.71L437.32,189.39L437.32,189.4L458.32,206.39L458.32,206.4L463,210.2" style="vector-effect: none; fill: none; stroke: rgb(102, 194, 165); stroke-opacity: 1; stroke-width: 4px; opacity: 1;"/></g><g class="points"/><g class="text"/></g><g class="trace scatter trace7b158e" style="stroke-miterlimit: 2; opacity: 1;"><g class="fills"/><g class="errorbars"/><g class="lines"><path class="js-line" d="M0,392.64L140.12,391.67L140.12,391.67L140.13,391.66L156.78,390.66L156.78,390.65L173.59,388.82L173.59,388.81L186.32,386.54L186.32,386.54L186.33,386.53L199.99,382.79L199.99,382.79L200,382.78L210.75,378.52L210.75,378.51L220.59,373.29L220.59,373.28L229.75,367.05L229.75,367.05L229.76,367.04L240.74,357.57L240.74,357.56L250.71,346.9L250.71,346.89L258.82,336.74L258.82,336.73L271.95,317.58L271.95,317.57L285.18,295.3L285.18,295.29L306.66,254.6L306.66,254.59L316.91,234.09L316.91,234.08L362.25,145.34L362.26,145.33L383.3,109.49L383.3,109.49L383.31,109.48L397.38,88.36L397.38,88.36L397.39,88.35L413.68,66.98L413.69,66.98L427.92,51.04L427.92,51.04L427.93,51.03L440.73,38.78L440.73,38.78L440.74,38.78L452.51,29.15L452.51,29.15L452.52,29.15L463,21.8" style="vector-effect: none; fill: none; stroke: rgb(252, 141, 98); stroke-opacity: 1; stroke-width: 4px; opacity: 1;"/></g><g class="points"/><g class="text"/></g><g class="trace scatter traced70f78" style="stroke-miterlimit: 2; opacity: 1;"><g class="fills"/><g class="errorbars"/><g class="lines"><path class="js-line" d="M0,406.78L67.09,406.55L67.09,406.55L67.1,406.54L89.48,403.31L89.49,403.3L105.68,399.87L105.69,399.86L126.93,393.54L126.93,393.53L143.2,386.79L143.2,386.79L143.21,386.78L159.09,378.17L159.09,378.16L169.27,371.37L169.27,371.36L182.21,361.01L182.21,361.01L182.22,361L200.27,342.9L200.28,342.89L211.79,329.1L211.79,329.09L225.63,310.48L225.63,310.47L238.94,291.07L238.94,291.06L248.78,276.28L248.78,276.27L297.98,206.9L297.99,206.9L315.85,184.74L315.86,184.74L327.64,170.69L327.65,170.69L350.95,143.58L350.96,143.58L370.91,120.61L370.91,120.61L370.92,120.6L389.83,98.9L389.84,98.9L406.31,80.2L406.32,80.2L434.4,49.61L434.41,49.61L454.11,29.95L454.12,29.95L463,21.8" style="vector-effect: none; fill: none; stroke: rgb(141, 160, 203); stroke-opacity: 1; stroke-width: 4px; opacity: 1;"/></g><g class="points"/><g class="text"/></g></g></g></g><g class="zerolinelayer-above"/><path class="xlines-above crisp" d="M0,0" style="fill: none;"/><path class="ylines-above crisp" d="M0,0" style="fill: none;"/><g class="overlines-above"/><g class="xaxislayer-above"><g class="xtick"><text text-anchor="middle" x="0" y="637" transform="translate(112,0)" style="font-family: 'Open Sans', verdana, arial, sans-serif; font-size: 40px; fill: rgb(42, 63, 95); fill-opacity: 1; white-space: pre;">0</text></g><g class="xtick"><text text-anchor="middle" x="0" y="637" style="font-family: 'Open Sans', verdana, arial, sans-serif; font-size: 40px; fill: rgb(42, 63, 95); fill-opacity: 1; white-space: pre;" transform="translate(217.23000000000002,0)">0.5</text></g><g class="xtick"><text text-anchor="middle" x="0" y="637" style="font-family: 'Open Sans', verdana, arial, sans-serif; font-size: 40px; fill: rgb(42, 63, 95); fill-opacity: 1; white-space: pre;" transform="translate(322.45,0)">1</text></g><g class="xtick"><text text-anchor="middle" x="0" y="637" style="font-family: 'Open Sans', verdana, arial, sans-serif; font-size: 40px; fill: rgb(42, 63, 95); fill-opacity: 1; white-space: pre;" transform="translate(427.68,0)">1.5</text></g><g class="xtick"><text text-anchor="middle" x="0" y="637" style="font-family: 'Open Sans', verdana, arial, sans-serif; font-size: 40px; fill: rgb(42, 63, 95); fill-opacity: 1; white-space: pre;" transform="translate(532.9100000000001,0)">2</text></g></g><g class="yaxislayer-above"><g class="ytick"><text text-anchor="end" x="111" y="14" transform="translate(0,574.2)" style="font-family: 'Open Sans', verdana, arial, sans-serif; font-size: 40px; fill: rgb(42, 63, 95); fill-opacity: 1; white-space: pre;">0</text></g><g class="ytick"><text text-anchor="end" x="111" y="14" style="font-family: 'Open Sans', verdana, arial, sans-serif; font-size: 40px; fill: rgb(42, 63, 95); fill-opacity: 1; white-space: pre;" transform="translate(0,495.72)">0.2</text></g><g class="ytick"><text text-anchor="end" x="111" y="14" style="font-family: 'Open Sans', verdana, arial, sans-serif; font-size: 40px; fill: rgb(42, 63, 95); fill-opacity: 1; white-space: pre;" transform="translate(0,417.24)">0.4</text></g><g class="ytick"><text text-anchor="end" x="111" y="14" style="font-family: 'Open Sans', verdana, arial, sans-serif; font-size: 40px; fill: rgb(42, 63, 95); fill-opacity: 1; white-space: pre;" transform="translate(0,338.76)">0.6</text></g><g class="ytick"><text text-anchor="end" x="111" y="14" style="font-family: 'Open Sans', verdana, arial, sans-serif; font-size: 40px; fill: rgb(42, 63, 95); fill-opacity: 1; white-space: pre;" transform="translate(0,260.28)">0.8</text></g><g class="ytick"><text text-anchor="end" x="111" y="14" style="font-family: 'Open Sans', verdana, arial, sans-serif; font-size: 40px; fill: rgb(42, 63, 95); fill-opacity: 1; white-space: pre;" transform="translate(0,181.8)">1</text></g></g><g class="overaxes-above"/></g></g><g class="polarlayer"/><g class="smithlayer"/><g class="ternarylayer"/><g class="geolayer"/><g class="funnelarealayer"/><g class="pielayer"/><g class="iciclelayer"/><g class="treemaplayer"/><g class="sunburstlayer"/><g class="glimages"/><defs id="topdefs-8808f8"><g class="clips"/><clipPath id="legend8808f8"><rect width="204" height="175" x="0" y="0"/></clipPath></defs><g class="layer-above"><g class="imagelayer"/><g class="shapelayer"/></g><g class="infolayer"><g class="legend" pointer-events="all" transform="translate(584.26,160)"><rect class="bg" shape-rendering="crispEdges" style="stroke: rgb(68, 68, 68); stroke-opacity: 1; fill: rgb(255, 255, 255); fill-opacity: 1; stroke-width: 0px;" width="204" height="175" x="0" y="0"/><g class="scrollbox" transform="" clip-path="url(#legend8808f8)"><g class="groups"><g class="traces" transform="translate(0,32.5)" style="opacity: 1;"><text class="legendtext" text-anchor="start" x="40" y="15.6" style="font-family: 'Open Sans', verdana, arial, sans-serif; font-size: 40px; fill: rgb(42, 63, 95); fill-opacity: 1; white-space: pre;">D1R_DA</text><g class="layers" style="opacity: 1;"><g class="legendfill"/><g class="legendlines"><path class="js-line" d="M5,0h30" style="fill: none; stroke: rgb(102, 194, 165); stroke-opacity: 1; stroke-width: 4px;"/></g><g class="legendsymbols"><g class="legendpoints"/></g></g><rect class="legendtoggle" x="0" y="-27.5" width="198.15234375" height="55" style="fill: rgb(0, 0, 0); fill-opacity: 0;"/></g><g class="traces" transform="translate(0,87.5)" style="opacity: 1;"><text class="legendtext" text-anchor="start" x="40" y="15.6" style="font-family: 'Open Sans', verdana, arial, sans-serif; font-size: 40px; fill: rgb(42, 63, 95); fill-opacity: 1; white-space: pre;">PKAc</text><g class="layers" style="opacity: 1;"><g class="legendfill"/><g class="legendlines"><path class="js-line" d="M5,0h30" style="fill: none; stroke: rgb(252, 141, 98); stroke-opacity: 1; stroke-width: 4px;"/></g><g class="legendsymbols"><g class="legendpoints"/></g></g><rect class="legendtoggle" x="0" y="-27.5" width="198.15234375" height="55" style="fill: rgb(0, 0, 0); fill-opacity: 0;"/></g><g class="traces" transform="translate(0,142.5)" style="opacity: 1;"><text class="legendtext" text-anchor="start" x="40" y="15.6" style="font-family: 'Open Sans', verdana, arial, sans-serif; font-size: 40px; fill: rgb(42, 63, 95); fill-opacity: 1; white-space: pre;">cAMP</text><g class="layers" style="opacity: 1;"><g class="legendfill"/><g class="legendlines"><path class="js-line" d="M5,0h30" style="fill: none; stroke: rgb(141, 160, 203); stroke-opacity: 1; stroke-width: 4px;"/></g><g class="legendsymbols"><g class="legendpoints"/></g></g><rect class="legendtoggle" x="0" y="-27.5" width="198.15234375" height="55" style="fill: rgb(0, 0, 0); fill-opacity: 0;"/></g></g></g><rect class="scrollbar" rx="20" ry="3" width="0" height="0" style="fill: rgb(128, 139, 164); fill-opacity: 1;" x="0" y="0"/></g><g class="g-gtitle"><text class="gtitle" x="400" y="70" text-anchor="middle" dy="0.7em" style="opacity: 1; font-family: 'Open Sans', verdana, arial, sans-serif; font-size: 60px; fill: rgb(42, 63, 95); fill-opacity: 1; white-space: pre;">dSPN, selected species</text></g><g class="g-xtitle"><text class="xtitle" x="343.5" y="687.5" text-anchor="middle" style="opacity: 1; font-family: 'Open Sans', verdana, arial, sans-serif; font-size: 40px; fill: rgb(42, 63, 95); fill-opacity: 1; white-space: pre;">Time (s)</text></g><g class="g-ytitle" transform="translate(9.109375,0)"><text class="ytitle" transform="rotate(-90,26.890625,378)" x="26.890625" y="378" text-anchor="middle" style="opacity: 1; font-family: 'Open Sans', verdana, arial, sans-serif; font-size: 40px; fill: rgb(42, 63, 95); fill-opacity: 1; white-space: pre;">Concentration (normalised)</text></g></g></svg>