<svg class="main-svg" xmlns="http://www.w3.org/2000/svg" xmlns:xlink="http://www.w3.org/1999/xlink" width="800" height="700" style="" viewBox="0 0 800 700"><rect x="0" y="0" width="800" height="700" style="fill: rgb(255, 255, 255); fill-opacity: 1;"/><defs id="defs-13b96a"><g class="clips"><clipPath id="clip13b96axyplot" class="plotclip"><rect width="572" height="440"/></clipPath><clipPath class="axesclip" id="clip13b96ax"><rect x="100" y="0" width="572" height="700"/></clipPath><clipPath class="axesclip" id="clip13b96ay"><rect x="0" y="160" width="800" height="440"/></clipPath><clipPath class="axesclip" id="clip13b96axy"><rect x="100" y="160" width="572" height="440"/></clipPath></g><g class="gradients"/><g class="patterns"/></defs><g class="bglayer"/><g class="layer-below"><g class="imagelayer"/><g class="shapelayer"/></g><g class="cartesianlayer"><g class="subplot xy"><g class="layer-subplot"><g class="shapelayer"/><g class="imagelayer"/></g><g class="minor-gridlayer"><g class="x"/><g class="y"/></g><g class="gridlayer"><g class="x"><path class="xgrid crisp" transform="translate(230,0)" d="M0,160v440" style="stroke: rgb(255, 255, 255); stroke-opacity: 1; stroke-width: 1px;"/><path class="xgrid crisp" transform="translate(360,0)" d="M0,160v440" style="stroke: rgb(255, 255, 255); stroke-opacity: 1; stroke-width: 1px;"/><path class="xgrid crisp" transform="translate(490,0)" d="M0,160v440" style="stroke: rgb(255, 255, 255); stroke-opacity: 1; stroke-width: 1px;"/><path class="xgrid crisp" transform="translate(620,0)" d="M0,160v440" style="stroke: rgb(255, 255, 255); stroke-opacity: 1; stroke-width: 1px;"/></g><g class="y"><path class="ygrid crisp" transform="translate(0,498.8)" d="M100,0h572" style="stroke: rgb(255, 255, 255); stroke-opacity: 1; stroke-width: 1px;"/><path class="ygrid crisp" transform="translate(0,419.6)" d="M100,0h572" style="stroke: rgb(255, 255, 255); stroke-opacity: 1; stroke-width: 1px;"/><path class="ygrid crisp" transform="translate(0,340.4)" d="M100,0h572" style="stroke: rgb(255, 255, 255); stroke-opacity: 1; stroke-width: 1px;"/><path class="ygrid crisp" transform="translate(0,261.2)" d="M100,0h572" style="stroke: rgb(255, 255, 255); stroke-opacity: 1; stroke-width: 1px;"/><path class="ygrid crisp" transform="translate(0,182)" d="M100,0h572" style="stroke: rgb(255, 255, 255); stroke-opacity: 1; stroke-width: 1px;"/></g></g><g class="zerolinelayer"><path class="xzl zl crisp" transform="translate(100,0)" d="M0,160v440" style="stroke: rgb(255, 255, 255); stroke-opacity: 1; stroke-width: 2px;"/><path class="yzl zl crisp" transform="translate(0,578)" d="M100,0h572" style="stroke: rgb(255, 255, 255); stroke-opacity: 1; stroke-width: 2px;"/></g><g class="layer-between"><g class="shapelayer"/><g class="imagelayer"/></g><path class="xlines-below"/><path class="ylines-below"/><g class="overlines-below"/><g class="xaxislayer-below"/><g class="yaxislayer-below"/><g class="overaxes-below"/><g class="overplot"><g class="xy" transform="translate(100,160)" clip-path="url(#clip13b96axyplot)"><g class="scatterlayer mlayer"><g class="trace scatter trace769c20" style="stroke-miterlimit: 2; opacity: 1;"><g class="fills"/><g class="errorbars"/><g class="lines"><path class="js-line" d="M0,403.7L1.88,415.64L1.89,415.65L3.94,417.67L3.95,417.67L8.51,418L8.51,418L8.52,418L52.55,417.03L52.55,417.01L52.56,416.99L54.24,407.5L54.24,407.46L79.97,217.49L79.98,217.46L85.35,195.7L85.36,195.68L99.95,138.7L99.96,138.68L107.03,114.48L107.04,114.47L114.03,97.52L114.04,97.5L123.33,75.17L123.34,75.15L132.78,55.17L132.78,55.17L132.79,55.16L145.52,42.13L145.52,42.13L145.53,42.12L157.97,30.25L157.98,30.25L171.46,25.65L171.46,25.65L171.47,25.65L184.15,22.04L184.16,22.04L209.53,25.57L209.53,25.58L223.48,30.8L223.48,30.8L223.49,30.81L238.13,37.26L238.13,37.26L238.14,37.27L271.25,58.66L271.25,58.67L289.97,71.96L289.97,71.97L317.33,95.86L317.34,95.86L374.5,128.75L374.5,128.76L403.57,146.04L403.57,146.05L426.8,160.09L426.8,160.1L447.04,172.48L447.04,172.49L465.32,183.78L465.32,183.79L528.87,223.78L528.87,223.79L567.33,248.45L567.33,248.46L572,251.47" style="vector-effect: none; fill: none; stroke: rgb(178, 24, 43); stroke-opacity: 1; stroke-width: 4px; opacity: 1;"/></g><g class="points"/><g class="text"/></g><g class="trace scatter trace14ccdd" style="stroke-miterlimit: 2; opacity: 1;"><g class="fills"/><g class="errorbars"/><g class="lines"><path class="js-line" d="M0,399.73L144.74,398.75L144.74,398.74L168.01,396.59L168.01,396.58L183.9,393.2L183.9,393.2L183.91,393.19L193.52,389.76L193.52,389.76L193.53,389.75L203.79,384.36L203.79,384.35L212.78,377.7L212.78,377.69L220.8,369.89L220.81,369.88L229.77,358.83L229.77,358.82L237.87,346.6L237.87,346.58L246.1,332.03L246.1,332.02L255.35,313.33L255.35,313.31L264.52,292.75L264.52,292.73L276.46,263.79L276.46,263.77L292.32,223.56L292.32,223.54L329.88,134.8L329.89,134.79L342.55,110.38L342.56,110.37L350,97.72L350.01,97.71L361.72,80.45L361.73,80.44L373.98,65.75L373.99,65.75L385.56,54.81L385.57,54.81L395.63,47.33L395.64,47.33L405.65,41.48L405.65,41.48L405.66,41.48L416.35,36.68L416.36,36.68L428.5,32.65L428.51,32.65L443.54,29.18L443.55,29.18L462.66,26.37L462.66,26.37L462.67,26.37L480.21,24.75L480.21,24.75L480.22,24.75L503.56,23.42L503.56,23.42L503.57,23.42L546.91,22.25L546.92,22.25L572,22" style="vector-effect: none; fill: none; stroke: rgb(51, 51, 51); stroke-opacity: 1; stroke-width: 4px; opacity: 1;"/></g><g class="points"/><g class="text"/></g><g class="trace scatter trace66db40" style="stroke-miterlimit: 2; opacity: 1;"><g class="fills"/><g class="errorbars"/><g class="lines"><path class="js-line" d="M0,415.18L86.01,414.46L86.01,414.45L107.57,412.38L107.57,412.38L107.58,412.37L125.94,409.54L125.94,409.54L125.95,409.53L139.94,406.43L139.94,406.43L139.95,406.42L156.6,401.24L156.6,401.24L156.61,401.23L171.7,394.62L171.7,394.62L171.71,394.61L184.94,386.89L184.94,386.88L197.87,377.34L197.87,377.33L213.02,363.75L213.02,363.74L229.9,346.63L229.9,346.62L242.63,333.38L242.63,333.37L265.1,310.76L265.1,310.76L265.11,310.75L300.92,275.96L300.92,275.96L300.93,275.95L332.75,242.74L332.75,242.73L352.74,219.86L352.74,219.85L374.99,192.92L374.99,192.91L429.06,127.87L429.07,127.86L440.83,114.97L440.84,114.96L463.48,92.16L463.48,92.16L463.49,92.15L487.63,70.96L487.64,70.96L508.49,55.29L508.5,55.29L521.88,46.5L521.89,46.5L538.55,36.9L538.56,36.9L555.38,28.69L555.39,28.69L568.12,23.44L568.13,23.44L572,22" style="vector-effect: none; fill: none; stroke: rgb(239, 138, 98); stroke-opacity: 1; stroke-width: 4px; opacity: 1;"/></g><g class="points"/><g class="text"/></g></g></g></g><g class="zerolinelayer-above"/><path class="xlines-above crisp" d="M0,0" style="fill: none;"/><path class="ylines-above crisp" d="M0,0" style="fill: none;"/><g class="overlines-above"/><g class="xaxislayer-above"><g class="xtick"><text text-anchor="middle" x="0" y="616" transform="translate(100,0)" style="font-family: 'Open Sans', verdana, arial, sans-serif; font-size: 15px; fill: rgb(42, 63, 95); fill-opacity: 1; white-space: pre;">0</text></g><g class="xtick"><text text-anchor="middle" x="0" y="616" style="font-family: 'Open Sans', verdana, arial, sans-serif; font-size: 15px; fill: rgb(42, 63, 95); fill-opacity: 1; white-space: pre;" transform="translate(230,0)">0.5</text></g><g class="xtick"><text text-anchor="middle" x="0" y="616" style="font-family: 'Open Sans', verdana, arial, sans-serif; font-size: 15px; fill: rgb(42, 63, 95); fill-opacity: 1; white-space: pre;" transform="translate(360,0)">1</text></g><g class="xtick"><text text-anchor="middle" x="0" y="616" style="font-family: 'Open Sans', verdana, arial, sans-serif; font-size: 15px; fill: rgb(42, 63, 95); fill-opacity: 1; white-space: pre;" transform="translate(490,0)">1.5</text></g><g class="xtick"><text text-anchor="middle" x="0" y="616" style="font-family: 'Open Sans', verdana, arial, sans-serif; font-size: 15px; fill: rgb(42, 63, 95); fill-opacity: 1; white-space: pre;" transform="translate(620,0)">2</text></g></g><g class="yaxislayer-above"><g class="ytick"><text text-anchor="end" x="99" y="5.25" transform="translate(0,578)" style="font-family: 'Open Sans', verdana, arial, sans-serif; font-size: 15px; fill: rgb(42, 63, 95); fill-opacity: 1; white-space: pre;">0</text></g><g class="ytick"><text text-anchor="end" x="99" y="5.25" style="font-family: 'Open Sans', verdana, arial, sans-serif; font-size: 15px; fill: rgb(42, 63, 95); fill-opacity: 1; white-space: pre;" transform="translate(0,498.8)">0.2</text></g><g class="ytick"><text text-anchor="end" x="99" y="5.25" style="font-family: 'Open Sans', verdana, arial, sans-serif; font-size: 15px; fill: rgb(42, 63, 95); fill-opacity: 1; white-space: pre;" transform="translate(0,419.6)">0.4</text></g><g class="ytick"><text text-anchor="end" x="99" y="5.25" style="font-family: 'Open Sans', verdana, arial, sans-serif; font-size: 15px; fill: rgb(42, 63, 95); fill-opacity: 1; white-space: pre;" transform="translate(0,340.4)">0.6</text></g><g class="ytick"><text text-anchor="end" x="99" y="5.25" style="font-family: 'Open Sans', verdana, arial, sans-serif; font-size: 15px; fill: rgb(42, 63, 95); fill-opacity: 1; white-space: pre;" transform="translate(0,261.2)">0.8</text></g><g class="ytick"><text text-anchor="end" x="99" y="5.25" style="font-family: 'Open Sans', verdana, arial, sans-serif; font-size: 15px; fill: rgb(42, 63, 95); fill-opacity: 1; white-space: pre;" transform="translate(0,182)">1</text></g></g><g class="overaxes-above"/></g></g><g class="polarlayer"/><g class="smithlayer"/><g class="ternarylayer"/><g class="geolayer"/><g class="funnelarealayer"/><g class="pielayer"/><g class="iciclelayer"/><g class="treemaplayer"/><g class="sunburstlayer"/><g class="glimages"/><defs id="topdefs-13b96a"><g class="clips"/><clipPath id="legend13b96a"><rect width="105" height="78" x="0" y="0"/></clipPath></defs><g class="layer-above"><g class="imagelayer"/><g class="shapelayer"/></g><g class="infolayer"><g class="legend" pointer-events="all" transform="translate(683.44,160)"><rect class="bg" shape-rendering="crispEdges" style="stroke: rgb(68, 68, 68); stroke-opacity: 1; fill: rgb(255, 255, 255); fill-opacity: 1; stroke-width: 0px;" width="105" height="78" x="0" y="0"/><g class="scrollbox" transform="" clip-path="url(#legend13b96a)"><g class="groups"><g class="traces" transform="translate(0,16.25)" style="opacity: 1;"><text class="legendtext" text-anchor="start" x="40" y="5.85" style="font-family: 'Open Sans', verdana, arial, sans-serif; font-size: 15px; fill: rgb(42, 63, 95); fill-opacity: 1; white-space: pre;">D1R_DA</text><g class="layers" style="opacity: 1;"><g class="legendfill"/><g class="legendlines"><path class="js-line" d="M5,0h30" style="fill: none; stroke: rgb(178, 24, 43); stroke-opacity: 1; stroke-width: 4px;"/></g><g class="legendsymbols"><g class="legendpoints"/></g></g><rect class="legendtoggle" x="0" y="-11.25" width="99.1875" height="22.5" style="fill: rgb(0, 0, 0); fill-opacity: 0;"/></g><g class="traces" transform="translate(0,38.75)" style="opacity: 1;"><text class="legendtext" text-anchor="start" x="40" y="5.85" style="font-family: 'Open Sans', verdana, arial, sans-serif; font-size: 15px; fill: rgb(42, 63, 95); fill-opacity: 1; white-space: pre;">PKAc</text><g class="layers" style="opacity: 1;"><g class="legendfill"/><g class="legendlines"><path class="js-line" d="M5,0h30" style="fill: none; stroke: rgb(51, 51, 51); stroke-opacity: 1; stroke-width: 4px;"/></g><g class="legendsymbols"><g class="legendpoints"/></g></g><rect class="legendtoggle" x="0" y="-11.25" width="99.1875" height="22.5" style="fill: rgb(0, 0, 0); fill-opacity: 0;"/></g><g class="traces" transform="translate(0,61.25)" style="opacity: 1;"><text class="legendtext" text-anchor="start" x="40" y="5.85" style="font-family: 'Open Sans', verdana, arial, sans-serif; font-size: 15px; fill: rgb(42, 63, 95); fill-opacity: 1; white-space: pre;">cAMP</text><g class="layers" style="opacity: 1;"><g class="legendfill"/><g class="legendlines"><path class="js-line" d="M5,0h30" style="fill: none; stroke: rgb(239, 138, 98); stroke-opacity: 1; stroke-width: 4px;"/></g><g class="legendsymbols"><g class="legendpoints"/></g></g><rect class="legendtoggle" x="0" y="-11.25" width="99.1875" height="22.5" style="fill: rgb(0, 0, 0); fill-opacity: 0;"/></g></g></g><rect class="scrollbar" rx="20" ry="3" width="0" height="0" style="fill: rgb(128, 139, 164); fill-opacity: 1;" x="0" y="0"/></g><g class="g-gtitle"><text class="gtitle" x="400" y="70" text-anchor="middle" dy="0.7em" style="opacity: 1; font-family: 'Open Sans', verdana, arial, sans-serif; font-size: 20px; fill: rgb(42, 63, 95); fill-opacity: 1; white-space: pre;">dSPN, selected species</text></g><g class="g-xtitle"><text class="xtitle" x="386" y="644" text-anchor="middle" style="opacity: 1; font-family: 'Open Sans', verdana, arial, sans-serif; font-size: 15px; fill: rgb(42, 63, 95); fill-opacity: 1; white-space: pre;">Time (s)</text></g><g class="g-ytitle"><text class="ytitle" transform="rotate(-90,58.390625,380)" x="58.390625" y="380" text-anchor="middle" style="opacity: 1; font-family: 'Open Sans', verdana, arial, sans-serif; font-size: 15px; fill: rgb(42, 63, 95); fill-opacity: 1; white-space: pre;">Concentration (normalised)</text></g></g></svg>