<svg class="main-svg" xmlns="http://www.w3.org/2000/svg" xmlns:xlink="http://www.w3.org/1999/xlink" width="800" height="700" style="" viewBox="0 0 800 700"><rect x="0" y="0" width="800" height="700" style="fill: rgb(255, 255, 255); fill-opacity: 1;"/><defs id="defs-d3c53e"><g class="clips"><clipPath id="clipd3c53exyplot" class="plotclip"><rect width="572" height="440"/></clipPath><clipPath class="axesclip" id="clipd3c53ex"><rect x="100" y="0" width="572" height="700"/></clipPath><clipPath class="axesclip" id="clipd3c53ey"><rect x="0" y="160" width="800" height="440"/></clipPath><clipPath class="axesclip" id="clipd3c53exy"><rect x="100" y="160" width="572" height="440"/></clipPath></g><g class="gradients"/><g class="patterns"/></defs><g class="bglayer"/><g class="layer-below"><g class="imagelayer"/><g class="shapelayer"/></g><g class="cartesianlayer"><g class="subplot xy"><g class="layer-subplot"><g class="shapelayer"/><g class="imagelayer"/></g><g class="minor-gridlayer"><g class="x"/><g class="y"/></g><g class="gridlayer"><g class="x"><path class="xgrid crisp" transform="translate(230,0)" d="M0,160v440" style="stroke: rgb(255, 255, 255); stroke-opacity: 1; stroke-width: 1px;"/><path class="xgrid crisp" transform="translate(360,0)" d="M0,160v440" style="stroke: rgb(255, 255, 255); stroke-opacity: 1; stroke-width: 1px;"/><path class="xgrid crisp" transform="translate(490,0)" d="M0,160v440" style="stroke: rgb(255, 255, 255); stroke-opacity: 1; stroke-width: 1px;"/><path class="xgrid crisp" transform="translate(620,0)" d="M0,160v440" style="stroke: rgb(255, 255, 255); stroke-opacity: 1; stroke-width: 1px;"/></g><g class="y"><path class="ygrid crisp" transform="translate(0,498.8)" d="M100,0h572" style="stroke: rgb(255, 255, 255); stroke-opacity: 1; stroke-width: 1px;"/><path class="ygrid crisp" transform="translate(0,419.6)" d="M100,0h572" style="stroke: rgb(255, 255, 255); stroke-opacity: 1; stroke-width: 1px;"/><path class="ygrid crisp" transform="translate(0,340.4)" d="M100,0h572" style="stroke: rgb(255, 255, 255); stroke-opacity: 1; stroke-width: 1px;"/><path class="ygrid crisp" transform="translate(0,261.2)" d="M100,0h572" style="stroke: rgb(255, 255, 255); stroke-opacity: 1; stroke-width: 1px;"/><path class="ygrid crisp" transform="translate(0,182)" d="M100,0h572" style="stroke: rgb(255, 255, 255); stroke-opacity: 1; stroke-width: 1px;"/></g></g><g class="zerolinelayer"><path class="xzl zl crisp" transform="translate(100,0)" d="M0,160v440" style="stroke: rgb(255, 255, 255); stroke-opacity: 1; stroke-width: 2px;"/><path class="yzl zl crisp" transform="translate(0,578)" d="M100,0h572" style="stroke: rgb(255, 255, 255); stroke-opacity: 1; stroke-width: 2px;"/></g><g class="layer-between"><g class="shapelayer"/><g class="imagelayer"/></g><path class="xlines-below"/><path class="ylines-below"/><g class="overlines-below"/><g class="xaxislayer-below"/><g class="yaxislayer-below"/><g class="overaxes-below"/><g class="overplot"><g class="xy" transform="translate(100,160)" clip-path="url(#clipd3c53exyplot)"><g class="scatterlayer mlayer"><g class="trace scatter trace93c967" style="stroke-miterlimit: 2; opacity: 1;"><g class="fills"/><g class="errorbars"/><g class="lines"><path class="js-line" d="M0,388.84L1.64,411.94L1.65,411.98L3.58,417.05L3.59,417.06L6.22,417.92L6.23,417.92L17.07,418L17.08,418L52.52,417L52.53,416.98L54.27,405.92L54.27,405.87L58.45,369.61L58.45,369.55L65.16,310.43L65.16,310.38L72.77,244.36L72.77,244.3L80.73,186.77L80.74,186.75L86.52,170.95L86.53,170.93L106.43,119.78L106.44,119.77L117.09,102.65L117.1,102.64L156.72,39.71L156.73,39.71L160.58,37.05L160.58,37.05L160.59,37.05L182.85,24.61L182.86,24.61L189.11,24.07L189.12,24.07L236.45,22.7L236.46,22.7L256.01,32.01L256.02,32.02L262.87,34.33L262.87,34.33L262.88,34.33L289.05,34.63L289.06,34.64L323.52,52.83L323.52,52.84L344.01,65.36L344.01,65.37L362.28,76.66L362.28,76.66L362.29,76.67L423.35,115.14L423.35,115.15L460.71,139.14L460.71,139.15L491.3,159L491.3,159.01L572,212.13" style="vector-effect: none; fill: none; stroke: rgb(178, 24, 43); stroke-opacity: 1; stroke-width: 4px; opacity: 1;"/></g><g class="points"/><g class="text"/></g><g class="trace scatter tracef96ab9" style="stroke-miterlimit: 2; opacity: 1;"><g class="fills"/><g class="errorbars"/><g class="lines"><path class="js-line" d="M0,396.24L172.92,395.27L172.93,395.26L193.44,394.26L193.45,394.25L216.9,392.09L216.9,392.08L233.94,389.38L233.95,389.37L252.93,384.57L252.93,384.57L252.94,384.56L266.84,379.36L266.84,379.35L279.88,372.79L279.88,372.78L292.19,364.81L292.19,364.8L304.53,354.88L304.53,354.87L313.92,345.96L313.92,345.95L323.52,335.63L323.52,335.62L334.39,322.52L334.39,322.51L348.08,304.09L348.08,304.08L358.74,288.5L358.74,288.49L392.65,234.37L392.65,234.36L410.49,204.96L410.49,204.95L461,127.33L461.01,127.32L479.14,103.36L479.15,103.35L491.68,88.31L491.69,88.3L503.68,75.12L503.69,75.12L519.87,59.23L519.88,59.23L536.05,45.49L536.06,45.49L551.18,34.48L551.19,34.48L565.56,25.55L565.57,25.55L572,22" style="vector-effect: none; fill: none; stroke: rgb(51, 51, 51); stroke-opacity: 1; stroke-width: 4px; opacity: 1;"/></g><g class="points"/><g class="text"/></g><g class="trace scatter tracefcbcfe" style="stroke-miterlimit: 2; opacity: 1;"><g class="fills"/><g class="errorbars"/><g class="lines"><path class="js-line" d="M0,410.52L82.77,410.29L82.78,410.28L100.46,408.4L100.46,408.39L120.72,405.37L120.72,405.37L120.73,405.36L140.64,401.37L140.65,401.36L157.18,397.04L157.18,397.04L157.19,397.03L179.58,389.29L179.58,389.28L193.91,382.94L193.91,382.94L193.92,382.93L213.97,371.82L213.97,371.81L228.92,361.52L228.92,361.51L245.23,348.04L245.23,348.04L245.24,348.03L267.2,326.24L267.2,326.24L267.21,326.23L287.53,303L287.53,302.99L307.11,279.11L307.11,279.1L346.07,232.72L346.08,232.72L370.29,206.55L370.3,206.55L393.01,183.68L393.02,183.68L407.38,169.75L407.39,169.75L532.67,53.5L532.68,53.5L547.71,40.83L547.72,40.83L572,22" style="vector-effect: none; fill: none; stroke: rgb(239, 138, 98); stroke-opacity: 1; stroke-width: 4px; opacity: 1;"/></g><g class="points"/><g class="text"/></g></g></g></g><g class="zerolinelayer-above"/><path class="xlines-above crisp" d="M0,0" style="fill: none;"/><path class="ylines-above crisp" d="M0,0" style="fill: none;"/><g class="overlines-above"/><g class="xaxislayer-above"><g class="xtick"><text text-anchor="middle" x="0" y="616" transform="translate(100,0)" style="font-family: 'Open Sans', verdana, arial, sans-serif; font-size: 15px; fill: rgb(42, 63, 95); fill-opacity: 1; white-space: pre;">0</text></g><g class="xtick"><text text-anchor="middle" x="0" y="616" style="font-family: 'Open Sans', verdana, arial, sans-serif; font-size: 15px; fill: rgb(42, 63, 95); fill-opacity: 1; white-space: pre;" transform="translate(230,0)">0.5</text></g><g class="xtick"><text text-anchor="middle" x="0" y="616" style="font-family: 'Open Sans', verdana, arial, sans-serif; font-size: 15px; fill: rgb(42, 63, 95); fill-opacity: 1; white-space: pre;" transform="translate(360,0)">1</text></g><g class="xtick"><text text-anchor="middle" x="0" y="616" style="font-family: 'Open Sans', verdana, arial, sans-serif; font-size: 15px; fill: rgb(42, 63, 95); fill-opacity: 1; white-space: pre;" transform="translate(490,0)">1.5</text></g><g class="xtick"><text text-anchor="middle" x="0" y="616" style="font-family: 'Open Sans', verdana, arial, sans-serif; font-size: 15px; fill: rgb(42, 63, 95); fill-opacity: 1; white-space: pre;" transform="translate(620,0)">2</text></g></g><g class="yaxislayer-above"><g class="ytick"><text text-anchor="end" x="99" y="5.25" transform="translate(0,578)" style="font-family: 'Open Sans', verdana, arial, sans-serif; font-size: 15px; fill: rgb(42, 63, 95); fill-opacity: 1; white-space: pre;">0</text></g><g class="ytick"><text text-anchor="end" x="99" y="5.25" style="font-family: 'Open Sans', verdana, arial, sans-serif; font-size: 15px; fill: rgb(42, 63, 95); fill-opacity: 1; white-space: pre;" transform="translate(0,498.8)">0.2</text></g><g class="ytick"><text text-anchor="end" x="99" y="5.25" style="font-family: 'Open Sans', verdana, arial, sans-serif; font-size: 15px; fill: rgb(42, 63, 95); fill-opacity: 1; white-space: pre;" transform="translate(0,419.6)">0.4</text></g><g class="ytick"><text text-anchor="end" x="99" y="5.25" style="font-family: 'Open Sans', verdana, arial, sans-serif; font-size: 15px; fill: rgb(42, 63, 95); fill-opacity: 1; white-space: pre;" transform="translate(0,340.4)">0.6</text></g><g class="ytick"><text text-anchor="end" x="99" y="5.25" style="font-family: 'Open Sans', verdana, arial, sans-serif; font-size: 15px; fill: rgb(42, 63, 95); fill-opacity: 1; white-space: pre;" transform="translate(0,261.2)">0.8</text></g><g class="ytick"><text text-anchor="end" x="99" y="5.25" style="font-family: 'Open Sans', verdana, arial, sans-serif; font-size: 15px; fill: rgb(42, 63, 95); fill-opacity: 1; white-space: pre;" transform="translate(0,182)">1</text></g></g><g class="overaxes-above"/></g></g><g class="polarlayer"/><g class="smithlayer"/><g class="ternarylayer"/><g class="geolayer"/><g class="funnelarealayer"/><g class="pielayer"/><g class="iciclelayer"/><g class="treemaplayer"/><g class="sunburstlayer"/><g class="glimages"/><defs id="topdefs-d3c53e"><g class="clips"/><clipPath id="legendd3c53e"><rect width="105" height="78" x="0" y="0"/></clipPath></defs><g class="layer-above"><g class="imagelayer"/><g class="shapelayer"/></g><g class="infolayer"><g class="legend" pointer-events="all" transform="translate(683.44,160)"><rect class="bg" shape-rendering="crispEdges" style="stroke: rgb(68, 68, 68); stroke-opacity: 1; fill: rgb(255, 255, 255); fill-opacity: 1; stroke-width: 0px;" width="105" height="78" x="0" y="0"/><g class="scrollbox" transform="" clip-path="url(#legendd3c53e)"><g class="groups"><g class="traces" transform="translate(0,16.25)" style="opacity: 1;"><text class="legendtext" text-anchor="start" x="40" y="5.85" style="font-family: 'Open Sans', verdana, arial, sans-serif; font-size: 15px; fill: rgb(42, 63, 95); fill-opacity: 1; white-space: pre;">D1R_DA</text><g class="layers" style="opacity: 1;"><g class="legendfill"/><g class="legendlines"><path class="js-line" d="M5,0h30" style="fill: none; stroke: rgb(178, 24, 43); stroke-opacity: 1; stroke-width: 4px;"/></g><g class="legendsymbols"><g class="legendpoints"/></g></g><rect class="legendtoggle" x="0" y="-11.25" width="99.1875" height="22.5" style="fill: rgb(0, 0, 0); fill-opacity: 0;"/></g><g class="traces" transform="translate(0,38.75)" style="opacity: 1;"><text class="legendtext" text-anchor="start" x="40" y="5.85" style="font-family: 'Open Sans', verdana, arial, sans-serif; font-size: 15px; fill: rgb(42, 63, 95); fill-opacity: 1; white-space: pre;">PKAc</text><g class="layers" style="opacity: 1;"><g class="legendfill"/><g class="legendlines"><path class="js-line" d="M5,0h30" style="fill: none; stroke: rgb(51, 51, 51); stroke-opacity: 1; stroke-width: 4px;"/></g><g class="legendsymbols"><g class="legendpoints"/></g></g><rect class="legendtoggle" x="0" y="-11.25" width="99.1875" height="22.5" style="fill: rgb(0, 0, 0); fill-opacity: 0;"/></g><g class="traces" transform="translate(0,61.25)" style="opacity: 1;"><text class="legendtext" text-anchor="start" x="40" y="5.85" style="font-family: 'Open Sans', verdana, arial, sans-serif; font-size: 15px; fill: rgb(42, 63, 95); fill-opacity: 1; white-space: pre;">cAMP</text><g class="layers" style="opacity: 1;"><g class="legendfill"/><g class="legendlines"><path class="js-line" d="M5,0h30" style="fill: none; stroke: rgb(239, 138, 98); stroke-opacity: 1; stroke-width: 4px;"/></g><g class="legendsymbols"><g class="legendpoints"/></g></g><rect class="legendtoggle" x="0" y="-11.25" width="99.1875" height="22.5" style="fill: rgb(0, 0, 0); fill-opacity: 0;"/></g></g></g><rect class="scrollbar" rx="20" ry="3" width="0" height="0" style="fill: rgb(128, 139, 164); fill-opacity: 1;" x="0" y="0"/></g><g class="g-gtitle"><text class="gtitle" x="400" y="70" text-anchor="middle" dy="0.7em" style="opacity: 1; font-family: 'Open Sans', verdana, arial, sans-serif; font-size: 20px; fill: rgb(42, 63, 95); fill-opacity: 1; white-space: pre;">dSPN, selected species</text></g><g class="g-xtitle"><text class="xtitle" x="386" y="644" text-anchor="middle" style="opacity: 1; font-family: 'Open Sans', verdana, arial, sans-serif; font-size: 15px; fill: rgb(42, 63, 95); fill-opacity: 1; white-space: pre;">Time (s)</text></g><g class="g-ytitle"><text class="ytitle" transform="rotate(-90,58.390625,380)" x="58.390625" y="380" text-anchor="middle" style="opacity: 1; font-family: 'Open Sans', verdana, arial, sans-serif; font-size: 15px; fill: rgb(42, 63, 95); fill-opacity: 1; white-space: pre;">Concentration (normalised)</text></g></g></svg>