<svg class="main-svg" xmlns="http://www.w3.org/2000/svg" xmlns:xlink="http://www.w3.org/1999/xlink" width="800" height="700" style="" viewBox="0 0 800 700"><rect x="0" y="0" width="800" height="700" style="fill: rgb(255, 255, 255); fill-opacity: 1;"/><defs id="defs-859782"><g class="clips"><clipPath id="clip859782xyplot" class="plotclip"><rect width="572" height="440"/></clipPath><clipPath class="axesclip" id="clip859782x"><rect x="100" y="0" width="572" height="700"/></clipPath><clipPath class="axesclip" id="clip859782y"><rect x="0" y="160" width="800" height="440"/></clipPath><clipPath class="axesclip" id="clip859782xy"><rect x="100" y="160" width="572" height="440"/></clipPath></g><g class="gradients"/><g class="patterns"/></defs><g class="bglayer"/><g class="layer-below"><g class="imagelayer"/><g class="shapelayer"/></g><g class="cartesianlayer"><g class="subplot xy"><g class="layer-subplot"><g class="shapelayer"/><g class="imagelayer"/></g><g class="minor-gridlayer"><g class="x"/><g class="y"/></g><g class="gridlayer"><g class="x"><path class="xgrid crisp" transform="translate(230,0)" d="M0,160v440" style="stroke: rgb(255, 255, 255); stroke-opacity: 1; stroke-width: 1px;"/><path class="xgrid crisp" transform="translate(360,0)" d="M0,160v440" style="stroke: rgb(255, 255, 255); stroke-opacity: 1; stroke-width: 1px;"/><path class="xgrid crisp" transform="translate(490,0)" d="M0,160v440" style="stroke: rgb(255, 255, 255); stroke-opacity: 1; stroke-width: 1px;"/><path class="xgrid crisp" transform="translate(620,0)" d="M0,160v440" style="stroke: rgb(255, 255, 255); stroke-opacity: 1; stroke-width: 1px;"/></g><g class="y"><path class="ygrid crisp" transform="translate(0,530.8399999999999)" d="M100,0h572" style="stroke: rgb(255, 255, 255); stroke-opacity: 1; stroke-width: 1px;"/><path class="ygrid crisp" transform="translate(0,483.67)" d="M100,0h572" style="stroke: rgb(255, 255, 255); stroke-opacity: 1; stroke-width: 1px;"/><path class="ygrid crisp" transform="translate(0,436.51)" d="M100,0h572" style="stroke: rgb(255, 255, 255); stroke-opacity: 1; stroke-width: 1px;"/><path class="ygrid crisp" transform="translate(0,389.35)" d="M100,0h572" style="stroke: rgb(255, 255, 255); stroke-opacity: 1; stroke-width: 1px;"/><path class="ygrid crisp" transform="translate(0,342.18)" d="M100,0h572" style="stroke: rgb(255, 255, 255); stroke-opacity: 1; stroke-width: 1px;"/><path class="ygrid crisp" transform="translate(0,295.02)" d="M100,0h572" style="stroke: rgb(255, 255, 255); stroke-opacity: 1; stroke-width: 1px;"/><path class="ygrid crisp" transform="translate(0,247.86)" d="M100,0h572" style="stroke: rgb(255, 255, 255); stroke-opacity: 1; stroke-width: 1px;"/><path class="ygrid crisp" transform="translate(0,200.69)" d="M100,0h572" style="stroke: rgb(255, 255, 255); stroke-opacity: 1; stroke-width: 1px;"/></g></g><g class="zerolinelayer"><path class="xzl zl crisp" transform="translate(100,0)" d="M0,160v440" style="stroke: rgb(255, 255, 255); stroke-opacity: 1; stroke-width: 2px;"/><path class="yzl zl crisp" transform="translate(0,578)" d="M100,0h572" style="stroke: rgb(255, 255, 255); stroke-opacity: 1; stroke-width: 2px;"/></g><g class="layer-between"><g class="shapelayer"/><g class="imagelayer"/></g><path class="xlines-below"/><path class="ylines-below"/><g class="overlines-below"/><g class="xaxislayer-below"/><g class="yaxislayer-below"/><g class="overaxes-below"/><g class="overplot"><g class="xy" transform="translate(100,160)" clip-path="url(#clip859782xyplot)"><g class="scatterlayer mlayer"><g class="trace scatter trace4988af" style="stroke-miterlimit: 2; opacity: 1;"><g class="fills"/><g class="errorbars"/><g class="lines"><path class="js-line" d="M0,400.97L1.64,414.46L1.65,414.48L3.64,417.48L3.65,417.48L6.88,417.98L6.88,417.98L6.89,417.98L52.7,417.01L52.7,416.99L54.79,408.47L54.79,408.43L60.9,377.06L60.9,377.03L80.36,283.66L80.37,283.65L86.15,274.32L86.16,274.31L107.94,242.42L107.95,242.41L129.07,222.7L129.08,222.7L159.02,196.1L159.02,196.1L159.03,196.1L183.21,188.25L183.22,188.25L198.56,187.71L198.56,187.71L198.57,187.71L235.12,186.88L235.12,186.88L235.13,186.89L243.82,189.2L243.83,189.21L264.9,193.95L264.91,193.95L290.56,194.57L290.56,194.57L290.57,194.58L314.48,201.58L314.48,201.59L333.62,208.37L333.63,208.38L408.02,235.46L408.02,235.47L522.52,278.7L522.52,278.71L572,297.79" style="vector-effect: none; fill: none; stroke: rgb(178, 24, 43); stroke-opacity: 1; stroke-width: 4px; opacity: 1;"/></g><g class="points"/><g class="text"/></g><g class="trace scatter trace49512d" style="stroke-miterlimit: 2; opacity: 1;"><g class="fills"/><g class="errorbars"/><g class="lines"><path class="js-line" d="M0,396.24L172.92,395.27L172.93,395.26L193.44,394.26L193.45,394.25L216.9,392.09L216.9,392.08L233.94,389.38L233.95,389.37L252.93,384.57L252.93,384.57L252.94,384.56L266.84,379.36L266.84,379.35L279.88,372.79L279.88,372.78L292.19,364.81L292.19,364.8L304.53,354.88L304.53,354.87L313.92,345.96L313.92,345.95L323.52,335.63L323.52,335.62L334.39,322.52L334.39,322.51L348.08,304.09L348.08,304.08L358.74,288.5L358.74,288.49L392.65,234.37L392.65,234.36L410.49,204.96L410.49,204.95L461,127.33L461.01,127.32L479.14,103.36L479.15,103.35L491.68,88.31L491.69,88.3L503.68,75.12L503.69,75.12L519.87,59.23L519.88,59.23L536.05,45.49L536.06,45.49L551.18,34.48L551.19,34.48L565.56,25.55L565.57,25.55L572,22" style="vector-effect: none; fill: none; stroke: rgb(51, 51, 51); stroke-opacity: 1; stroke-width: 4px; opacity: 1;"/></g><g class="points"/><g class="text"/></g><g class="trace scatter traced25cfc" style="stroke-miterlimit: 2; opacity: 1;"><g class="fills"/><g class="errorbars"/><g class="lines"><path class="js-line" d="M0,414.64L95.02,413.99L95.02,413.98L137.32,410.88L137.33,410.87L153.63,409.06L153.63,409.05L175.08,405.91L175.08,405.91L175.09,405.9L196.7,401.66L196.7,401.65L215.2,396.94L215.2,396.94L215.21,396.93L231,391.96L231,391.95L245.04,386.7L245.04,386.7L245.05,386.69L261.29,379.65L261.29,379.64L277.11,371.9L277.11,371.89L305.6,356.54L305.6,356.53L330.73,342.85L330.73,342.85L330.74,342.84L386.56,315.76L386.56,315.76L386.57,315.76L404.68,307.82L404.68,307.82L404.69,307.82L541.03,251.32L541.03,251.32L541.04,251.32L559.83,244.49L559.83,244.49L559.84,244.49L572,240.39" style="vector-effect: none; fill: none; stroke: rgb(239, 138, 98); stroke-opacity: 1; stroke-width: 4px; opacity: 1;"/></g><g class="points"/><g class="text"/></g></g></g></g><g class="zerolinelayer-above"/><path class="xlines-above crisp" d="M0,0" style="fill: none;"/><path class="ylines-above crisp" d="M0,0" style="fill: none;"/><g class="overlines-above"/><g class="xaxislayer-above"><g class="xtick"><text text-anchor="middle" x="0" y="616" transform="translate(100,0)" style="font-family: 'Open Sans', verdana, arial, sans-serif; font-size: 15px; fill: rgb(42, 63, 95); fill-opacity: 1; white-space: pre;">0</text></g><g class="xtick"><text text-anchor="middle" x="0" y="616" style="font-family: 'Open Sans', verdana, arial, sans-serif; font-size: 15px; fill: rgb(42, 63, 95); fill-opacity: 1; white-space: pre;" transform="translate(230,0)">0.5</text></g><g class="xtick"><text text-anchor="middle" x="0" y="616" style="font-family: 'Open Sans', verdana, arial, sans-serif; font-size: 15px; fill: rgb(42, 63, 95); fill-opacity: 1; white-space: pre;" transform="translate(360,0)">1</text></g><g class="xtick"><text text-anchor="middle" x="0" y="616" style="font-family: 'Open Sans', verdana, arial, sans-serif; font-size: 15px; fill: rgb(42, 63, 95); fill-opacity: 1; white-space: pre;" transform="translate(490,0)">1.5</text></g><g class="xtick"><text text-anchor="middle" x="0" y="616" style="font-family: 'Open Sans', verdana, arial, sans-serif; font-size: 15px; fill: rgb(42, 63, 95); fill-opacity: 1; white-space: pre;" transform="translate(620,0)">2</text></g></g><g class="yaxislayer-above"><g class="ytick"><text text-anchor="end" x="99" y="5.25" transform="translate(0,578)" style="font-family: 'Open Sans', verdana, arial, sans-serif; font-size: 15px; fill: rgb(42, 63, 95); fill-opacity: 1; white-space: pre;">0</text></g><g class="ytick"><text text-anchor="end" x="99" y="5.25" style="font-family: 'Open Sans', verdana, arial, sans-serif; font-size: 15px; fill: rgb(42, 63, 95); fill-opacity: 1; white-space: pre;" transform="translate(0,530.8399999999999)">0.1</text></g><g class="ytick"><text text-anchor="end" x="99" y="5.25" style="font-family: 'Open Sans', verdana, arial, sans-serif; font-size: 15px; fill: rgb(42, 63, 95); fill-opacity: 1; white-space: pre;" transform="translate(0,483.67)">0.2</text></g><g class="ytick"><text text-anchor="end" x="99" y="5.25" style="font-family: 'Open Sans', verdana, arial, sans-serif; font-size: 15px; fill: rgb(42, 63, 95); fill-opacity: 1; white-space: pre;" transform="translate(0,436.51)">0.3</text></g><g class="ytick"><text text-anchor="end" x="99" y="5.25" style="font-family: 'Open Sans', verdana, arial, sans-serif; font-size: 15px; fill: rgb(42, 63, 95); fill-opacity: 1; white-space: pre;" transform="translate(0,389.35)">0.4</text></g><g class="ytick"><text text-anchor="end" x="99" y="5.25" style="font-family: 'Open Sans', verdana, arial, sans-serif; font-size: 15px; fill: rgb(42, 63, 95); fill-opacity: 1; white-space: pre;" transform="translate(0,342.18)">0.5</text></g><g class="ytick"><text text-anchor="end" x="99" y="5.25" style="font-family: 'Open Sans', verdana, arial, sans-serif; font-size: 15px; fill: rgb(42, 63, 95); fill-opacity: 1; white-space: pre;" transform="translate(0,295.02)">0.6</text></g><g class="ytick"><text text-anchor="end" x="99" y="5.25" style="font-family: 'Open Sans', verdana, arial, sans-serif; font-size: 15px; fill: rgb(42, 63, 95); fill-opacity: 1; white-space: pre;" transform="translate(0,247.86)">0.7</text></g><g class="ytick"><text text-anchor="end" x="99" y="5.25" style="font-family: 'Open Sans', verdana, arial, sans-serif; font-size: 15px; fill: rgb(42, 63, 95); fill-opacity: 1; white-space: pre;" transform="translate(0,200.69)">0.8</text></g></g><g class="overaxes-above"/></g></g><g class="polarlayer"/><g class="smithlayer"/><g class="ternarylayer"/><g class="geolayer"/><g class="funnelarealayer"/><g class="pielayer"/><g class="iciclelayer"/><g class="treemaplayer"/><g class="sunburstlayer"/><g class="glimages"/><defs id="topdefs-859782"><g class="clips"/><clipPath id="legend859782"><rect width="105" height="78" x="0" y="0"/></clipPath></defs><g class="layer-above"><g class="imagelayer"/><g class="shapelayer"/></g><g class="infolayer"><g class="legend" pointer-events="all" transform="translate(683.44,160)"><rect class="bg" shape-rendering="crispEdges" style="stroke: rgb(68, 68, 68); stroke-opacity: 1; fill: rgb(255, 255, 255); fill-opacity: 1; stroke-width: 0px;" width="105" height="78" x="0" y="0"/><g class="scrollbox" transform="" clip-path="url(#legend859782)"><g class="groups"><g class="traces" transform="translate(0,16.25)" style="opacity: 1;"><text class="legendtext" text-anchor="start" x="40" y="5.85" style="font-family: 'Open Sans', verdana, arial, sans-serif; font-size: 15px; fill: rgb(42, 63, 95); fill-opacity: 1; white-space: pre;">D1R_DA</text><g class="layers" style="opacity: 1;"><g class="legendfill"/><g class="legendlines"><path class="js-line" d="M5,0h30" style="fill: none; stroke: rgb(178, 24, 43); stroke-opacity: 1; stroke-width: 4px;"/></g><g class="legendsymbols"><g class="legendpoints"/></g></g><rect class="legendtoggle" x="0" y="-11.25" width="99.1875" height="22.5" style="fill: rgb(0, 0, 0); fill-opacity: 0;"/></g><g class="traces" transform="translate(0,38.75)" style="opacity: 1;"><text class="legendtext" text-anchor="start" x="40" y="5.85" style="font-family: 'Open Sans', verdana, arial, sans-serif; font-size: 15px; fill: rgb(42, 63, 95); fill-opacity: 1; white-space: pre;">PKAc</text><g class="layers" style="opacity: 1;"><g class="legendfill"/><g class="legendlines"><path class="js-line" d="M5,0h30" style="fill: none; stroke: rgb(51, 51, 51); stroke-opacity: 1; stroke-width: 4px;"/></g><g class="legendsymbols"><g class="legendpoints"/></g></g><rect class="legendtoggle" x="0" y="-11.25" width="99.1875" height="22.5" style="fill: rgb(0, 0, 0); fill-opacity: 0;"/></g><g class="traces" transform="translate(0,61.25)" style="opacity: 1;"><text class="legendtext" text-anchor="start" x="40" y="5.85" style="font-family: 'Open Sans', verdana, arial, sans-serif; font-size: 15px; fill: rgb(42, 63, 95); fill-opacity: 1; white-space: pre;">cAMP</text><g class="layers" style="opacity: 1;"><g class="legendfill"/><g class="legendlines"><path class="js-line" d="M5,0h30" style="fill: none; stroke: rgb(239, 138, 98); stroke-opacity: 1; stroke-width: 4px;"/></g><g class="legendsymbols"><g class="legendpoints"/></g></g><rect class="legendtoggle" x="0" y="-11.25" width="99.1875" height="22.5" style="fill: rgb(0, 0, 0); fill-opacity: 0;"/></g></g></g><rect class="scrollbar" rx="20" ry="3" width="0" height="0" style="fill: rgb(128, 139, 164); fill-opacity: 1;" x="0" y="0"/></g><g class="g-gtitle"><text class="gtitle" x="400" y="70" text-anchor="middle" dy="0.7em" style="opacity: 1; font-family: 'Open Sans', verdana, arial, sans-serif; font-size: 20px; fill: rgb(42, 63, 95); fill-opacity: 1; white-space: pre;">dSPN, selected species</text></g><g class="g-xtitle"><text class="xtitle" x="386" y="644" text-anchor="middle" style="opacity: 1; font-family: 'Open Sans', verdana, arial, sans-serif; font-size: 15px; fill: rgb(42, 63, 95); fill-opacity: 1; white-space: pre;">Time (s)</text></g><g class="g-ytitle"><text class="ytitle" transform="rotate(-90,58.390625,380)" x="58.390625" y="380" text-anchor="middle" style="opacity: 1; font-family: 'Open Sans', verdana, arial, sans-serif; font-size: 15px; fill: rgb(42, 63, 95); fill-opacity: 1; white-space: pre;">Concentration (normalised)</text></g></g></svg>