<svg class="main-svg" xmlns="http://www.w3.org/2000/svg" xmlns:xlink="http://www.w3.org/1999/xlink" width="300" height="200" style="" viewBox="0 0 300 200"><rect x="0" y="0" width="300" height="200" style="fill: rgb(255, 255, 255); fill-opacity: 1;"/><defs id="defs-84d597"><g class="clips"><clipPath id="clip84d597xyplot" class="plotclip"><rect width="229" height="119"/></clipPath><clipPath class="axesclip" id="clip84d597x"><rect x="56" y="0" width="229" height="200"/></clipPath><clipPath class="axesclip" id="clip84d597y"><rect x="0" y="24" width="300" height="119"/></clipPath><clipPath class="axesclip" id="clip84d597xy"><rect x="56" y="24" width="229" height="119"/></clipPath></g><g class="gradients"/><g class="patterns"/></defs><g class="bglayer"/><g class="layer-below"><g class="imagelayer"/><g class="shapelayer"/></g><g class="cartesianlayer"><g class="subplot xy"><g class="layer-subplot"><g class="shapelayer"/><g class="imagelayer"/></g><g class="minor-gridlayer"><g class="x"/><g class="y"/></g><g class="gridlayer"><g class="x"><path class="xgrid crisp" transform="translate(108.05,0)" d="M0,24v119" style="stroke: rgb(255, 255, 255); stroke-opacity: 1; stroke-width: 1px;"/><path class="xgrid crisp" transform="translate(160.09,0)" d="M0,24v119" style="stroke: rgb(255, 255, 255); stroke-opacity: 1; stroke-width: 1px;"/><path class="xgrid crisp" transform="translate(212.14,0)" d="M0,24v119" style="stroke: rgb(255, 255, 255); stroke-opacity: 1; stroke-width: 1px;"/><path class="xgrid crisp" transform="translate(264.18,0)" d="M0,24v119" style="stroke: rgb(255, 255, 255); stroke-opacity: 1; stroke-width: 1px;"/></g><g class="y"><path class="ygrid crisp" transform="translate(0,139.36)" d="M56,0h229" style="stroke: rgb(255, 255, 255); stroke-opacity: 1; stroke-width: 1px;"/><path class="ygrid crisp" transform="translate(0,51.83)" d="M56,0h229" style="stroke: rgb(255, 255, 255); stroke-opacity: 1; stroke-width: 1px;"/></g></g><g class="zerolinelayer"><path class="xzl zl crisp" transform="translate(56,0)" d="M0,24v119" style="stroke: rgb(255, 255, 255); stroke-opacity: 1; stroke-width: 2px;"/><path class="yzl zl crisp" transform="translate(0,95.6)" d="M56,0h229" style="stroke: rgb(255, 255, 255); stroke-opacity: 1; stroke-width: 2px;"/></g><g class="layer-between"><g class="shapelayer"/><g class="imagelayer"/></g><path class="xlines-below"/><path class="ylines-below"/><g class="overlines-below"/><g class="xaxislayer-below"/><g class="yaxislayer-below"/><g class="overaxes-below"/><g class="overplot"><g class="xy" transform="translate(56,24)" clip-path="url(#clip84d597xyplot)"><g class="scatterlayer mlayer"><g class="trace scatter trace532727" style="stroke-miterlimit: 2; opacity: 1;"><g class="fills"/><g class="errorbars"/><g class="lines"><path class="js-line" d="M0,112.96L56.25,112.05L56.25,112.04L67.13,109.96L67.13,109.95L74.27,107.14L74.27,107.14L74.28,107.13L80.68,102.82L80.68,102.82L80.69,102.81L85.96,97.24L85.96,97.24L85.97,97.23L92,87.55L92,87.55L92,87.54L98.12,73.09L98.12,73.08L106.08,48.61L106.08,48.6L116.34,21.51L116.34,21.51L116.35,21.5L120.77,14.88L120.77,14.88L120.78,14.88L125.41,10.76L125.41,10.76L125.42,10.76L131.35,8.1L131.35,8.1L131.36,8.1L139.49,6.7L139.49,6.7L139.5,6.7L155.68,6.08L155.68,6.08L155.69,6.08L177.91,5.97L177.91,5.97L177.92,5.97L229,5.95L229,5.95" style="vector-effect: none; fill: none; stroke: rgb(178, 24, 43); stroke-opacity: 1; stroke-dasharray: 12px, 4px, 4px, 4px; stroke-width: 4px; opacity: 1;"/></g><g class="points"/><g class="text"/></g></g></g></g><g class="zerolinelayer-above"/><path class="xlines-above crisp" d="M0,0" style="fill: none;"/><path class="ylines-above crisp" d="M0,0" style="fill: none;"/><g class="overlines-above"/><g class="xaxislayer-above"><g class="xtick"><text text-anchor="middle" x="0" y="159" transform="translate(56,0)" style="font-family: 'Open Sans', verdana, arial, sans-serif; font-size: 15px; fill: rgb(42, 63, 95); fill-opacity: 1; white-space: pre;">0</text></g><g class="xtick"><text text-anchor="middle" x="0" y="159" style="font-family: 'Open Sans', verdana, arial, sans-serif; font-size: 15px; fill: rgb(42, 63, 95); fill-opacity: 1; white-space: pre;" transform="translate(108.05,0)">0.5</text></g><g class="xtick"><text text-anchor="middle" x="0" y="159" style="font-family: 'Open Sans', verdana, arial, sans-serif; font-size: 15px; fill: rgb(42, 63, 95); fill-opacity: 1; white-space: pre;" transform="translate(160.09,0)">1</text></g><g class="xtick"><text text-anchor="middle" x="0" y="159" style="font-family: 'Open Sans', verdana, arial, sans-serif; font-size: 15px; fill: rgb(42, 63, 95); fill-opacity: 1; white-space: pre;" transform="translate(212.14,0)">1.5</text></g><g class="xtick"><text text-anchor="middle" x="0" y="159" style="font-family: 'Open Sans', verdana, arial, sans-serif; font-size: 15px; fill: rgb(42, 63, 95); fill-opacity: 1; white-space: pre;" transform="translate(264.18,0)">2</text></g></g><g class="yaxislayer-above"><g class="ytick"><text text-anchor="end" x="55" y="5.25" transform="translate(0,139.36)" style="font-family: 'Open Sans', verdana, arial, sans-serif; font-size: 15px; fill: rgb(42, 63, 95); fill-opacity: 1; white-space: pre;">−2</text></g><g class="ytick"><text text-anchor="end" x="55" y="5.25" style="font-family: 'Open Sans', verdana, arial, sans-serif; font-size: 15px; fill: rgb(42, 63, 95); fill-opacity: 1; white-space: pre;" transform="translate(0,95.6)">0</text></g><g class="ytick"><text text-anchor="end" x="55" y="5.25" style="font-family: 'Open Sans', verdana, arial, sans-serif; font-size: 15px; fill: rgb(42, 63, 95); fill-opacity: 1; white-space: pre;" transform="translate(0,51.83)">2</text></g></g><g class="overaxes-above"/></g></g><g class="polarlayer"/><g class="smithlayer"/><g class="ternarylayer"/><g class="geolayer"/><g class="funnelarealayer"/><g class="pielayer"/><g class="iciclelayer"/><g class="treemaplayer"/><g class="sunburstlayer"/><g class="glimages"/><defs id="topdefs-84d597"><g class="clips"/></defs><g class="layer-above"><g class="imagelayer"/><g class="shapelayer"/></g><g class="infolayer"><g class="g-gtitle"><text class="gtitle" x="150" y="20" text-anchor="middle" dy="0.7em" style="opacity: 1; font-family: 'Open Sans', verdana, arial, sans-serif; font-size: 20px; fill: rgb(42, 63, 95); fill-opacity: 1; white-space: pre;">dSPN modulation</text></g><g class="g-xtitle"><text class="xtitle" x="170.5" y="187" text-anchor="middle" style="opacity: 1; font-family: 'Open Sans', verdana, arial, sans-serif; font-size: 15px; fill: rgb(42, 63, 95); fill-opacity: 1; white-space: pre;">Time (s)</text></g><g class="g-ytitle"><text class="ytitle" transform="rotate(-90,18.140625,83.5)" x="18.140625" y="83.5" text-anchor="middle" style="opacity: 1; font-family: 'Open Sans', verdana, arial, sans-serif; font-size: 15px; fill: rgb(42, 63, 95); fill-opacity: 1; white-space: pre;">Modulation (voltage shift)</text></g></g></svg>