<svg class="main-svg" xmlns="http://www.w3.org/2000/svg" xmlns:xlink="http://www.w3.org/1999/xlink" width="300" height="400" style="" viewBox="0 0 300 400"><rect x="0" y="0" width="300" height="400" style="fill: rgb(255, 255, 255); fill-opacity: 1;"/><defs id="defs-752311"><g class="clips"><clipPath id="clip752311xyplot" class="plotclip"><rect width="123" height="295"/></clipPath><clipPath class="axesclip" id="clip752311x"><rect x="56" y="0" width="123" height="400"/></clipPath><clipPath class="axesclip" id="clip752311y"><rect x="0" y="48" width="300" height="295"/></clipPath><clipPath class="axesclip" id="clip752311xy"><rect x="56" y="48" width="123" height="295"/></clipPath></g><g class="gradients"/><g class="patterns"/></defs><g class="bglayer"/><g class="layer-below"><g class="imagelayer"/><g class="shapelayer"/></g><g class="cartesianlayer"><g class="subplot xy"><g class="layer-subplot"><g class="shapelayer"/><g class="imagelayer"/></g><g class="minor-gridlayer"><g class="x"/><g class="y"/></g><g class="gridlayer"><g class="x"><path class="xgrid crisp" transform="translate(83.95,0)" d="M0,48v295" style="stroke: rgb(255, 255, 255); stroke-opacity: 1; stroke-width: 1px;"/><path class="xgrid crisp" transform="translate(111.91,0)" d="M0,48v295" style="stroke: rgb(255, 255, 255); stroke-opacity: 1; stroke-width: 1px;"/><path class="xgrid crisp" transform="translate(139.86,0)" d="M0,48v295" style="stroke: rgb(255, 255, 255); stroke-opacity: 1; stroke-width: 1px;"/><path class="xgrid crisp" transform="translate(167.82,0)" d="M0,48v295" style="stroke: rgb(255, 255, 255); stroke-opacity: 1; stroke-width: 1px;"/></g><g class="y"><path class="ygrid crisp" transform="translate(0,333.99)" d="M56,0h123" style="stroke: rgb(255, 255, 255); stroke-opacity: 1; stroke-width: 1px;"/><path class="ygrid crisp" transform="translate(0,279.74)" d="M56,0h123" style="stroke: rgb(255, 255, 255); stroke-opacity: 1; stroke-width: 1px;"/><path class="ygrid crisp" transform="translate(0,171.24)" d="M56,0h123" style="stroke: rgb(255, 255, 255); stroke-opacity: 1; stroke-width: 1px;"/><path class="ygrid crisp" transform="translate(0,116.99)" d="M56,0h123" style="stroke: rgb(255, 255, 255); stroke-opacity: 1; stroke-width: 1px;"/><path class="ygrid crisp" transform="translate(0,62.74)" d="M56,0h123" style="stroke: rgb(255, 255, 255); stroke-opacity: 1; stroke-width: 1px;"/></g></g><g class="zerolinelayer"><path class="xzl zl crisp" transform="translate(56,0)" d="M0,48v295" style="stroke: rgb(255, 255, 255); stroke-opacity: 1; stroke-width: 2px;"/><path class="yzl zl crisp" transform="translate(0,225.49)" d="M56,0h123" style="stroke: rgb(255, 255, 255); stroke-opacity: 1; stroke-width: 2px;"/></g><g class="layer-between"><g class="shapelayer"/><g class="imagelayer"/></g><path class="xlines-below"/><path class="ylines-below"/><g class="overlines-below"/><g class="xaxislayer-below"/><g class="yaxislayer-below"/><g class="overaxes-below"/><g class="overplot"><g class="xy" transform="translate(56,48)" clip-path="url(#clip752311xyplot)"><g class="scatterlayer mlayer"><g class="trace scatter trace2215a3" style="stroke-miterlimit: 2; opacity: 1;"><g class="fills"/><g class="errorbars"/><g class="lines"><path class="js-line" d="M0,95.89L32.2,96.83L32.2,96.83L32.2,96.84L38.09,98.73L38.09,98.73L38.09,98.74L43.09,102.34L43.09,102.34L43.09,102.35L46.61,107L46.61,107L46.61,107.01L49.93,113.98L49.93,113.98L49.93,113.99L53.49,125.01L53.49,125.01L53.49,125.02L64,159.37L64,159.37L64.01,159.37L67.45,163.53L67.45,163.53L67.46,163.53L71.88,165.61L71.88,165.61L71.89,165.61L79.3,166.44L79.3,166.44L79.31,166.44L103.04,166.63L103.04,166.63L103.05,166.63L123,166.63L123,166.63" style="vector-effect: none; fill: none; stroke: rgb(178, 24, 43); stroke-opacity: 1; stroke-width: 4px; opacity: 1;"/></g><g class="points"/><g class="text"/></g><g class="trace scatter tracebf7764" style="stroke-miterlimit: 2; opacity: 1;"><g class="fills"/><g class="errorbars"/><g class="lines"><path class="js-line" d="M0,280.03L26.46,279.25L26.46,279.25L26.47,279.24L31.58,276.94L31.58,276.94L31.58,276.93L35.64,273.12L35.64,273.12L35.64,273.11L39.2,267.16L39.2,267.16L39.2,267.15L42.27,258.79L42.27,258.79L42.27,258.78L45.63,244.13L45.63,244.12L48.55,224.44L48.55,224.43L50.97,201.57L50.97,201.55L55.22,146.46L55.22,146.44L57.33,115.31L57.33,115.29L64.99,36.23L64.99,36.23L65,36.22L67.5,26.25L67.5,26.25L67.51,26.24L70.84,19.7L70.85,19.7L74.47,16.81L74.47,16.81L74.48,16.81L79.44,15.44L79.44,15.44L79.45,15.44L90.05,14.86L90.05,14.86L90.06,14.86L123,14.75L123,14.75" style="vector-effect: none; fill: none; stroke: rgb(178, 24, 43); stroke-opacity: 1; stroke-dasharray: 12px, 4px, 4px, 4px; stroke-width: 4px; opacity: 1;"/></g><g class="points"/><g class="text"/></g><g class="trace scatter tracedad55a" style="stroke-miterlimit: 2; opacity: 1;"><g class="fills"/><g class="errorbars"/><g class="lines"><path class="js-line" d="M0,119.39L42.64,120.38L42.64,120.39L50.16,122.14L50.16,122.14L50.17,122.15L57.12,125.27L57.12,125.27L57.12,125.28L72.14,132.01L72.14,132.01L72.15,132.01L81.35,133.28L81.35,133.28L81.36,133.28L113.64,133.93L113.64,133.93L113.65,133.93L123,133.95L123,133.95" style="vector-effect: none; fill: none; stroke: rgb(178, 24, 43); stroke-opacity: 1; stroke-dasharray: 12px, 12px; stroke-width: 4px; opacity: 1;"/></g><g class="points"/><g class="text"/></g><g class="trace scatter tracec1a92a" style="stroke-miterlimit: 2; opacity: 1;"><g class="fills"/><g class="errorbars"/><g class="lines"><path class="js-line" d="M0,119.82L44.44,120.81L44.44,120.81L44.44,120.82L52.49,123.02L52.49,123.02L52.49,123.03L67.65,128.29L67.65,128.29L67.66,128.29L81.15,128.64L81.15,128.64L81.16,128.64L101.58,128.66L101.58,128.66L101.59,128.66L123,128.66L123,128.66" style="vector-effect: none; fill: none; stroke: rgb(85, 85, 85); stroke-opacity: 1; stroke-width: 4px; opacity: 1;"/></g><g class="points"/><g class="text"/></g><g class="trace scatter trace055a20" style="stroke-miterlimit: 2; opacity: 1;"><g class="fills"/><g class="errorbars"/><g class="lines"><path class="js-line" d="M0,130.07L40.05,129.09L40.05,129.09L40.05,129.08L47.32,126.99L47.32,126.99L47.32,126.98L52.34,123.79L52.34,123.79L52.34,123.78L58.95,117.58L58.95,117.58L58.95,117.57L65.17,113.76L65.17,113.76L65.18,113.76L70.92,112.71L70.92,112.71L70.93,112.71L96.76,112.39L96.76,112.39L96.77,112.39L123,112.39L123,112.39" style="vector-effect: none; fill: none; stroke: rgb(239, 138, 98); stroke-opacity: 1; stroke-width: 4px; opacity: 1;"/></g><g class="points"/><g class="text"/></g><g class="trace scatter trace8bc55d" style="stroke-miterlimit: 2; opacity: 1;"><g class="fills"/><g class="errorbars"/><g class="lines"><path class="js-line" d="M0,124.86L44.5,123.87L44.5,123.87L44.51,123.86L64.64,123.72L64.64,123.72L64.64,123.73L67.81,125.38L67.81,125.38L67.81,125.39L70.92,129.2L70.92,129.2L70.92,129.21L74.98,132.97L74.98,132.97L74.99,132.97L79.04,133.88L79.04,133.88L79.05,133.88L102.84,134.09L102.84,134.09L102.85,134.09L123,134.09L123,134.09" style="vector-effect: none; fill: none; stroke: rgb(239, 138, 98); stroke-opacity: 1; stroke-dasharray: 12px, 12px; stroke-width: 4px; opacity: 1;"/></g><g class="points"/><g class="text"/></g></g></g></g><g class="zerolinelayer-above"/><path class="xlines-above crisp" d="M0,0" style="fill: none;"/><path class="ylines-above crisp" d="M0,0" style="fill: none;"/><g class="overlines-above"/><g class="xaxislayer-above"><g class="xtick"><text text-anchor="middle" x="0" y="359" transform="translate(56,0)" style="font-family: 'Open Sans', verdana, arial, sans-serif; font-size: 15px; fill: rgb(42, 63, 95); fill-opacity: 1; white-space: pre;">0</text></g><g class="xtick"><text text-anchor="middle" x="0" y="359" style="font-family: 'Open Sans', verdana, arial, sans-serif; font-size: 15px; fill: rgb(42, 63, 95); fill-opacity: 1; white-space: pre;" transform="translate(83.95,0)">0.5</text></g><g class="xtick"><text text-anchor="middle" x="0" y="359" style="font-family: 'Open Sans', verdana, arial, sans-serif; font-size: 15px; fill: rgb(42, 63, 95); fill-opacity: 1; white-space: pre;" transform="translate(111.91,0)">1</text></g><g class="xtick"><text text-anchor="middle" x="0" y="359" style="font-family: 'Open Sans', verdana, arial, sans-serif; font-size: 15px; fill: rgb(42, 63, 95); fill-opacity: 1; white-space: pre;" transform="translate(139.86,0)">1.5</text></g><g class="xtick"><text text-anchor="middle" x="0" y="359" style="font-family: 'Open Sans', verdana, arial, sans-serif; font-size: 15px; fill: rgb(42, 63, 95); fill-opacity: 1; white-space: pre;" transform="translate(167.82,0)">2</text></g></g><g class="yaxislayer-above"><g class="ytick"><text text-anchor="end" x="55" y="5.25" transform="translate(0,333.99)" style="font-family: 'Open Sans', verdana, arial, sans-serif; font-size: 15px; fill: rgb(42, 63, 95); fill-opacity: 1; white-space: pre;">−2</text></g><g class="ytick"><text text-anchor="end" x="55" y="5.25" style="font-family: 'Open Sans', verdana, arial, sans-serif; font-size: 15px; fill: rgb(42, 63, 95); fill-opacity: 1; white-space: pre;" transform="translate(0,279.74)">−1</text></g><g class="ytick"><text text-anchor="end" x="55" y="5.25" style="font-family: 'Open Sans', verdana, arial, sans-serif; font-size: 15px; fill: rgb(42, 63, 95); fill-opacity: 1; white-space: pre;" transform="translate(0,225.49)">0</text></g><g class="ytick"><text text-anchor="end" x="55" y="5.25" style="font-family: 'Open Sans', verdana, arial, sans-serif; font-size: 15px; fill: rgb(42, 63, 95); fill-opacity: 1; white-space: pre;" transform="translate(0,171.24)">1</text></g><g class="ytick"><text text-anchor="end" x="55" y="5.25" style="font-family: 'Open Sans', verdana, arial, sans-serif; font-size: 15px; fill: rgb(42, 63, 95); fill-opacity: 1; white-space: pre;" transform="translate(0,116.99)">2</text></g><g class="ytick"><text text-anchor="end" x="55" y="5.25" style="font-family: 'Open Sans', verdana, arial, sans-serif; font-size: 15px; fill: rgb(42, 63, 95); fill-opacity: 1; white-space: pre;" transform="translate(0,62.74)">3</text></g></g><g class="overaxes-above"/></g></g><g class="polarlayer"/><g class="smithlayer"/><g class="ternarylayer"/><g class="geolayer"/><g class="funnelarealayer"/><g class="pielayer"/><g class="iciclelayer"/><g class="treemaplayer"/><g class="sunburstlayer"/><g class="glimages"/><defs id="topdefs-752311"><g class="clips"/><clipPath id="legend752311"><rect width="107" height="145" x="0" y="0"/></clipPath></defs><g class="layer-above"><g class="imagelayer"/><g class="shapelayer"/></g><g class="infolayer"><g class="legend" pointer-events="all" transform="translate(181.46,48)"><rect class="bg" shape-rendering="crispEdges" style="stroke: rgb(68, 68, 68); stroke-opacity: 1; fill: rgb(255, 255, 255); fill-opacity: 1; stroke-width: 0px;" width="107" height="145" x="0" y="0"/><g class="scrollbox" transform="" clip-path="url(#legend752311)"><g class="groups"><g class="traces" transform="translate(0,16.25)" style="opacity: 1;"><text class="legendtext" text-anchor="start" x="40" y="5.85" style="font-family: 'Open Sans', verdana, arial, sans-serif; font-size: 15px; fill: rgb(42, 63, 95); fill-opacity: 1; white-space: pre;">sk (g)</text><g class="layers" style="opacity: 1;"><g class="legendfill"/><g class="legendlines"><path class="js-line" d="M5,0h30" style="fill: none; stroke: rgb(178, 24, 43); stroke-opacity: 1; stroke-width: 4px;"/></g><g class="legendsymbols"><g class="legendpoints"/></g></g><rect class="legendtoggle" x="0" y="-11.25" width="101.6875" height="22.5" style="fill: rgb(0, 0, 0); fill-opacity: 0;"/></g><g class="traces" transform="translate(0,38.75)" style="opacity: 1;"><text class="legendtext" text-anchor="start" x="40" y="5.85" style="font-family: 'Open Sans', verdana, arial, sans-serif; font-size: 15px; fill: rgb(42, 63, 95); fill-opacity: 1; white-space: pre;">kaf (shift)</text><g class="layers" style="opacity: 1;"><g class="legendfill"/><g class="legendlines"><path class="js-line" d="M5,0h30" style="fill: none; stroke: rgb(178, 24, 43); stroke-opacity: 1; stroke-dasharray: 12px, 4px, 4px, 4px; stroke-width: 4px;"/></g><g class="legendsymbols"><g class="legendpoints"/></g></g><rect class="legendtoggle" x="0" y="-11.25" width="101.6875" height="22.5" style="fill: rgb(0, 0, 0); fill-opacity: 0;"/></g><g class="traces" transform="translate(0,61.25)" style="opacity: 1;"><text class="legendtext" text-anchor="start" x="40" y="5.85" style="font-family: 'Open Sans', verdana, arial, sans-serif; font-size: 15px; fill: rgb(42, 63, 95); fill-opacity: 1; white-space: pre;">kas (g)</text><g class="layers" style="opacity: 1;"><g class="legendfill"/><g class="legendlines"><path class="js-line" d="M5,0h30" style="fill: none; stroke: rgb(178, 24, 43); stroke-opacity: 1; stroke-dasharray: 12px, 12px; stroke-width: 4px;"/></g><g class="legendsymbols"><g class="legendpoints"/></g></g><rect class="legendtoggle" x="0" y="-11.25" width="101.6875" height="22.5" style="fill: rgb(0, 0, 0); fill-opacity: 0;"/></g><g class="traces" transform="translate(0,83.75)" style="opacity: 1;"><text class="legendtext" text-anchor="start" x="40" y="5.85" style="font-family: 'Open Sans', verdana, arial, sans-serif; font-size: 15px; fill: rgb(42, 63, 95); fill-opacity: 1; white-space: pre;">naf (g)</text><g class="layers" style="opacity: 1;"><g class="legendfill"/><g class="legendlines"><path class="js-line" d="M5,0h30" style="fill: none; stroke: rgb(85, 85, 85); stroke-opacity: 1; stroke-width: 4px;"/></g><g class="legendsymbols"><g class="legendpoints"/></g></g><rect class="legendtoggle" x="0" y="-11.25" width="101.6875" height="22.5" style="fill: rgb(0, 0, 0); fill-opacity: 0;"/></g><g class="traces" transform="translate(0,106.25)" style="opacity: 1;"><text class="legendtext" text-anchor="start" x="40" y="5.85" style="font-family: 'Open Sans', verdana, arial, sans-serif; font-size: 15px; fill: rgb(42, 63, 95); fill-opacity: 1; white-space: pre;">cal (g)</text><g class="layers" style="opacity: 1;"><g class="legendfill"/><g class="legendlines"><path class="js-line" d="M5,0h30" style="fill: none; stroke: rgb(239, 138, 98); stroke-opacity: 1; stroke-width: 4px;"/></g><g class="legendsymbols"><g class="legendpoints"/></g></g><rect class="legendtoggle" x="0" y="-11.25" width="101.6875" height="22.5" style="fill: rgb(0, 0, 0); fill-opacity: 0;"/></g><g class="traces" transform="translate(0,128.75)" style="opacity: 1;"><text class="legendtext" text-anchor="start" x="40" y="5.85" style="font-family: 'Open Sans', verdana, arial, sans-serif; font-size: 15px; fill: rgb(42, 63, 95); fill-opacity: 1; white-space: pre;">car (g)</text><g class="layers" style="opacity: 1;"><g class="legendfill"/><g class="legendlines"><path class="js-line" d="M5,0h30" style="fill: none; stroke: rgb(239, 138, 98); stroke-opacity: 1; stroke-dasharray: 12px, 12px; stroke-width: 4px;"/></g><g class="legendsymbols"><g class="legendpoints"/></g></g><rect class="legendtoggle" x="0" y="-11.25" width="101.6875" height="22.5" style="fill: rgb(0, 0, 0); fill-opacity: 0;"/></g></g></g><rect class="scrollbar" rx="20" ry="3" width="0" height="0" style="fill: rgb(128, 139, 164); fill-opacity: 1;" x="0" y="0"/></g><g class="g-gtitle"><text class="gtitle" x="150" y="40" text-anchor="middle" dy="0.7em" style="opacity: 1; font-family: 'Open Sans', verdana, arial, sans-serif; font-size: 20px; fill: rgb(42, 63, 95); fill-opacity: 1; white-space: pre;">dSPN modulation</text></g><g class="g-xtitle"><text class="xtitle" x="117.5" y="387" text-anchor="middle" style="opacity: 1; font-family: 'Open Sans', verdana, arial, sans-serif; font-size: 15px; fill: rgb(42, 63, 95); fill-opacity: 1; white-space: pre;">Time (s)</text></g><g class="g-ytitle"><text class="ytitle" transform="rotate(-90,18.140625,195.5)" x="18.140625" y="195.5" text-anchor="middle" style="opacity: 1; font-family: 'Open Sans', verdana, arial, sans-serif; font-size: 15px; fill: rgb(42, 63, 95); fill-opacity: 1; white-space: pre;">Modulation</text></g></g></svg>