<svg class="main-svg" xmlns="http://www.w3.org/2000/svg" xmlns:xlink="http://www.w3.org/1999/xlink" width="800" height="700" style="" viewBox="0 0 800 700"><rect x="0" y="0" width="800" height="700" style="fill: rgb(255, 255, 255); fill-opacity: 1;"/><defs id="defs-009603"><g class="clips"><clipPath id="clip009603xyplot" class="plotclip"><rect width="463" height="440"/></clipPath><clipPath class="axesclip" id="clip009603x"><rect x="112" y="0" width="463" height="700"/></clipPath><clipPath class="axesclip" id="clip009603y"><rect x="0" y="160" width="800" height="440"/></clipPath><clipPath class="axesclip" id="clip009603xy"><rect x="112" y="160" width="463" height="440"/></clipPath></g><g class="gradients"/><g class="patterns"/></defs><g class="bglayer"/><g class="layer-below"><g class="imagelayer"/><g class="shapelayer"/></g><g class="cartesianlayer"><g class="subplot xy"><g class="layer-subplot"><g class="shapelayer"/><g class="imagelayer"/></g><g class="minor-gridlayer"><g class="x"/><g class="y"/></g><g class="gridlayer"><g class="x"><path class="xgrid crisp" transform="translate(189.17000000000002,0)" d="M0,160v440" style="stroke: rgb(255, 255, 255); stroke-opacity: 1; stroke-width: 1px;"/><path class="xgrid crisp" transform="translate(266.33000000000004,0)" d="M0,160v440" style="stroke: rgb(255, 255, 255); stroke-opacity: 1; stroke-width: 1px;"/><path class="xgrid crisp" transform="translate(343.5,0)" d="M0,160v440" style="stroke: rgb(255, 255, 255); stroke-opacity: 1; stroke-width: 1px;"/><path class="xgrid crisp" transform="translate(420.67,0)" d="M0,160v440" style="stroke: rgb(255, 255, 255); stroke-opacity: 1; stroke-width: 1px;"/><path class="xgrid crisp" transform="translate(497.83,0)" d="M0,160v440" style="stroke: rgb(255, 255, 255); stroke-opacity: 1; stroke-width: 1px;"/></g><g class="y"><path class="ygrid crisp" transform="translate(0,498.8)" d="M112,0h463" style="stroke: rgb(255, 255, 255); stroke-opacity: 1; stroke-width: 1px;"/><path class="ygrid crisp" transform="translate(0,419.6)" d="M112,0h463" style="stroke: rgb(255, 255, 255); stroke-opacity: 1; stroke-width: 1px;"/><path class="ygrid crisp" transform="translate(0,340.4)" d="M112,0h463" style="stroke: rgb(255, 255, 255); stroke-opacity: 1; stroke-width: 1px;"/><path class="ygrid crisp" transform="translate(0,261.2)" d="M112,0h463" style="stroke: rgb(255, 255, 255); stroke-opacity: 1; stroke-width: 1px;"/><path class="ygrid crisp" transform="translate(0,182)" d="M112,0h463" style="stroke: rgb(255, 255, 255); stroke-opacity: 1; stroke-width: 1px;"/></g></g><g class="zerolinelayer"><path class="xzl zl crisp" transform="translate(112,0)" d="M0,160v440" style="stroke: rgb(255, 255, 255); stroke-opacity: 1; stroke-width: 2px;"/><path class="yzl zl crisp" transform="translate(0,578)" d="M112,0h463" style="stroke: rgb(255, 255, 255); stroke-opacity: 1; stroke-width: 2px;"/></g><g class="layer-between"><g class="shapelayer"/><g class="imagelayer"/></g><path class="xlines-below"/><path class="ylines-below"/><g class="overlines-below"/><g class="xaxislayer-below"/><g class="yaxislayer-below"/><g class="overaxes-below"/><g class="overplot"><g class="xy" transform="translate(112,160)" clip-path="url(#clip009603xyplot)"><g class="scatterlayer mlayer"><g class="trace scatter tracecbd375" style="stroke-miterlimit: 2; opacity: 1;"><g class="fills"/><g class="errorbars"/><g class="lines"><path class="js-line" d="M0,416.47L77.17,416.81L77.17,390.56L78.17,62.62L78.18,62.61L82.84,52.83L82.85,52.83L91.01,37.91L91.02,37.91L97.72,27.89L97.73,27.89L101.74,24.53L101.74,24.53L101.75,24.53L106.82,22.85L106.82,22.85L106.83,22.85L115.51,22.13L115.51,22.13L115.52,22.13L138.14,22L138.14,22L138.15,22L154.49,22L154.49,24.46L156.65,406.01L156.66,406.09L158.15,416.94L158.15,416.94L158.16,416.95L159.99,417.95L159.99,417.95L160,417.95L180.88,418L180.88,418L180.89,418L463,418L463,418" style="vector-effect: none; fill: none; stroke: rgb(102, 194, 165); stroke-opacity: 1; stroke-width: 4px; opacity: 1;"/></g><g class="points"/><g class="text"/></g><g class="trace scatter trace90edbe" style="stroke-miterlimit: 2; opacity: 1;"><g class="fills"/><g class="errorbars"/><g class="lines"><path class="js-line" d="M0,400L89.35,399L89.35,398.99L93.95,396.58L93.95,396.58L93.95,396.57L97.17,392.91L97.17,392.9L100.88,385.35L100.88,385.34L104.48,373.65L104.48,373.64L109.33,350.17L109.33,350.15L119.43,277.32L119.43,277.28L127.09,213.78L127.09,213.74L141.65,111.55L141.66,111.53L149.86,73.58L149.87,73.56L155.1,56.73L155.11,56.72L160.42,44.55L160.42,44.55L160.43,44.54L165.59,36.45L165.59,36.45L165.6,36.44L171.03,30.86L171.03,30.86L171.04,30.86L177.58,26.82L177.58,26.82L177.59,26.82L184.48,24.49L184.48,24.49L184.49,24.49L195.34,22.8L195.34,22.8L195.35,22.8L213.08,22.03L213.08,22.03L213.09,22.03L263.14,23L263.14,23L263.15,23.01L286.64,24.01L286.64,24.01L286.64,24.02L348.09,27.93L348.09,27.93L348.1,27.94L370.25,30.04L370.25,30.04L370.25,30.05L400.87,34.1L400.87,34.1L400.87,34.11L423.77,38.54L423.77,38.55L439.92,42.79L439.92,42.79L439.93,42.8L459.3,49.64L459.3,49.64L459.31,49.65L463,51.22L463,51.22" style="vector-effect: none; fill: none; stroke: rgb(252, 141, 98); stroke-opacity: 1; stroke-width: 4px; opacity: 1;"/></g><g class="points"/><g class="text"/></g></g></g></g><g class="zerolinelayer-above"/><path class="xlines-above crisp" d="M0,0" style="fill: none;"/><path class="ylines-above crisp" d="M0,0" style="fill: none;"/><g class="overlines-above"/><g class="xaxislayer-above"><g class="xtick"><text text-anchor="middle" x="0" y="631" transform="translate(112,0)" style="font-family: 'Open Sans', verdana, arial, sans-serif; font-size: 30px; fill: rgb(42, 63, 95); fill-opacity: 1; white-space: pre;">0</text></g><g class="xtick"><text text-anchor="middle" x="0" y="631" style="font-family: 'Open Sans', verdana, arial, sans-serif; font-size: 30px; fill: rgb(42, 63, 95); fill-opacity: 1; white-space: pre;" transform="translate(189.17000000000002,0)">0.5</text></g><g class="xtick"><text text-anchor="middle" x="0" y="631" style="font-family: 'Open Sans', verdana, arial, sans-serif; font-size: 30px; fill: rgb(42, 63, 95); fill-opacity: 1; white-space: pre;" transform="translate(266.33000000000004,0)">1</text></g><g class="xtick"><text text-anchor="middle" x="0" y="631" style="font-family: 'Open Sans', verdana, arial, sans-serif; font-size: 30px; fill: rgb(42, 63, 95); fill-opacity: 1; white-space: pre;" transform="translate(343.5,0)">1.5</text></g><g class="xtick"><text text-anchor="middle" x="0" y="631" style="font-family: 'Open Sans', verdana, arial, sans-serif; font-size: 30px; fill: rgb(42, 63, 95); fill-opacity: 1; white-space: pre;" transform="translate(420.67,0)">2</text></g><g class="xtick"><text text-anchor="middle" x="0" y="631" style="font-family: 'Open Sans', verdana, arial, sans-serif; font-size: 30px; fill: rgb(42, 63, 95); fill-opacity: 1; white-space: pre;" transform="translate(497.83,0)">2.5</text></g><g class="xtick"><text text-anchor="middle" x="0" y="631" style="font-family: 'Open Sans', verdana, arial, sans-serif; font-size: 30px; fill: rgb(42, 63, 95); fill-opacity: 1; white-space: pre;" transform="translate(575,0)">3</text></g></g><g class="yaxislayer-above"><g class="ytick"><text text-anchor="end" x="111" y="14" transform="translate(0,578)" style="font-family: 'Open Sans', verdana, arial, sans-serif; font-size: 40px; fill: rgb(42, 63, 95); fill-opacity: 1; white-space: pre;">0</text></g><g class="ytick"><text text-anchor="end" x="111" y="14" style="font-family: 'Open Sans', verdana, arial, sans-serif; font-size: 40px; fill: rgb(42, 63, 95); fill-opacity: 1; white-space: pre;" transform="translate(0,498.8)">0.2</text></g><g class="ytick"><text text-anchor="end" x="111" y="14" style="font-family: 'Open Sans', verdana, arial, sans-serif; font-size: 40px; fill: rgb(42, 63, 95); fill-opacity: 1; white-space: pre;" transform="translate(0,419.6)">0.4</text></g><g class="ytick"><text text-anchor="end" x="111" y="14" style="font-family: 'Open Sans', verdana, arial, sans-serif; font-size: 40px; fill: rgb(42, 63, 95); fill-opacity: 1; white-space: pre;" transform="translate(0,340.4)">0.6</text></g><g class="ytick"><text text-anchor="end" x="111" y="14" style="font-family: 'Open Sans', verdana, arial, sans-serif; font-size: 40px; fill: rgb(42, 63, 95); fill-opacity: 1; white-space: pre;" transform="translate(0,261.2)">0.8</text></g><g class="ytick"><text text-anchor="end" x="111" y="14" style="font-family: 'Open Sans', verdana, arial, sans-serif; font-size: 40px; fill: rgb(42, 63, 95); fill-opacity: 1; white-space: pre;" transform="translate(0,182)">1</text></g></g><g class="overaxes-above"/></g></g><g class="polarlayer"/><g class="smithlayer"/><g class="ternarylayer"/><g class="geolayer"/><g class="funnelarealayer"/><g class="pielayer"/><g class="iciclelayer"/><g class="treemaplayer"/><g class="sunburstlayer"/><g class="glimages"/><defs id="topdefs-009603"><g class="clips"/><clipPath id="legend009603"><rect width="204" height="120" x="0" y="0"/></clipPath></defs><g class="layer-above"><g class="imagelayer"/><g class="shapelayer"/></g><g class="infolayer"><g class="legend" pointer-events="all" transform="translate(584.26,160)"><rect class="bg" shape-rendering="crispEdges" style="stroke: rgb(68, 68, 68); stroke-opacity: 1; fill: rgb(255, 255, 255); fill-opacity: 1; stroke-width: 0px;" width="204" height="120" x="0" y="0"/><g class="scrollbox" transform="" clip-path="url(#legend009603)"><g class="groups"><g class="traces" transform="translate(0,32.5)" style="opacity: 1;"><text class="legendtext" text-anchor="start" x="40" y="15.6" style="font-family: 'Open Sans', verdana, arial, sans-serif; font-size: 40px; fill: rgb(42, 63, 95); fill-opacity: 1; white-space: pre;">D1R_DA</text><g class="layers" style="opacity: 1;"><g class="legendfill"/><g class="legendlines"><path class="js-line" d="M5,0h30" style="fill: none; stroke: rgb(102, 194, 165); stroke-opacity: 1; stroke-width: 4px;"/></g><g class="legendsymbols"><g class="legendpoints"/></g></g><rect class="legendtoggle" x="0" y="-27.5" width="198.15234375" height="55" style="fill: rgb(0, 0, 0); fill-opacity: 0;"/></g><g class="traces" transform="translate(0,87.5)" style="opacity: 1;"><text class="legendtext" text-anchor="start" x="40" y="15.6" style="font-family: 'Open Sans', verdana, arial, sans-serif; font-size: 40px; fill: rgb(42, 63, 95); fill-opacity: 1; white-space: pre;">PKAc</text><g class="layers" style="opacity: 1;"><g class="legendfill"/><g class="legendlines"><path class="js-line" d="M5,0h30" style="fill: none; stroke: rgb(252, 141, 98); stroke-opacity: 1; stroke-width: 4px;"/></g><g class="legendsymbols"><g class="legendpoints"/></g></g><rect class="legendtoggle" x="0" y="-27.5" width="198.15234375" height="55" style="fill: rgb(0, 0, 0); fill-opacity: 0;"/></g></g></g><rect class="scrollbar" rx="20" ry="3" width="0" height="0" style="fill: rgb(128, 139, 164); fill-opacity: 1;" x="0" y="0"/></g><g class="g-gtitle"><text class="gtitle" x="400" y="70" text-anchor="middle" dy="0.7em" style="opacity: 1; font-family: 'Open Sans', verdana, arial, sans-serif; font-size: 60px; fill: rgb(42, 63, 95); fill-opacity: 1; white-space: pre;">dSPN, selected species</text></g><g class="g-xtitle"><text class="xtitle" x="343.5" y="679.5" text-anchor="middle" style="opacity: 1; font-family: 'Open Sans', verdana, arial, sans-serif; font-size: 40px; fill: rgb(42, 63, 95); fill-opacity: 1; white-space: pre;">Time (s)</text></g><g class="g-ytitle" transform="translate(9.109375,0)"><text class="ytitle" transform="rotate(-90,26.890625,380)" x="26.890625" y="380" text-anchor="middle" style="opacity: 1; font-family: 'Open Sans', verdana, arial, sans-serif; font-size: 40px; fill: rgb(42, 63, 95); fill-opacity: 1; white-space: pre;">Concentration (normalised)</text></g></g></svg>