<svg class="main-svg" xmlns="http://www.w3.org/2000/svg" xmlns:xlink="http://www.w3.org/1999/xlink" width="800" height="700" style="" viewBox="0 0 800 700"><rect x="0" y="0" width="800" height="700" style="fill: rgb(255, 255, 255); fill-opacity: 1;"/><defs id="defs-532812"><g class="clips"><clipPath id="clip532812xyplot" class="plotclip"><rect width="463" height="440"/></clipPath><clipPath class="axesclip" id="clip532812x"><rect x="112" y="0" width="463" height="700"/></clipPath><clipPath class="axesclip" id="clip532812y"><rect x="0" y="160" width="800" height="440"/></clipPath><clipPath class="axesclip" id="clip532812xy"><rect x="112" y="160" width="463" height="440"/></clipPath></g><g class="gradients"/><g class="patterns"/></defs><g class="bglayer"><rect class="bg" x="112" y="160" width="463" height="440" style="fill: rgb(229, 236, 246); fill-opacity: 1; stroke-width: 0;"/></g><g class="layer-below"><g class="imagelayer"/><g class="shapelayer"/></g><g class="cartesianlayer"><g class="subplot xy"><g class="layer-subplot"><g class="shapelayer"/><g class="imagelayer"/></g><g class="minor-gridlayer"><g class="x"/><g class="y"/></g><g class="gridlayer"><g class="x"><path class="xgrid crisp" transform="translate(227.75,0)" d="M0,160v440" style="stroke: rgb(255, 255, 255); stroke-opacity: 1; stroke-width: 1px;"/><path class="xgrid crisp" transform="translate(343.5,0)" d="M0,160v440" style="stroke: rgb(255, 255, 255); stroke-opacity: 1; stroke-width: 1px;"/><path class="xgrid crisp" transform="translate(459.25,0)" d="M0,160v440" style="stroke: rgb(255, 255, 255); stroke-opacity: 1; stroke-width: 1px;"/></g><g class="y"><path class="ygrid crisp" transform="translate(0,498.8)" d="M112,0h463" style="stroke: rgb(255, 255, 255); stroke-opacity: 1; stroke-width: 1px;"/><path class="ygrid crisp" transform="translate(0,419.6)" d="M112,0h463" style="stroke: rgb(255, 255, 255); stroke-opacity: 1; stroke-width: 1px;"/><path class="ygrid crisp" transform="translate(0,340.4)" d="M112,0h463" style="stroke: rgb(255, 255, 255); stroke-opacity: 1; stroke-width: 1px;"/><path class="ygrid crisp" transform="translate(0,261.2)" d="M112,0h463" style="stroke: rgb(255, 255, 255); stroke-opacity: 1; stroke-width: 1px;"/><path class="ygrid crisp" transform="translate(0,182)" d="M112,0h463" style="stroke: rgb(255, 255, 255); stroke-opacity: 1; stroke-width: 1px;"/></g></g><g class="zerolinelayer"><path class="xzl zl crisp" transform="translate(112,0)" d="M0,160v440" style="stroke: rgb(255, 255, 255); stroke-opacity: 1; stroke-width: 2px;"/><path class="yzl zl crisp" transform="translate(0,578)" d="M112,0h463" style="stroke: rgb(255, 255, 255); stroke-opacity: 1; stroke-width: 2px;"/></g><g class="layer-between"><g class="shapelayer"/><g class="imagelayer"/></g><path class="xlines-below"/><path class="ylines-below"/><g class="overlines-below"/><g class="xaxislayer-below"/><g class="yaxislayer-below"/><g class="overaxes-below"/><g class="overplot"><g class="xy" transform="translate(112,160)" clip-path="url(#clip532812xyplot)"><g class="scatterlayer mlayer"><g class="trace scatter trace6e4c35" style="stroke-miterlimit: 2; opacity: 1;"><g class="fills"/><g class="errorbars"/><g class="lines"><path class="js-line" d="M0,416.47L115.75,416.81L115.76,390.56L116.76,63.66L116.77,63.64L119.94,58.66L119.95,58.66L132.73,42.27L132.74,42.26L143.4,30.71L143.41,30.71L149.71,25.82L149.71,25.82L149.72,25.82L155.73,23.62L155.74,23.62L164.49,22.46L164.49,22.46L164.5,22.46L193.11,22.01L193.11,22.01L193.12,22.01L231.73,22L231.73,22L231.74,24.46L232.74,284.86L232.75,285.68L235.04,406.81L235.05,406.88L237.01,416.66L237.02,416.67L239.08,417.86L239.08,417.86L239.09,417.86L246.76,418L246.76,418L246.77,418L463,418" style="vector-effect: none; fill: none; stroke: rgb(102, 194, 165); stroke-opacity: 1; stroke-width: 4px; opacity: 1;"/></g><g class="points"/><g class="text"/></g><g class="trace scatter trace011d69" style="stroke-miterlimit: 2; opacity: 1;"><g class="fills"/><g class="errorbars"/><g class="lines"><path class="js-line" d="M0,400L134.02,399L134.02,399L134.03,398.99L140.86,396.62L140.86,396.61L145.47,393.19L145.47,393.18L149.88,387.71L149.88,387.7L154.9,378.13L154.9,378.11L159.8,364.81L159.8,364.79L164.35,348.78L164.35,348.76L168.36,331.92L168.36,331.9L174.78,300.65L174.78,300.62L206.44,135.71L206.45,135.68L211.73,114.36L211.74,114.34L218.79,90.22L218.8,90.21L224.92,73.26L224.93,73.25L230.76,60.3L230.77,60.29L237.94,48.17L237.94,48.17L237.95,48.16L244.01,40.62L244.02,40.62L251.63,33.92L251.63,33.92L251.64,33.91L262.01,28.33L262.01,28.33L262.02,28.33L271.16,25.56L271.16,25.56L271.17,25.56L282.93,23.65L282.93,23.65L282.94,23.65L296.68,22.6L296.68,22.6L296.69,22.6L328.63,22L328.63,22L328.64,22L394.71,23L394.71,23L394.72,23.01L429.96,24.01L429.96,24.02L458.9,25.02L458.9,25.03L463,25.18" style="vector-effect: none; fill: none; stroke: rgb(252, 141, 98); stroke-opacity: 1; stroke-width: 4px; opacity: 1;"/></g><g class="points"/><g class="text"/></g><g class="trace scatter trace7506de" style="stroke-miterlimit: 2; opacity: 1;"><g class="fills"/><g class="errorbars"/><g class="lines"><path class="js-line" d="M0,415.78L118.68,414.78L118.68,414.77L123.67,410.86L123.67,410.85L130.51,403.55L130.51,403.54L136.53,394.56L136.53,394.55L143.15,380.61L143.15,380.59L156.63,344.25L156.63,344.24L172.93,300.68L172.94,300.67L183.4,277.19L183.41,277.18L191.78,259.87L191.79,259.86L232.25,173.01L232.25,172.99L263.87,106.53L263.88,106.52L276.18,86.42L276.19,86.42L286.99,71.55L287,71.55L296.85,60.08L296.85,60.08L296.86,60.07L309.48,48L309.49,48L320.72,39.49L320.73,39.49L331.49,33.11L331.5,33.11L342.08,28.37L342.08,28.37L342.09,28.37L352.52,25.06L352.52,25.06L352.53,25.06L366.73,22.53L366.74,22.53L381.23,22.08L381.23,22.08L381.24,22.08L392.65,23.08L392.65,23.08L392.66,23.09L404.37,25.26L404.37,25.26L404.38,25.27L417.02,28.81L417.02,28.82L430.9,34.02L430.9,34.02L430.91,34.03L449.3,42.84L449.3,42.85L463,50.7" style="vector-effect: none; fill: none; stroke: rgb(141, 160, 203); stroke-opacity: 1; stroke-width: 4px; opacity: 1;"/></g><g class="points"/><g class="text"/></g></g></g></g><g class="zerolinelayer-above"/><path class="xlines-above crisp" d="M0,0" style="fill: none;"/><path class="ylines-above crisp" d="M0,0" style="fill: none;"/><g class="overlines-above"/><g class="xaxislayer-above"><g class="xtick"><text text-anchor="middle" x="0" y="631" transform="translate(112,0)" style="font-family: 'Open Sans', verdana, arial, sans-serif; font-size: 30px; fill: rgb(42, 63, 95); fill-opacity: 1; white-space: pre;">0</text></g><g class="xtick"><text text-anchor="middle" x="0" y="631" style="font-family: 'Open Sans', verdana, arial, sans-serif; font-size: 30px; fill: rgb(42, 63, 95); fill-opacity: 1; white-space: pre;" transform="translate(227.75,0)">0.5</text></g><g class="xtick"><text text-anchor="middle" x="0" y="631" style="font-family: 'Open Sans', verdana, arial, sans-serif; font-size: 30px; fill: rgb(42, 63, 95); fill-opacity: 1; white-space: pre;" transform="translate(343.5,0)">1</text></g><g class="xtick"><text text-anchor="middle" x="0" y="631" style="font-family: 'Open Sans', verdana, arial, sans-serif; font-size: 30px; fill: rgb(42, 63, 95); fill-opacity: 1; white-space: pre;" transform="translate(459.25,0)">1.5</text></g><g class="xtick"><text text-anchor="middle" x="0" y="631" style="font-family: 'Open Sans', verdana, arial, sans-serif; font-size: 30px; fill: rgb(42, 63, 95); fill-opacity: 1; white-space: pre;" transform="translate(575,0)">2</text></g></g><g class="yaxislayer-above"><g class="ytick"><text text-anchor="end" x="111" y="14" transform="translate(0,578)" style="font-family: 'Open Sans', verdana, arial, sans-serif; font-size: 40px; fill: rgb(42, 63, 95); fill-opacity: 1; white-space: pre;">0</text></g><g class="ytick"><text text-anchor="end" x="111" y="14" style="font-family: 'Open Sans', verdana, arial, sans-serif; font-size: 40px; fill: rgb(42, 63, 95); fill-opacity: 1; white-space: pre;" transform="translate(0,498.8)">0.2</text></g><g class="ytick"><text text-anchor="end" x="111" y="14" style="font-family: 'Open Sans', verdana, arial, sans-serif; font-size: 40px; fill: rgb(42, 63, 95); fill-opacity: 1; white-space: pre;" transform="translate(0,419.6)">0.4</text></g><g class="ytick"><text text-anchor="end" x="111" y="14" style="font-family: 'Open Sans', verdana, arial, sans-serif; font-size: 40px; fill: rgb(42, 63, 95); fill-opacity: 1; white-space: pre;" transform="translate(0,340.4)">0.6</text></g><g class="ytick"><text text-anchor="end" x="111" y="14" style="font-family: 'Open Sans', verdana, arial, sans-serif; font-size: 40px; fill: rgb(42, 63, 95); fill-opacity: 1; white-space: pre;" transform="translate(0,261.2)">0.8</text></g><g class="ytick"><text text-anchor="end" x="111" y="14" style="font-family: 'Open Sans', verdana, arial, sans-serif; font-size: 40px; fill: rgb(42, 63, 95); fill-opacity: 1; white-space: pre;" transform="translate(0,182)">1</text></g></g><g class="overaxes-above"/></g></g><g class="polarlayer"/><g class="smithlayer"/><g class="ternarylayer"/><g class="geolayer"/><g class="funnelarealayer"/><g class="pielayer"/><g class="iciclelayer"/><g class="treemaplayer"/><g class="sunburstlayer"/><g class="glimages"/><defs id="topdefs-532812"><g class="clips"/><clipPath id="legend532812"><rect width="204" height="175" x="0" y="0"/></clipPath></defs><g class="layer-above"><g class="imagelayer"/><g class="shapelayer"/></g><g class="infolayer"><g class="legend" pointer-events="all" transform="translate(584.26,160)"><rect class="bg" shape-rendering="crispEdges" style="stroke: rgb(68, 68, 68); stroke-opacity: 1; fill: rgb(255, 255, 255); fill-opacity: 1; stroke-width: 0px;" width="204" height="175" x="0" y="0"/><g class="scrollbox" transform="" clip-path="url(#legend532812)"><g class="groups"><g class="traces" transform="translate(0,32.5)" style="opacity: 1;"><text class="legendtext" text-anchor="start" x="40" y="15.6" style="font-family: 'Open Sans', verdana, arial, sans-serif; font-size: 40px; fill: rgb(42, 63, 95); fill-opacity: 1; white-space: pre;">D1R_DA</text><g class="layers" style="opacity: 1;"><g class="legendfill"/><g class="legendlines"><path class="js-line" d="M5,0h30" style="fill: none; stroke: rgb(102, 194, 165); stroke-opacity: 1; stroke-width: 4px;"/></g><g class="legendsymbols"><g class="legendpoints"/></g></g><rect class="legendtoggle" x="0" y="-27.5" width="198.15234375" height="55" style="fill: rgb(0, 0, 0); fill-opacity: 0;"/></g><g class="traces" transform="translate(0,87.5)" style="opacity: 1;"><text class="legendtext" text-anchor="start" x="40" y="15.6" style="font-family: 'Open Sans', verdana, arial, sans-serif; font-size: 40px; fill: rgb(42, 63, 95); fill-opacity: 1; white-space: pre;">PKAc</text><g class="layers" style="opacity: 1;"><g class="legendfill"/><g class="legendlines"><path class="js-line" d="M5,0h30" style="fill: none; stroke: rgb(252, 141, 98); stroke-opacity: 1; stroke-width: 4px;"/></g><g class="legendsymbols"><g class="legendpoints"/></g></g><rect class="legendtoggle" x="0" y="-27.5" width="198.15234375" height="55" style="fill: rgb(0, 0, 0); fill-opacity: 0;"/></g><g class="traces" transform="translate(0,142.5)" style="opacity: 1;"><text class="legendtext" text-anchor="start" x="40" y="15.6" style="font-family: 'Open Sans', verdana, arial, sans-serif; font-size: 40px; fill: rgb(42, 63, 95); fill-opacity: 1; white-space: pre;">cAMP</text><g class="layers" style="opacity: 1;"><g class="legendfill"/><g class="legendlines"><path class="js-line" d="M5,0h30" style="fill: none; stroke: rgb(141, 160, 203); stroke-opacity: 1; stroke-width: 4px;"/></g><g class="legendsymbols"><g class="legendpoints"/></g></g><rect class="legendtoggle" x="0" y="-27.5" width="198.15234375" height="55" style="fill: rgb(0, 0, 0); fill-opacity: 0;"/></g></g></g><rect class="scrollbar" rx="20" ry="3" width="0" height="0" style="fill: rgb(128, 139, 164); fill-opacity: 1;" x="0" y="0"/></g><g class="g-gtitle"><text class="gtitle" x="400" y="70" text-anchor="middle" dy="0.7em" style="opacity: 1; font-family: 'Open Sans', verdana, arial, sans-serif; font-size: 60px; fill: rgb(42, 63, 95); fill-opacity: 1; white-space: pre;">dSPN, selected species</text></g><g class="g-xtitle"><text class="xtitle" x="343.5" y="679.5" text-anchor="middle" style="opacity: 1; font-family: 'Open Sans', verdana, arial, sans-serif; font-size: 40px; fill: rgb(42, 63, 95); fill-opacity: 1; white-space: pre;">Time (s)</text></g><g class="g-ytitle" transform="translate(9.109375,0)"><text class="ytitle" transform="rotate(-90,26.890625,380)" x="26.890625" y="380" text-anchor="middle" style="opacity: 1; font-family: 'Open Sans', verdana, arial, sans-serif; font-size: 40px; fill: rgb(42, 63, 95); fill-opacity: 1; white-space: pre;">Concentration (normalised)</text></g></g></svg>