<svg class="main-svg" xmlns="http://www.w3.org/2000/svg" xmlns:xlink="http://www.w3.org/1999/xlink" width="400" height="400" style="" viewBox="0 0 400 400"><rect x="0" y="0" width="400" height="400" style="fill: rgb(255, 255, 255); fill-opacity: 1;"/><defs id="defs-872233"><g class="clips"><clipPath id="clip872233xyplot" class="plotclip"><rect width="217" height="295"/></clipPath><clipPath class="axesclip" id="clip872233x"><rect x="60" y="0" width="217" height="400"/></clipPath><clipPath class="axesclip" id="clip872233y"><rect x="0" y="48" width="400" height="295"/></clipPath><clipPath class="axesclip" id="clip872233xy"><rect x="60" y="48" width="217" height="295"/></clipPath></g><g class="gradients"/><g class="patterns"/></defs><g class="bglayer"/><g class="layer-below"><g class="imagelayer"/><g class="shapelayer"/></g><g class="cartesianlayer"><g class="subplot xy"><g class="layer-subplot"><g class="shapelayer"/><g class="imagelayer"/></g><g class="minor-gridlayer"><g class="x"/><g class="y"/></g><g class="gridlayer"><g class="x"><path class="xgrid crisp" transform="translate(109.32,0)" d="M0,48v295" style="stroke: rgb(255, 255, 255); stroke-opacity: 1; stroke-width: 1px;"/><path class="xgrid crisp" transform="translate(158.64,0)" d="M0,48v295" style="stroke: rgb(255, 255, 255); stroke-opacity: 1; stroke-width: 1px;"/><path class="xgrid crisp" transform="translate(207.95,0)" d="M0,48v295" style="stroke: rgb(255, 255, 255); stroke-opacity: 1; stroke-width: 1px;"/><path class="xgrid crisp" transform="translate(257.27,0)" d="M0,48v295" style="stroke: rgb(255, 255, 255); stroke-opacity: 1; stroke-width: 1px;"/></g><g class="y"><path class="ygrid crisp" transform="translate(0,334.02)" d="M60,0h217" style="stroke: rgb(255, 255, 255); stroke-opacity: 1; stroke-width: 1px;"/><path class="ygrid crisp" transform="translate(0,279.76)" d="M60,0h217" style="stroke: rgb(255, 255, 255); stroke-opacity: 1; stroke-width: 1px;"/><path class="ygrid crisp" transform="translate(0,171.25)" d="M60,0h217" style="stroke: rgb(255, 255, 255); stroke-opacity: 1; stroke-width: 1px;"/><path class="ygrid crisp" transform="translate(0,117)" d="M60,0h217" style="stroke: rgb(255, 255, 255); stroke-opacity: 1; stroke-width: 1px;"/><path class="ygrid crisp" transform="translate(0,62.74)" d="M60,0h217" style="stroke: rgb(255, 255, 255); stroke-opacity: 1; stroke-width: 1px;"/></g></g><g class="zerolinelayer"><path class="xzl zl crisp" transform="translate(60,0)" d="M0,48v295" style="stroke: rgb(255, 255, 255); stroke-opacity: 1; stroke-width: 2px;"/><path class="yzl zl crisp" transform="translate(0,225.51)" d="M60,0h217" style="stroke: rgb(255, 255, 255); stroke-opacity: 1; stroke-width: 2px;"/></g><g class="layer-between"><g class="shapelayer"/><g class="imagelayer"/></g><path class="xlines-below"/><path class="ylines-below"/><g class="overlines-below"/><g class="xaxislayer-below"/><g class="yaxislayer-below"/><g class="overaxes-below"/><g class="overplot"><g class="xy" transform="translate(60,48)" clip-path="url(#clip872233xyplot)"><g class="scatterlayer mlayer"><g class="trace scatter trace759a16" style="stroke-miterlimit: 2; opacity: 1;"><g class="fills"/><g class="errorbars"/><g class="lines"><path class="js-line" d="M0,95.91L47.72,96.86L47.72,96.86L47.72,96.87L55.28,99L55.28,99L55.28,99.01L60.36,102.22L60.36,102.22L60.36,102.23L64.38,106.78L64.38,106.78L64.38,106.79L67.92,113.17L67.92,113.17L67.92,113.18L71.47,122.51L71.47,122.52L75.66,136.78L75.66,136.79L82.93,157.93L82.93,157.93L82.94,157.94L86.42,162.67L86.42,162.67L86.43,162.68L90.54,165.16L90.54,165.16L90.55,165.16L96.44,166.27L96.44,166.27L96.45,166.27L109.99,166.62L109.99,166.62L110,166.62L217,166.66L217,166.66" style="vector-effect: none; fill: none; stroke: rgb(178, 24, 43); stroke-opacity: 1; stroke-width: 4px; opacity: 1;"/></g><g class="points"/><g class="text"/></g><g class="trace scatter trace1febcb" style="stroke-miterlimit: 2; opacity: 1;"><g class="fills"/><g class="errorbars"/><g class="lines"><path class="js-line" d="M0,280.06L40.53,279.25L40.53,279.25L40.54,279.24L46.85,276.97L46.85,276.97L46.86,276.96L51.87,273.05L51.87,273.05L51.87,273.04L56.01,267.16L56.01,267.16L56.01,267.15L59.67,258.52L59.67,258.51L64.25,239.96L64.25,239.94L67.89,215.55L67.89,215.53L70.4,192.07L70.4,192.05L75.8,124.9L75.8,124.86L84.49,38L84.5,37.99L87.07,27.56L87.08,27.55L90.08,21.01L90.08,21.01L90.09,21L93.51,17.54L93.52,17.54L98.09,15.77L98.09,15.77L98.1,15.77L105.26,15.01L105.26,15.01L105.27,15.01L130.19,14.76L130.19,14.76L130.2,14.76L217,14.75L217,14.75" style="vector-effect: none; fill: none; stroke: rgb(178, 24, 43); stroke-opacity: 1; stroke-dasharray: 12px, 4px, 4px, 4px; stroke-width: 4px; opacity: 1;"/></g><g class="points"/><g class="text"/></g><g class="trace scatter traceda86ee" style="stroke-miterlimit: 2; opacity: 1;"><g class="fills"/><g class="errorbars"/><g class="lines"><path class="js-line" d="M0,119.41L60.02,120.4L60.02,120.41L69.05,122.31L69.05,122.32L77.44,125.87L77.44,125.87L77.45,125.88L91.34,131.77L91.34,131.77L91.35,131.77L101.39,133.26L101.39,133.26L101.4,133.26L117.13,133.83L117.13,133.83L117.14,133.83L140.16,133.98L140.16,133.98L140.17,133.98L217,134.01L217,134.01" style="vector-effect: none; fill: none; stroke: rgb(178, 24, 43); stroke-opacity: 1; stroke-dasharray: 12px, 12px; stroke-width: 4px; opacity: 1;"/></g><g class="points"/><g class="text"/></g><g class="trace scatter tracef97c12" style="stroke-miterlimit: 2; opacity: 1;"><g class="fills"/><g class="errorbars"/><g class="lines"><path class="js-line" d="M0,119.84L62.09,120.83L62.09,120.83L62.09,120.84L70.01,122.63L70.01,122.63L70.01,122.64L79.1,126.4L79.1,126.4L79.1,126.41L86.95,128.24L86.95,128.24L86.96,128.24L101.15,128.66L101.15,128.66L101.16,128.66L217,128.68L217,128.68" style="vector-effect: none; fill: none; stroke: rgb(85, 85, 85); stroke-opacity: 1; stroke-width: 4px; opacity: 1;"/></g><g class="points"/><g class="text"/></g><g class="trace scatter trace628ce9" style="stroke-miterlimit: 2; opacity: 1;"><g class="fills"/><g class="errorbars"/><g class="lines"><path class="js-line" d="M0,130.09L57.03,129.1L57.03,129.1L57.04,129.09L64.45,127.35L64.45,127.35L64.45,127.34L70.76,123.97L70.76,123.97L70.76,123.96L76.77,118.89L76.77,118.89L76.77,118.88L84.22,114.05L84.22,114.05L84.23,114.05L90.55,112.78L90.55,112.78L90.56,112.78L104.14,112.42L104.14,112.42L104.15,112.42L217,112.4L217,112.4" style="vector-effect: none; fill: none; stroke: rgb(239, 138, 98); stroke-opacity: 1; stroke-width: 4px; opacity: 1;"/></g><g class="points"/><g class="text"/></g><g class="trace scatter tracec6897f" style="stroke-miterlimit: 2; opacity: 1;"><g class="fills"/><g class="errorbars"/><g class="lines"><path class="js-line" d="M0,124.88L62.09,123.89L62.09,123.89L62.09,123.88L84.2,123.68L84.2,123.68L84.2,123.69L87.91,125.44L87.91,125.45L91.44,129.6L91.44,129.6L91.44,129.61L95.51,133.05L95.51,133.05L95.52,133.05L100.19,133.94L100.19,133.94L100.2,133.94L111.84,134.1L111.84,134.1L111.85,134.1L217,134.1L217,134.1" style="vector-effect: none; fill: none; stroke: rgb(239, 138, 98); stroke-opacity: 1; stroke-dasharray: 12px, 12px; stroke-width: 4px; opacity: 1;"/></g><g class="points"/><g class="text"/></g></g></g></g><g class="zerolinelayer-above"/><path class="xlines-above crisp" d="M0,0" style="fill: none;"/><path class="ylines-above crisp" d="M0,0" style="fill: none;"/><g class="overlines-above"/><g class="xaxislayer-above"><g class="xtick"><text text-anchor="middle" x="0" y="359" transform="translate(60,0)" style="font-family: 'Open Sans', verdana, arial, sans-serif; font-size: 15px; fill: rgb(42, 63, 95); fill-opacity: 1; white-space: pre;">0</text></g><g class="xtick"><text text-anchor="middle" x="0" y="359" style="font-family: 'Open Sans', verdana, arial, sans-serif; font-size: 15px; fill: rgb(42, 63, 95); fill-opacity: 1; white-space: pre;" transform="translate(109.32,0)">0.5</text></g><g class="xtick"><text text-anchor="middle" x="0" y="359" style="font-family: 'Open Sans', verdana, arial, sans-serif; font-size: 15px; fill: rgb(42, 63, 95); fill-opacity: 1; white-space: pre;" transform="translate(158.64,0)">1</text></g><g class="xtick"><text text-anchor="middle" x="0" y="359" style="font-family: 'Open Sans', verdana, arial, sans-serif; font-size: 15px; fill: rgb(42, 63, 95); fill-opacity: 1; white-space: pre;" transform="translate(207.95,0)">1.5</text></g><g class="xtick"><text text-anchor="middle" x="0" y="359" style="font-family: 'Open Sans', verdana, arial, sans-serif; font-size: 15px; fill: rgb(42, 63, 95); fill-opacity: 1; white-space: pre;" transform="translate(257.27,0)">2</text></g></g><g class="yaxislayer-above"><g class="ytick"><text text-anchor="end" x="59" y="5.25" transform="translate(0,334.02)" style="font-family: 'Open Sans', verdana, arial, sans-serif; font-size: 15px; fill: rgb(42, 63, 95); fill-opacity: 1; white-space: pre;">−2</text></g><g class="ytick"><text text-anchor="end" x="59" y="5.25" style="font-family: 'Open Sans', verdana, arial, sans-serif; font-size: 15px; fill: rgb(42, 63, 95); fill-opacity: 1; white-space: pre;" transform="translate(0,279.76)">−1</text></g><g class="ytick"><text text-anchor="end" x="59" y="5.25" style="font-family: 'Open Sans', verdana, arial, sans-serif; font-size: 15px; fill: rgb(42, 63, 95); fill-opacity: 1; white-space: pre;" transform="translate(0,225.51)">0</text></g><g class="ytick"><text text-anchor="end" x="59" y="5.25" style="font-family: 'Open Sans', verdana, arial, sans-serif; font-size: 15px; fill: rgb(42, 63, 95); fill-opacity: 1; white-space: pre;" transform="translate(0,171.25)">1</text></g><g class="ytick"><text text-anchor="end" x="59" y="5.25" style="font-family: 'Open Sans', verdana, arial, sans-serif; font-size: 15px; fill: rgb(42, 63, 95); fill-opacity: 1; white-space: pre;" transform="translate(0,117)">2</text></g><g class="ytick"><text text-anchor="end" x="59" y="5.25" style="font-family: 'Open Sans', verdana, arial, sans-serif; font-size: 15px; fill: rgb(42, 63, 95); fill-opacity: 1; white-space: pre;" transform="translate(0,62.74)">3</text></g></g><g class="overaxes-above"/></g></g><g class="polarlayer"/><g class="smithlayer"/><g class="ternarylayer"/><g class="geolayer"/><g class="funnelarealayer"/><g class="pielayer"/><g class="iciclelayer"/><g class="treemaplayer"/><g class="sunburstlayer"/><g class="glimages"/><defs id="topdefs-872233"><g class="clips"/><clipPath id="legend872233"><rect width="107" height="145" x="0" y="0"/></clipPath></defs><g class="layer-above"><g class="imagelayer"/><g class="shapelayer"/></g><g class="infolayer"><g class="legend" pointer-events="all" transform="translate(281.34000000000003,48)"><rect class="bg" shape-rendering="crispEdges" style="stroke: rgb(68, 68, 68); stroke-opacity: 1; fill: rgb(255, 255, 255); fill-opacity: 1; stroke-width: 0px;" width="107" height="145" x="0" y="0"/><g class="scrollbox" transform="" clip-path="url(#legend872233)"><g class="groups"><g class="traces" transform="translate(0,16.25)" style="opacity: 1;"><text class="legendtext" text-anchor="start" x="40" y="5.85" style="font-family: 'Open Sans', verdana, arial, sans-serif; font-size: 15px; fill: rgb(42, 63, 95); fill-opacity: 1; white-space: pre;">sk (g)</text><g class="layers" style="opacity: 1;"><g class="legendfill"/><g class="legendlines"><path class="js-line" d="M5,0h30" style="fill: none; stroke: rgb(178, 24, 43); stroke-opacity: 1; stroke-width: 4px;"/></g><g class="legendsymbols"><g class="legendpoints"/></g></g><rect class="legendtoggle" x="0" y="-11.25" width="101.6875" height="22.5" style="fill: rgb(0, 0, 0); fill-opacity: 0;"/></g><g class="traces" transform="translate(0,38.75)" style="opacity: 1;"><text class="legendtext" text-anchor="start" x="40" y="5.85" style="font-family: 'Open Sans', verdana, arial, sans-serif; font-size: 15px; fill: rgb(42, 63, 95); fill-opacity: 1; white-space: pre;">kaf (shift)</text><g class="layers" style="opacity: 1;"><g class="legendfill"/><g class="legendlines"><path class="js-line" d="M5,0h30" style="fill: none; stroke: rgb(178, 24, 43); stroke-opacity: 1; stroke-dasharray: 12px, 4px, 4px, 4px; stroke-width: 4px;"/></g><g class="legendsymbols"><g class="legendpoints"/></g></g><rect class="legendtoggle" x="0" y="-11.25" width="101.6875" height="22.5" style="fill: rgb(0, 0, 0); fill-opacity: 0;"/></g><g class="traces" transform="translate(0,61.25)" style="opacity: 1;"><text class="legendtext" text-anchor="start" x="40" y="5.85" style="font-family: 'Open Sans', verdana, arial, sans-serif; font-size: 15px; fill: rgb(42, 63, 95); fill-opacity: 1; white-space: pre;">kas (g)</text><g class="layers" style="opacity: 1;"><g class="legendfill"/><g class="legendlines"><path class="js-line" d="M5,0h30" style="fill: none; stroke: rgb(178, 24, 43); stroke-opacity: 1; stroke-dasharray: 12px, 12px; stroke-width: 4px;"/></g><g class="legendsymbols"><g class="legendpoints"/></g></g><rect class="legendtoggle" x="0" y="-11.25" width="101.6875" height="22.5" style="fill: rgb(0, 0, 0); fill-opacity: 0;"/></g><g class="traces" transform="translate(0,83.75)" style="opacity: 1;"><text class="legendtext" text-anchor="start" x="40" y="5.85" style="font-family: 'Open Sans', verdana, arial, sans-serif; font-size: 15px; fill: rgb(42, 63, 95); fill-opacity: 1; white-space: pre;">naf (g)</text><g class="layers" style="opacity: 1;"><g class="legendfill"/><g class="legendlines"><path class="js-line" d="M5,0h30" style="fill: none; stroke: rgb(85, 85, 85); stroke-opacity: 1; stroke-width: 4px;"/></g><g class="legendsymbols"><g class="legendpoints"/></g></g><rect class="legendtoggle" x="0" y="-11.25" width="101.6875" height="22.5" style="fill: rgb(0, 0, 0); fill-opacity: 0;"/></g><g class="traces" transform="translate(0,106.25)" style="opacity: 1;"><text class="legendtext" text-anchor="start" x="40" y="5.85" style="font-family: 'Open Sans', verdana, arial, sans-serif; font-size: 15px; fill: rgb(42, 63, 95); fill-opacity: 1; white-space: pre;">cal (g)</text><g class="layers" style="opacity: 1;"><g class="legendfill"/><g class="legendlines"><path class="js-line" d="M5,0h30" style="fill: none; stroke: rgb(239, 138, 98); stroke-opacity: 1; stroke-width: 4px;"/></g><g class="legendsymbols"><g class="legendpoints"/></g></g><rect class="legendtoggle" x="0" y="-11.25" width="101.6875" height="22.5" style="fill: rgb(0, 0, 0); fill-opacity: 0;"/></g><g class="traces" transform="translate(0,128.75)" style="opacity: 1;"><text class="legendtext" text-anchor="start" x="40" y="5.85" style="font-family: 'Open Sans', verdana, arial, sans-serif; font-size: 15px; fill: rgb(42, 63, 95); fill-opacity: 1; white-space: pre;">car (g)</text><g class="layers" style="opacity: 1;"><g class="legendfill"/><g class="legendlines"><path class="js-line" d="M5,0h30" style="fill: none; stroke: rgb(239, 138, 98); stroke-opacity: 1; stroke-dasharray: 12px, 12px; stroke-width: 4px;"/></g><g class="legendsymbols"><g class="legendpoints"/></g></g><rect class="legendtoggle" x="0" y="-11.25" width="101.6875" height="22.5" style="fill: rgb(0, 0, 0); fill-opacity: 0;"/></g></g></g><rect class="scrollbar" rx="20" ry="3" width="0" height="0" style="fill: rgb(128, 139, 164); fill-opacity: 1;" x="0" y="0"/></g><g class="g-gtitle"><text class="gtitle" x="200" y="40" text-anchor="middle" dy="0.7em" style="opacity: 1; font-family: 'Open Sans', verdana, arial, sans-serif; font-size: 20px; fill: rgb(42, 63, 95); fill-opacity: 1; white-space: pre;">dSPN modulation</text></g><g class="g-xtitle"><text class="xtitle" x="168.5" y="387" text-anchor="middle" style="opacity: 1; font-family: 'Open Sans', verdana, arial, sans-serif; font-size: 15px; fill: rgb(42, 63, 95); fill-opacity: 1; white-space: pre;">Time (s)</text></g><g class="g-ytitle"><text class="ytitle" transform="rotate(-90,22.140625,195.5)" x="22.140625" y="195.5" text-anchor="middle" style="opacity: 1; font-family: 'Open Sans', verdana, arial, sans-serif; font-size: 15px; fill: rgb(42, 63, 95); fill-opacity: 1; white-space: pre;">Modulation</text></g></g></svg>