<svg class="main-svg" xmlns="http://www.w3.org/2000/svg" xmlns:xlink="http://www.w3.org/1999/xlink" width="1200" height="800" style="" viewBox="0 0 1200 800"><rect x="0" y="0" width="1200" height="800" style="fill: rgb(255, 255, 255); fill-opacity: 1;"/><defs id="defs-2fe1ab"><g class="clips"><clipPath id="clip2fe1abxyplot" class="plotclip"><rect width="545" height="608"/></clipPath><clipPath class="axesclip" id="clip2fe1abx"><rect x="114" y="0" width="545" height="800"/></clipPath><clipPath class="axesclip" id="clip2fe1aby"><rect x="0" y="100" width="1200" height="608"/></clipPath><clipPath class="axesclip" id="clip2fe1abxy"><rect x="114" y="100" width="545" height="608"/></clipPath></g><g class="gradients"/><g class="patterns"/></defs><g class="bglayer"/><g class="layer-below"><g class="imagelayer"/><g class="shapelayer"/></g><g class="cartesianlayer"><g class="subplot xy"><g class="layer-subplot"><g class="shapelayer"/><g class="imagelayer"/></g><g class="minor-gridlayer"><g class="x"/><g class="y"/></g><g class="gridlayer"><g class="x"><path class="xgrid crisp" transform="translate(250.25,0)" d="M0,100v608" style="stroke: rgb(255, 255, 255); stroke-opacity: 1; stroke-width: 1px;"/><path class="xgrid crisp" transform="translate(386.5,0)" d="M0,100v608" style="stroke: rgb(255, 255, 255); stroke-opacity: 1; stroke-width: 1px;"/><path class="xgrid crisp" transform="translate(522.75,0)" d="M0,100v608" style="stroke: rgb(255, 255, 255); stroke-opacity: 1; stroke-width: 1px;"/></g><g class="y"><path class="ygrid crisp" transform="translate(0,680.04)" d="M114,0h545" style="stroke: rgb(255, 255, 255); stroke-opacity: 1; stroke-width: 1px;"/><path class="ygrid crisp" transform="translate(0,611.3299999999999)" d="M114,0h545" style="stroke: rgb(255, 255, 255); stroke-opacity: 1; stroke-width: 1px;"/><path class="ygrid crisp" transform="translate(0,542.63)" d="M114,0h545" style="stroke: rgb(255, 255, 255); stroke-opacity: 1; stroke-width: 1px;"/><path class="ygrid crisp" transform="translate(0,473.92)" d="M114,0h545" style="stroke: rgb(255, 255, 255); stroke-opacity: 1; stroke-width: 1px;"/><path class="ygrid crisp" transform="translate(0,405.21)" d="M114,0h545" style="stroke: rgb(255, 255, 255); stroke-opacity: 1; stroke-width: 1px;"/><path class="ygrid crisp" transform="translate(0,336.51)" d="M114,0h545" style="stroke: rgb(255, 255, 255); stroke-opacity: 1; stroke-width: 1px;"/><path class="ygrid crisp" transform="translate(0,267.8)" d="M114,0h545" style="stroke: rgb(255, 255, 255); stroke-opacity: 1; stroke-width: 1px;"/><path class="ygrid crisp" transform="translate(0,199.1)" d="M114,0h545" style="stroke: rgb(255, 255, 255); stroke-opacity: 1; stroke-width: 1px;"/><path class="ygrid crisp" transform="translate(0,130.39)" d="M114,0h545" style="stroke: rgb(255, 255, 255); stroke-opacity: 1; stroke-width: 1px;"/></g></g><g class="zerolinelayer"><path class="xzl zl crisp" transform="translate(114,0)" d="M0,100v608" style="stroke: rgb(255, 255, 255); stroke-opacity: 1; stroke-width: 2px;"/></g><g class="layer-between"><g class="shapelayer"/><g class="imagelayer"/></g><path class="xlines-below"/><path class="ylines-below"/><g class="overlines-below"/><g class="xaxislayer-below"/><g class="yaxislayer-below"/><g class="overaxes-below"/><g class="overplot"><g class="xy" transform="translate(114,100)" clip-path="url(#clip2fe1abxyplot)"><g class="scatterlayer mlayer"><g class="trace scatter trace516611" style="stroke-miterlimit: 2; opacity: 1;"><g class="fills"/><g class="errorbars"/><g class="lines"><path class="js-line" d="M0,478.37L29.5,479.37L29.5,479.37L29.5,479.38L52.72,481.53L52.72,481.53L52.72,481.54L91.63,486.42L91.63,486.43L118.78,490.14L118.78,490.14L118.78,490.15L152.12,493.34L152.12,493.34L152.12,493.33L156.31,491.48L156.31,491.48L156.31,491.47L159.79,487.63L159.79,487.63L159.79,487.62L162.71,481.28L162.71,481.28L162.71,481.27L165.32,471.31L165.32,471.3L168.26,451.57L168.26,451.55L171.7,407.5L171.7,407.47L172.87,384.65L172.87,384.61L176.36,286.03L176.36,285.97L178.19,220.95L178.19,220.89L180.82,133.77L180.82,133.72L184.86,58.8L184.87,58.78L187.65,40.9L187.66,40.89L190.25,34.63L190.25,34.63L190.26,34.63L193.1,32.07L193.1,32.07L193.11,32.07L197.77,30.85L197.77,30.85L197.78,30.85L211.92,30.43L211.92,30.43L211.93,30.43L545,30.56L545,30.56" style="vector-effect: none; fill: none; stroke: rgb(99, 110, 250); stroke-opacity: 1; stroke-width: 4px; opacity: 1;"/></g><g class="points"/><g class="text"/></g><g class="trace scatter traceff000a" style="stroke-miterlimit: 2; opacity: 1;"><g class="fills"/><g class="errorbars"/><g class="lines"><path class="js-line" d="M0,478.37L29.5,479.37L29.5,479.37L29.5,479.38L52.72,481.53L52.72,481.53L52.72,481.54L91.63,486.42L91.63,486.43L118.78,490.14L118.78,490.14L118.78,490.15L152.12,493.34L152.12,493.34L152.12,493.33L156.31,491.48L156.31,491.48L156.31,491.47L159.79,487.63L159.79,487.63L159.79,487.62L162.71,481.28L162.71,481.28L162.71,481.27L165.32,471.31L165.32,471.3L168.26,451.57L168.26,451.55L171.7,407.5L171.7,407.47L172.87,384.65L172.87,384.61L176.36,286.03L176.36,285.97L178.19,220.95L178.19,220.89L180.82,133.77L180.82,133.72L184.86,58.8L184.87,58.78L187.65,40.9L187.66,40.89L190.25,34.63L190.25,34.63L190.26,34.63L193.1,32.07L193.1,32.07L193.11,32.07L197.77,30.85L197.77,30.85L197.78,30.85L211.92,30.43L211.92,30.43L211.93,30.43L545,30.56L545,30.56" style="vector-effect: none; fill: none; stroke: rgb(239, 85, 59); stroke-opacity: 1; stroke-width: 4px; opacity: 1;"/></g><g class="points"/><g class="text"/></g><g class="trace scatter trace7f3c3a" style="stroke-miterlimit: 2; opacity: 1;"><g class="fills"/><g class="errorbars"/><g class="lines"><path class="js-line" d="M0,207.75L34.36,206.75L34.36,206.75L34.37,206.74L68.66,204.04L68.66,204.04L68.66,204.03L89.56,201.99L89.56,201.99L89.57,201.98L152.14,196.42L152.14,196.42L152.15,196.42L156.7,198.11L156.7,198.11L156.7,198.12L159.96,201.07L159.96,201.07L159.96,201.08L163.13,206.55L163.13,206.55L163.13,206.56L166.41,216.9L166.41,216.91L169.35,232.75L169.35,232.77L172.82,264.08L172.82,264.1L175.54,301.28L175.54,301.31L177.32,331.91L177.32,331.94L184.87,476.17L184.88,476.19L187.41,510.07L187.42,510.09L189.34,528.62L189.35,528.63L192.01,546.08L192.01,546.08L192.02,546.09L194.64,556.85L194.65,556.85L198.27,565.49L198.27,565.49L198.28,565.49L202.19,570.49L202.2,570.49L207.16,573.76L207.16,573.76L207.17,573.76L213.28,575.7L213.28,575.7L213.29,575.7L222.17,576.89L222.17,576.89L222.18,576.89L238.01,577.47L238.01,577.47L238.02,577.47L260.44,577.59L260.44,577.59L260.45,577.59L452.6,576.6L452.6,576.6L452.6,576.59L479.06,575.59L479.06,575.59L479.06,575.58L526.77,572.21L526.77,572.2L545,570.46L545,570.46" style="vector-effect: none; fill: none; stroke: rgb(0, 204, 150); stroke-opacity: 1; stroke-width: 4px; opacity: 1;"/></g><g class="points"/><g class="text"/></g><g class="trace scatter trace1e4049" style="stroke-miterlimit: 2; opacity: 1;"><g class="fills"/><g class="errorbars"/><g class="lines"><path class="js-line" d="M0,305.21L545,305.21L545,305.21" style="vector-effect: none; fill: none; stroke: rgb(171, 99, 250); stroke-opacity: 1; stroke-width: 4px; opacity: 1;"/></g><g class="points"/><g class="text"/></g><g class="trace scatter traceab8da8" style="stroke-miterlimit: 2; opacity: 1;"><g class="fills"/><g class="errorbars"/><g class="lines"><path class="js-line" d="M0,218.64L41.45,217.64L41.45,217.64L41.45,217.63L60.23,216.63L60.23,216.63L60.24,216.62L121.32,212.58L121.32,212.58L121.32,212.57L154.42,211.53L154.42,211.53L154.42,211.54L159.07,213.48L159.07,213.48L159.07,213.49L162.51,216.9L162.51,216.9L162.51,216.91L165.45,222.48L165.45,222.48L165.45,222.49L168.11,231.38L168.11,231.39L170.63,245.58L170.63,245.59L173.25,269.75L173.25,269.77L176.07,309.86L176.07,309.89L181.68,402.22L181.69,402.24L183.54,420.26L183.55,420.27L185.74,432.23L185.75,432.23L188.34,438.51L188.34,438.51L188.35,438.52L191.19,441.08L191.19,441.08L191.2,441.08L195.74,442.24L195.74,442.24L195.75,442.24L209.35,442.6L209.35,442.6L209.36,442.6L545,442.54L545,442.54" style="vector-effect: none; fill: none; stroke: rgb(255, 161, 90); stroke-opacity: 1; stroke-width: 4px; opacity: 1;"/></g><g class="points"/><g class="text"/></g></g></g></g><path class="xlines-above crisp" d="M0,0" style="fill: none;"/><path class="ylines-above crisp" d="M0,0" style="fill: none;"/><g class="overlines-above"/><g class="xaxislayer-above"><g class="xtick"><text text-anchor="middle" x="0" y="739" transform="translate(114,0)" style="font-family: 'Open Sans', verdana, arial, sans-serif; font-size: 30px; fill: rgb(42, 63, 95); fill-opacity: 1; white-space: pre; opacity: 1;">0</text></g><g class="xtick"><text text-anchor="middle" x="0" y="739" style="font-family: 'Open Sans', verdana, arial, sans-serif; font-size: 30px; fill: rgb(42, 63, 95); fill-opacity: 1; white-space: pre; opacity: 1;" transform="translate(250.25,0)">2</text></g><g class="xtick"><text text-anchor="middle" x="0" y="739" style="font-family: 'Open Sans', verdana, arial, sans-serif; font-size: 30px; fill: rgb(42, 63, 95); fill-opacity: 1; white-space: pre; opacity: 1;" transform="translate(386.5,0)">4</text></g><g class="xtick"><text text-anchor="middle" x="0" y="739" style="font-family: 'Open Sans', verdana, arial, sans-serif; font-size: 30px; fill: rgb(42, 63, 95); fill-opacity: 1; white-space: pre; opacity: 1;" transform="translate(522.75,0)">6</text></g><g class="xtick"><text text-anchor="middle" x="0" y="739" style="font-family: 'Open Sans', verdana, arial, sans-serif; font-size: 30px; fill: rgb(42, 63, 95); fill-opacity: 1; white-space: pre; opacity: 1;" transform="translate(659,0)">8</text></g></g><g class="yaxislayer-above"><g class="ytick"><text text-anchor="end" x="113" y="10.5" transform="translate(0,680.04)" style="font-family: 'Open Sans', verdana, arial, sans-serif; font-size: 30px; fill: rgb(42, 63, 95); fill-opacity: 1; white-space: pre; opacity: 1;">0.8</text></g><g class="ytick"><text text-anchor="end" x="113" y="10.5" style="font-family: 'Open Sans', verdana, arial, sans-serif; font-size: 30px; fill: rgb(42, 63, 95); fill-opacity: 1; white-space: pre; opacity: 1;" transform="translate(0,611.3299999999999)">0.85</text></g><g class="ytick"><text text-anchor="end" x="113" y="10.5" style="font-family: 'Open Sans', verdana, arial, sans-serif; font-size: 30px; fill: rgb(42, 63, 95); fill-opacity: 1; white-space: pre; opacity: 1;" transform="translate(0,542.63)">0.9</text></g><g class="ytick"><text text-anchor="end" x="113" y="10.5" style="font-family: 'Open Sans', verdana, arial, sans-serif; font-size: 30px; fill: rgb(42, 63, 95); fill-opacity: 1; white-space: pre; opacity: 1;" transform="translate(0,473.92)">0.95</text></g><g class="ytick"><text text-anchor="end" x="113" y="10.5" style="font-family: 'Open Sans', verdana, arial, sans-serif; font-size: 30px; fill: rgb(42, 63, 95); fill-opacity: 1; white-space: pre; opacity: 1;" transform="translate(0,405.21)">1</text></g><g class="ytick"><text text-anchor="end" x="113" y="10.5" style="font-family: 'Open Sans', verdana, arial, sans-serif; font-size: 30px; fill: rgb(42, 63, 95); fill-opacity: 1; white-space: pre; opacity: 1;" transform="translate(0,336.51)">1.05</text></g><g class="ytick"><text text-anchor="end" x="113" y="10.5" style="font-family: 'Open Sans', verdana, arial, sans-serif; font-size: 30px; fill: rgb(42, 63, 95); fill-opacity: 1; white-space: pre; opacity: 1;" transform="translate(0,267.8)">1.1</text></g><g class="ytick"><text text-anchor="end" x="113" y="10.5" style="font-family: 'Open Sans', verdana, arial, sans-serif; font-size: 30px; fill: rgb(42, 63, 95); fill-opacity: 1; white-space: pre; opacity: 1;" transform="translate(0,199.1)">1.15</text></g><g class="ytick"><text text-anchor="end" x="113" y="10.5" style="font-family: 'Open Sans', verdana, arial, sans-serif; font-size: 30px; fill: rgb(42, 63, 95); fill-opacity: 1; white-space: pre; opacity: 1;" transform="translate(0,130.39)">1.2</text></g></g><g class="overaxes-above"/></g></g><g class="polarlayer"/><g class="smithlayer"/><g class="ternarylayer"/><g class="geolayer"/><g class="funnelarealayer"/><g class="pielayer"/><g class="iciclelayer"/><g class="treemaplayer"/><g class="sunburstlayer"/><g class="glimages"/><defs id="topdefs-2fe1ab"><g class="clips"/><clipPath id="legend2fe1ab"><rect width="518" height="350" x="0" y="0"/></clipPath></defs><g class="layer-above"><g class="imagelayer"/><g class="shapelayer"/></g><g class="infolayer"><g class="legend" pointer-events="all" transform="translate(669.9,100)"><rect class="bg" shape-rendering="crispEdges" style="stroke: rgb(68, 68, 68); stroke-opacity: 1; fill: rgb(255, 255, 255); fill-opacity: 1; stroke-width: 0px;" width="518" height="350" x="0" y="0"/><g class="scrollbox" transform="" clip-path="url(#legend2fe1ab)"><g class="groups"><g class="traces" transform="translate(0,39)" style="opacity: 1;"><text class="legendtext" text-anchor="start" x="40" y="19.5" style="font-family: 'Open Sans', verdana, arial, sans-serif; font-size: 50px; fill: rgb(42, 63, 95); fill-opacity: 1; white-space: pre;">cal12_ms.modulation</text><g class="layers" style="opacity: 1;"><g class="legendfill"/><g class="legendlines"><path class="js-line" d="M5,0h30" style="fill: none; stroke: rgb(99, 110, 250); stroke-opacity: 1; stroke-width: 4px;"/></g><g class="legendsymbols"><g class="legendpoints"/></g></g><rect class="legendtoggle" x="0" y="-34" width="512.5" height="68" style="fill: rgb(0, 0, 0); fill-opacity: 0;"/></g><g class="traces" transform="translate(0,107)" style="opacity: 1;"><text class="legendtext" text-anchor="start" x="40" y="19.5" style="font-family: 'Open Sans', verdana, arial, sans-serif; font-size: 50px; fill: rgb(42, 63, 95); fill-opacity: 1; white-space: pre;">cal13_ms.modulation</text><g class="layers" style="opacity: 1;"><g class="legendfill"/><g class="legendlines"><path class="js-line" d="M5,0h30" style="fill: none; stroke: rgb(239, 85, 59); stroke-opacity: 1; stroke-width: 4px;"/></g><g class="legendsymbols"><g class="legendpoints"/></g></g><rect class="legendtoggle" x="0" y="-34" width="512.5" height="68" style="fill: rgb(0, 0, 0); fill-opacity: 0;"/></g><g class="traces" transform="translate(0,175)" style="opacity: 1;"><text class="legendtext" text-anchor="start" x="40" y="19.5" style="font-family: 'Open Sans', verdana, arial, sans-serif; font-size: 50px; fill: rgb(42, 63, 95); fill-opacity: 1; white-space: pre;">kas_ms.modulation</text><g class="layers" style="opacity: 1;"><g class="legendfill"/><g class="legendlines"><path class="js-line" d="M5,0h30" style="fill: none; stroke: rgb(0, 204, 150); stroke-opacity: 1; stroke-width: 4px;"/></g><g class="legendsymbols"><g class="legendpoints"/></g></g><rect class="legendtoggle" x="0" y="-34" width="512.5" height="68" style="fill: rgb(0, 0, 0); fill-opacity: 0;"/></g><g class="traces" transform="translate(0,243)" style="opacity: 1;"><text class="legendtext" text-anchor="start" x="40" y="19.5" style="font-family: 'Open Sans', verdana, arial, sans-serif; font-size: 50px; fill: rgb(42, 63, 95); fill-opacity: 1; white-space: pre;">kir_ms.modulation</text><g class="layers" style="opacity: 1;"><g class="legendfill"/><g class="legendlines"><path class="js-line" d="M5,0h30" style="fill: none; stroke: rgb(171, 99, 250); stroke-opacity: 1; stroke-width: 4px;"/></g><g class="legendsymbols"><g class="legendpoints"/></g></g><rect class="legendtoggle" x="0" y="-34" width="512.5" height="68" style="fill: rgb(0, 0, 0); fill-opacity: 0;"/></g><g class="traces" transform="translate(0,311)" style="opacity: 1;"><text class="legendtext" text-anchor="start" x="40" y="19.5" style="font-family: 'Open Sans', verdana, arial, sans-serif; font-size: 50px; fill: rgb(42, 63, 95); fill-opacity: 1; white-space: pre;">naf_ms.modulation</text><g class="layers" style="opacity: 1;"><g class="legendfill"/><g class="legendlines"><path class="js-line" d="M5,0h30" style="fill: none; stroke: rgb(255, 161, 90); stroke-opacity: 1; stroke-width: 4px;"/></g><g class="legendsymbols"><g class="legendpoints"/></g></g><rect class="legendtoggle" x="0" y="-34" width="512.5" height="68" style="fill: rgb(0, 0, 0); fill-opacity: 0;"/></g></g></g><rect class="scrollbar" rx="20" ry="3" width="0" height="0" style="fill: rgb(128, 139, 164); fill-opacity: 1;" x="0" y="0"/></g><g class="g-gtitle"/><g class="g-xtitle"><text class="xtitle" x="386.5" y="787.5" text-anchor="middle" style="opacity: 1; font-family: 'Open Sans', verdana, arial, sans-serif; font-size: 40px; fill: rgb(42, 63, 95); fill-opacity: 1; white-space: pre;">Time (s)</text></g><g class="g-ytitle" transform="translate(9.890625,0)"><text class="ytitle" transform="rotate(-90,26.109375,404)" x="26.109375" y="404" text-anchor="middle" style="opacity: 1; font-family: 'Open Sans', verdana, arial, sans-serif; font-size: 40px; fill: rgb(42, 63, 95); fill-opacity: 1; white-space: pre;">Modulation factor</text></g></g></svg>