<svg class="main-svg" xmlns="http://www.w3.org/2000/svg" xmlns:xlink="http://www.w3.org/1999/xlink" width="800" height="700" style="" viewBox="0 0 800 700"><rect x="0" y="0" width="800" height="700" style="fill: rgb(255, 255, 255); fill-opacity: 1;"/><defs id="defs-aafd27"><g class="clips"><clipPath id="clipaafd27xyplot" class="plotclip"><rect width="463" height="436"/></clipPath><clipPath class="axesclip" id="clipaafd27x"><rect x="112" y="0" width="463" height="700"/></clipPath><clipPath class="axesclip" id="clipaafd27y"><rect x="0" y="160" width="800" height="436"/></clipPath><clipPath class="axesclip" id="clipaafd27xy"><rect x="112" y="160" width="463" height="436"/></clipPath></g><g class="gradients"/><g class="patterns"/></defs><g class="bglayer"/><g class="layer-below"><g class="imagelayer"/><g class="shapelayer"/></g><g class="cartesianlayer"><g class="subplot xy"><g class="layer-subplot"><g class="shapelayer"/><g class="imagelayer"/></g><g class="minor-gridlayer"><g class="x"/><g class="y"/></g><g class="gridlayer"><g class="x"><path class="xgrid crisp" transform="translate(217.23000000000002,0)" d="M0,160v436" style="stroke: rgb(255, 255, 255); stroke-opacity: 1; stroke-width: 1px;"/><path class="xgrid crisp" transform="translate(322.45,0)" d="M0,160v436" style="stroke: rgb(255, 255, 255); stroke-opacity: 1; stroke-width: 1px;"/><path class="xgrid crisp" transform="translate(427.68,0)" d="M0,160v436" style="stroke: rgb(255, 255, 255); stroke-opacity: 1; stroke-width: 1px;"/><path class="xgrid crisp" transform="translate(532.9100000000001,0)" d="M0,160v436" style="stroke: rgb(255, 255, 255); stroke-opacity: 1; stroke-width: 1px;"/></g><g class="y"><path class="ygrid crisp" transform="translate(0,495.72)" d="M112,0h463" style="stroke: rgb(255, 255, 255); stroke-opacity: 1; stroke-width: 1px;"/><path class="ygrid crisp" transform="translate(0,417.24)" d="M112,0h463" style="stroke: rgb(255, 255, 255); stroke-opacity: 1; stroke-width: 1px;"/><path class="ygrid crisp" transform="translate(0,338.76)" d="M112,0h463" style="stroke: rgb(255, 255, 255); stroke-opacity: 1; stroke-width: 1px;"/><path class="ygrid crisp" transform="translate(0,260.28)" d="M112,0h463" style="stroke: rgb(255, 255, 255); stroke-opacity: 1; stroke-width: 1px;"/><path class="ygrid crisp" transform="translate(0,181.8)" d="M112,0h463" style="stroke: rgb(255, 255, 255); stroke-opacity: 1; stroke-width: 1px;"/></g></g><g class="zerolinelayer"><path class="xzl zl crisp" transform="translate(112,0)" d="M0,160v436" style="stroke: rgb(255, 255, 255); stroke-opacity: 1; stroke-width: 2px;"/><path class="yzl zl crisp" transform="translate(0,574.2)" d="M112,0h463" style="stroke: rgb(255, 255, 255); stroke-opacity: 1; stroke-width: 2px;"/></g><g class="layer-between"><g class="shapelayer"/><g class="imagelayer"/></g><path class="xlines-below"/><path class="ylines-below"/><g class="overlines-below"/><g class="xaxislayer-below"/><g class="yaxislayer-below"/><g class="overaxes-below"/><g class="overplot"><g class="xy" transform="translate(112,160)" clip-path="url(#clipaafd27xyplot)"><g class="scatterlayer mlayer"><g class="trace scatter trace9df773" style="stroke-miterlimit: 2; opacity: 1;"><g class="fills"/><g class="errorbars"/><g class="lines"><path class="js-line" d="M0,400.03L1.95,412.79L1.96,412.8L3.96,414.07L3.96,414.07L3.97,414.07L11.57,414.2L11.57,414.2L11.58,414.2L42.54,413.22L42.54,413.19L43.93,403.53L43.94,403.48L49.56,350.34L49.57,350.29L61.81,237.84L61.82,237.79L64.78,215.23L64.79,215.2L73.78,171.33L73.79,171.31L84.28,121.54L84.29,121.52L87.13,111.93L87.14,111.92L107.09,55.19L107.1,55.19L117.87,41.64L117.88,41.64L127.88,29.97L127.88,29.97L127.89,29.97L141.04,24.5L141.04,24.5L141.05,24.5L149.73,21.92L149.73,21.92L149.74,21.92L171.55,26.19L171.55,26.19L171.56,26.2L190.56,35.28L190.56,35.28L190.57,35.29L207.53,48.47L207.53,48.48L228.56,65.49L228.56,65.5L234.85,71.46L234.85,71.47L257.24,95.25L257.24,95.25L257.25,95.25L280.43,111.39L280.43,111.39L280.44,111.39L320.71,140.35L320.71,140.35L320.72,140.35L463,249.18" style="vector-effect: none; fill: none; stroke: rgb(102, 194, 165); stroke-opacity: 1; stroke-width: 4px; opacity: 1;"/></g><g class="points"/><g class="text"/></g><g class="trace scatter trace019256" style="stroke-miterlimit: 2; opacity: 1;"><g class="fills"/><g class="errorbars"/><g class="lines"><path class="js-line" d="M0,396.1L117.23,395.12L117.23,395.12L117.24,395.11L134.41,393.26L134.41,393.26L134.42,393.25L146.41,390.45L146.41,390.44L156.1,386.5L156.1,386.5L156.11,386.49L164.6,381.14L164.6,381.13L172.56,373.92L172.56,373.91L180.86,363.57L180.86,363.56L187.28,353.34L187.28,353.33L194.1,340.26L194.1,340.25L202.29,321.65L202.29,321.63L212.12,295.73L212.12,295.72L224.32,259.73L224.32,259.72L236.41,222.17L236.41,222.15L270.01,126.15L270.02,126.14L280.76,101.96L280.77,101.95L293.71,78.23L293.71,78.23L293.72,78.22L303.4,64.27L303.41,64.27L312.88,53.51L312.89,53.51L323.15,44.65L323.15,44.65L323.16,44.65L332.97,38.4L332.97,38.4L332.98,38.4L344.2,33.3L344.2,33.3L344.21,33.3L358.9,28.94L358.9,28.94L358.91,28.94L373.98,26.2L373.98,26.2L373.99,26.2L395.63,23.96L395.63,23.96L395.64,23.96L417.87,22.74L417.87,22.74L417.88,22.74L455.2,21.87L455.2,21.87L455.21,21.87L463,21.8" style="vector-effect: none; fill: none; stroke: rgb(252, 141, 98); stroke-opacity: 1; stroke-width: 4px; opacity: 1;"/></g><g class="points"/><g class="text"/></g><g class="trace scatter trace1247f4" style="stroke-miterlimit: 2; opacity: 1;"><g class="fills"/><g class="errorbars"/><g class="lines"><path class="js-line" d="M0,411.41L69.64,410.69L69.64,410.68L85.2,408.91L85.2,408.91L85.21,408.9L98.53,406.57L98.53,406.56L114.36,402.39L114.36,402.38L126.55,397.69L126.55,397.68L137.21,392.12L137.21,392.11L146.78,385.66L146.78,385.65L158.15,375.88L158.15,375.88L158.16,375.87L169.18,364.22L169.18,364.21L180.15,351L180.15,350.99L191.98,335.96L191.98,335.95L271.82,237.16L271.82,237.15L290.55,210.53L290.55,210.52L311.39,179.28L311.39,179.27L334.45,144.88L334.45,144.87L373.77,92.93L373.78,92.93L387.19,78L387.2,78L403.85,61.61L403.85,61.61L403.86,61.61L419.71,48.17L419.71,48.17L419.72,48.17L434.09,37.77L434.09,37.77L434.1,37.77L447.3,29.67L447.31,29.67L463,21.8" style="vector-effect: none; fill: none; stroke: rgb(141, 160, 203); stroke-opacity: 1; stroke-width: 4px; opacity: 1;"/></g><g class="points"/><g class="text"/></g></g></g></g><g class="zerolinelayer-above"/><path class="xlines-above crisp" d="M0,0" style="fill: none;"/><path class="ylines-above crisp" d="M0,0" style="fill: none;"/><g class="overlines-above"/><g class="xaxislayer-above"><g class="xtick"><text text-anchor="middle" x="0" y="637" transform="translate(112,0)" style="font-family: 'Open Sans', verdana, arial, sans-serif; font-size: 40px; fill: rgb(42, 63, 95); fill-opacity: 1; white-space: pre;">0</text></g><g class="xtick"><text text-anchor="middle" x="0" y="637" style="font-family: 'Open Sans', verdana, arial, sans-serif; font-size: 40px; fill: rgb(42, 63, 95); fill-opacity: 1; white-space: pre;" transform="translate(217.23000000000002,0)">0.5</text></g><g class="xtick"><text text-anchor="middle" x="0" y="637" style="font-family: 'Open Sans', verdana, arial, sans-serif; font-size: 40px; fill: rgb(42, 63, 95); fill-opacity: 1; white-space: pre;" transform="translate(322.45,0)">1</text></g><g class="xtick"><text text-anchor="middle" x="0" y="637" style="font-family: 'Open Sans', verdana, arial, sans-serif; font-size: 40px; fill: rgb(42, 63, 95); fill-opacity: 1; white-space: pre;" transform="translate(427.68,0)">1.5</text></g><g class="xtick"><text text-anchor="middle" x="0" y="637" style="font-family: 'Open Sans', verdana, arial, sans-serif; font-size: 40px; fill: rgb(42, 63, 95); fill-opacity: 1; white-space: pre;" transform="translate(532.9100000000001,0)">2</text></g></g><g class="yaxislayer-above"><g class="ytick"><text text-anchor="end" x="111" y="14" transform="translate(0,574.2)" style="font-family: 'Open Sans', verdana, arial, sans-serif; font-size: 40px; fill: rgb(42, 63, 95); fill-opacity: 1; white-space: pre;">0</text></g><g class="ytick"><text text-anchor="end" x="111" y="14" style="font-family: 'Open Sans', verdana, arial, sans-serif; font-size: 40px; fill: rgb(42, 63, 95); fill-opacity: 1; white-space: pre;" transform="translate(0,495.72)">0.2</text></g><g class="ytick"><text text-anchor="end" x="111" y="14" style="font-family: 'Open Sans', verdana, arial, sans-serif; font-size: 40px; fill: rgb(42, 63, 95); fill-opacity: 1; white-space: pre;" transform="translate(0,417.24)">0.4</text></g><g class="ytick"><text text-anchor="end" x="111" y="14" style="font-family: 'Open Sans', verdana, arial, sans-serif; font-size: 40px; fill: rgb(42, 63, 95); fill-opacity: 1; white-space: pre;" transform="translate(0,338.76)">0.6</text></g><g class="ytick"><text text-anchor="end" x="111" y="14" style="font-family: 'Open Sans', verdana, arial, sans-serif; font-size: 40px; fill: rgb(42, 63, 95); fill-opacity: 1; white-space: pre;" transform="translate(0,260.28)">0.8</text></g><g class="ytick"><text text-anchor="end" x="111" y="14" style="font-family: 'Open Sans', verdana, arial, sans-serif; font-size: 40px; fill: rgb(42, 63, 95); fill-opacity: 1; white-space: pre;" transform="translate(0,181.8)">1</text></g></g><g class="overaxes-above"/></g></g><g class="polarlayer"/><g class="smithlayer"/><g class="ternarylayer"/><g class="geolayer"/><g class="funnelarealayer"/><g class="pielayer"/><g class="iciclelayer"/><g class="treemaplayer"/><g class="sunburstlayer"/><g class="glimages"/><defs id="topdefs-aafd27"><g class="clips"/><clipPath id="legendaafd27"><rect width="204" height="175" x="0" y="0"/></clipPath></defs><g class="layer-above"><g class="imagelayer"/><g class="shapelayer"/></g><g class="infolayer"><g class="legend" pointer-events="all" transform="translate(584.26,160)"><rect class="bg" shape-rendering="crispEdges" style="stroke: rgb(68, 68, 68); stroke-opacity: 1; fill: rgb(255, 255, 255); fill-opacity: 1; stroke-width: 0px;" width="204" height="175" x="0" y="0"/><g class="scrollbox" transform="" clip-path="url(#legendaafd27)"><g class="groups"><g class="traces" transform="translate(0,32.5)" style="opacity: 1;"><text class="legendtext" text-anchor="start" x="40" y="15.6" style="font-family: 'Open Sans', verdana, arial, sans-serif; font-size: 40px; fill: rgb(42, 63, 95); fill-opacity: 1; white-space: pre;">D1R_DA</text><g class="layers" style="opacity: 1;"><g class="legendfill"/><g class="legendlines"><path class="js-line" d="M5,0h30" style="fill: none; stroke: rgb(102, 194, 165); stroke-opacity: 1; stroke-width: 4px;"/></g><g class="legendsymbols"><g class="legendpoints"/></g></g><rect class="legendtoggle" x="0" y="-27.5" width="198.15234375" height="55" style="fill: rgb(0, 0, 0); fill-opacity: 0;"/></g><g class="traces" transform="translate(0,87.5)" style="opacity: 1;"><text class="legendtext" text-anchor="start" x="40" y="15.6" style="font-family: 'Open Sans', verdana, arial, sans-serif; font-size: 40px; fill: rgb(42, 63, 95); fill-opacity: 1; white-space: pre;">PKAc</text><g class="layers" style="opacity: 1;"><g class="legendfill"/><g class="legendlines"><path class="js-line" d="M5,0h30" style="fill: none; stroke: rgb(252, 141, 98); stroke-opacity: 1; stroke-width: 4px;"/></g><g class="legendsymbols"><g class="legendpoints"/></g></g><rect class="legendtoggle" x="0" y="-27.5" width="198.15234375" height="55" style="fill: rgb(0, 0, 0); fill-opacity: 0;"/></g><g class="traces" transform="translate(0,142.5)" style="opacity: 1;"><text class="legendtext" text-anchor="start" x="40" y="15.6" style="font-family: 'Open Sans', verdana, arial, sans-serif; font-size: 40px; fill: rgb(42, 63, 95); fill-opacity: 1; white-space: pre;">cAMP</text><g class="layers" style="opacity: 1;"><g class="legendfill"/><g class="legendlines"><path class="js-line" d="M5,0h30" style="fill: none; stroke: rgb(141, 160, 203); stroke-opacity: 1; stroke-width: 4px;"/></g><g class="legendsymbols"><g class="legendpoints"/></g></g><rect class="legendtoggle" x="0" y="-27.5" width="198.15234375" height="55" style="fill: rgb(0, 0, 0); fill-opacity: 0;"/></g></g></g><rect class="scrollbar" rx="20" ry="3" width="0" height="0" style="fill: rgb(128, 139, 164); fill-opacity: 1;" x="0" y="0"/></g><g class="g-gtitle"><text class="gtitle" x="400" y="70" text-anchor="middle" dy="0.7em" style="opacity: 1; font-family: 'Open Sans', verdana, arial, sans-serif; font-size: 60px; fill: rgb(42, 63, 95); fill-opacity: 1; white-space: pre;">dSPN, selected species</text></g><g class="g-xtitle"><text class="xtitle" x="343.5" y="687.5" text-anchor="middle" style="opacity: 1; font-family: 'Open Sans', verdana, arial, sans-serif; font-size: 40px; fill: rgb(42, 63, 95); fill-opacity: 1; white-space: pre;">Time (s)</text></g><g class="g-ytitle" transform="translate(9.109375,0)"><text class="ytitle" transform="rotate(-90,26.890625,378)" x="26.890625" y="378" text-anchor="middle" style="opacity: 1; font-family: 'Open Sans', verdana, arial, sans-serif; font-size: 40px; fill: rgb(42, 63, 95); fill-opacity: 1; white-space: pre;">Concentration (normalised)</text></g></g></svg>