<svg class="main-svg" xmlns="http://www.w3.org/2000/svg" xmlns:xlink="http://www.w3.org/1999/xlink" width="800" height="700" style="" viewBox="0 0 800 700"><rect x="0" y="0" width="800" height="700" style="fill: rgb(255, 255, 255); fill-opacity: 1;"/><defs id="defs-1cc2c6"><g class="clips"><clipPath id="clip1cc2c6xyplot" class="plotclip"><rect width="467" height="436"/></clipPath><clipPath class="axesclip" id="clip1cc2c6x"><rect x="102" y="0" width="467" height="700"/></clipPath><clipPath class="axesclip" id="clip1cc2c6y"><rect x="0" y="160" width="800" height="436"/></clipPath><clipPath class="axesclip" id="clip1cc2c6xy"><rect x="102" y="160" width="467" height="436"/></clipPath></g><g class="gradients"/><g class="patterns"/></defs><g class="bglayer"/><g class="layer-below"><g class="imagelayer"/><g class="shapelayer"/></g><g class="cartesianlayer"><g class="subplot xy"><g class="layer-subplot"><g class="shapelayer"/><g class="imagelayer"/></g><g class="minor-gridlayer"><g class="x"/><g class="y"/></g><g class="gridlayer"><g class="x"><path class="xgrid crisp" transform="translate(208.14,0)" d="M0,160v436" style="stroke: rgb(255, 255, 255); stroke-opacity: 1; stroke-width: 1px;"/><path class="xgrid crisp" transform="translate(314.27,0)" d="M0,160v436" style="stroke: rgb(255, 255, 255); stroke-opacity: 1; stroke-width: 1px;"/><path class="xgrid crisp" transform="translate(420.41,0)" d="M0,160v436" style="stroke: rgb(255, 255, 255); stroke-opacity: 1; stroke-width: 1px;"/><path class="xgrid crisp" transform="translate(526.55,0)" d="M0,160v436" style="stroke: rgb(255, 255, 255); stroke-opacity: 1; stroke-width: 1px;"/></g><g class="y"><path class="ygrid crisp" transform="translate(0,582.6800000000001)" d="M102,0h467" style="stroke: rgb(255, 255, 255); stroke-opacity: 1; stroke-width: 1px;"/><path class="ygrid crisp" transform="translate(0,502.5)" d="M102,0h467" style="stroke: rgb(255, 255, 255); stroke-opacity: 1; stroke-width: 1px;"/><path class="ygrid crisp" transform="translate(0,342.14)" d="M102,0h467" style="stroke: rgb(255, 255, 255); stroke-opacity: 1; stroke-width: 1px;"/><path class="ygrid crisp" transform="translate(0,261.96)" d="M102,0h467" style="stroke: rgb(255, 255, 255); stroke-opacity: 1; stroke-width: 1px;"/><path class="ygrid crisp" transform="translate(0,181.78)" d="M102,0h467" style="stroke: rgb(255, 255, 255); stroke-opacity: 1; stroke-width: 1px;"/></g></g><g class="zerolinelayer"><path class="xzl zl crisp" transform="translate(102,0)" d="M0,160v436" style="stroke: rgb(255, 255, 255); stroke-opacity: 1; stroke-width: 2px;"/><path class="yzl zl crisp" transform="translate(0,422.32)" d="M102,0h467" style="stroke: rgb(255, 255, 255); stroke-opacity: 1; stroke-width: 2px;"/></g><g class="layer-between"><g class="shapelayer"/><g class="imagelayer"/></g><path class="xlines-below"/><path class="ylines-below"/><g class="overlines-below"/><g class="xaxislayer-below"/><g class="yaxislayer-below"/><g class="overaxes-below"/><g class="overplot"><g class="xy" transform="translate(102,160)" clip-path="url(#clip1cc2c6xyplot)"><g class="scatterlayer mlayer"><g class="trace scatter trace2a2c73" style="stroke-miterlimit: 2; opacity: 1;"><g class="fills"/><g class="errorbars"/><g class="lines"><path class="js-line" d="M0,182.14L467,182.14" style="vector-effect: none; fill: none; stroke: rgb(102, 194, 165); stroke-opacity: 1; stroke-width: 4px; opacity: 1;"/></g><g class="points"/><g class="text"/></g><g class="trace scatter tracebd98f2" style="stroke-miterlimit: 2; opacity: 1;"><g class="fills"/><g class="errorbars"/><g class="lines"><path class="js-line" d="M0,413.87L95.42,413.2L95.42,413.2L95.43,413.19L109.54,411.49L109.54,411.48L122.82,408.49L122.82,408.49L122.83,408.48L135.1,403.77L135.1,403.77L135.11,403.76L145.59,397.42L145.59,397.41L153.35,390.72L153.35,390.71L161.41,381.25L161.41,381.24L168.49,370.15L168.49,370.14L176.11,354.39L176.11,354.37L183.57,334.11L183.57,334.09L188.24,318.53L188.24,318.51L195.39,289.87L195.39,289.85L202.41,256.08L202.41,256.05L207.05,231.15L207.05,231.12L218.75,164.39L218.75,164.36L232.64,95.79L232.65,95.77L236.65,80.84L236.66,80.82L244.14,59.31L244.15,59.29L249.75,47.96L249.76,47.96L255.44,39.79L255.44,39.79L255.45,39.78L261.73,33.63L261.73,33.63L261.74,33.63L268.69,29.26L268.69,29.26L268.7,29.26L277.26,26.09L277.27,26.09L287.37,24.1L287.37,24.1L287.38,24.1L303.09,22.75L303.09,22.75L303.1,22.75L338.14,21.99L338.15,21.99L467,21.8" style="vector-effect: none; fill: none; stroke: rgb(252, 141, 98); stroke-opacity: 1; stroke-width: 4px; opacity: 1;"/></g><g class="points"/><g class="text"/></g><g class="trace scatter traceaaa1c7" style="stroke-miterlimit: 2; opacity: 1;"><g class="fills"/><g class="errorbars"/><g class="lines"><path class="js-line" d="M0,176.45L151.98,177.44L151.98,177.44L151.99,177.45L170.02,178.45L170.03,178.46L189.84,180.44L189.84,180.44L189.85,180.45L206.89,183.15L206.89,183.15L206.9,183.16L224.55,186.81L224.55,186.82L265.69,194.26L265.69,194.26L265.7,194.26L282.64,195.79L282.64,195.79L282.65,195.79L302.59,196.78L302.59,196.78L302.6,196.78L337.19,197.51L337.2,197.51L361.62,197.73L361.62,197.73L361.63,197.73L467,197.97" style="vector-effect: none; fill: none; stroke: rgb(141, 160, 203); stroke-opacity: 1; stroke-width: 4px; opacity: 1;"/></g><g class="points"/><g class="text"/></g><g class="trace scatter trace26ddba" style="stroke-miterlimit: 2; opacity: 1;"><g class="fills"/><g class="errorbars"/><g class="lines"><path class="js-line" d="M0,182.14L467,182.14" style="vector-effect: none; fill: none; stroke: rgb(231, 138, 195); stroke-opacity: 1; stroke-width: 4px; opacity: 1;"/></g><g class="points"/><g class="text"/></g><g class="trace scatter trace437ead" style="stroke-miterlimit: 2; opacity: 1;"><g class="fills"/><g class="errorbars"/><g class="lines"><path class="js-line" d="M0,177.09L159.34,178.08L159.34,178.09L176.4,179.09L176.4,179.09L176.41,179.1L193.53,180.95L193.53,180.95L193.54,180.96L208.58,183.46L208.58,183.47L249.84,189.29L249.85,189.29L285.23,190.07L285.23,190.07L285.24,190.07L467,190.16" style="vector-effect: none; fill: none; stroke: rgb(166, 216, 84); stroke-opacity: 1; stroke-width: 4px; opacity: 1;"/></g><g class="points"/><g class="text"/></g><g class="trace scatter trace17fccf" style="stroke-miterlimit: 2; opacity: 1;"><g class="fills"/><g class="errorbars"/><g class="lines"><path class="js-line" d="M0,141.73L115.14,142.64L115.14,142.64L115.15,142.65L137.61,144.76L137.61,144.76L137.62,144.77L149.62,146.97L149.62,146.97L149.63,146.98L160.96,150.26L160.96,150.26L160.97,150.27L173.11,155.79L173.11,155.8L180.54,160.63L180.54,160.63L180.55,160.64L190.3,169.19L190.3,169.2L197.29,177.09L197.29,177.1L207.93,191.76L207.93,191.77L228.62,221.91L228.62,221.91L228.63,221.92L237.58,231.36L237.58,231.36L237.59,231.37L245.93,237.35L245.93,237.35L245.94,237.35L253.58,240.85L253.58,240.85L253.59,240.85L263.65,243.5L263.65,243.5L263.66,243.5L276.68,245.09L276.68,245.09L276.69,245.09L294.52,245.87L294.52,245.87L294.53,245.87L320.55,246.17L320.55,246.17L320.56,246.17L467,246.28" style="vector-effect: none; fill: none; stroke: rgb(255, 217, 47); stroke-opacity: 1; stroke-width: 4px; opacity: 1;"/></g><g class="points"/><g class="text"/></g><g class="trace scatter traceb56788" style="stroke-miterlimit: 2; opacity: 1;"><g class="fills"/><g class="errorbars"/><g class="lines"><path class="js-line" d="M0,192.24L143.06,191.27L143.06,191.26L159.27,190.26L159.27,190.26L159.28,190.25L174.83,188.48L174.83,188.47L192.31,184.85L192.31,184.85L192.32,184.84L206.41,180.3L206.41,180.29L238.83,169.57L238.83,169.57L238.84,169.57L255.03,167.34L255.04,167.34L273.85,166.46L273.85,166.46L273.86,166.46L467,166.11" style="vector-effect: none; fill: none; stroke: rgb(229, 196, 148); stroke-opacity: 1; stroke-width: 4px; opacity: 1;"/></g><g class="points"/><g class="text"/></g><g class="trace scatter trace3f3c86" style="stroke-miterlimit: 2; opacity: 1;"><g class="fills"/><g class="errorbars"/><g class="lines"><path class="js-line" d="M0,192.24L143.06,191.27L143.06,191.26L159.27,190.26L159.27,190.26L159.28,190.25L174.83,188.48L174.83,188.47L192.31,184.85L192.31,184.85L192.32,184.84L206.41,180.3L206.41,180.29L238.83,169.57L238.83,169.57L238.84,169.57L255.03,167.34L255.04,167.34L273.85,166.46L273.85,166.46L273.86,166.46L467,166.11" style="vector-effect: none; fill: none; stroke: rgb(179, 179, 179); stroke-opacity: 1; stroke-width: 4px; opacity: 1;"/></g><g class="points"/><g class="text"/></g><g class="trace scatter trace66d968" style="stroke-miterlimit: 2; opacity: 1;"><g class="fills"/><g class="errorbars"/><g class="lines"><path class="js-line" d="M0,184.54L153.97,183.56L153.97,183.55L186.67,182.55L186.67,182.54L467,182.14" style="vector-effect: none; fill: none; stroke: rgb(102, 194, 165); stroke-opacity: 1; stroke-width: 4px; opacity: 1;"/></g><g class="points"/><g class="text"/></g></g></g></g><g class="zerolinelayer-above"/><path class="xlines-above crisp" d="M0,0" style="fill: none;"/><path class="ylines-above crisp" d="M0,0" style="fill: none;"/><g class="overlines-above"/><g class="xaxislayer-above"><g class="xtick"><text text-anchor="middle" x="0" y="637" transform="translate(102,0)" style="font-family: 'Open Sans', verdana, arial, sans-serif; font-size: 40px; fill: rgb(42, 63, 95); fill-opacity: 1; white-space: pre;">0</text></g><g class="xtick"><text text-anchor="middle" x="0" y="637" style="font-family: 'Open Sans', verdana, arial, sans-serif; font-size: 40px; fill: rgb(42, 63, 95); fill-opacity: 1; white-space: pre;" transform="translate(208.14,0)">0.5</text></g><g class="xtick"><text text-anchor="middle" x="0" y="637" style="font-family: 'Open Sans', verdana, arial, sans-serif; font-size: 40px; fill: rgb(42, 63, 95); fill-opacity: 1; white-space: pre;" transform="translate(314.27,0)">1</text></g><g class="xtick"><text text-anchor="middle" x="0" y="637" style="font-family: 'Open Sans', verdana, arial, sans-serif; font-size: 40px; fill: rgb(42, 63, 95); fill-opacity: 1; white-space: pre;" transform="translate(420.41,0)">1.5</text></g><g class="xtick"><text text-anchor="middle" x="0" y="637" style="font-family: 'Open Sans', verdana, arial, sans-serif; font-size: 40px; fill: rgb(42, 63, 95); fill-opacity: 1; white-space: pre;" transform="translate(526.55,0)">2</text></g></g><g class="yaxislayer-above"><g class="ytick"><text text-anchor="end" x="101" y="14" transform="translate(0,582.6800000000001)" style="font-family: 'Open Sans', verdana, arial, sans-serif; font-size: 40px; fill: rgb(42, 63, 95); fill-opacity: 1; white-space: pre;">−2</text></g><g class="ytick"><text text-anchor="end" x="101" y="14" style="font-family: 'Open Sans', verdana, arial, sans-serif; font-size: 40px; fill: rgb(42, 63, 95); fill-opacity: 1; white-space: pre;" transform="translate(0,502.5)">−1</text></g><g class="ytick"><text text-anchor="end" x="101" y="14" style="font-family: 'Open Sans', verdana, arial, sans-serif; font-size: 40px; fill: rgb(42, 63, 95); fill-opacity: 1; white-space: pre;" transform="translate(0,422.32)">0</text></g><g class="ytick"><text text-anchor="end" x="101" y="14" style="font-family: 'Open Sans', verdana, arial, sans-serif; font-size: 40px; fill: rgb(42, 63, 95); fill-opacity: 1; white-space: pre;" transform="translate(0,342.14)">1</text></g><g class="ytick"><text text-anchor="end" x="101" y="14" style="font-family: 'Open Sans', verdana, arial, sans-serif; font-size: 40px; fill: rgb(42, 63, 95); fill-opacity: 1; white-space: pre;" transform="translate(0,261.96)">2</text></g><g class="ytick"><text text-anchor="end" x="101" y="14" style="font-family: 'Open Sans', verdana, arial, sans-serif; font-size: 40px; fill: rgb(42, 63, 95); fill-opacity: 1; white-space: pre;" transform="translate(0,181.78)">3</text></g></g><g class="overaxes-above"/></g></g><g class="polarlayer"/><g class="smithlayer"/><g class="ternarylayer"/><g class="geolayer"/><g class="funnelarealayer"/><g class="pielayer"/><g class="iciclelayer"/><g class="treemaplayer"/><g class="sunburstlayer"/><g class="glimages"/><defs id="topdefs-1cc2c6"><g class="clips"/><clipPath id="legend1cc2c6"><rect width="210" height="436" x="0" y="0"/></clipPath></defs><g class="layer-above"><g class="imagelayer"/><g class="shapelayer"/></g><g class="infolayer"><g class="legend" pointer-events="all" transform="translate(578.34,160)"><rect class="bg" shape-rendering="crispEdges" style="stroke: rgb(68, 68, 68); stroke-opacity: 1; fill: rgb(255, 255, 255); fill-opacity: 1; stroke-width: 0px;" width="210" height="436" x="0" y="0"/><g class="scrollbox" transform="" clip-path="url(#legend1cc2c6)"><g class="groups"><g class="traces" transform="translate(0,32.5)" style="opacity: 1;"><text class="legendtext" text-anchor="start" x="40" y="15.6" style="font-family: 'Open Sans', verdana, arial, sans-serif; font-size: 40px; fill: rgb(42, 63, 95); fill-opacity: 1; white-space: pre;">kaf (g)</text><g class="layers" style="opacity: 1;"><g class="legendfill"/><g class="legendlines"><path class="js-line" d="M5,0h30" style="fill: none; stroke: rgb(102, 194, 165); stroke-opacity: 1; stroke-width: 4px;"/></g><g class="legendsymbols"><g class="legendpoints"/></g></g><rect class="legendtoggle" x="0" y="-27.5" width="204.484375" height="55" style="fill: rgb(0, 0, 0); fill-opacity: 0;"/></g><g class="traces" transform="translate(0,87.5)" style="opacity: 1;"><text class="legendtext" text-anchor="start" x="40" y="15.6" style="font-family: 'Open Sans', verdana, arial, sans-serif; font-size: 40px; fill: rgb(42, 63, 95); fill-opacity: 1; white-space: pre;">kaf (shift)</text><g class="layers" style="opacity: 1;"><g class="legendfill"/><g class="legendlines"><path class="js-line" d="M5,0h30" style="fill: none; stroke: rgb(252, 141, 98); stroke-opacity: 1; stroke-width: 4px;"/></g><g class="legendsymbols"><g class="legendpoints"/></g></g><rect class="legendtoggle" x="0" y="-27.5" width="204.484375" height="55" style="fill: rgb(0, 0, 0); fill-opacity: 0;"/></g><g class="traces" transform="translate(0,142.5)" style="opacity: 1;"><text class="legendtext" text-anchor="start" x="40" y="15.6" style="font-family: 'Open Sans', verdana, arial, sans-serif; font-size: 40px; fill: rgb(42, 63, 95); fill-opacity: 1; white-space: pre;">kas (g)</text><g class="layers" style="opacity: 1;"><g class="legendfill"/><g class="legendlines"><path class="js-line" d="M5,0h30" style="fill: none; stroke: rgb(141, 160, 203); stroke-opacity: 1; stroke-width: 4px;"/></g><g class="legendsymbols"><g class="legendpoints"/></g></g><rect class="legendtoggle" x="0" y="-27.5" width="204.484375" height="55" style="fill: rgb(0, 0, 0); fill-opacity: 0;"/></g><g class="traces" transform="translate(0,197.5)" style="opacity: 1;"><text class="legendtext" text-anchor="start" x="40" y="15.6" style="font-family: 'Open Sans', verdana, arial, sans-serif; font-size: 40px; fill: rgb(42, 63, 95); fill-opacity: 1; white-space: pre;">kir (g)</text><g class="layers" style="opacity: 1;"><g class="legendfill"/><g class="legendlines"><path class="js-line" d="M5,0h30" style="fill: none; stroke: rgb(231, 138, 195); stroke-opacity: 1; stroke-width: 4px;"/></g><g class="legendsymbols"><g class="legendpoints"/></g></g><rect class="legendtoggle" x="0" y="-27.5" width="204.484375" height="55" style="fill: rgb(0, 0, 0); fill-opacity: 0;"/></g><g class="traces" transform="translate(0,252.5)" style="opacity: 1;"><text class="legendtext" text-anchor="start" x="40" y="15.6" style="font-family: 'Open Sans', verdana, arial, sans-serif; font-size: 40px; fill: rgb(42, 63, 95); fill-opacity: 1; white-space: pre;">naf (g)</text><g class="layers" style="opacity: 1;"><g class="legendfill"/><g class="legendlines"><path class="js-line" d="M5,0h30" style="fill: none; stroke: rgb(166, 216, 84); stroke-opacity: 1; stroke-width: 4px;"/></g><g class="legendsymbols"><g class="legendpoints"/></g></g><rect class="legendtoggle" x="0" y="-27.5" width="204.484375" height="55" style="fill: rgb(0, 0, 0); fill-opacity: 0;"/></g><g class="traces" transform="translate(0,307.5)" style="opacity: 1;"><text class="legendtext" text-anchor="start" x="40" y="15.6" style="font-family: 'Open Sans', verdana, arial, sans-serif; font-size: 40px; fill: rgb(42, 63, 95); fill-opacity: 1; white-space: pre;">sk (g)</text><g class="layers" style="opacity: 1;"><g class="legendfill"/><g class="legendlines"><path class="js-line" d="M5,0h30" style="fill: none; stroke: rgb(255, 217, 47); stroke-opacity: 1; stroke-width: 4px;"/></g><g class="legendsymbols"><g class="legendpoints"/></g></g><rect class="legendtoggle" x="0" y="-27.5" width="204.484375" height="55" style="fill: rgb(0, 0, 0); fill-opacity: 0;"/></g><g class="traces" transform="translate(0,362.5)" style="opacity: 1;"><text class="legendtext" text-anchor="start" x="40" y="15.6" style="font-family: 'Open Sans', verdana, arial, sans-serif; font-size: 40px; fill: rgb(42, 63, 95); fill-opacity: 1; white-space: pre;">cal12 (g)</text><g class="layers" style="opacity: 1;"><g class="legendfill"/><g class="legendlines"><path class="js-line" d="M5,0h30" style="fill: none; stroke: rgb(229, 196, 148); stroke-opacity: 1; stroke-width: 4px;"/></g><g class="legendsymbols"><g class="legendpoints"/></g></g><rect class="legendtoggle" x="0" y="-27.5" width="204.484375" height="55" style="fill: rgb(0, 0, 0); fill-opacity: 0;"/></g><g class="traces" transform="translate(0,417.5)" style="opacity: 1;"><text class="legendtext" text-anchor="start" x="40" y="15.6" style="font-family: 'Open Sans', verdana, arial, sans-serif; font-size: 40px; fill: rgb(42, 63, 95); fill-opacity: 1; white-space: pre;">cal13 (g)</text><g class="layers" style="opacity: 1;"><g class="legendfill"/><g class="legendlines"><path class="js-line" d="M5,0h30" style="fill: none; stroke: rgb(179, 179, 179); stroke-opacity: 1; stroke-width: 4px;"/></g><g class="legendsymbols"><g class="legendpoints"/></g></g><rect class="legendtoggle" x="0" y="-27.5" width="204.484375" height="55" style="fill: rgb(0, 0, 0); fill-opacity: 0;"/></g><g class="traces" transform="translate(0,472.5)" style="opacity: 1;"><text class="legendtext" text-anchor="start" x="40" y="15.6" style="font-family: 'Open Sans', verdana, arial, sans-serif; font-size: 40px; fill: rgb(42, 63, 95); fill-opacity: 1; white-space: pre;">car (g)</text><g class="layers" style="opacity: 1;"><g class="legendfill"/><g class="legendlines"><path class="js-line" d="M5,0h30" style="fill: none; stroke: rgb(102, 194, 165); stroke-opacity: 1; stroke-width: 4px;"/></g><g class="legendsymbols"><g class="legendpoints"/></g></g><rect class="legendtoggle" x="0" y="-27.5" width="204.484375" height="55" style="fill: rgb(0, 0, 0); fill-opacity: 0;"/></g></g></g><rect class="scrollbar" rx="20" ry="3" width="0" height="0" style="fill: rgb(128, 139, 164); fill-opacity: 1;" x="0" y="0"/></g><g class="g-gtitle"><text class="gtitle" x="400" y="70" text-anchor="middle" dy="0.7em" style="opacity: 1; font-family: 'Open Sans', verdana, arial, sans-serif; font-size: 60px; fill: rgb(42, 63, 95); fill-opacity: 1; white-space: pre;">dSPN modulation</text></g><g class="g-xtitle"><text class="xtitle" x="335.5" y="687.5" text-anchor="middle" style="opacity: 1; font-family: 'Open Sans', verdana, arial, sans-serif; font-size: 40px; fill: rgb(42, 63, 95); fill-opacity: 1; white-space: pre;">Time (s)</text></g><g class="g-ytitle" transform="translate(9.109375,0)"><text class="ytitle" transform="rotate(-90,26.890625,378)" x="26.890625" y="378" text-anchor="middle" style="opacity: 1; font-family: 'Open Sans', verdana, arial, sans-serif; font-size: 40px; fill: rgb(42, 63, 95); fill-opacity: 1; white-space: pre;">Modulation</text></g></g></svg>