<svg class="main-svg" xmlns="http://www.w3.org/2000/svg" xmlns:xlink="http://www.w3.org/1999/xlink" width="800" height="300" style="" viewBox="0 0 800 300"><rect x="0" y="0" width="800" height="300" style="fill: rgb(255, 255, 255); fill-opacity: 1;"/><defs id="defs-793c64"><g class="clips"><clipPath id="clip793c64xyplot" class="plotclip"><rect width="484" height="207"/></clipPath><clipPath class="axesclip" id="clip793c64x"><rect x="120" y="0" width="484" height="300"/></clipPath><clipPath class="axesclip" id="clip793c64y"><rect x="0" y="36" width="800" height="207"/></clipPath><clipPath class="axesclip" id="clip793c64xy"><rect x="120" y="36" width="484" height="207"/></clipPath></g><g class="gradients"/><g class="patterns"/></defs><g class="bglayer"/><g class="layer-below"><g class="imagelayer"/><g class="shapelayer"/></g><g class="cartesianlayer"><g class="subplot xy"><g class="layer-subplot"><g class="shapelayer"/><g class="imagelayer"/></g><g class="minor-gridlayer"><g class="x"/><g class="y"/></g><g class="gridlayer"><g class="x"><path class="xgrid crisp" transform="translate(200.67000000000002,0)" d="M0,36v207" style="stroke: rgb(255, 255, 255); stroke-opacity: 1; stroke-width: 1px;"/><path class="xgrid crisp" transform="translate(281.33000000000004,0)" d="M0,36v207" style="stroke: rgb(255, 255, 255); stroke-opacity: 1; stroke-width: 1px;"/><path class="xgrid crisp" transform="translate(362,0)" d="M0,36v207" style="stroke: rgb(255, 255, 255); stroke-opacity: 1; stroke-width: 1px;"/><path class="xgrid crisp" transform="translate(442.67,0)" d="M0,36v207" style="stroke: rgb(255, 255, 255); stroke-opacity: 1; stroke-width: 1px;"/><path class="xgrid crisp" transform="translate(523.3299999999999,0)" d="M0,36v207" style="stroke: rgb(255, 255, 255); stroke-opacity: 1; stroke-width: 1px;"/></g><g class="y"><path class="ygrid crisp" transform="translate(0,193.36)" d="M120,0h484" style="stroke: rgb(255, 255, 255); stroke-opacity: 1; stroke-width: 1px;"/><path class="ygrid crisp" transform="translate(0,153.26)" d="M120,0h484" style="stroke: rgb(255, 255, 255); stroke-opacity: 1; stroke-width: 1px;"/><path class="ygrid crisp" transform="translate(0,113.17)" d="M120,0h484" style="stroke: rgb(255, 255, 255); stroke-opacity: 1; stroke-width: 1px;"/><path class="ygrid crisp" transform="translate(0,73.08)" d="M120,0h484" style="stroke: rgb(255, 255, 255); stroke-opacity: 1; stroke-width: 1px;"/></g></g><g class="zerolinelayer"><path class="xzl zl crisp" transform="translate(120,0)" d="M0,36v207" style="stroke: rgb(255, 255, 255); stroke-opacity: 1; stroke-width: 2px;"/><path class="yzl zl crisp" transform="translate(0,233.45)" d="M120,0h484" style="stroke: rgb(255, 255, 255); stroke-opacity: 1; stroke-width: 2px;"/></g><g class="layer-between"><g class="shapelayer"/><g class="imagelayer"/></g><path class="xlines-below"/><path class="ylines-below"/><g class="overlines-below"/><g class="xaxislayer-below"/><g class="yaxislayer-below"/><g class="overaxes-below"/><g class="overplot"><g class="xy" transform="translate(120,36)" clip-path="url(#clip793c64xyplot)"><g class="scatterlayer mlayer"><g class="trace scatter tracece782d" style="stroke-miterlimit: 2; opacity: 1;"><g class="fills"/><g class="errorbars"/><g class="lines"><path class="js-line" d="M0,196.65L1.01,194.65L1.21,194.65L161.33,194.65L161.54,187.65L163.55,148.44L163.75,147.49L164.56,143.67L165.17,144.86L165.37,145.25L169.8,156.19L170.01,156.72L175.65,169.12L175.85,169.54L181.7,179.14L181.9,179.45L188.36,187.74L188.56,187.92L195.62,193.37L195.82,193.39L233.73,194.65L233.93,194.65L484,194.65" style="vector-effect: none; fill: none; stroke: rgb(178, 24, 43); stroke-opacity: 1; stroke-width: 4px; opacity: 1;"/></g><g class="points"/><g class="text"/></g><g class="trace scatter trace536c7b" style="stroke-miterlimit: 2; opacity: 1;"><g class="fills"/><g class="errorbars"/><g class="lines"><path class="js-line" d="M0,195.05L4.64,194.65L4.84,194.65L121.2,194.62L121.4,168.24L122.21,149.26L122.61,149.7L122.82,150.27L125.24,161.56L125.44,124.77L126.24,99.98L126.65,102.13L126.85,103.73L129.27,128.6L129.47,88.79L130.08,63.8L130.68,68.54L130.88,71.14L133.3,106.95L133.5,65.99L134.11,41.55L134.71,48.22L134.92,51.49L137.34,94.26L137.54,52.63L138.14,28.52L138.55,32.99L138.75,36.36L141.37,86.91L141.57,44.84L142.18,20.89L142.58,25.79L142.78,29.4L145.4,82.6L145.6,40.23L146.21,16.36L146.61,21.52L146.81,25.26L149.44,80.03L149.64,37.48L150.24,13.63L150.65,18.95L150.85,22.77L153.47,78.48L153.67,35.81L154.28,11.98L154.68,17.38L154.88,21.26L157.5,77.53L157.7,34.8L158.31,10.97L158.71,16.43L158.91,20.34L161.54,76.95L161.74,34.17L162.34,10.35L162.75,15.84L162.95,19.77L169.4,137.52L169.6,139.83L173.23,169.57L173.43,170.69L177.06,184.47L177.27,184.96L180.69,190.56L180.9,190.77L184.93,193.24L185.13,193.31L190.78,194.28L190.98,194.29L204.09,194.6L204.29,194.6L224.66,194.62L224.86,194.62L484,194.62" style="vector-effect: none; fill: none; stroke: rgb(51, 51, 51); stroke-opacity: 1; stroke-width: 4px; opacity: 1;"/></g><g class="points"/><g class="text"/></g><g class="trace scatter tracecb8d09" style="stroke-miterlimit: 2; opacity: 1;"><g class="fills"/><g class="errorbars"/><g class="lines"><path class="js-line" d="M0,87.98L112.13,88.82L112.33,88.83L127.45,88.18L127.66,88.15L143.59,85.98L143.79,85.96L168.39,84.49L168.59,84.49L177.27,85.46L177.47,85.51L183.32,88.27L183.52,88.41L189.77,93.61L189.97,93.8L221.23,124.35L221.43,124.51L235.35,134.39L235.55,134.52L251.08,142.7L251.28,142.79L264.59,147.69L264.79,147.75L279.91,151.27L280.12,151.3L298.67,153.11L298.87,153.11L315.61,152.95L315.81,152.94L343.44,150.57L343.64,150.55L391.23,144.42L391.44,144.4L435.8,138.75L436,138.73L468.47,135.1L468.67,135.08L484,133.55" style="vector-effect: none; fill: none; stroke: rgb(136, 136, 136); stroke-opacity: 1; stroke-width: 4px; opacity: 1;"/></g><g class="points"/><g class="text"/></g><g class="trace scatter trace61739e" style="stroke-miterlimit: 2; opacity: 1;"><g class="fills"/><g class="errorbars"/><g class="lines"><path class="js-line" d="M0,194.19L136.73,193.2L136.93,193.18L192.19,188.65L192.39,188.64L221.03,186.21L221.23,186.19L325.29,176.05L325.49,176.04L356.75,175.47L356.95,175.47L393.45,176.47L393.65,176.48L467.67,181L467.87,181.02L484,182.07" style="vector-effect: none; fill: none; stroke: rgb(239, 138, 98); stroke-opacity: 1; stroke-width: 4px; opacity: 1;"/></g><g class="points"/><g class="text"/></g></g></g></g><g class="zerolinelayer-above"/><path class="xlines-above crisp" d="M0,0" style="fill: none;"/><path class="ylines-above crisp" d="M0,0" style="fill: none;"/><g class="overlines-above"/><g class="xaxislayer-above"><g class="xtick"><text text-anchor="middle" x="0" y="259" transform="translate(120,0)" style="font-family: 'Open Sans', verdana, arial, sans-serif; font-size: 15px; fill: rgb(42, 63, 95); fill-opacity: 1; white-space: pre;">0</text></g><g class="xtick"><text text-anchor="middle" x="0" y="259" style="font-family: 'Open Sans', verdana, arial, sans-serif; font-size: 15px; fill: rgb(42, 63, 95); fill-opacity: 1; white-space: pre;" transform="translate(200.67000000000002,0)">2</text></g><g class="xtick"><text text-anchor="middle" x="0" y="259" style="font-family: 'Open Sans', verdana, arial, sans-serif; font-size: 15px; fill: rgb(42, 63, 95); fill-opacity: 1; white-space: pre;" transform="translate(281.33000000000004,0)">4</text></g><g class="xtick"><text text-anchor="middle" x="0" y="259" style="font-family: 'Open Sans', verdana, arial, sans-serif; font-size: 15px; fill: rgb(42, 63, 95); fill-opacity: 1; white-space: pre;" transform="translate(362,0)">6</text></g><g class="xtick"><text text-anchor="middle" x="0" y="259" style="font-family: 'Open Sans', verdana, arial, sans-serif; font-size: 15px; fill: rgb(42, 63, 95); fill-opacity: 1; white-space: pre;" transform="translate(442.67,0)">8</text></g><g class="xtick"><text text-anchor="middle" x="0" y="259" style="font-family: 'Open Sans', verdana, arial, sans-serif; font-size: 15px; fill: rgb(42, 63, 95); fill-opacity: 1; white-space: pre;" transform="translate(523.3299999999999,0)">10</text></g><g class="xtick"><text text-anchor="middle" x="0" y="259" style="font-family: 'Open Sans', verdana, arial, sans-serif; font-size: 15px; fill: rgb(42, 63, 95); fill-opacity: 1; white-space: pre;" transform="translate(604,0)">12</text></g></g><g class="yaxislayer-above"><g class="ytick"><text text-anchor="end" x="119" y="5.25" transform="translate(0,233.45)" style="font-family: 'Open Sans', verdana, arial, sans-serif; font-size: 15px; fill: rgb(42, 63, 95); fill-opacity: 1; white-space: pre;">0</text></g><g class="ytick"><text text-anchor="end" x="119" y="5.25" style="font-family: 'Open Sans', verdana, arial, sans-serif; font-size: 15px; fill: rgb(42, 63, 95); fill-opacity: 1; white-space: pre;" transform="translate(0,193.36)">0.001</text></g><g class="ytick"><text text-anchor="end" x="119" y="5.25" style="font-family: 'Open Sans', verdana, arial, sans-serif; font-size: 15px; fill: rgb(42, 63, 95); fill-opacity: 1; white-space: pre;" transform="translate(0,153.26)">0.002</text></g><g class="ytick"><text text-anchor="end" x="119" y="5.25" style="font-family: 'Open Sans', verdana, arial, sans-serif; font-size: 15px; fill: rgb(42, 63, 95); fill-opacity: 1; white-space: pre;" transform="translate(0,113.17)">0.003</text></g><g class="ytick"><text text-anchor="end" x="119" y="5.25" style="font-family: 'Open Sans', verdana, arial, sans-serif; font-size: 15px; fill: rgb(42, 63, 95); fill-opacity: 1; white-space: pre;" transform="translate(0,73.08)">0.004</text></g></g><g class="overaxes-above"/></g></g><g class="polarlayer"/><g class="smithlayer"/><g class="ternarylayer"/><g class="geolayer"/><g class="funnelarealayer"/><g class="pielayer"/><g class="iciclelayer"/><g class="treemaplayer"/><g class="sunburstlayer"/><g class="glimages"/><defs id="topdefs-793c64"><g class="clips"/><clipPath id="legend793c64"><rect width="174" height="100" x="0" y="0"/></clipPath></defs><g class="layer-above"><g class="imagelayer"/><g class="shapelayer"/></g><g class="infolayer"><g class="legend" pointer-events="all" transform="translate(613.6800000000001,36)"><rect class="bg" shape-rendering="crispEdges" style="stroke: rgb(68, 68, 68); stroke-opacity: 1; fill: rgb(255, 255, 255); fill-opacity: 1; stroke-width: 0px;" width="174" height="100" x="0" y="0"/><g class="scrollbox" transform="" clip-path="url(#legend793c64)"><g class="groups"><g class="traces" transform="translate(0,16.25)" style="opacity: 1;"><text class="legendtext" text-anchor="start" x="40" y="5.85" style="font-family: 'Open Sans', verdana, arial, sans-serif; font-size: 15px; fill: rgb(42, 63, 95); fill-opacity: 1; white-space: pre;">DA (10:0.5)</text><g class="layers" style="opacity: 1;"><g class="legendfill"/><g class="legendlines"><path class="js-line" d="M5,0h30" style="fill: none; stroke: rgb(178, 24, 43); stroke-opacity: 1; stroke-width: 4px;"/></g><g class="legendsymbols"><g class="legendpoints"/></g></g><rect class="legendtoggle" x="0" y="-11.25" width="168.421875" height="22.5" style="fill: rgb(0, 0, 0); fill-opacity: 0;"/></g><g class="traces" transform="translate(0,38.75)" style="opacity: 1;"><text class="legendtext" text-anchor="start" x="40" y="5.85" style="font-family: 'Open Sans', verdana, arial, sans-serif; font-size: 15px; fill: rgb(42, 63, 95); fill-opacity: 1; white-space: pre;">cal (10:0.5)</text><g class="layers" style="opacity: 1;"><g class="legendfill"/><g class="legendlines"><path class="js-line" d="M5,0h30" style="fill: none; stroke: rgb(51, 51, 51); stroke-opacity: 1; stroke-width: 4px;"/></g><g class="legendsymbols"><g class="legendpoints"/></g></g><rect class="legendtoggle" x="0" y="-11.25" width="168.421875" height="22.5" style="fill: rgb(0, 0, 0); fill-opacity: 0;"/></g><g class="traces" transform="translate(0,61.25)" style="opacity: 1;"><text class="legendtext" text-anchor="start" x="40" y="5.85" style="font-family: 'Open Sans', verdana, arial, sans-serif; font-size: 15px; fill: rgb(42, 63, 95); fill-opacity: 1; white-space: pre;">PP1 (10:0.5)</text><g class="layers" style="opacity: 1;"><g class="legendfill"/><g class="legendlines"><path class="js-line" d="M5,0h30" style="fill: none; stroke: rgb(136, 136, 136); stroke-opacity: 1; stroke-width: 4px;"/></g><g class="legendsymbols"><g class="legendpoints"/></g></g><rect class="legendtoggle" x="0" y="-11.25" width="168.421875" height="22.5" style="fill: rgb(0, 0, 0); fill-opacity: 0;"/></g><g class="traces" transform="translate(0,83.75)" style="opacity: 1;"><text class="legendtext" text-anchor="start" x="40" y="5.85" style="font-family: 'Open Sans', verdana, arial, sans-serif; font-size: 15px; fill: rgb(42, 63, 95); fill-opacity: 1; white-space: pre;">pSubstrate (10:0.5)</text><g class="layers" style="opacity: 1;"><g class="legendfill"/><g class="legendlines"><path class="js-line" d="M5,0h30" style="fill: none; stroke: rgb(239, 138, 98); stroke-opacity: 1; stroke-width: 4px;"/></g><g class="legendsymbols"><g class="legendpoints"/></g></g><rect class="legendtoggle" x="0" y="-11.25" width="168.421875" height="22.5" style="fill: rgb(0, 0, 0); fill-opacity: 0;"/></g></g></g><rect class="scrollbar" rx="20" ry="3" width="0" height="0" style="fill: rgb(128, 139, 164); fill-opacity: 1;" x="0" y="0"/></g><g class="g-gtitle"><text class="gtitle" x="400" y="30" text-anchor="middle" dy="0.7em" style="opacity: 1; font-family: 'Open Sans', verdana, arial, sans-serif; font-size: 20px; fill: rgb(42, 63, 95); fill-opacity: 1; white-space: pre;">Plasiticity at Δt = 1s</text></g><g class="g-xtitle"><text class="xtitle" x="362" y="287" text-anchor="middle" style="opacity: 1; font-family: 'Open Sans', verdana, arial, sans-serif; font-size: 15px; fill: rgb(42, 63, 95); fill-opacity: 1; white-space: pre;">Time (s)</text></g><g class="g-ytitle"><text class="ytitle" transform="rotate(-90,61.703125,139.5)" x="61.703125" y="139.5" text-anchor="middle" style="opacity: 1; font-family: 'Open Sans', verdana, arial, sans-serif; font-size: 15px; fill: rgb(42, 63, 95); fill-opacity: 1; white-space: pre;">Concentration (mM)</text></g></g></svg>