<svg class="main-svg" xmlns="http://www.w3.org/2000/svg" xmlns:xlink="http://www.w3.org/1999/xlink" width="800" height="300" style="" viewBox="0 0 800 300"><rect x="0" y="0" width="800" height="300" style="fill: rgb(255, 255, 255); fill-opacity: 1;"/><defs id="defs-f2688f"><g class="clips"><clipPath id="clipf2688fxyplot" class="plotclip"><rect width="484" height="207"/></clipPath><clipPath class="axesclip" id="clipf2688fx"><rect x="120" y="0" width="484" height="300"/></clipPath><clipPath class="axesclip" id="clipf2688fy"><rect x="0" y="36" width="800" height="207"/></clipPath><clipPath class="axesclip" id="clipf2688fxy"><rect x="120" y="36" width="484" height="207"/></clipPath></g><g class="gradients"/><g class="patterns"/></defs><g class="bglayer"/><g class="layer-below"><g class="imagelayer"/><g class="shapelayer"/></g><g class="cartesianlayer"><g class="subplot xy"><g class="layer-subplot"><g class="shapelayer"/><g class="imagelayer"/></g><g class="minor-gridlayer"><g class="x"/><g class="y"/></g><g class="gridlayer"><g class="x"><path class="xgrid crisp" transform="translate(200.67000000000002,0)" d="M0,36v207" style="stroke: rgb(255, 255, 255); stroke-opacity: 1; stroke-width: 1px;"/><path class="xgrid crisp" transform="translate(281.33000000000004,0)" d="M0,36v207" style="stroke: rgb(255, 255, 255); stroke-opacity: 1; stroke-width: 1px;"/><path class="xgrid crisp" transform="translate(362,0)" d="M0,36v207" style="stroke: rgb(255, 255, 255); stroke-opacity: 1; stroke-width: 1px;"/><path class="xgrid crisp" transform="translate(442.67,0)" d="M0,36v207" style="stroke: rgb(255, 255, 255); stroke-opacity: 1; stroke-width: 1px;"/><path class="xgrid crisp" transform="translate(523.3299999999999,0)" d="M0,36v207" style="stroke: rgb(255, 255, 255); stroke-opacity: 1; stroke-width: 1px;"/></g><g class="y"><path class="ygrid crisp" transform="translate(0,193.33)" d="M120,0h484" style="stroke: rgb(255, 255, 255); stroke-opacity: 1; stroke-width: 1px;"/><path class="ygrid crisp" transform="translate(0,153.20999999999998)" d="M120,0h484" style="stroke: rgb(255, 255, 255); stroke-opacity: 1; stroke-width: 1px;"/><path class="ygrid crisp" transform="translate(0,113.09)" d="M120,0h484" style="stroke: rgb(255, 255, 255); stroke-opacity: 1; stroke-width: 1px;"/><path class="ygrid crisp" transform="translate(0,72.97)" d="M120,0h484" style="stroke: rgb(255, 255, 255); stroke-opacity: 1; stroke-width: 1px;"/></g></g><g class="zerolinelayer"><path class="xzl zl crisp" transform="translate(120,0)" d="M0,36v207" style="stroke: rgb(255, 255, 255); stroke-opacity: 1; stroke-width: 2px;"/><path class="yzl zl crisp" transform="translate(0,233.45)" d="M120,0h484" style="stroke: rgb(255, 255, 255); stroke-opacity: 1; stroke-width: 2px;"/></g><g class="layer-between"><g class="shapelayer"/><g class="imagelayer"/></g><path class="xlines-below"/><path class="ylines-below"/><g class="overlines-below"/><g class="xaxislayer-below"/><g class="yaxislayer-below"/><g class="overaxes-below"/><g class="overplot"><g class="xy" transform="translate(120,36)" clip-path="url(#clipf2688fxyplot)"><g class="scatterlayer mlayer"><g class="trace scatter tracea97cf2" style="stroke-miterlimit: 2; opacity: 1;"><g class="fills"/><g class="errorbars"/><g class="lines"><path class="js-line" d="M0,196.65L1.01,194.64L1.21,194.64L161.33,194.64L161.54,187.65L163.55,148.41L163.75,147.46L164.56,143.63L165.17,144.82L165.37,145.22L169.6,155.62L169.8,156.16L176.66,171.21L176.86,171.53L188.36,187.73L188.56,187.92L196.02,193.4L196.22,193.41L218.41,194.64L218.61,194.64L484,194.64" style="vector-effect: none; fill: none; stroke: rgb(178, 24, 43); stroke-opacity: 1; stroke-width: 4px; opacity: 1;"/></g><g class="points"/><g class="text"/></g><g class="trace scatter trace684858" style="stroke-miterlimit: 2; opacity: 1;"><g class="fills"/><g class="errorbars"/><g class="lines"><path class="js-line" d="M0,195.05L4.64,194.65L4.84,194.65L80.87,194.62L81.07,168.22L81.88,149.28L82.28,149.74L82.48,150.33L84.9,161.65L85.1,124.83L85.91,100.09L86.31,102.26L86.52,103.88L88.94,128.77L89.14,88.91L89.74,63.95L90.35,68.73L90.55,71.34L92.97,107.14L93.17,66.14L93.78,41.72L94.18,45.45L94.38,48.43L97,94.45L97.2,52.77L97.81,28.69L98.21,33.17L98.41,36.55L101.04,87.08L101.24,44.96L101.84,21.02L102.25,25.95L102.45,29.56L105.07,82.74L105.27,40.33L105.88,16.46L106.28,21.64L106.48,25.39L109.1,80.14L109.3,37.55L109.91,13.71L110.31,19.03L110.51,22.87L113.14,78.56L113.34,35.86L113.94,12.02L114.35,17.44L114.55,21.32L117.17,77.59L117.37,34.82L117.98,10.99L118.38,16.46L118.58,20.37L121.2,76.99L121.4,34.18L122.01,10.35L122.41,15.85L122.61,19.78L129.47,142.07L129.67,144.22L133.3,171.76L133.5,172.79L137.13,185.43L137.34,185.88L140.76,190.96L140.97,191.15L144.8,193.31L145,193.38L151.65,194.36L151.86,194.37L176.86,194.62L177.06,194.62L484,194.62" style="vector-effect: none; fill: none; stroke: rgb(51, 51, 51); stroke-opacity: 1; stroke-width: 4px; opacity: 1;"/></g><g class="points"/><g class="text"/></g><g class="trace scatter trace559891" style="stroke-miterlimit: 2; opacity: 1;"><g class="fills"/><g class="errorbars"/><g class="lines"><path class="js-line" d="M0,87.9L87.32,86.99L87.52,86.96L115.35,83.94L115.56,83.93L136.73,83.85L136.93,83.87L151.05,86.95L151.25,87.01L178.88,94.91L179.08,95.01L186.74,99.9L186.95,100.06L200.05,111.13L200.26,111.3L216.99,124.23L217.2,124.37L236.96,136.12L237.16,136.22L253.09,143.07L253.29,143.14L267.01,147.32L267.21,147.37L283.54,150.44L283.75,150.47L298.27,151.64L298.47,151.65L321.05,151.23L321.26,151.21L345.46,149L345.66,148.98L385.39,144.01L385.59,143.98L427.53,138.7L427.74,138.67L484,132.68" style="vector-effect: none; fill: none; stroke: rgb(136, 136, 136); stroke-opacity: 1; stroke-width: 4px; opacity: 1;"/></g><g class="points"/><g class="text"/></g><g class="trace scatter trace618189" style="stroke-miterlimit: 2; opacity: 1;"><g class="fills"/><g class="errorbars"/><g class="lines"><path class="js-line" d="M0,194.19L96.4,193.2L96.6,193.18L154.48,188.39L154.68,188.38L173.43,187.5L173.64,187.49L233.73,183.61L233.93,183.59L302.1,178.1L302.3,178.09L319.84,177.33L320.05,177.33L346.46,177L346.67,177.01L384.98,178.01L385.18,178.02L482.59,183.64L482.79,183.66L484,183.73" style="vector-effect: none; fill: none; stroke: rgb(239, 138, 98); stroke-opacity: 1; stroke-width: 4px; opacity: 1;"/></g><g class="points"/><g class="text"/></g></g></g></g><g class="zerolinelayer-above"/><path class="xlines-above crisp" d="M0,0" style="fill: none;"/><path class="ylines-above crisp" d="M0,0" style="fill: none;"/><g class="overlines-above"/><g class="xaxislayer-above"><g class="xtick"><text text-anchor="middle" x="0" y="259" transform="translate(120,0)" style="font-family: 'Open Sans', verdana, arial, sans-serif; font-size: 15px; fill: rgb(42, 63, 95); fill-opacity: 1; white-space: pre;">0</text></g><g class="xtick"><text text-anchor="middle" x="0" y="259" style="font-family: 'Open Sans', verdana, arial, sans-serif; font-size: 15px; fill: rgb(42, 63, 95); fill-opacity: 1; white-space: pre;" transform="translate(200.67000000000002,0)">2</text></g><g class="xtick"><text text-anchor="middle" x="0" y="259" style="font-family: 'Open Sans', verdana, arial, sans-serif; font-size: 15px; fill: rgb(42, 63, 95); fill-opacity: 1; white-space: pre;" transform="translate(281.33000000000004,0)">4</text></g><g class="xtick"><text text-anchor="middle" x="0" y="259" style="font-family: 'Open Sans', verdana, arial, sans-serif; font-size: 15px; fill: rgb(42, 63, 95); fill-opacity: 1; white-space: pre;" transform="translate(362,0)">6</text></g><g class="xtick"><text text-anchor="middle" x="0" y="259" style="font-family: 'Open Sans', verdana, arial, sans-serif; font-size: 15px; fill: rgb(42, 63, 95); fill-opacity: 1; white-space: pre;" transform="translate(442.67,0)">8</text></g><g class="xtick"><text text-anchor="middle" x="0" y="259" style="font-family: 'Open Sans', verdana, arial, sans-serif; font-size: 15px; fill: rgb(42, 63, 95); fill-opacity: 1; white-space: pre;" transform="translate(523.3299999999999,0)">10</text></g><g class="xtick"><text text-anchor="middle" x="0" y="259" style="font-family: 'Open Sans', verdana, arial, sans-serif; font-size: 15px; fill: rgb(42, 63, 95); fill-opacity: 1; white-space: pre;" transform="translate(604,0)">12</text></g></g><g class="yaxislayer-above"><g class="ytick"><text text-anchor="end" x="119" y="5.25" transform="translate(0,233.45)" style="font-family: 'Open Sans', verdana, arial, sans-serif; font-size: 15px; fill: rgb(42, 63, 95); fill-opacity: 1; white-space: pre;">0</text></g><g class="ytick"><text text-anchor="end" x="119" y="5.25" style="font-family: 'Open Sans', verdana, arial, sans-serif; font-size: 15px; fill: rgb(42, 63, 95); fill-opacity: 1; white-space: pre;" transform="translate(0,193.33)">0.001</text></g><g class="ytick"><text text-anchor="end" x="119" y="5.25" style="font-family: 'Open Sans', verdana, arial, sans-serif; font-size: 15px; fill: rgb(42, 63, 95); fill-opacity: 1; white-space: pre;" transform="translate(0,153.20999999999998)">0.002</text></g><g class="ytick"><text text-anchor="end" x="119" y="5.25" style="font-family: 'Open Sans', verdana, arial, sans-serif; font-size: 15px; fill: rgb(42, 63, 95); fill-opacity: 1; white-space: pre;" transform="translate(0,113.09)">0.003</text></g><g class="ytick"><text text-anchor="end" x="119" y="5.25" style="font-family: 'Open Sans', verdana, arial, sans-serif; font-size: 15px; fill: rgb(42, 63, 95); fill-opacity: 1; white-space: pre;" transform="translate(0,72.97)">0.004</text></g></g><g class="overaxes-above"/></g></g><g class="polarlayer"/><g class="smithlayer"/><g class="ternarylayer"/><g class="geolayer"/><g class="funnelarealayer"/><g class="pielayer"/><g class="iciclelayer"/><g class="treemaplayer"/><g class="sunburstlayer"/><g class="glimages"/><defs id="topdefs-f2688f"><g class="clips"/><clipPath id="legendf2688f"><rect width="174" height="100" x="0" y="0"/></clipPath></defs><g class="layer-above"><g class="imagelayer"/><g class="shapelayer"/></g><g class="infolayer"><g class="legend" pointer-events="all" transform="translate(613.6800000000001,36)"><rect class="bg" shape-rendering="crispEdges" style="stroke: rgb(68, 68, 68); stroke-opacity: 1; fill: rgb(255, 255, 255); fill-opacity: 1; stroke-width: 0px;" width="174" height="100" x="0" y="0"/><g class="scrollbox" transform="" clip-path="url(#legendf2688f)"><g class="groups"><g class="traces" transform="translate(0,16.25)" style="opacity: 1;"><text class="legendtext" text-anchor="start" x="40" y="5.85" style="font-family: 'Open Sans', verdana, arial, sans-serif; font-size: 15px; fill: rgb(42, 63, 95); fill-opacity: 1; white-space: pre;">DA (10:0.5)</text><g class="layers" style="opacity: 1;"><g class="legendfill"/><g class="legendlines"><path class="js-line" d="M5,0h30" style="fill: none; stroke: rgb(178, 24, 43); stroke-opacity: 1; stroke-width: 4px;"/></g><g class="legendsymbols"><g class="legendpoints"/></g></g><rect class="legendtoggle" x="0" y="-11.25" width="168.421875" height="22.5" style="fill: rgb(0, 0, 0); fill-opacity: 0;"/></g><g class="traces" transform="translate(0,38.75)" style="opacity: 1;"><text class="legendtext" text-anchor="start" x="40" y="5.85" style="font-family: 'Open Sans', verdana, arial, sans-serif; font-size: 15px; fill: rgb(42, 63, 95); fill-opacity: 1; white-space: pre;">cal (10:0.5)</text><g class="layers" style="opacity: 1;"><g class="legendfill"/><g class="legendlines"><path class="js-line" d="M5,0h30" style="fill: none; stroke: rgb(51, 51, 51); stroke-opacity: 1; stroke-width: 4px;"/></g><g class="legendsymbols"><g class="legendpoints"/></g></g><rect class="legendtoggle" x="0" y="-11.25" width="168.421875" height="22.5" style="fill: rgb(0, 0, 0); fill-opacity: 0;"/></g><g class="traces" transform="translate(0,61.25)" style="opacity: 1;"><text class="legendtext" text-anchor="start" x="40" y="5.85" style="font-family: 'Open Sans', verdana, arial, sans-serif; font-size: 15px; fill: rgb(42, 63, 95); fill-opacity: 1; white-space: pre;">PP1 (10:0.5)</text><g class="layers" style="opacity: 1;"><g class="legendfill"/><g class="legendlines"><path class="js-line" d="M5,0h30" style="fill: none; stroke: rgb(136, 136, 136); stroke-opacity: 1; stroke-width: 4px;"/></g><g class="legendsymbols"><g class="legendpoints"/></g></g><rect class="legendtoggle" x="0" y="-11.25" width="168.421875" height="22.5" style="fill: rgb(0, 0, 0); fill-opacity: 0;"/></g><g class="traces" transform="translate(0,83.75)" style="opacity: 1;"><text class="legendtext" text-anchor="start" x="40" y="5.85" style="font-family: 'Open Sans', verdana, arial, sans-serif; font-size: 15px; fill: rgb(42, 63, 95); fill-opacity: 1; white-space: pre;">pSubstrate (10:0.5)</text><g class="layers" style="opacity: 1;"><g class="legendfill"/><g class="legendlines"><path class="js-line" d="M5,0h30" style="fill: none; stroke: rgb(239, 138, 98); stroke-opacity: 1; stroke-width: 4px;"/></g><g class="legendsymbols"><g class="legendpoints"/></g></g><rect class="legendtoggle" x="0" y="-11.25" width="168.421875" height="22.5" style="fill: rgb(0, 0, 0); fill-opacity: 0;"/></g></g></g><rect class="scrollbar" rx="20" ry="3" width="0" height="0" style="fill: rgb(128, 139, 164); fill-opacity: 1;" x="0" y="0"/></g><g class="g-gtitle"><text class="gtitle" x="400" y="30" text-anchor="middle" dy="0.7em" style="opacity: 1; font-family: 'Open Sans', verdana, arial, sans-serif; font-size: 20px; fill: rgb(42, 63, 95); fill-opacity: 1; white-space: pre;">Plasiticity at Δt = 2s</text></g><g class="g-xtitle"><text class="xtitle" x="362" y="287" text-anchor="middle" style="opacity: 1; font-family: 'Open Sans', verdana, arial, sans-serif; font-size: 15px; fill: rgb(42, 63, 95); fill-opacity: 1; white-space: pre;">Time (s)</text></g><g class="g-ytitle"><text class="ytitle" transform="rotate(-90,61.703125,139.5)" x="61.703125" y="139.5" text-anchor="middle" style="opacity: 1; font-family: 'Open Sans', verdana, arial, sans-serif; font-size: 15px; fill: rgb(42, 63, 95); fill-opacity: 1; white-space: pre;">Concentration (mM)</text></g></g></svg>