<svg class="main-svg" xmlns="http://www.w3.org/2000/svg" xmlns:xlink="http://www.w3.org/1999/xlink" width="800" height="300" style="" viewBox="0 0 800 300"><rect x="0" y="0" width="800" height="300" style="fill: rgb(255, 255, 255); fill-opacity: 1;"/><defs id="defs-b55e6b"><g class="clips"><clipPath id="clipb55e6bxyplot" class="plotclip"><rect width="484" height="207"/></clipPath><clipPath class="axesclip" id="clipb55e6bx"><rect x="120" y="0" width="484" height="300"/></clipPath><clipPath class="axesclip" id="clipb55e6by"><rect x="0" y="36" width="800" height="207"/></clipPath><clipPath class="axesclip" id="clipb55e6bxy"><rect x="120" y="36" width="484" height="207"/></clipPath></g><g class="gradients"/><g class="patterns"/></defs><g class="bglayer"/><g class="layer-below"><g class="imagelayer"/><g class="shapelayer"/></g><g class="cartesianlayer"><g class="subplot xy"><g class="layer-subplot"><g class="shapelayer"/><g class="imagelayer"/></g><g class="minor-gridlayer"><g class="x"/><g class="y"/></g><g class="gridlayer"><g class="x"><path class="xgrid crisp" transform="translate(200.67000000000002,0)" d="M0,36v207" style="stroke: rgb(255, 255, 255); stroke-opacity: 1; stroke-width: 1px;"/><path class="xgrid crisp" transform="translate(281.33000000000004,0)" d="M0,36v207" style="stroke: rgb(255, 255, 255); stroke-opacity: 1; stroke-width: 1px;"/><path class="xgrid crisp" transform="translate(362,0)" d="M0,36v207" style="stroke: rgb(255, 255, 255); stroke-opacity: 1; stroke-width: 1px;"/><path class="xgrid crisp" transform="translate(442.67,0)" d="M0,36v207" style="stroke: rgb(255, 255, 255); stroke-opacity: 1; stroke-width: 1px;"/><path class="xgrid crisp" transform="translate(523.3299999999999,0)" d="M0,36v207" style="stroke: rgb(255, 255, 255); stroke-opacity: 1; stroke-width: 1px;"/></g><g class="y"><path class="ygrid crisp" transform="translate(0,193.37)" d="M120,0h484" style="stroke: rgb(255, 255, 255); stroke-opacity: 1; stroke-width: 1px;"/><path class="ygrid crisp" transform="translate(0,153.29000000000002)" d="M120,0h484" style="stroke: rgb(255, 255, 255); stroke-opacity: 1; stroke-width: 1px;"/><path class="ygrid crisp" transform="translate(0,113.2)" d="M120,0h484" style="stroke: rgb(255, 255, 255); stroke-opacity: 1; stroke-width: 1px;"/><path class="ygrid crisp" transform="translate(0,73.12)" d="M120,0h484" style="stroke: rgb(255, 255, 255); stroke-opacity: 1; stroke-width: 1px;"/></g></g><g class="zerolinelayer"><path class="xzl zl crisp" transform="translate(120,0)" d="M0,36v207" style="stroke: rgb(255, 255, 255); stroke-opacity: 1; stroke-width: 2px;"/><path class="yzl zl crisp" transform="translate(0,233.45)" d="M120,0h484" style="stroke: rgb(255, 255, 255); stroke-opacity: 1; stroke-width: 2px;"/></g><g class="layer-between"><g class="shapelayer"/><g class="imagelayer"/></g><path class="xlines-below"/><path class="ylines-below"/><g class="overlines-below"/><g class="xaxislayer-below"/><g class="yaxislayer-below"/><g class="overaxes-below"/><g class="overplot"><g class="xy" transform="translate(120,36)" clip-path="url(#clipb55e6bxyplot)"><g class="scatterlayer mlayer"><g class="trace scatter trace4665a9" style="stroke-miterlimit: 2; opacity: 1;"><g class="fills"/><g class="errorbars"/><g class="lines"><path class="js-line" d="M0,196.65L1.01,194.65L1.21,194.65L161.33,194.65L161.54,187.66L163.55,148.46L163.75,147.5L164.56,143.68L165.17,144.87L165.37,145.26L169.8,156.2L170.01,156.73L175.65,169.12L175.85,169.54L181.3,178.51L181.5,178.83L188.36,187.74L188.56,187.93L196.02,193.4L196.22,193.42L233.73,194.65L233.93,194.65L484,194.65" style="vector-effect: none; fill: none; stroke: rgb(178, 24, 43); stroke-opacity: 1; stroke-width: 4px; opacity: 1;"/></g><g class="points"/><g class="text"/></g><g class="trace scatter traceb65f0f" style="stroke-miterlimit: 2; opacity: 1;"><g class="fills"/><g class="errorbars"/><g class="lines"><path class="js-line" d="M0,195.05L5.65,194.64L5.85,194.64L282.54,194.62L282.74,168.25L283.54,149.25L283.95,149.69L284.15,150.26L286.57,161.53L286.77,124.76L287.58,99.95L287.98,102.09L288.18,103.69L290.6,128.56L290.8,88.75L291.41,63.76L292.01,68.49L292.22,71.09L294.64,106.89L294.84,65.95L295.44,41.5L295.85,45.2L296.05,48.17L298.67,94.21L298.87,52.59L299.48,28.48L299.88,32.94L300.08,36.31L302.7,86.87L302.9,44.8L303.51,20.86L303.91,25.75L304.11,29.36L306.74,82.56L306.94,40.21L307.54,16.33L307.95,21.49L308.15,25.23L310.77,80L310.97,37.46L311.58,13.61L311.98,18.92L312.18,22.75L314.8,78.45L315,35.8L315.61,11.97L316.01,17.37L316.21,21.24L318.84,77.51L319.04,34.79L319.64,10.96L320.05,16.42L320.25,20.33L322.87,76.94L323.07,34.17L323.68,10.35L324.08,15.84L324.28,19.76L330.73,137.52L330.94,139.83L334.57,169.57L334.77,170.69L338.2,183.96L338.4,184.47L341.83,190.35L342.03,190.56L345.66,193.02L345.86,193.1L352.11,194.28L352.31,194.3L378.33,194.62L378.53,194.62L484,194.62" style="vector-effect: none; fill: none; stroke: rgb(51, 51, 51); stroke-opacity: 1; stroke-width: 4px; opacity: 1;"/></g><g class="points"/><g class="text"/></g><g class="trace scatter trace2a797c" style="stroke-miterlimit: 2; opacity: 1;"><g class="fills"/><g class="errorbars"/><g class="lines"><path class="js-line" d="M0,88.01L112.33,88.85L112.53,88.86L176.86,92.89L177.06,92.93L185.94,96.04L186.14,96.14L196.63,101.94L196.83,102.06L224.25,117.35L224.46,117.45L246.03,127.13L246.24,127.21L265.39,133.8L265.6,133.86L283.14,137.43L283.34,137.21L296.45,124.23L296.65,124.06L306.33,117.11L306.53,116.99L324.89,108.27L325.09,108.19L333.96,106.08L334.16,106.07L340.82,106.7L341.02,106.75L352.11,110.54L352.31,110.61L365.62,114.87L365.82,114.92L390.02,119.76L390.23,119.79L430.16,123L430.36,123.01L462.62,123.63L462.83,123.63L484,123.6" style="vector-effect: none; fill: none; stroke: rgb(136, 136, 136); stroke-opacity: 1; stroke-width: 4px; opacity: 1;"/></g><g class="points"/><g class="text"/></g><g class="trace scatter trace2817c5" style="stroke-miterlimit: 2; opacity: 1;"><g class="fills"/><g class="errorbars"/><g class="lines"><path class="js-line" d="M0,194.19L249.26,193.19L249.46,193.18L365.02,192.18L365.22,192.17L444.27,191.19L444.47,191.19L484,191.09" style="vector-effect: none; fill: none; stroke: rgb(239, 138, 98); stroke-opacity: 1; stroke-width: 4px; opacity: 1;"/></g><g class="points"/><g class="text"/></g></g></g></g><g class="zerolinelayer-above"/><path class="xlines-above crisp" d="M0,0" style="fill: none;"/><path class="ylines-above crisp" d="M0,0" style="fill: none;"/><g class="overlines-above"/><g class="xaxislayer-above"><g class="xtick"><text text-anchor="middle" x="0" y="259" transform="translate(120,0)" style="font-family: 'Open Sans', verdana, arial, sans-serif; font-size: 15px; fill: rgb(42, 63, 95); fill-opacity: 1; white-space: pre;">0</text></g><g class="xtick"><text text-anchor="middle" x="0" y="259" style="font-family: 'Open Sans', verdana, arial, sans-serif; font-size: 15px; fill: rgb(42, 63, 95); fill-opacity: 1; white-space: pre;" transform="translate(200.67000000000002,0)">2</text></g><g class="xtick"><text text-anchor="middle" x="0" y="259" style="font-family: 'Open Sans', verdana, arial, sans-serif; font-size: 15px; fill: rgb(42, 63, 95); fill-opacity: 1; white-space: pre;" transform="translate(281.33000000000004,0)">4</text></g><g class="xtick"><text text-anchor="middle" x="0" y="259" style="font-family: 'Open Sans', verdana, arial, sans-serif; font-size: 15px; fill: rgb(42, 63, 95); fill-opacity: 1; white-space: pre;" transform="translate(362,0)">6</text></g><g class="xtick"><text text-anchor="middle" x="0" y="259" style="font-family: 'Open Sans', verdana, arial, sans-serif; font-size: 15px; fill: rgb(42, 63, 95); fill-opacity: 1; white-space: pre;" transform="translate(442.67,0)">8</text></g><g class="xtick"><text text-anchor="middle" x="0" y="259" style="font-family: 'Open Sans', verdana, arial, sans-serif; font-size: 15px; fill: rgb(42, 63, 95); fill-opacity: 1; white-space: pre;" transform="translate(523.3299999999999,0)">10</text></g><g class="xtick"><text text-anchor="middle" x="0" y="259" style="font-family: 'Open Sans', verdana, arial, sans-serif; font-size: 15px; fill: rgb(42, 63, 95); fill-opacity: 1; white-space: pre;" transform="translate(604,0)">12</text></g></g><g class="yaxislayer-above"><g class="ytick"><text text-anchor="end" x="119" y="5.25" transform="translate(0,233.45)" style="font-family: 'Open Sans', verdana, arial, sans-serif; font-size: 15px; fill: rgb(42, 63, 95); fill-opacity: 1; white-space: pre;">0</text></g><g class="ytick"><text text-anchor="end" x="119" y="5.25" style="font-family: 'Open Sans', verdana, arial, sans-serif; font-size: 15px; fill: rgb(42, 63, 95); fill-opacity: 1; white-space: pre;" transform="translate(0,193.37)">0.001</text></g><g class="ytick"><text text-anchor="end" x="119" y="5.25" style="font-family: 'Open Sans', verdana, arial, sans-serif; font-size: 15px; fill: rgb(42, 63, 95); fill-opacity: 1; white-space: pre;" transform="translate(0,153.29000000000002)">0.002</text></g><g class="ytick"><text text-anchor="end" x="119" y="5.25" style="font-family: 'Open Sans', verdana, arial, sans-serif; font-size: 15px; fill: rgb(42, 63, 95); fill-opacity: 1; white-space: pre;" transform="translate(0,113.2)">0.003</text></g><g class="ytick"><text text-anchor="end" x="119" y="5.25" style="font-family: 'Open Sans', verdana, arial, sans-serif; font-size: 15px; fill: rgb(42, 63, 95); fill-opacity: 1; white-space: pre;" transform="translate(0,73.12)">0.004</text></g></g><g class="overaxes-above"/></g></g><g class="polarlayer"/><g class="smithlayer"/><g class="ternarylayer"/><g class="geolayer"/><g class="funnelarealayer"/><g class="pielayer"/><g class="iciclelayer"/><g class="treemaplayer"/><g class="sunburstlayer"/><g class="glimages"/><defs id="topdefs-b55e6b"><g class="clips"/><clipPath id="legendb55e6b"><rect width="174" height="100" x="0" y="0"/></clipPath></defs><g class="layer-above"><g class="imagelayer"/><g class="shapelayer"/></g><g class="infolayer"><g class="legend" pointer-events="all" transform="translate(613.6800000000001,36)"><rect class="bg" shape-rendering="crispEdges" style="stroke: rgb(68, 68, 68); stroke-opacity: 1; fill: rgb(255, 255, 255); fill-opacity: 1; stroke-width: 0px;" width="174" height="100" x="0" y="0"/><g class="scrollbox" transform="" clip-path="url(#legendb55e6b)"><g class="groups"><g class="traces" transform="translate(0,16.25)" style="opacity: 1;"><text class="legendtext" text-anchor="start" x="40" y="5.85" style="font-family: 'Open Sans', verdana, arial, sans-serif; font-size: 15px; fill: rgb(42, 63, 95); fill-opacity: 1; white-space: pre;">DA (10:0.5)</text><g class="layers" style="opacity: 1;"><g class="legendfill"/><g class="legendlines"><path class="js-line" d="M5,0h30" style="fill: none; stroke: rgb(178, 24, 43); stroke-opacity: 1; stroke-width: 4px;"/></g><g class="legendsymbols"><g class="legendpoints"/></g></g><rect class="legendtoggle" x="0" y="-11.25" width="168.421875" height="22.5" style="fill: rgb(0, 0, 0); fill-opacity: 0;"/></g><g class="traces" transform="translate(0,38.75)" style="opacity: 1;"><text class="legendtext" text-anchor="start" x="40" y="5.85" style="font-family: 'Open Sans', verdana, arial, sans-serif; font-size: 15px; fill: rgb(42, 63, 95); fill-opacity: 1; white-space: pre;">cal (10:0.5)</text><g class="layers" style="opacity: 1;"><g class="legendfill"/><g class="legendlines"><path class="js-line" d="M5,0h30" style="fill: none; stroke: rgb(51, 51, 51); stroke-opacity: 1; stroke-width: 4px;"/></g><g class="legendsymbols"><g class="legendpoints"/></g></g><rect class="legendtoggle" x="0" y="-11.25" width="168.421875" height="22.5" style="fill: rgb(0, 0, 0); fill-opacity: 0;"/></g><g class="traces" transform="translate(0,61.25)" style="opacity: 1;"><text class="legendtext" text-anchor="start" x="40" y="5.85" style="font-family: 'Open Sans', verdana, arial, sans-serif; font-size: 15px; fill: rgb(42, 63, 95); fill-opacity: 1; white-space: pre;">PP1 (10:0.5)</text><g class="layers" style="opacity: 1;"><g class="legendfill"/><g class="legendlines"><path class="js-line" d="M5,0h30" style="fill: none; stroke: rgb(136, 136, 136); stroke-opacity: 1; stroke-width: 4px;"/></g><g class="legendsymbols"><g class="legendpoints"/></g></g><rect class="legendtoggle" x="0" y="-11.25" width="168.421875" height="22.5" style="fill: rgb(0, 0, 0); fill-opacity: 0;"/></g><g class="traces" transform="translate(0,83.75)" style="opacity: 1;"><text class="legendtext" text-anchor="start" x="40" y="5.85" style="font-family: 'Open Sans', verdana, arial, sans-serif; font-size: 15px; fill: rgb(42, 63, 95); fill-opacity: 1; white-space: pre;">pSubstrate (10:0.5)</text><g class="layers" style="opacity: 1;"><g class="legendfill"/><g class="legendlines"><path class="js-line" d="M5,0h30" style="fill: none; stroke: rgb(239, 138, 98); stroke-opacity: 1; stroke-width: 4px;"/></g><g class="legendsymbols"><g class="legendpoints"/></g></g><rect class="legendtoggle" x="0" y="-11.25" width="168.421875" height="22.5" style="fill: rgb(0, 0, 0); fill-opacity: 0;"/></g></g></g><rect class="scrollbar" rx="20" ry="3" width="0" height="0" style="fill: rgb(128, 139, 164); fill-opacity: 1;" x="0" y="0"/></g><g class="g-gtitle"><text class="gtitle" x="400" y="30" text-anchor="middle" dy="0.7em" style="opacity: 1; font-family: 'Open Sans', verdana, arial, sans-serif; font-size: 20px; fill: rgb(42, 63, 95); fill-opacity: 1; white-space: pre;">Plasiticity at Δt = 3s</text></g><g class="g-xtitle"><text class="xtitle" x="362" y="287" text-anchor="middle" style="opacity: 1; font-family: 'Open Sans', verdana, arial, sans-serif; font-size: 15px; fill: rgb(42, 63, 95); fill-opacity: 1; white-space: pre;">Time (s)</text></g><g class="g-ytitle"><text class="ytitle" transform="rotate(-90,61.703125,139.5)" x="61.703125" y="139.5" text-anchor="middle" style="opacity: 1; font-family: 'Open Sans', verdana, arial, sans-serif; font-size: 15px; fill: rgb(42, 63, 95); fill-opacity: 1; white-space: pre;">Concentration (mM)</text></g></g></svg>