<svg class="main-svg" xmlns="http://www.w3.org/2000/svg" xmlns:xlink="http://www.w3.org/1999/xlink" width="800" height="300" style="" viewBox="0 0 800 300"><rect x="0" y="0" width="800" height="300" style="fill: rgb(255, 255, 255); fill-opacity: 1;"/><defs id="defs-5d7afa"><g class="clips"><clipPath id="clip5d7afaxyplot" class="plotclip"><rect width="484" height="207"/></clipPath><clipPath class="axesclip" id="clip5d7afax"><rect x="120" y="0" width="484" height="300"/></clipPath><clipPath class="axesclip" id="clip5d7afay"><rect x="0" y="36" width="800" height="207"/></clipPath><clipPath class="axesclip" id="clip5d7afaxy"><rect x="120" y="36" width="484" height="207"/></clipPath></g><g class="gradients"/><g class="patterns"/></defs><g class="bglayer"/><g class="layer-below"><g class="imagelayer"/><g class="shapelayer"/></g><g class="cartesianlayer"><g class="subplot xy"><g class="layer-subplot"><g class="shapelayer"/><g class="imagelayer"/></g><g class="minor-gridlayer"><g class="x"/><g class="y"/></g><g class="gridlayer"><g class="x"><path class="xgrid crisp" transform="translate(200.67000000000002,0)" d="M0,36v207" style="stroke: rgb(255, 255, 255); stroke-opacity: 1; stroke-width: 1px;"/><path class="xgrid crisp" transform="translate(281.33000000000004,0)" d="M0,36v207" style="stroke: rgb(255, 255, 255); stroke-opacity: 1; stroke-width: 1px;"/><path class="xgrid crisp" transform="translate(362,0)" d="M0,36v207" style="stroke: rgb(255, 255, 255); stroke-opacity: 1; stroke-width: 1px;"/><path class="xgrid crisp" transform="translate(442.67,0)" d="M0,36v207" style="stroke: rgb(255, 255, 255); stroke-opacity: 1; stroke-width: 1px;"/><path class="xgrid crisp" transform="translate(523.3299999999999,0)" d="M0,36v207" style="stroke: rgb(255, 255, 255); stroke-opacity: 1; stroke-width: 1px;"/></g><g class="y"><path class="ygrid crisp" transform="translate(0,193.37)" d="M120,0h484" style="stroke: rgb(255, 255, 255); stroke-opacity: 1; stroke-width: 1px;"/><path class="ygrid crisp" transform="translate(0,153.29000000000002)" d="M120,0h484" style="stroke: rgb(255, 255, 255); stroke-opacity: 1; stroke-width: 1px;"/><path class="ygrid crisp" transform="translate(0,113.2)" d="M120,0h484" style="stroke: rgb(255, 255, 255); stroke-opacity: 1; stroke-width: 1px;"/><path class="ygrid crisp" transform="translate(0,73.12)" d="M120,0h484" style="stroke: rgb(255, 255, 255); stroke-opacity: 1; stroke-width: 1px;"/></g></g><g class="zerolinelayer"><path class="xzl zl crisp" transform="translate(120,0)" d="M0,36v207" style="stroke: rgb(255, 255, 255); stroke-opacity: 1; stroke-width: 2px;"/><path class="yzl zl crisp" transform="translate(0,233.45)" d="M120,0h484" style="stroke: rgb(255, 255, 255); stroke-opacity: 1; stroke-width: 2px;"/></g><g class="layer-between"><g class="shapelayer"/><g class="imagelayer"/></g><path class="xlines-below"/><path class="ylines-below"/><g class="overlines-below"/><g class="xaxislayer-below"/><g class="yaxislayer-below"/><g class="overaxes-below"/><g class="overplot"><g class="xy" transform="translate(120,36)" clip-path="url(#clip5d7afaxyplot)"><g class="scatterlayer mlayer"><g class="trace scatter traceeafa70" style="stroke-miterlimit: 2; opacity: 1;"><g class="fills"/><g class="errorbars"/><g class="lines"><path class="js-line" d="M0,196.65L1.01,194.65L1.21,194.65L161.33,194.65L161.54,187.66L163.55,148.46L163.75,147.5L164.56,143.68L165.17,144.87L165.37,145.26L169.8,156.2L170.01,156.73L175.65,169.12L175.85,169.54L181.3,178.51L181.5,178.83L188.36,187.74L188.56,187.93L196.02,193.4L196.22,193.42L233.73,194.65L233.93,194.65L484,194.65" style="vector-effect: none; fill: none; stroke: rgb(178, 24, 43); stroke-opacity: 1; stroke-width: 4px; opacity: 1;"/></g><g class="points"/><g class="text"/></g><g class="trace scatter trace4343f7" style="stroke-miterlimit: 2; opacity: 1;"><g class="fills"/><g class="errorbars"/><g class="lines"><path class="js-line" d="M0,195.05L5.65,194.64L5.85,194.64L201.87,194.62L202.07,168.25L202.88,149.25L203.28,149.69L203.48,150.26L205.9,161.53L206.1,124.76L206.91,99.95L207.31,102.09L207.52,103.69L209.94,128.56L210.14,88.75L210.74,63.76L211.35,68.49L211.55,71.09L213.97,106.89L214.17,65.95L214.78,41.5L215.18,45.2L215.38,48.17L218,94.21L218.2,52.59L218.81,28.48L219.21,32.94L219.41,36.31L222.04,86.87L222.24,44.8L222.84,20.86L223.25,25.75L223.45,29.36L226.07,82.56L226.27,40.21L226.88,16.33L227.28,21.49L227.48,25.23L230.1,80L230.3,37.46L230.91,13.61L231.31,18.92L231.51,22.75L234.14,78.45L234.34,35.8L234.94,11.97L235.35,17.37L235.55,21.24L238.17,77.51L238.37,34.79L238.98,10.96L239.38,16.42L239.58,20.33L242.2,76.94L242.4,34.17L243.01,10.35L243.41,15.84L243.61,19.76L250.47,142.06L250.67,144.21L254.3,171.76L254.5,172.79L258.13,185.43L258.34,185.88L261.76,190.97L261.97,191.15L265.8,193.31L266,193.38L272.65,194.36L272.86,194.37L297.66,194.62L297.86,194.62L484,194.62" style="vector-effect: none; fill: none; stroke: rgb(51, 51, 51); stroke-opacity: 1; stroke-width: 4px; opacity: 1;"/></g><g class="points"/><g class="text"/></g><g class="trace scatter trace9d862a" style="stroke-miterlimit: 2; opacity: 1;"><g class="fills"/><g class="errorbars"/><g class="lines"><path class="js-line" d="M0,88.01L112.13,88.85L112.33,88.86L135.92,89.86L136.13,89.87L176.86,92.89L177.06,92.93L185.94,96.04L186.14,96.14L196.63,101.94L196.83,102.06L203.48,104.89L203.68,104.86L229.7,100.84L229.9,100.83L249.26,100.81L249.46,100.84L256.12,102.8L256.32,102.9L262.17,106.62L262.37,106.77L286.57,125.13L286.77,125.25L298.47,131.13L298.67,131.22L312.58,135.73L312.79,135.78L327.1,138.33L327.31,138.35L341.22,139.44L341.42,139.45L362.6,139.52L362.8,139.51L423.9,135.58L424.11,135.56L472.3,131.74L472.51,131.73L484,130.88" style="vector-effect: none; fill: none; stroke: rgb(136, 136, 136); stroke-opacity: 1; stroke-width: 4px; opacity: 1;"/></g><g class="points"/><g class="text"/></g><g class="trace scatter traceb853df" style="stroke-miterlimit: 2; opacity: 1;"><g class="fills"/><g class="errorbars"/><g class="lines"><path class="js-line" d="M0,194.19L218,193.19L218.2,193.18L236.56,192.42L236.76,192.42L363,187.1L363.2,187.1L391.23,186.69L391.44,186.69L475.93,187.66L476.14,187.67L484,187.84" style="vector-effect: none; fill: none; stroke: rgb(239, 138, 98); stroke-opacity: 1; stroke-width: 4px; opacity: 1;"/></g><g class="points"/><g class="text"/></g></g></g></g><g class="zerolinelayer-above"/><path class="xlines-above crisp" d="M0,0" style="fill: none;"/><path class="ylines-above crisp" d="M0,0" style="fill: none;"/><g class="overlines-above"/><g class="xaxislayer-above"><g class="xtick"><text text-anchor="middle" x="0" y="259" transform="translate(120,0)" style="font-family: 'Open Sans', verdana, arial, sans-serif; font-size: 15px; fill: rgb(42, 63, 95); fill-opacity: 1; white-space: pre;">0</text></g><g class="xtick"><text text-anchor="middle" x="0" y="259" style="font-family: 'Open Sans', verdana, arial, sans-serif; font-size: 15px; fill: rgb(42, 63, 95); fill-opacity: 1; white-space: pre;" transform="translate(200.67000000000002,0)">2</text></g><g class="xtick"><text text-anchor="middle" x="0" y="259" style="font-family: 'Open Sans', verdana, arial, sans-serif; font-size: 15px; fill: rgb(42, 63, 95); fill-opacity: 1; white-space: pre;" transform="translate(281.33000000000004,0)">4</text></g><g class="xtick"><text text-anchor="middle" x="0" y="259" style="font-family: 'Open Sans', verdana, arial, sans-serif; font-size: 15px; fill: rgb(42, 63, 95); fill-opacity: 1; white-space: pre;" transform="translate(362,0)">6</text></g><g class="xtick"><text text-anchor="middle" x="0" y="259" style="font-family: 'Open Sans', verdana, arial, sans-serif; font-size: 15px; fill: rgb(42, 63, 95); fill-opacity: 1; white-space: pre;" transform="translate(442.67,0)">8</text></g><g class="xtick"><text text-anchor="middle" x="0" y="259" style="font-family: 'Open Sans', verdana, arial, sans-serif; font-size: 15px; fill: rgb(42, 63, 95); fill-opacity: 1; white-space: pre;" transform="translate(523.3299999999999,0)">10</text></g><g class="xtick"><text text-anchor="middle" x="0" y="259" style="font-family: 'Open Sans', verdana, arial, sans-serif; font-size: 15px; fill: rgb(42, 63, 95); fill-opacity: 1; white-space: pre;" transform="translate(604,0)">12</text></g></g><g class="yaxislayer-above"><g class="ytick"><text text-anchor="end" x="119" y="5.25" transform="translate(0,233.45)" style="font-family: 'Open Sans', verdana, arial, sans-serif; font-size: 15px; fill: rgb(42, 63, 95); fill-opacity: 1; white-space: pre;">0</text></g><g class="ytick"><text text-anchor="end" x="119" y="5.25" style="font-family: 'Open Sans', verdana, arial, sans-serif; font-size: 15px; fill: rgb(42, 63, 95); fill-opacity: 1; white-space: pre;" transform="translate(0,193.37)">0.001</text></g><g class="ytick"><text text-anchor="end" x="119" y="5.25" style="font-family: 'Open Sans', verdana, arial, sans-serif; font-size: 15px; fill: rgb(42, 63, 95); fill-opacity: 1; white-space: pre;" transform="translate(0,153.29000000000002)">0.002</text></g><g class="ytick"><text text-anchor="end" x="119" y="5.25" style="font-family: 'Open Sans', verdana, arial, sans-serif; font-size: 15px; fill: rgb(42, 63, 95); fill-opacity: 1; white-space: pre;" transform="translate(0,113.2)">0.003</text></g><g class="ytick"><text text-anchor="end" x="119" y="5.25" style="font-family: 'Open Sans', verdana, arial, sans-serif; font-size: 15px; fill: rgb(42, 63, 95); fill-opacity: 1; white-space: pre;" transform="translate(0,73.12)">0.004</text></g></g><g class="overaxes-above"/></g></g><g class="polarlayer"/><g class="smithlayer"/><g class="ternarylayer"/><g class="geolayer"/><g class="funnelarealayer"/><g class="pielayer"/><g class="iciclelayer"/><g class="treemaplayer"/><g class="sunburstlayer"/><g class="glimages"/><defs id="topdefs-5d7afa"><g class="clips"/><clipPath id="legend5d7afa"><rect width="174" height="100" x="0" y="0"/></clipPath></defs><g class="layer-above"><g class="imagelayer"/><g class="shapelayer"/></g><g class="infolayer"><g class="legend" pointer-events="all" transform="translate(613.6800000000001,36)"><rect class="bg" shape-rendering="crispEdges" style="stroke: rgb(68, 68, 68); stroke-opacity: 1; fill: rgb(255, 255, 255); fill-opacity: 1; stroke-width: 0px;" width="174" height="100" x="0" y="0"/><g class="scrollbox" transform="" clip-path="url(#legend5d7afa)"><g class="groups"><g class="traces" transform="translate(0,16.25)" style="opacity: 1;"><text class="legendtext" text-anchor="start" x="40" y="5.85" style="font-family: 'Open Sans', verdana, arial, sans-serif; font-size: 15px; fill: rgb(42, 63, 95); fill-opacity: 1; white-space: pre;">DA (10:0.5)</text><g class="layers" style="opacity: 1;"><g class="legendfill"/><g class="legendlines"><path class="js-line" d="M5,0h30" style="fill: none; stroke: rgb(178, 24, 43); stroke-opacity: 1; stroke-width: 4px;"/></g><g class="legendsymbols"><g class="legendpoints"/></g></g><rect class="legendtoggle" x="0" y="-11.25" width="168.421875" height="22.5" style="fill: rgb(0, 0, 0); fill-opacity: 0;"/></g><g class="traces" transform="translate(0,38.75)" style="opacity: 1;"><text class="legendtext" text-anchor="start" x="40" y="5.85" style="font-family: 'Open Sans', verdana, arial, sans-serif; font-size: 15px; fill: rgb(42, 63, 95); fill-opacity: 1; white-space: pre;">cal (10:0.5)</text><g class="layers" style="opacity: 1;"><g class="legendfill"/><g class="legendlines"><path class="js-line" d="M5,0h30" style="fill: none; stroke: rgb(51, 51, 51); stroke-opacity: 1; stroke-width: 4px;"/></g><g class="legendsymbols"><g class="legendpoints"/></g></g><rect class="legendtoggle" x="0" y="-11.25" width="168.421875" height="22.5" style="fill: rgb(0, 0, 0); fill-opacity: 0;"/></g><g class="traces" transform="translate(0,61.25)" style="opacity: 1;"><text class="legendtext" text-anchor="start" x="40" y="5.85" style="font-family: 'Open Sans', verdana, arial, sans-serif; font-size: 15px; fill: rgb(42, 63, 95); fill-opacity: 1; white-space: pre;">PP1 (10:0.5)</text><g class="layers" style="opacity: 1;"><g class="legendfill"/><g class="legendlines"><path class="js-line" d="M5,0h30" style="fill: none; stroke: rgb(136, 136, 136); stroke-opacity: 1; stroke-width: 4px;"/></g><g class="legendsymbols"><g class="legendpoints"/></g></g><rect class="legendtoggle" x="0" y="-11.25" width="168.421875" height="22.5" style="fill: rgb(0, 0, 0); fill-opacity: 0;"/></g><g class="traces" transform="translate(0,83.75)" style="opacity: 1;"><text class="legendtext" text-anchor="start" x="40" y="5.85" style="font-family: 'Open Sans', verdana, arial, sans-serif; font-size: 15px; fill: rgb(42, 63, 95); fill-opacity: 1; white-space: pre;">pSubstrate (10:0.5)</text><g class="layers" style="opacity: 1;"><g class="legendfill"/><g class="legendlines"><path class="js-line" d="M5,0h30" style="fill: none; stroke: rgb(239, 138, 98); stroke-opacity: 1; stroke-width: 4px;"/></g><g class="legendsymbols"><g class="legendpoints"/></g></g><rect class="legendtoggle" x="0" y="-11.25" width="168.421875" height="22.5" style="fill: rgb(0, 0, 0); fill-opacity: 0;"/></g></g></g><rect class="scrollbar" rx="20" ry="3" width="0" height="0" style="fill: rgb(128, 139, 164); fill-opacity: 1;" x="0" y="0"/></g><g class="g-gtitle"><text class="gtitle" x="400" y="30" text-anchor="middle" dy="0.7em" style="opacity: 1; font-family: 'Open Sans', verdana, arial, sans-serif; font-size: 20px; fill: rgb(42, 63, 95); fill-opacity: 1; white-space: pre;">Plasiticity at Δt = 1s</text></g><g class="g-xtitle"><text class="xtitle" x="362" y="287" text-anchor="middle" style="opacity: 1; font-family: 'Open Sans', verdana, arial, sans-serif; font-size: 15px; fill: rgb(42, 63, 95); fill-opacity: 1; white-space: pre;">Time (s)</text></g><g class="g-ytitle"><text class="ytitle" transform="rotate(-90,61.703125,139.5)" x="61.703125" y="139.5" text-anchor="middle" style="opacity: 1; font-family: 'Open Sans', verdana, arial, sans-serif; font-size: 15px; fill: rgb(42, 63, 95); fill-opacity: 1; white-space: pre;">Concentration (mM)</text></g></g></svg>